%TF.GenerationSoftware,KiCad,Pcbnew,8.0.7*%
%TF.CreationDate,2025-01-03T12:22:39+02:00*%
%TF.ProjectId,debugger,64656275-6767-4657-922e-6b696361645f,rev?*%
%TF.SameCoordinates,Original*%
%TF.FileFunction,Legend,Bot*%
%TF.FilePolarity,Positive*%
%FSLAX46Y46*%
G04 Gerber Fmt 4.6, Leading zero omitted, Abs format (unit mm)*
G04 Created by KiCad (PCBNEW 8.0.7) date 2025-01-03 12:22:39*
%MOMM*%
%LPD*%
G01*
G04 APERTURE LIST*
%ADD10C,0.150000*%
%ADD11C,0.100000*%
%ADD12C,0.000000*%
%ADD13C,0.120000*%
%ADD14O,1.700000X1.700000*%
%ADD15R,1.700000X1.700000*%
%ADD16C,1.200000*%
G04 APERTURE END LIST*
D10*
X141605611Y-105675350D02*
X142172278Y-105675350D01*
X142172278Y-105675350D02*
X142238944Y-105708684D01*
X142238944Y-105708684D02*
X142272278Y-105742017D01*
X142272278Y-105742017D02*
X142305611Y-105808684D01*
X142305611Y-105808684D02*
X142305611Y-105942017D01*
X142305611Y-105942017D02*
X142272278Y-106008684D01*
X142272278Y-106008684D02*
X142238944Y-106042017D01*
X142238944Y-106042017D02*
X142172278Y-106075350D01*
X142172278Y-106075350D02*
X141605611Y-106075350D01*
X142238944Y-106808683D02*
X142272278Y-106775350D01*
X142272278Y-106775350D02*
X142305611Y-106675350D01*
X142305611Y-106675350D02*
X142305611Y-106608683D01*
X142305611Y-106608683D02*
X142272278Y-106508683D01*
X142272278Y-106508683D02*
X142205611Y-106442017D01*
X142205611Y-106442017D02*
X142138944Y-106408683D01*
X142138944Y-106408683D02*
X142005611Y-106375350D01*
X142005611Y-106375350D02*
X141905611Y-106375350D01*
X141905611Y-106375350D02*
X141772278Y-106408683D01*
X141772278Y-106408683D02*
X141705611Y-106442017D01*
X141705611Y-106442017D02*
X141638944Y-106508683D01*
X141638944Y-106508683D02*
X141605611Y-106608683D01*
X141605611Y-106608683D02*
X141605611Y-106675350D01*
X141605611Y-106675350D02*
X141638944Y-106775350D01*
X141638944Y-106775350D02*
X141672278Y-106808683D01*
X141605611Y-107008683D02*
X141605611Y-107408683D01*
X142305611Y-107208683D02*
X141605611Y-107208683D01*
X142305611Y-108175349D02*
X141605611Y-108175349D01*
X141605611Y-108175349D02*
X141605611Y-108342016D01*
X141605611Y-108342016D02*
X141638944Y-108442016D01*
X141638944Y-108442016D02*
X141705611Y-108508683D01*
X141705611Y-108508683D02*
X141772278Y-108542016D01*
X141772278Y-108542016D02*
X141905611Y-108575349D01*
X141905611Y-108575349D02*
X142005611Y-108575349D01*
X142005611Y-108575349D02*
X142138944Y-108542016D01*
X142138944Y-108542016D02*
X142205611Y-108508683D01*
X142205611Y-108508683D02*
X142272278Y-108442016D01*
X142272278Y-108442016D02*
X142305611Y-108342016D01*
X142305611Y-108342016D02*
X142305611Y-108175349D01*
X142272278Y-109142016D02*
X142305611Y-109075349D01*
X142305611Y-109075349D02*
X142305611Y-108942016D01*
X142305611Y-108942016D02*
X142272278Y-108875349D01*
X142272278Y-108875349D02*
X142205611Y-108842016D01*
X142205611Y-108842016D02*
X141938944Y-108842016D01*
X141938944Y-108842016D02*
X141872278Y-108875349D01*
X141872278Y-108875349D02*
X141838944Y-108942016D01*
X141838944Y-108942016D02*
X141838944Y-109075349D01*
X141838944Y-109075349D02*
X141872278Y-109142016D01*
X141872278Y-109142016D02*
X141938944Y-109175349D01*
X141938944Y-109175349D02*
X142005611Y-109175349D01*
X142005611Y-109175349D02*
X142072278Y-108842016D01*
X142305611Y-109475349D02*
X141605611Y-109475349D01*
X141872278Y-109475349D02*
X141838944Y-109542016D01*
X141838944Y-109542016D02*
X141838944Y-109675349D01*
X141838944Y-109675349D02*
X141872278Y-109742016D01*
X141872278Y-109742016D02*
X141905611Y-109775349D01*
X141905611Y-109775349D02*
X141972278Y-109808683D01*
X141972278Y-109808683D02*
X142172278Y-109808683D01*
X142172278Y-109808683D02*
X142238944Y-109775349D01*
X142238944Y-109775349D02*
X142272278Y-109742016D01*
X142272278Y-109742016D02*
X142305611Y-109675349D01*
X142305611Y-109675349D02*
X142305611Y-109542016D01*
X142305611Y-109542016D02*
X142272278Y-109475349D01*
X141838944Y-110408682D02*
X142305611Y-110408682D01*
X141838944Y-110108682D02*
X142205611Y-110108682D01*
X142205611Y-110108682D02*
X142272278Y-110142016D01*
X142272278Y-110142016D02*
X142305611Y-110208682D01*
X142305611Y-110208682D02*
X142305611Y-110308682D01*
X142305611Y-110308682D02*
X142272278Y-110375349D01*
X142272278Y-110375349D02*
X142238944Y-110408682D01*
X141838944Y-111042015D02*
X142405611Y-111042015D01*
X142405611Y-111042015D02*
X142472278Y-111008682D01*
X142472278Y-111008682D02*
X142505611Y-110975349D01*
X142505611Y-110975349D02*
X142538944Y-110908682D01*
X142538944Y-110908682D02*
X142538944Y-110808682D01*
X142538944Y-110808682D02*
X142505611Y-110742015D01*
X142272278Y-111042015D02*
X142305611Y-110975349D01*
X142305611Y-110975349D02*
X142305611Y-110842015D01*
X142305611Y-110842015D02*
X142272278Y-110775349D01*
X142272278Y-110775349D02*
X142238944Y-110742015D01*
X142238944Y-110742015D02*
X142172278Y-110708682D01*
X142172278Y-110708682D02*
X141972278Y-110708682D01*
X141972278Y-110708682D02*
X141905611Y-110742015D01*
X141905611Y-110742015D02*
X141872278Y-110775349D01*
X141872278Y-110775349D02*
X141838944Y-110842015D01*
X141838944Y-110842015D02*
X141838944Y-110975349D01*
X141838944Y-110975349D02*
X141872278Y-111042015D01*
X141838944Y-111675348D02*
X142405611Y-111675348D01*
X142405611Y-111675348D02*
X142472278Y-111642015D01*
X142472278Y-111642015D02*
X142505611Y-111608682D01*
X142505611Y-111608682D02*
X142538944Y-111542015D01*
X142538944Y-111542015D02*
X142538944Y-111442015D01*
X142538944Y-111442015D02*
X142505611Y-111375348D01*
X142272278Y-111675348D02*
X142305611Y-111608682D01*
X142305611Y-111608682D02*
X142305611Y-111475348D01*
X142305611Y-111475348D02*
X142272278Y-111408682D01*
X142272278Y-111408682D02*
X142238944Y-111375348D01*
X142238944Y-111375348D02*
X142172278Y-111342015D01*
X142172278Y-111342015D02*
X141972278Y-111342015D01*
X141972278Y-111342015D02*
X141905611Y-111375348D01*
X141905611Y-111375348D02*
X141872278Y-111408682D01*
X141872278Y-111408682D02*
X141838944Y-111475348D01*
X141838944Y-111475348D02*
X141838944Y-111608682D01*
X141838944Y-111608682D02*
X141872278Y-111675348D01*
X142272278Y-112275348D02*
X142305611Y-112208681D01*
X142305611Y-112208681D02*
X142305611Y-112075348D01*
X142305611Y-112075348D02*
X142272278Y-112008681D01*
X142272278Y-112008681D02*
X142205611Y-111975348D01*
X142205611Y-111975348D02*
X141938944Y-111975348D01*
X141938944Y-111975348D02*
X141872278Y-112008681D01*
X141872278Y-112008681D02*
X141838944Y-112075348D01*
X141838944Y-112075348D02*
X141838944Y-112208681D01*
X141838944Y-112208681D02*
X141872278Y-112275348D01*
X141872278Y-112275348D02*
X141938944Y-112308681D01*
X141938944Y-112308681D02*
X142005611Y-112308681D01*
X142005611Y-112308681D02*
X142072278Y-111975348D01*
X142305611Y-112608681D02*
X141838944Y-112608681D01*
X141972278Y-112608681D02*
X141905611Y-112642015D01*
X141905611Y-112642015D02*
X141872278Y-112675348D01*
X141872278Y-112675348D02*
X141838944Y-112742015D01*
X141838944Y-112742015D02*
X141838944Y-112808681D01*
X141605611Y-113475347D02*
X142305611Y-113708681D01*
X142305611Y-113708681D02*
X141605611Y-113942014D01*
X141672278Y-114142014D02*
X141638944Y-114175347D01*
X141638944Y-114175347D02*
X141605611Y-114242014D01*
X141605611Y-114242014D02*
X141605611Y-114408681D01*
X141605611Y-114408681D02*
X141638944Y-114475347D01*
X141638944Y-114475347D02*
X141672278Y-114508681D01*
X141672278Y-114508681D02*
X141738944Y-114542014D01*
X141738944Y-114542014D02*
X141805611Y-114542014D01*
X141805611Y-114542014D02*
X141905611Y-114508681D01*
X141905611Y-114508681D02*
X142305611Y-114108681D01*
X142305611Y-114108681D02*
X142305611Y-114542014D01*
X142238944Y-114842014D02*
X142272278Y-114875348D01*
X142272278Y-114875348D02*
X142305611Y-114842014D01*
X142305611Y-114842014D02*
X142272278Y-114808681D01*
X142272278Y-114808681D02*
X142238944Y-114842014D01*
X142238944Y-114842014D02*
X142305611Y-114842014D01*
X142305611Y-115542014D02*
X142305611Y-115142014D01*
X142305611Y-115342014D02*
X141605611Y-115342014D01*
X141605611Y-115342014D02*
X141705611Y-115275347D01*
X141705611Y-115275347D02*
X141772278Y-115208681D01*
X141772278Y-115208681D02*
X141805611Y-115142014D01*
X143432572Y-105675350D02*
X142732572Y-105675350D01*
X142732572Y-105675350D02*
X142732572Y-105842017D01*
X142732572Y-105842017D02*
X142765905Y-105942017D01*
X142765905Y-105942017D02*
X142832572Y-106008684D01*
X142832572Y-106008684D02*
X142899239Y-106042017D01*
X142899239Y-106042017D02*
X143032572Y-106075350D01*
X143032572Y-106075350D02*
X143132572Y-106075350D01*
X143132572Y-106075350D02*
X143265905Y-106042017D01*
X143265905Y-106042017D02*
X143332572Y-106008684D01*
X143332572Y-106008684D02*
X143399239Y-105942017D01*
X143399239Y-105942017D02*
X143432572Y-105842017D01*
X143432572Y-105842017D02*
X143432572Y-105675350D01*
X143399239Y-106642017D02*
X143432572Y-106575350D01*
X143432572Y-106575350D02*
X143432572Y-106442017D01*
X143432572Y-106442017D02*
X143399239Y-106375350D01*
X143399239Y-106375350D02*
X143332572Y-106342017D01*
X143332572Y-106342017D02*
X143065905Y-106342017D01*
X143065905Y-106342017D02*
X142999239Y-106375350D01*
X142999239Y-106375350D02*
X142965905Y-106442017D01*
X142965905Y-106442017D02*
X142965905Y-106575350D01*
X142965905Y-106575350D02*
X142999239Y-106642017D01*
X142999239Y-106642017D02*
X143065905Y-106675350D01*
X143065905Y-106675350D02*
X143132572Y-106675350D01*
X143132572Y-106675350D02*
X143199239Y-106342017D01*
X143399239Y-106942017D02*
X143432572Y-107008684D01*
X143432572Y-107008684D02*
X143432572Y-107142017D01*
X143432572Y-107142017D02*
X143399239Y-107208684D01*
X143399239Y-107208684D02*
X143332572Y-107242017D01*
X143332572Y-107242017D02*
X143299239Y-107242017D01*
X143299239Y-107242017D02*
X143232572Y-107208684D01*
X143232572Y-107208684D02*
X143199239Y-107142017D01*
X143199239Y-107142017D02*
X143199239Y-107042017D01*
X143199239Y-107042017D02*
X143165905Y-106975350D01*
X143165905Y-106975350D02*
X143099239Y-106942017D01*
X143099239Y-106942017D02*
X143065905Y-106942017D01*
X143065905Y-106942017D02*
X142999239Y-106975350D01*
X142999239Y-106975350D02*
X142965905Y-107042017D01*
X142965905Y-107042017D02*
X142965905Y-107142017D01*
X142965905Y-107142017D02*
X142999239Y-107208684D01*
X143432572Y-107542017D02*
X142965905Y-107542017D01*
X142732572Y-107542017D02*
X142765905Y-107508684D01*
X142765905Y-107508684D02*
X142799239Y-107542017D01*
X142799239Y-107542017D02*
X142765905Y-107575351D01*
X142765905Y-107575351D02*
X142732572Y-107542017D01*
X142732572Y-107542017D02*
X142799239Y-107542017D01*
X142965905Y-108175350D02*
X143532572Y-108175350D01*
X143532572Y-108175350D02*
X143599239Y-108142017D01*
X143599239Y-108142017D02*
X143632572Y-108108684D01*
X143632572Y-108108684D02*
X143665905Y-108042017D01*
X143665905Y-108042017D02*
X143665905Y-107942017D01*
X143665905Y-107942017D02*
X143632572Y-107875350D01*
X143399239Y-108175350D02*
X143432572Y-108108684D01*
X143432572Y-108108684D02*
X143432572Y-107975350D01*
X143432572Y-107975350D02*
X143399239Y-107908684D01*
X143399239Y-107908684D02*
X143365905Y-107875350D01*
X143365905Y-107875350D02*
X143299239Y-107842017D01*
X143299239Y-107842017D02*
X143099239Y-107842017D01*
X143099239Y-107842017D02*
X143032572Y-107875350D01*
X143032572Y-107875350D02*
X142999239Y-107908684D01*
X142999239Y-107908684D02*
X142965905Y-107975350D01*
X142965905Y-107975350D02*
X142965905Y-108108684D01*
X142965905Y-108108684D02*
X142999239Y-108175350D01*
X142965905Y-108508683D02*
X143432572Y-108508683D01*
X143032572Y-108508683D02*
X142999239Y-108542017D01*
X142999239Y-108542017D02*
X142965905Y-108608683D01*
X142965905Y-108608683D02*
X142965905Y-108708683D01*
X142965905Y-108708683D02*
X142999239Y-108775350D01*
X142999239Y-108775350D02*
X143065905Y-108808683D01*
X143065905Y-108808683D02*
X143432572Y-108808683D01*
X143399239Y-109408683D02*
X143432572Y-109342016D01*
X143432572Y-109342016D02*
X143432572Y-109208683D01*
X143432572Y-109208683D02*
X143399239Y-109142016D01*
X143399239Y-109142016D02*
X143332572Y-109108683D01*
X143332572Y-109108683D02*
X143065905Y-109108683D01*
X143065905Y-109108683D02*
X142999239Y-109142016D01*
X142999239Y-109142016D02*
X142965905Y-109208683D01*
X142965905Y-109208683D02*
X142965905Y-109342016D01*
X142965905Y-109342016D02*
X142999239Y-109408683D01*
X142999239Y-109408683D02*
X143065905Y-109442016D01*
X143065905Y-109442016D02*
X143132572Y-109442016D01*
X143132572Y-109442016D02*
X143199239Y-109108683D01*
X143432572Y-110042016D02*
X142732572Y-110042016D01*
X143399239Y-110042016D02*
X143432572Y-109975350D01*
X143432572Y-109975350D02*
X143432572Y-109842016D01*
X143432572Y-109842016D02*
X143399239Y-109775350D01*
X143399239Y-109775350D02*
X143365905Y-109742016D01*
X143365905Y-109742016D02*
X143299239Y-109708683D01*
X143299239Y-109708683D02*
X143099239Y-109708683D01*
X143099239Y-109708683D02*
X143032572Y-109742016D01*
X143032572Y-109742016D02*
X142999239Y-109775350D01*
X142999239Y-109775350D02*
X142965905Y-109842016D01*
X142965905Y-109842016D02*
X142965905Y-109975350D01*
X142965905Y-109975350D02*
X142999239Y-110042016D01*
X143065905Y-111142016D02*
X143099239Y-111242016D01*
X143099239Y-111242016D02*
X143132572Y-111275349D01*
X143132572Y-111275349D02*
X143199239Y-111308682D01*
X143199239Y-111308682D02*
X143299239Y-111308682D01*
X143299239Y-111308682D02*
X143365905Y-111275349D01*
X143365905Y-111275349D02*
X143399239Y-111242016D01*
X143399239Y-111242016D02*
X143432572Y-111175349D01*
X143432572Y-111175349D02*
X143432572Y-110908682D01*
X143432572Y-110908682D02*
X142732572Y-110908682D01*
X142732572Y-110908682D02*
X142732572Y-111142016D01*
X142732572Y-111142016D02*
X142765905Y-111208682D01*
X142765905Y-111208682D02*
X142799239Y-111242016D01*
X142799239Y-111242016D02*
X142865905Y-111275349D01*
X142865905Y-111275349D02*
X142932572Y-111275349D01*
X142932572Y-111275349D02*
X142999239Y-111242016D01*
X142999239Y-111242016D02*
X143032572Y-111208682D01*
X143032572Y-111208682D02*
X143065905Y-111142016D01*
X143065905Y-111142016D02*
X143065905Y-110908682D01*
X142965905Y-111542016D02*
X143432572Y-111708682D01*
X142965905Y-111875349D02*
X143432572Y-111708682D01*
X143432572Y-111708682D02*
X143599239Y-111642016D01*
X143599239Y-111642016D02*
X143632572Y-111608682D01*
X143632572Y-111608682D02*
X143665905Y-111542016D01*
X143365905Y-112142015D02*
X143399239Y-112175349D01*
X143399239Y-112175349D02*
X143432572Y-112142015D01*
X143432572Y-112142015D02*
X143399239Y-112108682D01*
X143399239Y-112108682D02*
X143365905Y-112142015D01*
X143365905Y-112142015D02*
X143432572Y-112142015D01*
X142999239Y-112142015D02*
X143032572Y-112175349D01*
X143032572Y-112175349D02*
X143065905Y-112142015D01*
X143065905Y-112142015D02*
X143032572Y-112108682D01*
X143032572Y-112108682D02*
X142999239Y-112142015D01*
X142999239Y-112142015D02*
X143065905Y-112142015D01*
X143859533Y-105875350D02*
X144359533Y-105875350D01*
X144359533Y-105875350D02*
X144459533Y-105842017D01*
X144459533Y-105842017D02*
X144526200Y-105775350D01*
X144526200Y-105775350D02*
X144559533Y-105675350D01*
X144559533Y-105675350D02*
X144559533Y-105608684D01*
X144526200Y-106475350D02*
X144559533Y-106408683D01*
X144559533Y-106408683D02*
X144559533Y-106275350D01*
X144559533Y-106275350D02*
X144526200Y-106208683D01*
X144526200Y-106208683D02*
X144459533Y-106175350D01*
X144459533Y-106175350D02*
X144192866Y-106175350D01*
X144192866Y-106175350D02*
X144126200Y-106208683D01*
X144126200Y-106208683D02*
X144092866Y-106275350D01*
X144092866Y-106275350D02*
X144092866Y-106408683D01*
X144092866Y-106408683D02*
X144126200Y-106475350D01*
X144126200Y-106475350D02*
X144192866Y-106508683D01*
X144192866Y-106508683D02*
X144259533Y-106508683D01*
X144259533Y-106508683D02*
X144326200Y-106175350D01*
X144526200Y-106775350D02*
X144559533Y-106842017D01*
X144559533Y-106842017D02*
X144559533Y-106975350D01*
X144559533Y-106975350D02*
X144526200Y-107042017D01*
X144526200Y-107042017D02*
X144459533Y-107075350D01*
X144459533Y-107075350D02*
X144426200Y-107075350D01*
X144426200Y-107075350D02*
X144359533Y-107042017D01*
X144359533Y-107042017D02*
X144326200Y-106975350D01*
X144326200Y-106975350D02*
X144326200Y-106875350D01*
X144326200Y-106875350D02*
X144292866Y-106808683D01*
X144292866Y-106808683D02*
X144226200Y-106775350D01*
X144226200Y-106775350D02*
X144192866Y-106775350D01*
X144192866Y-106775350D02*
X144126200Y-106808683D01*
X144126200Y-106808683D02*
X144092866Y-106875350D01*
X144092866Y-106875350D02*
X144092866Y-106975350D01*
X144092866Y-106975350D02*
X144126200Y-107042017D01*
X144526200Y-107342017D02*
X144559533Y-107408684D01*
X144559533Y-107408684D02*
X144559533Y-107542017D01*
X144559533Y-107542017D02*
X144526200Y-107608684D01*
X144526200Y-107608684D02*
X144459533Y-107642017D01*
X144459533Y-107642017D02*
X144426200Y-107642017D01*
X144426200Y-107642017D02*
X144359533Y-107608684D01*
X144359533Y-107608684D02*
X144326200Y-107542017D01*
X144326200Y-107542017D02*
X144326200Y-107442017D01*
X144326200Y-107442017D02*
X144292866Y-107375350D01*
X144292866Y-107375350D02*
X144226200Y-107342017D01*
X144226200Y-107342017D02*
X144192866Y-107342017D01*
X144192866Y-107342017D02*
X144126200Y-107375350D01*
X144126200Y-107375350D02*
X144092866Y-107442017D01*
X144092866Y-107442017D02*
X144092866Y-107542017D01*
X144092866Y-107542017D02*
X144126200Y-107608684D01*
X144526200Y-108208684D02*
X144559533Y-108142017D01*
X144559533Y-108142017D02*
X144559533Y-108008684D01*
X144559533Y-108008684D02*
X144526200Y-107942017D01*
X144526200Y-107942017D02*
X144459533Y-107908684D01*
X144459533Y-107908684D02*
X144192866Y-107908684D01*
X144192866Y-107908684D02*
X144126200Y-107942017D01*
X144126200Y-107942017D02*
X144092866Y-108008684D01*
X144092866Y-108008684D02*
X144092866Y-108142017D01*
X144092866Y-108142017D02*
X144126200Y-108208684D01*
X144126200Y-108208684D02*
X144192866Y-108242017D01*
X144192866Y-108242017D02*
X144259533Y-108242017D01*
X144259533Y-108242017D02*
X144326200Y-107908684D01*
X143859533Y-109275350D02*
X144359533Y-109275350D01*
X144359533Y-109275350D02*
X144459533Y-109242017D01*
X144459533Y-109242017D02*
X144526200Y-109175350D01*
X144526200Y-109175350D02*
X144559533Y-109075350D01*
X144559533Y-109075350D02*
X144559533Y-109008684D01*
X144559533Y-109908683D02*
X144192866Y-109908683D01*
X144192866Y-109908683D02*
X144126200Y-109875350D01*
X144126200Y-109875350D02*
X144092866Y-109808683D01*
X144092866Y-109808683D02*
X144092866Y-109675350D01*
X144092866Y-109675350D02*
X144126200Y-109608683D01*
X144526200Y-109908683D02*
X144559533Y-109842017D01*
X144559533Y-109842017D02*
X144559533Y-109675350D01*
X144559533Y-109675350D02*
X144526200Y-109608683D01*
X144526200Y-109608683D02*
X144459533Y-109575350D01*
X144459533Y-109575350D02*
X144392866Y-109575350D01*
X144392866Y-109575350D02*
X144326200Y-109608683D01*
X144326200Y-109608683D02*
X144292866Y-109675350D01*
X144292866Y-109675350D02*
X144292866Y-109842017D01*
X144292866Y-109842017D02*
X144259533Y-109908683D01*
X144559533Y-110242016D02*
X143859533Y-110242016D01*
X144126200Y-110242016D02*
X144092866Y-110308683D01*
X144092866Y-110308683D02*
X144092866Y-110442016D01*
X144092866Y-110442016D02*
X144126200Y-110508683D01*
X144126200Y-110508683D02*
X144159533Y-110542016D01*
X144159533Y-110542016D02*
X144226200Y-110575350D01*
X144226200Y-110575350D02*
X144426200Y-110575350D01*
X144426200Y-110575350D02*
X144492866Y-110542016D01*
X144492866Y-110542016D02*
X144526200Y-110508683D01*
X144526200Y-110508683D02*
X144559533Y-110442016D01*
X144559533Y-110442016D02*
X144559533Y-110308683D01*
X144559533Y-110308683D02*
X144526200Y-110242016D01*
X144526200Y-111142016D02*
X144559533Y-111075349D01*
X144559533Y-111075349D02*
X144559533Y-110942016D01*
X144559533Y-110942016D02*
X144526200Y-110875349D01*
X144526200Y-110875349D02*
X144459533Y-110842016D01*
X144459533Y-110842016D02*
X144192866Y-110842016D01*
X144192866Y-110842016D02*
X144126200Y-110875349D01*
X144126200Y-110875349D02*
X144092866Y-110942016D01*
X144092866Y-110942016D02*
X144092866Y-111075349D01*
X144092866Y-111075349D02*
X144126200Y-111142016D01*
X144126200Y-111142016D02*
X144192866Y-111175349D01*
X144192866Y-111175349D02*
X144259533Y-111175349D01*
X144259533Y-111175349D02*
X144326200Y-110842016D01*
X144092866Y-111408683D02*
X144092866Y-111775349D01*
X144092866Y-111775349D02*
X144559533Y-111408683D01*
X144559533Y-111408683D02*
X144559533Y-111775349D01*
X144359533Y-112542016D02*
X144359533Y-112875349D01*
X144559533Y-112475349D02*
X143859533Y-112708683D01*
X143859533Y-112708683D02*
X144559533Y-112942016D01*
X144559533Y-113175349D02*
X144092866Y-113175349D01*
X144226200Y-113175349D02*
X144159533Y-113208683D01*
X144159533Y-113208683D02*
X144126200Y-113242016D01*
X144126200Y-113242016D02*
X144092866Y-113308683D01*
X144092866Y-113308683D02*
X144092866Y-113375349D01*
X144526200Y-113875349D02*
X144559533Y-113808682D01*
X144559533Y-113808682D02*
X144559533Y-113675349D01*
X144559533Y-113675349D02*
X144526200Y-113608682D01*
X144526200Y-113608682D02*
X144459533Y-113575349D01*
X144459533Y-113575349D02*
X144192866Y-113575349D01*
X144192866Y-113575349D02*
X144126200Y-113608682D01*
X144126200Y-113608682D02*
X144092866Y-113675349D01*
X144092866Y-113675349D02*
X144092866Y-113808682D01*
X144092866Y-113808682D02*
X144126200Y-113875349D01*
X144126200Y-113875349D02*
X144192866Y-113908682D01*
X144192866Y-113908682D02*
X144259533Y-113908682D01*
X144259533Y-113908682D02*
X144326200Y-113575349D01*
X144092866Y-114208682D02*
X144559533Y-114208682D01*
X144159533Y-114208682D02*
X144126200Y-114242016D01*
X144126200Y-114242016D02*
X144092866Y-114308682D01*
X144092866Y-114308682D02*
X144092866Y-114408682D01*
X144092866Y-114408682D02*
X144126200Y-114475349D01*
X144126200Y-114475349D02*
X144192866Y-114508682D01*
X144192866Y-114508682D02*
X144559533Y-114508682D01*
X144559533Y-115142015D02*
X143859533Y-115142015D01*
X144526200Y-115142015D02*
X144559533Y-115075349D01*
X144559533Y-115075349D02*
X144559533Y-114942015D01*
X144559533Y-114942015D02*
X144526200Y-114875349D01*
X144526200Y-114875349D02*
X144492866Y-114842015D01*
X144492866Y-114842015D02*
X144426200Y-114808682D01*
X144426200Y-114808682D02*
X144226200Y-114808682D01*
X144226200Y-114808682D02*
X144159533Y-114842015D01*
X144159533Y-114842015D02*
X144126200Y-114875349D01*
X144126200Y-114875349D02*
X144092866Y-114942015D01*
X144092866Y-114942015D02*
X144092866Y-115075349D01*
X144092866Y-115075349D02*
X144126200Y-115142015D01*
X144526200Y-115442015D02*
X144559533Y-115508682D01*
X144559533Y-115508682D02*
X144559533Y-115642015D01*
X144559533Y-115642015D02*
X144526200Y-115708682D01*
X144526200Y-115708682D02*
X144459533Y-115742015D01*
X144459533Y-115742015D02*
X144426200Y-115742015D01*
X144426200Y-115742015D02*
X144359533Y-115708682D01*
X144359533Y-115708682D02*
X144326200Y-115642015D01*
X144326200Y-115642015D02*
X144326200Y-115542015D01*
X144326200Y-115542015D02*
X144292866Y-115475348D01*
X144292866Y-115475348D02*
X144226200Y-115442015D01*
X144226200Y-115442015D02*
X144192866Y-115442015D01*
X144192866Y-115442015D02*
X144126200Y-115475348D01*
X144126200Y-115475348D02*
X144092866Y-115542015D01*
X144092866Y-115542015D02*
X144092866Y-115642015D01*
X144092866Y-115642015D02*
X144126200Y-115708682D01*
X144526200Y-116308682D02*
X144559533Y-116242015D01*
X144559533Y-116242015D02*
X144559533Y-116108682D01*
X144559533Y-116108682D02*
X144526200Y-116042015D01*
X144526200Y-116042015D02*
X144459533Y-116008682D01*
X144459533Y-116008682D02*
X144192866Y-116008682D01*
X144192866Y-116008682D02*
X144126200Y-116042015D01*
X144126200Y-116042015D02*
X144092866Y-116108682D01*
X144092866Y-116108682D02*
X144092866Y-116242015D01*
X144092866Y-116242015D02*
X144126200Y-116308682D01*
X144126200Y-116308682D02*
X144192866Y-116342015D01*
X144192866Y-116342015D02*
X144259533Y-116342015D01*
X144259533Y-116342015D02*
X144326200Y-116008682D01*
D11*
X155014895Y-116423333D02*
X155586323Y-116423333D01*
X155586323Y-116423333D02*
X155700609Y-116385238D01*
X155700609Y-116385238D02*
X155776800Y-116309047D01*
X155776800Y-116309047D02*
X155814895Y-116194762D01*
X155814895Y-116194762D02*
X155814895Y-116118571D01*
X155014895Y-116728095D02*
X155014895Y-117223333D01*
X155014895Y-117223333D02*
X155319657Y-116956667D01*
X155319657Y-116956667D02*
X155319657Y-117070952D01*
X155319657Y-117070952D02*
X155357752Y-117147143D01*
X155357752Y-117147143D02*
X155395847Y-117185238D01*
X155395847Y-117185238D02*
X155472038Y-117223333D01*
X155472038Y-117223333D02*
X155662514Y-117223333D01*
X155662514Y-117223333D02*
X155738704Y-117185238D01*
X155738704Y-117185238D02*
X155776800Y-117147143D01*
X155776800Y-117147143D02*
X155814895Y-117070952D01*
X155814895Y-117070952D02*
X155814895Y-116842381D01*
X155814895Y-116842381D02*
X155776800Y-116766190D01*
X155776800Y-116766190D02*
X155738704Y-116728095D01*
X160727895Y-112763333D02*
X161299323Y-112763333D01*
X161299323Y-112763333D02*
X161413609Y-112725238D01*
X161413609Y-112725238D02*
X161489800Y-112649047D01*
X161489800Y-112649047D02*
X161527895Y-112534762D01*
X161527895Y-112534762D02*
X161527895Y-112458571D01*
X160804085Y-113106190D02*
X160765990Y-113144286D01*
X160765990Y-113144286D02*
X160727895Y-113220476D01*
X160727895Y-113220476D02*
X160727895Y-113410952D01*
X160727895Y-113410952D02*
X160765990Y-113487143D01*
X160765990Y-113487143D02*
X160804085Y-113525238D01*
X160804085Y-113525238D02*
X160880276Y-113563333D01*
X160880276Y-113563333D02*
X160956466Y-113563333D01*
X160956466Y-113563333D02*
X161070752Y-113525238D01*
X161070752Y-113525238D02*
X161527895Y-113068095D01*
X161527895Y-113068095D02*
X161527895Y-113563333D01*
X137613895Y-103365333D02*
X138185323Y-103365333D01*
X138185323Y-103365333D02*
X138299609Y-103327238D01*
X138299609Y-103327238D02*
X138375800Y-103251047D01*
X138375800Y-103251047D02*
X138413895Y-103136762D01*
X138413895Y-103136762D02*
X138413895Y-103060571D01*
X138413895Y-104165333D02*
X138413895Y-103708190D01*
X138413895Y-103936762D02*
X137613895Y-103936762D01*
X137613895Y-103936762D02*
X137728180Y-103860571D01*
X137728180Y-103860571D02*
X137804371Y-103784381D01*
X137804371Y-103784381D02*
X137842466Y-103708190D01*
D12*
%TO.C,G\u002A\u002A\u002A*%
G36*
X145629095Y-100399596D02*
G01*
X145631963Y-100402365D01*
X145646361Y-100418082D01*
X145650159Y-100423942D01*
X145644071Y-100433970D01*
X145626324Y-100462339D01*
X145597697Y-100507822D01*
X145558966Y-100569191D01*
X145510908Y-100645218D01*
X145454302Y-100734675D01*
X145389923Y-100836336D01*
X145318550Y-100948972D01*
X145240960Y-101071355D01*
X145157930Y-101202259D01*
X145070237Y-101340455D01*
X144978658Y-101484716D01*
X144936995Y-101550327D01*
X144843948Y-101697013D01*
X144754525Y-101838308D01*
X144669498Y-101972979D01*
X144589639Y-102099786D01*
X144515723Y-102217492D01*
X144448520Y-102324857D01*
X144388804Y-102420644D01*
X144337349Y-102503614D01*
X144294927Y-102572530D01*
X144262310Y-102626153D01*
X144240272Y-102663244D01*
X144229586Y-102682567D01*
X144228679Y-102685119D01*
X144233520Y-102697267D01*
X144246352Y-102729568D01*
X144266622Y-102780619D01*
X144293767Y-102849019D01*
X144327238Y-102933368D01*
X144366476Y-103032264D01*
X144410926Y-103144306D01*
X144460031Y-103268094D01*
X144513237Y-103402225D01*
X144569986Y-103545298D01*
X144629723Y-103695913D01*
X144691893Y-103852668D01*
X144698937Y-103870429D01*
X144773096Y-104057421D01*
X144839135Y-104224047D01*
X144897464Y-104371499D01*
X144948493Y-104500970D01*
X144992632Y-104613655D01*
X145030289Y-104710745D01*
X145061876Y-104793434D01*
X145087803Y-104862916D01*
X145108478Y-104920383D01*
X145124311Y-104967029D01*
X145135714Y-105004046D01*
X145143094Y-105032628D01*
X145146863Y-105053967D01*
X145147430Y-105069259D01*
X145145205Y-105079693D01*
X145140597Y-105086465D01*
X145134017Y-105090768D01*
X145125874Y-105093795D01*
X145119797Y-105095687D01*
X145106344Y-105092891D01*
X145072348Y-105083097D01*
X145019220Y-105066762D01*
X144948369Y-105044353D01*
X144861206Y-105016325D01*
X144759141Y-104983143D01*
X144643584Y-104945266D01*
X144601002Y-104931218D01*
X144581376Y-104924744D01*
X144515944Y-104903156D01*
X144377633Y-104857274D01*
X144230060Y-104808082D01*
X144226258Y-104806809D01*
X144595207Y-104806809D01*
X144601002Y-104812605D01*
X144606800Y-104806809D01*
X144601003Y-104801012D01*
X144595207Y-104806809D01*
X144226258Y-104806809D01*
X144074635Y-104756039D01*
X143912769Y-104701607D01*
X143854706Y-104682027D01*
X142609916Y-104261943D01*
X141802767Y-104350720D01*
X141633840Y-104369414D01*
X141486226Y-104386017D01*
X141358166Y-104400757D01*
X141247903Y-104413862D01*
X141153678Y-104425559D01*
X141073735Y-104436079D01*
X141006316Y-104445647D01*
X140949661Y-104454492D01*
X140922724Y-104459213D01*
X140902017Y-104462843D01*
X140900327Y-104463181D01*
X140861621Y-104470927D01*
X140841070Y-104475525D01*
X140768370Y-104491472D01*
X140714278Y-104500273D01*
X140675232Y-104501550D01*
X140647663Y-104494925D01*
X140628008Y-104480022D01*
X140612700Y-104456462D01*
X140610032Y-104451067D01*
X140608359Y-104445205D01*
X140607842Y-104435928D01*
X140608737Y-104422148D01*
X140611303Y-104402775D01*
X140615795Y-104376721D01*
X140622473Y-104342899D01*
X140631591Y-104300219D01*
X140643409Y-104247592D01*
X140658182Y-104183930D01*
X140659390Y-104178839D01*
X140922724Y-104178839D01*
X140924137Y-104178477D01*
X140935057Y-104170050D01*
X140962938Y-104147827D01*
X141006842Y-104112568D01*
X141065830Y-104065035D01*
X141130681Y-104012680D01*
X142265038Y-104012680D01*
X142275729Y-104016905D01*
X142306641Y-104027962D01*
X142356028Y-104045257D01*
X142422145Y-104068195D01*
X142503249Y-104096185D01*
X142597595Y-104128630D01*
X142703438Y-104164939D01*
X142819032Y-104204516D01*
X142942634Y-104246767D01*
X143072500Y-104291102D01*
X143206883Y-104336923D01*
X143344043Y-104383636D01*
X143482230Y-104430652D01*
X143619703Y-104477372D01*
X143754716Y-104523205D01*
X143885524Y-104567556D01*
X144010383Y-104609834D01*
X144127549Y-104649439D01*
X144235277Y-104685782D01*
X144331822Y-104718271D01*
X144415439Y-104746307D01*
X144484385Y-104769300D01*
X144536915Y-104786654D01*
X144571281Y-104797776D01*
X144576194Y-104799316D01*
X144581376Y-104800306D01*
X144579815Y-104797786D01*
X144570445Y-104791151D01*
X144552193Y-104779794D01*
X144523991Y-104763113D01*
X144484770Y-104740499D01*
X144433459Y-104711349D01*
X144368990Y-104675056D01*
X144290294Y-104631016D01*
X144196300Y-104578623D01*
X144085939Y-104517272D01*
X143958143Y-104446357D01*
X143811841Y-104365273D01*
X143700419Y-104303564D01*
X142857799Y-103837000D01*
X142561418Y-103921317D01*
X142482690Y-103943967D01*
X142411825Y-103964843D01*
X142351727Y-103983050D01*
X142305295Y-103997692D01*
X142275432Y-104007876D01*
X142265038Y-104012680D01*
X141130681Y-104012680D01*
X141138965Y-104005992D01*
X141225307Y-103936199D01*
X141323919Y-103856418D01*
X141433863Y-103767411D01*
X141554200Y-103669940D01*
X141683993Y-103564767D01*
X141822303Y-103452654D01*
X141968192Y-103334362D01*
X142120722Y-103210654D01*
X142278955Y-103082291D01*
X142441952Y-102950036D01*
X142608776Y-102814649D01*
X142778487Y-102676894D01*
X142950149Y-102537531D01*
X143122822Y-102397323D01*
X143295569Y-102257032D01*
X143467451Y-102117419D01*
X143637530Y-101979246D01*
X143804869Y-101843276D01*
X143968528Y-101710270D01*
X144127570Y-101580989D01*
X144281056Y-101456197D01*
X144428049Y-101336654D01*
X144567610Y-101223122D01*
X144698801Y-101116364D01*
X144820683Y-101017142D01*
X144932319Y-100926216D01*
X145032770Y-100844350D01*
X145121099Y-100772304D01*
X145196367Y-100710841D01*
X145257636Y-100660723D01*
X145303967Y-100622712D01*
X145334423Y-100597568D01*
X145348065Y-100586055D01*
X145348744Y-100585379D01*
X145341188Y-100584912D01*
X145336654Y-100587308D01*
X145324879Y-100593147D01*
X145293441Y-100608379D01*
X145243596Y-100632402D01*
X145176602Y-100664612D01*
X145093717Y-100704407D01*
X144996197Y-100751185D01*
X144885299Y-100804343D01*
X144762280Y-100863278D01*
X144628399Y-100927389D01*
X144484911Y-100996071D01*
X144333074Y-101068723D01*
X144174145Y-101144741D01*
X144009382Y-101223525D01*
X143994778Y-101230506D01*
X142664992Y-101866233D01*
X142030165Y-102704709D01*
X141882783Y-102899380D01*
X141748789Y-103076393D01*
X141627568Y-103236569D01*
X141518504Y-103380726D01*
X141420981Y-103509686D01*
X141334384Y-103624270D01*
X141258097Y-103725297D01*
X141191504Y-103813587D01*
X141133990Y-103889964D01*
X141084939Y-103955243D01*
X141043735Y-104010248D01*
X141009763Y-104055798D01*
X140982408Y-104092715D01*
X140961051Y-104121817D01*
X140945079Y-104143927D01*
X140933876Y-104159863D01*
X140926827Y-104170447D01*
X140923314Y-104176499D01*
X140922724Y-104178839D01*
X140659390Y-104178839D01*
X140676170Y-104108144D01*
X140697625Y-104019145D01*
X140704225Y-103992073D01*
X140900326Y-103992073D01*
X140906514Y-103983258D01*
X140924093Y-103955646D01*
X140952432Y-103910266D01*
X140990901Y-103848148D01*
X141038871Y-103770321D01*
X141095714Y-103677814D01*
X141160796Y-103571657D01*
X141233488Y-103452879D01*
X141313162Y-103322509D01*
X141399186Y-103181577D01*
X141490930Y-103031111D01*
X141587767Y-102872142D01*
X141689062Y-102705698D01*
X141794188Y-102532810D01*
X141890150Y-102374867D01*
X141998155Y-102196979D01*
X142102817Y-102024491D01*
X142203508Y-101858441D01*
X142299600Y-101699868D01*
X142390468Y-101549809D01*
X142475485Y-101409303D01*
X142554022Y-101279387D01*
X142625454Y-101161100D01*
X142689153Y-101055480D01*
X142744493Y-100963565D01*
X142790846Y-100886393D01*
X142827585Y-100825003D01*
X142854084Y-100780432D01*
X142869715Y-100753719D01*
X142873983Y-100745807D01*
X142863095Y-100749808D01*
X142832883Y-100762539D01*
X142785158Y-100783201D01*
X142721732Y-100810993D01*
X142644420Y-100845115D01*
X142555029Y-100884768D01*
X142455375Y-100929151D01*
X142347268Y-100977464D01*
X142232521Y-101028908D01*
X142217104Y-101035831D01*
X141563668Y-101329348D01*
X141230724Y-102656531D01*
X141187883Y-102827454D01*
X141146687Y-102992118D01*
X141107481Y-103149126D01*
X141070610Y-103297082D01*
X141036419Y-103434588D01*
X141005256Y-103560247D01*
X140977464Y-103672663D01*
X140953389Y-103770439D01*
X140933378Y-103852177D01*
X140917776Y-103916481D01*
X140906927Y-103961954D01*
X140901179Y-103987198D01*
X140900326Y-103992073D01*
X140704225Y-103992073D01*
X140722809Y-103915846D01*
X140751978Y-103797156D01*
X140785388Y-103661988D01*
X140823297Y-103509254D01*
X140865963Y-103337863D01*
X140913640Y-103146728D01*
X140966588Y-102934760D01*
X140996099Y-102816707D01*
X141046149Y-102616879D01*
X141094269Y-102425463D01*
X141140168Y-102243591D01*
X141183555Y-102072385D01*
X141224139Y-101912976D01*
X141261629Y-101766491D01*
X141295734Y-101634056D01*
X141326164Y-101516798D01*
X141352627Y-101415845D01*
X141374836Y-101332325D01*
X141392493Y-101267363D01*
X141405315Y-101222088D01*
X141413006Y-101197628D01*
X141414843Y-101193548D01*
X141437294Y-101178500D01*
X141470985Y-101165541D01*
X141480794Y-101163034D01*
X141498781Y-101157219D01*
X141536657Y-101143557D01*
X141592738Y-101122695D01*
X141665338Y-101095279D01*
X141752773Y-101061953D01*
X141853357Y-101023365D01*
X141965406Y-100980159D01*
X142087233Y-100932981D01*
X142217154Y-100882478D01*
X142353484Y-100829294D01*
X142438931Y-100795867D01*
X142579066Y-100740998D01*
X142714311Y-100688061D01*
X142842921Y-100637739D01*
X142963154Y-100590712D01*
X143073264Y-100547663D01*
X143171508Y-100509273D01*
X143256142Y-100476223D01*
X143325422Y-100449195D01*
X143377605Y-100428871D01*
X143410943Y-100415932D01*
X143420898Y-100412103D01*
X143460245Y-100397858D01*
X143484330Y-100392012D01*
X143499242Y-100393928D01*
X143510816Y-100402713D01*
X143521953Y-100423606D01*
X143520039Y-100435832D01*
X143509244Y-100446822D01*
X143482878Y-100470693D01*
X143443193Y-100505496D01*
X143392440Y-100549280D01*
X143332870Y-100600095D01*
X143266733Y-100655994D01*
X143238840Y-100679425D01*
X143170484Y-100736809D01*
X143107512Y-100789788D01*
X143052220Y-100836420D01*
X143006907Y-100874764D01*
X142973868Y-100902878D01*
X142955402Y-100918820D01*
X142952626Y-100921339D01*
X142946639Y-100934797D01*
X142935184Y-100967417D01*
X142919158Y-101016208D01*
X142899457Y-101078184D01*
X142876979Y-101150356D01*
X142852618Y-101229737D01*
X142827274Y-101313334D01*
X142801842Y-101398164D01*
X142777219Y-101481236D01*
X142754303Y-101559562D01*
X142733990Y-101630155D01*
X142717176Y-101690024D01*
X142704759Y-101736183D01*
X142697636Y-101765643D01*
X142696369Y-101775234D01*
X142706866Y-101771070D01*
X142736817Y-101757580D01*
X142784774Y-101735457D01*
X142849282Y-101705393D01*
X142928888Y-101668079D01*
X143022139Y-101624207D01*
X143127582Y-101574470D01*
X143243764Y-101519556D01*
X143369232Y-101460161D01*
X143502533Y-101396976D01*
X143642214Y-101330691D01*
X143786821Y-101262000D01*
X143934903Y-101191594D01*
X144085005Y-101120164D01*
X144235675Y-101048403D01*
X144385460Y-100977002D01*
X144532906Y-100906654D01*
X144676561Y-100838050D01*
X144814971Y-100771881D01*
X144946685Y-100708841D01*
X145070247Y-100649618D01*
X145184207Y-100594910D01*
X145287109Y-100545403D01*
X145377502Y-100501792D01*
X145453933Y-100464767D01*
X145514948Y-100435021D01*
X145559094Y-100413245D01*
X145584919Y-100400133D01*
X145588491Y-100398207D01*
X145611119Y-100390313D01*
X145629095Y-100399596D01*
G37*
D13*
%TO.C,J3*%
X161650000Y-118020000D02*
X161650000Y-115360000D01*
X161650000Y-118020000D02*
X159050000Y-118020000D01*
X161650000Y-115360000D02*
X159050000Y-115360000D01*
X159050000Y-118020000D02*
X159050000Y-115360000D01*
X156450000Y-116690000D02*
X156450000Y-115360000D01*
X156450000Y-115360000D02*
X157780000Y-115360000D01*
D12*
%TO.C,G\u002A\u002A\u002A*%
G36*
X149027828Y-112938648D02*
G01*
X149034236Y-112950869D01*
X149023366Y-112973953D01*
X148991385Y-112984769D01*
X148978280Y-112981378D01*
X148963231Y-112955461D01*
X148969616Y-112937626D01*
X148996765Y-112925948D01*
X149027828Y-112938648D01*
G37*
G36*
X150663077Y-112545154D02*
G01*
X150665334Y-112546632D01*
X150681925Y-112575065D01*
X150665291Y-112602401D01*
X150652403Y-112603841D01*
X150625265Y-112585755D01*
X150615922Y-112558992D01*
X150631560Y-112539884D01*
X150663077Y-112545154D01*
G37*
G36*
X151782750Y-107936802D02*
G01*
X151789159Y-107949023D01*
X151778289Y-107972106D01*
X151746308Y-107982923D01*
X151733203Y-107979532D01*
X151718154Y-107953615D01*
X151724539Y-107935780D01*
X151751688Y-107924102D01*
X151782750Y-107936802D01*
G37*
G36*
X146128451Y-108695025D02*
G01*
X146135460Y-108700326D01*
X146149692Y-108725384D01*
X146143511Y-108743817D01*
X146116277Y-108758067D01*
X146085467Y-108747128D01*
X146081076Y-108741769D01*
X146078662Y-108713414D01*
X146098654Y-108692741D01*
X146128451Y-108695025D01*
G37*
G36*
X146734144Y-107639948D02*
G01*
X146741153Y-107645249D01*
X146755385Y-107670308D01*
X146749204Y-107688740D01*
X146721969Y-107702990D01*
X146691159Y-107692051D01*
X146686768Y-107686692D01*
X146684354Y-107658337D01*
X146704346Y-107637665D01*
X146734144Y-107639948D01*
G37*
G36*
X147715650Y-112312472D02*
G01*
X147725708Y-112327752D01*
X147728540Y-112366267D01*
X147718504Y-112391579D01*
X147689194Y-112408863D01*
X147657154Y-112400677D01*
X147638468Y-112366910D01*
X147647311Y-112329928D01*
X147678078Y-112307572D01*
X147715650Y-112312472D01*
G37*
G36*
X147906451Y-112680871D02*
G01*
X147913460Y-112686172D01*
X147927692Y-112711231D01*
X147921511Y-112729663D01*
X147894278Y-112743914D01*
X147863467Y-112732974D01*
X147859076Y-112727615D01*
X147856662Y-112699260D01*
X147876654Y-112678588D01*
X147906451Y-112680871D01*
G37*
G36*
X150036144Y-112798101D02*
G01*
X150043152Y-112803402D01*
X150057385Y-112828461D01*
X150051204Y-112846894D01*
X150023969Y-112861144D01*
X149993159Y-112850205D01*
X149988767Y-112844845D01*
X149986354Y-112816491D01*
X150006345Y-112795819D01*
X150036144Y-112798101D01*
G37*
G36*
X151364759Y-107444563D02*
G01*
X151371767Y-107449864D01*
X151386000Y-107474923D01*
X151379819Y-107493355D01*
X151352584Y-107507606D01*
X151321774Y-107496667D01*
X151317384Y-107491307D01*
X151314970Y-107462953D01*
X151334961Y-107442281D01*
X151364759Y-107444563D01*
G37*
G36*
X152100089Y-109983271D02*
G01*
X152116149Y-109996451D01*
X152128461Y-110033848D01*
X152117809Y-110064484D01*
X152079615Y-110073539D01*
X152042842Y-110065529D01*
X152030769Y-110035614D01*
X152033601Y-110013429D01*
X152057850Y-109982556D01*
X152100089Y-109983271D01*
G37*
G36*
X152263529Y-109046717D02*
G01*
X152270537Y-109052018D01*
X152284769Y-109077077D01*
X152278588Y-109095510D01*
X152251354Y-109109760D01*
X152220544Y-109098820D01*
X152216152Y-109093461D01*
X152213739Y-109065107D01*
X152233731Y-109044434D01*
X152263529Y-109046717D01*
G37*
G36*
X147601856Y-107182814D02*
G01*
X147615077Y-107220923D01*
X147614058Y-107233336D01*
X147594069Y-107267240D01*
X147559335Y-107274090D01*
X147524137Y-107249409D01*
X147518833Y-107241913D01*
X147507576Y-107212113D01*
X147525449Y-107184948D01*
X147546426Y-107171325D01*
X147584254Y-107168792D01*
X147601856Y-107182814D01*
G37*
G36*
X151283567Y-107556798D02*
G01*
X151283094Y-107577471D01*
X151259767Y-107609733D01*
X151210183Y-107660510D01*
X151181361Y-107686908D01*
X151138337Y-107716786D01*
X151114131Y-107718206D01*
X151114347Y-107699065D01*
X151135095Y-107661896D01*
X151169460Y-107617855D01*
X151208815Y-107576774D01*
X151244534Y-107548486D01*
X151267989Y-107542826D01*
X151283567Y-107556798D01*
G37*
G36*
X146853254Y-107754009D02*
G01*
X146908314Y-107798949D01*
X146934465Y-107822833D01*
X146970157Y-107865753D01*
X146976930Y-107894365D01*
X146953133Y-107904769D01*
X146940839Y-107900730D01*
X146906275Y-107877357D01*
X146863748Y-107841098D01*
X146822990Y-107801135D01*
X146793732Y-107766649D01*
X146785707Y-107746820D01*
X146797827Y-107733526D01*
X146818863Y-107733238D01*
X146853254Y-107754009D01*
G37*
G36*
X152113420Y-109084422D02*
G01*
X152129996Y-109099023D01*
X152132649Y-109115385D01*
X152110178Y-109132284D01*
X152054526Y-109149969D01*
X151983927Y-109167014D01*
X151939974Y-109172820D01*
X151918935Y-109166331D01*
X151913538Y-109147410D01*
X151917239Y-109138061D01*
X151950673Y-109116172D01*
X152013431Y-109096087D01*
X152027295Y-109092818D01*
X152082698Y-109082442D01*
X152113420Y-109084422D01*
G37*
G36*
X146276318Y-108752985D02*
G01*
X146350200Y-108775670D01*
X146387934Y-108789989D01*
X146424389Y-108812481D01*
X146429314Y-108835408D01*
X146420659Y-108848394D01*
X146393435Y-108854902D01*
X146386004Y-108852215D01*
X146344344Y-108838575D01*
X146288495Y-108821378D01*
X146267943Y-108814342D01*
X146225289Y-108792311D01*
X146208308Y-108771138D01*
X146211600Y-108756237D01*
X146232058Y-108746569D01*
X146276318Y-108752985D01*
G37*
G36*
X151665074Y-108016396D02*
G01*
X151678726Y-108037807D01*
X151667078Y-108054421D01*
X151631809Y-108082223D01*
X151583746Y-108113031D01*
X151533975Y-108140329D01*
X151493583Y-108157602D01*
X151473654Y-108158334D01*
X151467943Y-108144577D01*
X151473996Y-108122793D01*
X151502822Y-108094381D01*
X151559843Y-108052696D01*
X151586675Y-108035625D01*
X151631591Y-108014269D01*
X151658392Y-108011522D01*
X151665074Y-108016396D01*
G37*
G36*
X151855047Y-108335177D02*
G01*
X151880897Y-108377684D01*
X151907711Y-108442077D01*
X151808048Y-108493830D01*
X151764308Y-108514965D01*
X151717651Y-108533180D01*
X151693731Y-108536638D01*
X151679206Y-108517816D01*
X151695268Y-108489674D01*
X151747461Y-108457680D01*
X151753040Y-108454959D01*
X151801047Y-108420904D01*
X151815846Y-108380996D01*
X151817677Y-108356189D01*
X151831898Y-108328118D01*
X151855047Y-108335177D01*
G37*
G36*
X148021220Y-112394290D02*
G01*
X148030937Y-112409496D01*
X148025778Y-112441164D01*
X148004883Y-112498752D01*
X147990255Y-112536560D01*
X147973353Y-112582723D01*
X147966769Y-112604492D01*
X147962736Y-112608912D01*
X147935343Y-112613538D01*
X147918438Y-112607749D01*
X147913160Y-112582132D01*
X147925623Y-112531718D01*
X147956437Y-112451821D01*
X147959175Y-112445426D01*
X147987249Y-112399324D01*
X148014657Y-112391182D01*
X148021220Y-112394290D01*
G37*
G36*
X149015608Y-112613769D02*
G01*
X149031155Y-112626152D01*
X149039134Y-112662698D01*
X149041385Y-112730770D01*
X149041326Y-112744894D01*
X149038231Y-112807081D01*
X149029093Y-112838997D01*
X149012078Y-112848000D01*
X149008546Y-112847769D01*
X148992999Y-112835386D01*
X148985020Y-112798840D01*
X148982769Y-112730769D01*
X148982827Y-112716644D01*
X148985922Y-112654457D01*
X148995059Y-112622540D01*
X149012077Y-112613538D01*
X149015608Y-112613769D01*
G37*
G36*
X149948569Y-112505840D02*
G01*
X149962345Y-112539475D01*
X149983360Y-112603769D01*
X149994654Y-112639352D01*
X150010300Y-112692919D01*
X150013983Y-112720401D01*
X150005872Y-112729349D01*
X149986138Y-112727317D01*
X149982604Y-112726230D01*
X149957425Y-112699948D01*
X149934099Y-112650997D01*
X149916998Y-112593533D01*
X149910491Y-112541714D01*
X149918951Y-112509696D01*
X149924642Y-112504121D01*
X149937509Y-112496257D01*
X149948569Y-112505840D01*
G37*
G36*
X150517054Y-112270779D02*
G01*
X150537523Y-112301422D01*
X150571915Y-112359538D01*
X150575794Y-112366141D01*
X150607571Y-112422472D01*
X150620713Y-112454934D01*
X150617066Y-112472060D01*
X150598474Y-112482383D01*
X150580515Y-112477822D01*
X150551065Y-112447734D01*
X150520429Y-112401007D01*
X150494943Y-112349144D01*
X150480947Y-112303647D01*
X150484777Y-112276022D01*
X150492873Y-112267940D01*
X150504255Y-112261616D01*
X150517054Y-112270779D01*
G37*
G36*
X151216737Y-107403021D02*
G01*
X151202582Y-107442473D01*
X151162180Y-107496466D01*
X151098544Y-107560193D01*
X151055399Y-107595480D01*
X151013401Y-107619241D01*
X150992677Y-107617066D01*
X150996723Y-107590014D01*
X151029039Y-107539143D01*
X151042987Y-107519790D01*
X151071400Y-107471642D01*
X151082848Y-107437768D01*
X151086712Y-107422658D01*
X151109633Y-107412107D01*
X151125615Y-107412074D01*
X151162508Y-107395773D01*
X151178664Y-107386255D01*
X151207967Y-107385649D01*
X151216737Y-107403021D01*
G37*
G36*
X146201965Y-108881350D02*
G01*
X146264856Y-108905157D01*
X146277035Y-108911177D01*
X146326268Y-108931926D01*
X146358977Y-108940308D01*
X146371546Y-108944575D01*
X146384153Y-108972058D01*
X146382111Y-108986038D01*
X146364580Y-108995622D01*
X146320655Y-108988544D01*
X146262413Y-108978148D01*
X146203423Y-108973529D01*
X146166565Y-108969474D01*
X146149692Y-108958358D01*
X146141644Y-108946572D01*
X146109540Y-108930197D01*
X146086627Y-108917662D01*
X146076973Y-108894688D01*
X146096018Y-108877688D01*
X146141844Y-108871980D01*
X146201965Y-108881350D01*
G37*
G36*
X146441950Y-108351248D02*
G01*
X146503397Y-108374635D01*
X146541221Y-108393583D01*
X146582881Y-108418559D01*
X146599077Y-108434494D01*
X146588874Y-108456150D01*
X146551802Y-108459439D01*
X146491103Y-108437898D01*
X146478146Y-108431774D01*
X146437105Y-108415360D01*
X146414155Y-108416907D01*
X146395829Y-108436166D01*
X146378054Y-108452491D01*
X146347912Y-108453598D01*
X146335095Y-108437342D01*
X146353705Y-108413715D01*
X146369151Y-108396477D01*
X146373852Y-108372828D01*
X146370789Y-108351365D01*
X146395376Y-108343458D01*
X146441950Y-108351248D01*
G37*
G36*
X146753447Y-107869192D02*
G01*
X146790747Y-107927900D01*
X146818179Y-107976686D01*
X146842277Y-108022936D01*
X146851978Y-108046423D01*
X146850082Y-108053688D01*
X146828556Y-108060133D01*
X146779375Y-108055015D01*
X146697786Y-108038073D01*
X146667182Y-108029883D01*
X146621232Y-108009993D01*
X146607948Y-107991813D01*
X146628416Y-107979904D01*
X146683718Y-107978827D01*
X146754472Y-107984500D01*
X146720866Y-107925944D01*
X146715833Y-107916918D01*
X146699384Y-107872976D01*
X146708938Y-107845709D01*
X146727356Y-107843023D01*
X146753447Y-107869192D01*
G37*
G36*
X150100840Y-112481496D02*
G01*
X150127445Y-112533877D01*
X150134981Y-112551173D01*
X150162118Y-112597627D01*
X150187141Y-112621662D01*
X150200516Y-112630610D01*
X150201003Y-112657338D01*
X150193378Y-112674487D01*
X150185112Y-112719263D01*
X150181271Y-112738541D01*
X150164237Y-112761524D01*
X150144806Y-112766300D01*
X150135538Y-112746074D01*
X150133181Y-112731811D01*
X150112632Y-112696140D01*
X150098560Y-112674422D01*
X150085832Y-112628732D01*
X150078985Y-112579969D01*
X150067219Y-112520731D01*
X150063793Y-112503618D01*
X150063702Y-112465208D01*
X150077823Y-112458220D01*
X150100840Y-112481496D01*
G37*
G36*
X152050314Y-108803548D02*
G01*
X152048522Y-108833170D01*
X152014057Y-108874013D01*
X152006760Y-108880456D01*
X151978739Y-108907353D01*
X151978594Y-108917974D01*
X152004748Y-108920153D01*
X152032635Y-108922387D01*
X152078017Y-108932629D01*
X152093116Y-108941797D01*
X152108922Y-108970785D01*
X152100921Y-108984906D01*
X152069140Y-108990477D01*
X152006346Y-108986583D01*
X151978678Y-108983674D01*
X151903324Y-108973251D01*
X151864336Y-108959518D01*
X151859647Y-108938011D01*
X151887193Y-108904267D01*
X151944910Y-108853824D01*
X151998261Y-108812672D01*
X152032411Y-108796118D01*
X152050314Y-108803548D01*
G37*
G36*
X147108637Y-107583908D02*
G01*
X147152341Y-107628287D01*
X147178571Y-107662372D01*
X147181343Y-107684143D01*
X147164004Y-107700659D01*
X147153531Y-107701408D01*
X147119212Y-107684500D01*
X147076043Y-107649096D01*
X147039479Y-107616446D01*
X147007843Y-107599564D01*
X146986253Y-107607469D01*
X146977865Y-107625648D01*
X146988883Y-107657383D01*
X147025365Y-107707880D01*
X147054935Y-107749757D01*
X147070322Y-107788778D01*
X147059571Y-107802536D01*
X147027003Y-107787985D01*
X146976935Y-107742074D01*
X146938882Y-107695122D01*
X146915572Y-107641271D01*
X146926619Y-107595499D01*
X146971868Y-107551965D01*
X147032044Y-107509117D01*
X147108637Y-107583908D01*
G37*
G36*
X149233813Y-112623600D02*
G01*
X149257959Y-112660841D01*
X149286323Y-112716115D01*
X149296750Y-112738640D01*
X149322288Y-112797284D01*
X149331765Y-112830260D01*
X149326312Y-112844765D01*
X149307066Y-112848000D01*
X149304161Y-112847672D01*
X149279095Y-112827145D01*
X149256176Y-112784500D01*
X149232684Y-112721000D01*
X149205363Y-112784500D01*
X149202126Y-112791576D01*
X149174827Y-112831648D01*
X149147162Y-112848000D01*
X149132523Y-112845924D01*
X149122795Y-112832799D01*
X149128598Y-112818146D01*
X149145231Y-112774524D01*
X149167360Y-112715569D01*
X149184523Y-112673523D01*
X149206666Y-112630294D01*
X149221989Y-112613538D01*
X149233813Y-112623600D01*
G37*
G36*
X149660135Y-109147816D02*
G01*
X149666615Y-109184538D01*
X149665818Y-109196829D01*
X149648080Y-109228521D01*
X149612327Y-109230310D01*
X149565577Y-109201049D01*
X149547278Y-109185216D01*
X149532464Y-109180796D01*
X149529547Y-109205933D01*
X149529518Y-109208354D01*
X149525525Y-109230064D01*
X149511815Y-109215618D01*
X149504997Y-109200218D01*
X149504435Y-109161887D01*
X149507714Y-109155516D01*
X149537407Y-109137652D01*
X149575173Y-109141029D01*
X149600934Y-109165000D01*
X149608478Y-109178708D01*
X149631719Y-109194308D01*
X149640128Y-109190144D01*
X149640011Y-109165000D01*
X149636939Y-109150014D01*
X149647690Y-109135692D01*
X149660135Y-109147816D01*
G37*
G36*
X150314640Y-106916313D02*
G01*
X150386280Y-106946548D01*
X150343948Y-107054385D01*
X150333544Y-107079814D01*
X150304117Y-107137845D01*
X150282791Y-107158793D01*
X150271192Y-107143833D01*
X150270947Y-107094138D01*
X150283683Y-107010884D01*
X150287229Y-106981605D01*
X150279427Y-106949577D01*
X150258188Y-106947003D01*
X150230075Y-106972714D01*
X150201643Y-107025538D01*
X150192748Y-107045507D01*
X150166506Y-107087122D01*
X150143186Y-107103692D01*
X150140014Y-107103595D01*
X150119825Y-107090497D01*
X150123458Y-107053099D01*
X150151131Y-106988237D01*
X150171696Y-106950843D01*
X150209244Y-106908630D01*
X150253783Y-106898489D01*
X150314640Y-106916313D01*
G37*
G36*
X151639566Y-107848948D02*
G01*
X151633207Y-107870056D01*
X151614449Y-107903906D01*
X151591066Y-107936911D01*
X151571022Y-107958019D01*
X151562280Y-107956181D01*
X151558746Y-107953535D01*
X151533661Y-107964090D01*
X151492505Y-107992097D01*
X151487587Y-107995790D01*
X151430672Y-108028473D01*
X151389929Y-108032038D01*
X151385653Y-108030230D01*
X151374356Y-108017715D01*
X151387885Y-107996550D01*
X151429961Y-107960035D01*
X151453109Y-107940030D01*
X151489062Y-107901639D01*
X151503231Y-107874782D01*
X151508554Y-107861003D01*
X151537423Y-107849977D01*
X151557670Y-107848906D01*
X151605808Y-107836903D01*
X151627663Y-107831829D01*
X151639566Y-107848948D01*
G37*
G36*
X148382114Y-106696763D02*
G01*
X148396615Y-106722692D01*
X148398590Y-106736146D01*
X148414200Y-106752000D01*
X148416744Y-106752732D01*
X148427443Y-106775965D01*
X148431785Y-106821687D01*
X148431864Y-106829857D01*
X148435695Y-106877444D01*
X148443508Y-106903097D01*
X148451678Y-106916783D01*
X148455668Y-106953962D01*
X148446701Y-106989895D01*
X148427640Y-107006000D01*
X148424093Y-107005560D01*
X148402458Y-106982009D01*
X148386848Y-106927857D01*
X148383739Y-106912114D01*
X148367527Y-106862360D01*
X148348470Y-106835049D01*
X148341289Y-106828361D01*
X148331171Y-106793804D01*
X148334122Y-106748901D01*
X148347716Y-106709986D01*
X148369525Y-106693384D01*
X148382114Y-106696763D01*
G37*
G36*
X149542872Y-109583585D02*
G01*
X149553216Y-109594948D01*
X149584709Y-109619814D01*
X149603090Y-109620260D01*
X149600934Y-109594846D01*
X149597863Y-109579860D01*
X149608613Y-109565538D01*
X149621785Y-109572696D01*
X149627386Y-109600874D01*
X149618585Y-109634572D01*
X149597503Y-109656444D01*
X149570979Y-109656648D01*
X149532464Y-109636293D01*
X149528475Y-109632756D01*
X149495716Y-109609751D01*
X149477034Y-109606210D01*
X149481000Y-109624154D01*
X149484053Y-109631722D01*
X149472384Y-109643692D01*
X149470593Y-109643631D01*
X149453340Y-109628681D01*
X149456941Y-109597881D01*
X149479914Y-109566439D01*
X149486981Y-109561105D01*
X149512553Y-109556873D01*
X149542872Y-109583585D01*
G37*
G36*
X149819015Y-112578369D02*
G01*
X149835085Y-112599084D01*
X149837674Y-112638149D01*
X149803385Y-112681923D01*
X149793274Y-112691509D01*
X149767739Y-112725392D01*
X149771942Y-112743092D01*
X149805695Y-112739805D01*
X149835171Y-112735571D01*
X149838269Y-112753142D01*
X149817129Y-112777829D01*
X149776018Y-112785952D01*
X149734061Y-112769067D01*
X149711131Y-112738839D01*
X149711649Y-112694602D01*
X149747073Y-112655711D01*
X149773560Y-112631835D01*
X149767439Y-112608854D01*
X149750831Y-112598519D01*
X149719376Y-112610288D01*
X149691426Y-112623243D01*
X149676309Y-112611288D01*
X149688716Y-112581144D01*
X149724157Y-112559890D01*
X149775554Y-112557603D01*
X149819015Y-112578369D01*
G37*
G36*
X150763727Y-107171541D02*
G01*
X150766192Y-107228336D01*
X150765998Y-107231581D01*
X150765581Y-107275570D01*
X150774992Y-107289028D01*
X150799296Y-107279833D01*
X150822783Y-107265014D01*
X150848230Y-107241210D01*
X150856990Y-107233789D01*
X150888395Y-107233636D01*
X150889736Y-107234156D01*
X150911315Y-107247202D01*
X150909574Y-107264613D01*
X150881081Y-107291575D01*
X150822400Y-107333269D01*
X150770932Y-107366191D01*
X150717392Y-107392169D01*
X150690608Y-107390918D01*
X150689955Y-107362577D01*
X150693417Y-107348623D01*
X150703210Y-107297810D01*
X150713155Y-107234730D01*
X150717776Y-107208560D01*
X150733849Y-107162337D01*
X150751055Y-107149770D01*
X150763727Y-107171541D01*
G37*
G36*
X146213783Y-109818814D02*
G01*
X146254690Y-109829259D01*
X146266923Y-109848846D01*
X146263349Y-109861277D01*
X146236951Y-109874318D01*
X146179000Y-109878154D01*
X146141708Y-109879345D01*
X146102583Y-109888144D01*
X146091078Y-109907461D01*
X146087673Y-109921129D01*
X146061769Y-109936769D01*
X146048287Y-109934565D01*
X146032461Y-109917231D01*
X146032164Y-109914230D01*
X146013243Y-109899656D01*
X145975565Y-109898885D01*
X145934176Y-109910200D01*
X145904126Y-109931884D01*
X145892818Y-109946684D01*
X145877934Y-109955386D01*
X145865594Y-109931636D01*
X145862379Y-109893511D01*
X145891462Y-109856919D01*
X145954538Y-109831277D01*
X146049469Y-109817390D01*
X146174114Y-109816055D01*
X146213783Y-109818814D01*
G37*
G36*
X147379579Y-112027396D02*
G01*
X147403119Y-112038182D01*
X147398888Y-112070884D01*
X147366597Y-112127992D01*
X147339797Y-112172365D01*
X147329340Y-112206182D01*
X147339811Y-112228443D01*
X147358062Y-112236761D01*
X147383974Y-112222301D01*
X147422969Y-112178820D01*
X147443840Y-112154865D01*
X147478402Y-112123858D01*
X147499731Y-112116473D01*
X147510612Y-112125198D01*
X147514662Y-112144414D01*
X147497918Y-112176050D01*
X147457347Y-112228087D01*
X147423786Y-112264855D01*
X147377329Y-112295056D01*
X147333884Y-112290575D01*
X147286405Y-112252413D01*
X147241042Y-112204578D01*
X147301998Y-112115980D01*
X147327818Y-112080347D01*
X147359638Y-112042197D01*
X147378297Y-112027384D01*
X147379579Y-112027396D01*
G37*
G36*
X148532647Y-112554528D02*
G01*
X148560654Y-112581630D01*
X148572195Y-112638648D01*
X148572189Y-112639770D01*
X148565519Y-112719502D01*
X148547765Y-112771068D01*
X148520664Y-112789384D01*
X148520661Y-112789384D01*
X148504806Y-112781253D01*
X148500304Y-112751413D01*
X148505921Y-112691692D01*
X148508085Y-112674730D01*
X148511816Y-112623821D01*
X148505477Y-112599940D01*
X148487337Y-112594000D01*
X148483324Y-112594359D01*
X148456430Y-112618833D01*
X148433654Y-112681923D01*
X148419046Y-112726543D01*
X148396521Y-112764220D01*
X148376712Y-112772682D01*
X148365559Y-112750582D01*
X148368994Y-112696577D01*
X148390023Y-112618858D01*
X148426175Y-112560798D01*
X148473979Y-112539127D01*
X148532647Y-112554528D01*
G37*
G36*
X149620058Y-109273932D02*
G01*
X149656258Y-109283079D01*
X149666615Y-109302922D01*
X149663446Y-109317451D01*
X149644396Y-109319651D01*
X149619486Y-109322622D01*
X149588281Y-109350855D01*
X149572229Y-109368317D01*
X149533739Y-109384869D01*
X149503203Y-109368400D01*
X149493218Y-109331077D01*
X149520077Y-109331077D01*
X149524077Y-109336413D01*
X149550538Y-109350615D01*
X149554899Y-109350056D01*
X149568923Y-109331077D01*
X149565195Y-109321739D01*
X149538462Y-109311538D01*
X149524506Y-109314351D01*
X149520077Y-109331077D01*
X149493218Y-109331077D01*
X149490769Y-109321922D01*
X149491120Y-109308156D01*
X149498761Y-109284394D01*
X149524457Y-109274461D01*
X149538462Y-109273944D01*
X149578692Y-109272461D01*
X149620058Y-109273932D01*
G37*
G36*
X146171853Y-109514161D02*
G01*
X146193018Y-109514591D01*
X146247385Y-109545999D01*
X146273201Y-109581620D01*
X146286461Y-109624155D01*
X146276658Y-109659774D01*
X146247385Y-109702308D01*
X146205581Y-109730107D01*
X146146448Y-109739493D01*
X146090503Y-109723634D01*
X146048817Y-109686208D01*
X146032461Y-109630895D01*
X146033475Y-109626096D01*
X146096787Y-109626096D01*
X146105976Y-109657944D01*
X146139503Y-109676425D01*
X146191522Y-109672126D01*
X146218510Y-109655446D01*
X146224852Y-109621932D01*
X146196901Y-109583719D01*
X146171853Y-109569620D01*
X146133401Y-109578535D01*
X146117781Y-109590294D01*
X146096787Y-109626096D01*
X146033475Y-109626096D01*
X146042385Y-109583927D01*
X146079372Y-109537957D01*
X146133298Y-109513377D01*
X146171853Y-109514161D01*
G37*
G36*
X146796102Y-111421748D02*
G01*
X146815061Y-111432695D01*
X146802975Y-111460524D01*
X146762110Y-111502184D01*
X146694727Y-111554625D01*
X146652358Y-111585632D01*
X146609776Y-111621774D01*
X146593350Y-111646555D01*
X146598504Y-111665232D01*
X146610261Y-111685823D01*
X146597070Y-111706240D01*
X146576573Y-111703083D01*
X146542016Y-111677578D01*
X146504973Y-111638796D01*
X146475296Y-111597224D01*
X146462833Y-111563346D01*
X146462862Y-111561433D01*
X146477497Y-111541960D01*
X146504991Y-111541899D01*
X146525279Y-111561760D01*
X146543793Y-111563931D01*
X146587924Y-111543734D01*
X146652835Y-111503144D01*
X146660657Y-111497862D01*
X146720683Y-111459287D01*
X146768155Y-111432026D01*
X146793389Y-111421692D01*
X146796102Y-111421748D01*
G37*
G36*
X148256928Y-112485436D02*
G01*
X148252111Y-112518761D01*
X148235272Y-112586378D01*
X148226111Y-112679100D01*
X148237726Y-112769316D01*
X148248573Y-112820073D01*
X148251493Y-112854109D01*
X148241168Y-112863884D01*
X148215717Y-112856876D01*
X148212124Y-112855062D01*
X148188916Y-112825103D01*
X148172512Y-112775882D01*
X148159490Y-112706471D01*
X148106893Y-112756862D01*
X148093784Y-112768881D01*
X148055041Y-112793211D01*
X148025186Y-112788239D01*
X148019040Y-112783484D01*
X148014106Y-112766367D01*
X148032493Y-112739592D01*
X148078173Y-112696266D01*
X148087259Y-112687968D01*
X148145842Y-112620116D01*
X148177100Y-112554953D01*
X148198193Y-112504264D01*
X148229682Y-112479713D01*
X148239336Y-112478250D01*
X148256928Y-112485436D01*
G37*
G36*
X148624459Y-106735161D02*
G01*
X148647175Y-106767726D01*
X148648219Y-106809543D01*
X148621308Y-106849692D01*
X148597473Y-106876543D01*
X148596570Y-106900545D01*
X148626192Y-106907286D01*
X148644593Y-106905885D01*
X148675038Y-106906057D01*
X148680248Y-106907220D01*
X148691168Y-106921851D01*
X148675674Y-106942592D01*
X148640592Y-106958963D01*
X148613489Y-106962212D01*
X148566878Y-106948124D01*
X148538678Y-106914479D01*
X148535185Y-106871688D01*
X148562692Y-106830154D01*
X148565837Y-106827460D01*
X148588572Y-106798085D01*
X148587776Y-106778123D01*
X148563318Y-106778364D01*
X148553208Y-106781491D01*
X148527679Y-106777346D01*
X148526920Y-106756599D01*
X148553625Y-106732086D01*
X148586356Y-106722767D01*
X148624459Y-106735161D01*
G37*
G36*
X150737813Y-112020112D02*
G01*
X150796089Y-112051272D01*
X150881548Y-112101501D01*
X150896900Y-112110795D01*
X150968674Y-112158014D01*
X151008467Y-112192021D01*
X151014484Y-112211331D01*
X150984300Y-112217239D01*
X150929073Y-112198458D01*
X150862524Y-112166723D01*
X150872835Y-112243592D01*
X150876402Y-112279278D01*
X150872185Y-112311615D01*
X150853782Y-112320461D01*
X150842992Y-112317240D01*
X150824534Y-112286959D01*
X150811307Y-112221623D01*
X150808765Y-112203576D01*
X150795808Y-112147913D01*
X150772443Y-112112575D01*
X150729813Y-112082439D01*
X150714487Y-112072693D01*
X150679587Y-112042748D01*
X150669581Y-112020084D01*
X150669829Y-112019428D01*
X150680308Y-112006351D01*
X150701094Y-112005858D01*
X150737813Y-112020112D01*
G37*
G36*
X146213171Y-110161195D02*
G01*
X146277580Y-110199650D01*
X146291766Y-110215992D01*
X146317835Y-110265050D01*
X146326909Y-110313991D01*
X146318114Y-110351588D01*
X146290576Y-110366615D01*
X146264132Y-110354913D01*
X146256384Y-110313970D01*
X146251336Y-110282083D01*
X146220861Y-110240698D01*
X146172284Y-110218260D01*
X146116610Y-110216374D01*
X146064848Y-110236646D01*
X146028001Y-110280679D01*
X146015242Y-110327735D01*
X146029770Y-110369567D01*
X146039739Y-110386595D01*
X146040401Y-110403373D01*
X146009143Y-110402311D01*
X145996745Y-110399329D01*
X145964132Y-110371312D01*
X145952427Y-110324788D01*
X145960531Y-110270475D01*
X145987346Y-110219092D01*
X146031774Y-110181355D01*
X146047802Y-110173709D01*
X146133005Y-110152282D01*
X146213171Y-110161195D01*
G37*
G36*
X146859845Y-111578029D02*
G01*
X146905256Y-111582047D01*
X146954473Y-111616799D01*
X146978274Y-111653532D01*
X146989846Y-111688514D01*
X146977237Y-111722175D01*
X146941383Y-111764027D01*
X146895740Y-111798276D01*
X146853965Y-111812461D01*
X146840697Y-111811048D01*
X146792154Y-111787133D01*
X146752350Y-111744521D01*
X146739161Y-111706862D01*
X146804231Y-111706862D01*
X146804852Y-111715331D01*
X146823721Y-111743938D01*
X146859528Y-111747635D01*
X146899551Y-111724119D01*
X146920350Y-111699496D01*
X146928182Y-111665676D01*
X146899267Y-111642662D01*
X146859845Y-111640700D01*
X146820774Y-111664712D01*
X146804231Y-111706862D01*
X146739161Y-111706862D01*
X146735846Y-111697395D01*
X146751685Y-111639173D01*
X146792665Y-111597363D01*
X146847587Y-111576944D01*
X146859845Y-111578029D01*
G37*
G36*
X151313778Y-111684845D02*
G01*
X151334274Y-111708131D01*
X151343218Y-111758731D01*
X151344604Y-111771875D01*
X151354401Y-111814719D01*
X151367641Y-111832000D01*
X151371996Y-111831441D01*
X151386000Y-111812461D01*
X151386568Y-111807791D01*
X151405538Y-111792923D01*
X151422184Y-111804110D01*
X151421673Y-111834022D01*
X151401631Y-111867169D01*
X151372629Y-111885008D01*
X151328219Y-111888056D01*
X151295404Y-111866751D01*
X151286695Y-111837347D01*
X151284792Y-111788597D01*
X151285160Y-111776349D01*
X151276118Y-111741798D01*
X151256939Y-111735970D01*
X151236759Y-111763615D01*
X151221413Y-111787313D01*
X151200456Y-111788235D01*
X151190615Y-111756238D01*
X151199950Y-111719963D01*
X151237078Y-111686452D01*
X151292117Y-111679077D01*
X151313778Y-111684845D01*
G37*
G36*
X152110201Y-109244483D02*
G01*
X152151541Y-109254818D01*
X152176077Y-109285871D01*
X152183579Y-109348459D01*
X152183326Y-109361909D01*
X152177975Y-109405103D01*
X152157691Y-109425407D01*
X152111534Y-109436136D01*
X152071205Y-109442232D01*
X152002362Y-109447463D01*
X151964311Y-109439879D01*
X151952615Y-109419000D01*
X151961036Y-109400782D01*
X151996577Y-109389425D01*
X151997518Y-109389419D01*
X152068060Y-109381861D01*
X152112307Y-109362306D01*
X152124153Y-109333435D01*
X152114388Y-109315909D01*
X152084432Y-109307142D01*
X152025514Y-109308413D01*
X151976467Y-109310154D01*
X151942622Y-109303917D01*
X151933077Y-109286532D01*
X151933204Y-109284892D01*
X151953124Y-109266314D01*
X151997954Y-109252125D01*
X152054660Y-109244218D01*
X152110201Y-109244483D01*
G37*
G36*
X148734072Y-112601389D02*
G01*
X148739384Y-112632156D01*
X148734659Y-112693694D01*
X148730573Y-112731285D01*
X148729642Y-112771351D01*
X148738645Y-112786746D01*
X148760003Y-112786313D01*
X148768995Y-112783699D01*
X148793460Y-112758022D01*
X148806923Y-112701461D01*
X148809636Y-112683161D01*
X148825632Y-112635397D01*
X148853735Y-112616630D01*
X148879694Y-112617969D01*
X148878158Y-112642462D01*
X148870114Y-112675735D01*
X148865538Y-112728633D01*
X148864990Y-112746165D01*
X148848303Y-112807229D01*
X148807742Y-112837494D01*
X148742495Y-112837684D01*
X148734642Y-112836185D01*
X148691155Y-112823608D01*
X148673572Y-112800379D01*
X148670421Y-112753018D01*
X148670467Y-112746964D01*
X148677199Y-112664872D01*
X148694283Y-112612440D01*
X148720358Y-112594000D01*
X148734072Y-112601389D01*
G37*
G36*
X149173524Y-106677063D02*
G01*
X149192061Y-106677111D01*
X149246356Y-106685631D01*
X149274686Y-106708763D01*
X149288429Y-106749918D01*
X149294790Y-106805280D01*
X149293478Y-106826086D01*
X149268916Y-106881045D01*
X149217326Y-106911579D01*
X149143961Y-106913905D01*
X149138126Y-106912979D01*
X149104935Y-106905321D01*
X149087800Y-106889326D01*
X149081411Y-106854747D01*
X149080789Y-106813246D01*
X149142308Y-106813246D01*
X149153306Y-106843739D01*
X149187923Y-106859461D01*
X149190062Y-106859401D01*
X149220268Y-106842051D01*
X149235035Y-106805235D01*
X149231665Y-106765533D01*
X149207457Y-106739525D01*
X149173523Y-106737286D01*
X149146983Y-106763164D01*
X149142308Y-106813246D01*
X149080789Y-106813246D01*
X149080461Y-106791337D01*
X149080461Y-106678802D01*
X149167819Y-106677048D01*
X149173524Y-106677063D01*
G37*
G36*
X149630438Y-109413272D02*
G01*
X149644729Y-109429458D01*
X149647076Y-109466723D01*
X149647070Y-109468373D01*
X149641344Y-109509455D01*
X149628152Y-109526461D01*
X149620339Y-109523057D01*
X149619714Y-109499130D01*
X149619832Y-109498819D01*
X149618528Y-109469968D01*
X149600025Y-109455779D01*
X149578889Y-109467527D01*
X149574648Y-109473110D01*
X149547078Y-109487384D01*
X149539873Y-109485112D01*
X149541182Y-109465311D01*
X149544979Y-109454135D01*
X149527682Y-109452684D01*
X149513629Y-109464338D01*
X149507056Y-109499181D01*
X149507075Y-109499292D01*
X149507199Y-109523434D01*
X149490570Y-109513883D01*
X149479686Y-109497096D01*
X149474453Y-109455267D01*
X149479779Y-109440828D01*
X149507135Y-109421964D01*
X149564207Y-109412992D01*
X149593329Y-109411114D01*
X149630438Y-109413272D01*
G37*
G36*
X151749307Y-108144329D02*
G01*
X151775204Y-108173422D01*
X151790814Y-108203360D01*
X151791560Y-108230919D01*
X151769140Y-108266608D01*
X151756177Y-108282336D01*
X151730500Y-108293436D01*
X151690067Y-108280111D01*
X151676388Y-108273926D01*
X151638577Y-108259227D01*
X151623305Y-108262437D01*
X151620461Y-108284141D01*
X151622514Y-108295949D01*
X151644885Y-108320542D01*
X151654001Y-108326059D01*
X151653717Y-108345903D01*
X151636224Y-108354469D01*
X151606786Y-108342381D01*
X151582022Y-108309042D01*
X151571615Y-108264101D01*
X151571946Y-108245700D01*
X151578875Y-108220022D01*
X151603168Y-108210850D01*
X151655625Y-108211411D01*
X151670471Y-108212014D01*
X151714713Y-108210954D01*
X151730830Y-108200743D01*
X151727577Y-108177218D01*
X151725216Y-108168269D01*
X151729080Y-108142895D01*
X151749307Y-108144329D01*
G37*
G36*
X146375322Y-108550316D02*
G01*
X146389548Y-108566944D01*
X146403692Y-108609393D01*
X146404376Y-108620868D01*
X146417606Y-108652023D01*
X146438788Y-108656471D01*
X146456132Y-108629658D01*
X146466101Y-108604938D01*
X146484126Y-108588615D01*
X146486809Y-108588819D01*
X146501384Y-108606354D01*
X146500310Y-108641638D01*
X146486360Y-108679770D01*
X146462308Y-108705846D01*
X146451405Y-108710796D01*
X146400749Y-108713107D01*
X146361099Y-108685954D01*
X146345077Y-108636774D01*
X146340302Y-108605315D01*
X146325539Y-108588615D01*
X146316064Y-108592522D01*
X146306000Y-108619551D01*
X146303078Y-108634269D01*
X146284996Y-108643487D01*
X146278978Y-108640850D01*
X146265458Y-108622319D01*
X146265999Y-108615101D01*
X146266923Y-108580163D01*
X146269954Y-108567081D01*
X146296799Y-108543984D01*
X146337585Y-108536836D01*
X146375322Y-108550316D01*
G37*
G36*
X148234580Y-106849604D02*
G01*
X148274887Y-106893230D01*
X148292407Y-106947818D01*
X148289254Y-107007119D01*
X148261240Y-107048846D01*
X148211466Y-107064615D01*
X148179357Y-107068947D01*
X148152385Y-107084154D01*
X148144266Y-107095080D01*
X148122236Y-107100961D01*
X148099559Y-107070525D01*
X148074988Y-107002454D01*
X148060656Y-106954281D01*
X148058216Y-106944379D01*
X148123077Y-106944379D01*
X148123821Y-106956030D01*
X148141668Y-106997290D01*
X148174609Y-107016668D01*
X148211000Y-107006000D01*
X148226525Y-106990184D01*
X148238244Y-106948885D01*
X148211249Y-106908515D01*
X148172713Y-106893279D01*
X148137894Y-106906668D01*
X148123077Y-106944379D01*
X148058216Y-106944379D01*
X148049470Y-106908881D01*
X148051650Y-106883728D01*
X148069227Y-106868410D01*
X148104231Y-106852517D01*
X148172714Y-106836092D01*
X148174600Y-106835639D01*
X148234580Y-106849604D01*
G37*
G36*
X151779063Y-110899508D02*
G01*
X151802596Y-110902536D01*
X151877029Y-110934542D01*
X151891715Y-110942155D01*
X151932687Y-110968000D01*
X151947207Y-110992729D01*
X151943113Y-111027349D01*
X151936100Y-111050644D01*
X151898874Y-111113187D01*
X151847176Y-111143792D01*
X151787673Y-111140211D01*
X151727035Y-111100196D01*
X151691329Y-111055768D01*
X151681840Y-111010997D01*
X151687795Y-111002317D01*
X151750432Y-111002317D01*
X151751074Y-111043060D01*
X151774432Y-111068373D01*
X151816787Y-111084438D01*
X151854748Y-111079877D01*
X151863883Y-111072596D01*
X151875997Y-111038751D01*
X151861012Y-111002918D01*
X151823518Y-110979805D01*
X151779063Y-110979241D01*
X151750432Y-111002317D01*
X151687795Y-111002317D01*
X151708385Y-110972308D01*
X151723908Y-110955311D01*
X151737691Y-110921069D01*
X151737930Y-110916618D01*
X151756045Y-110896545D01*
X151779063Y-110899508D01*
G37*
G36*
X152012460Y-110296550D02*
G01*
X152013564Y-110296696D01*
X152044925Y-110301221D01*
X152102600Y-110311481D01*
X152138356Y-110320521D01*
X152151260Y-110328634D01*
X152155611Y-110350569D01*
X152146421Y-110379863D01*
X152139848Y-110428143D01*
X152129224Y-110473587D01*
X152107702Y-110504553D01*
X152060036Y-110520625D01*
X151992695Y-110516278D01*
X151932885Y-110487621D01*
X151931910Y-110486827D01*
X151905402Y-110458766D01*
X151897220Y-110424429D01*
X151900959Y-110390977D01*
X151963564Y-110390977D01*
X151965856Y-110426747D01*
X151993876Y-110453665D01*
X152038629Y-110460366D01*
X152071661Y-110445009D01*
X152085291Y-110410208D01*
X152066509Y-110371093D01*
X152054529Y-110360702D01*
X152012460Y-110349077D01*
X151972155Y-110376384D01*
X151963564Y-110390977D01*
X151900959Y-110390977D01*
X151903510Y-110368150D01*
X151917730Y-110283983D01*
X152012460Y-110296550D01*
G37*
G36*
X146166884Y-109047960D02*
G01*
X146216682Y-109086749D01*
X146262228Y-109122625D01*
X146299385Y-109143688D01*
X146333302Y-109147053D01*
X146377959Y-109137081D01*
X146392147Y-109133216D01*
X146440733Y-109121170D01*
X146468163Y-109116263D01*
X146473751Y-109122662D01*
X146465073Y-109149596D01*
X146442544Y-109165930D01*
X146390589Y-109187433D01*
X146320396Y-109209790D01*
X146242562Y-109229984D01*
X146167678Y-109244994D01*
X146106344Y-109251803D01*
X146091852Y-109250933D01*
X146077622Y-109238832D01*
X146089105Y-109218457D01*
X146120145Y-109197160D01*
X146164583Y-109182288D01*
X146173349Y-109180628D01*
X146212228Y-109171142D01*
X146218368Y-109160210D01*
X146196889Y-109141342D01*
X146169789Y-109122050D01*
X146132020Y-109097696D01*
X146119282Y-109085025D01*
X146117281Y-109048810D01*
X146122818Y-109038069D01*
X146138155Y-109032710D01*
X146166884Y-109047960D01*
G37*
G36*
X146326902Y-110470796D02*
G01*
X146367824Y-110501040D01*
X146389390Y-110562000D01*
X146395623Y-110597558D01*
X146401031Y-110632730D01*
X146397914Y-110638923D01*
X146368777Y-110656763D01*
X146318627Y-110676867D01*
X146259211Y-110694878D01*
X146202280Y-110706438D01*
X146198266Y-110705162D01*
X146180424Y-110680849D01*
X146160551Y-110635066D01*
X146159824Y-110632999D01*
X146145533Y-110582847D01*
X146145659Y-110581702D01*
X146208308Y-110581702D01*
X146211361Y-110604962D01*
X146236761Y-110633252D01*
X146284830Y-110630902D01*
X146319009Y-110610748D01*
X146333679Y-110576334D01*
X146315545Y-110542275D01*
X146303412Y-110534614D01*
X146261622Y-110529887D01*
X146224398Y-110547614D01*
X146208308Y-110581702D01*
X146145659Y-110581702D01*
X146149257Y-110549054D01*
X146172881Y-110512950D01*
X146211631Y-110478685D01*
X146261622Y-110467470D01*
X146275718Y-110464308D01*
X146326902Y-110470796D01*
G37*
G36*
X149477130Y-106701611D02*
G01*
X149478244Y-106701708D01*
X149482529Y-106702689D01*
X149542143Y-106716332D01*
X149582158Y-106743666D01*
X149599909Y-106777324D01*
X149604123Y-106843745D01*
X149572698Y-106908498D01*
X149545415Y-106934982D01*
X149511171Y-106944176D01*
X149455467Y-106938253D01*
X149424896Y-106932308D01*
X149390861Y-106918350D01*
X149375359Y-106891947D01*
X149374889Y-106844500D01*
X149378112Y-106822049D01*
X149437802Y-106822049D01*
X149457809Y-106864183D01*
X149461252Y-106867561D01*
X149489918Y-106884547D01*
X149519096Y-106870044D01*
X149527150Y-106862281D01*
X149545005Y-106823970D01*
X149540744Y-106785433D01*
X149518531Y-106759370D01*
X149482529Y-106758479D01*
X149451102Y-106780809D01*
X149437802Y-106822049D01*
X149378112Y-106822049D01*
X149385955Y-106767410D01*
X149390061Y-106743880D01*
X149401627Y-106710368D01*
X149426367Y-106699370D01*
X149477130Y-106701611D01*
G37*
G36*
X150507865Y-107008671D02*
G01*
X150554308Y-107024986D01*
X150555366Y-107025523D01*
X150600888Y-107048609D01*
X150628691Y-107070722D01*
X150641991Y-107110915D01*
X150635156Y-107163929D01*
X150610257Y-107214755D01*
X150573716Y-107254363D01*
X150531960Y-107273713D01*
X150491411Y-107263773D01*
X150468903Y-107249332D01*
X150423731Y-107227846D01*
X150405418Y-107219077D01*
X150389538Y-107199628D01*
X150390068Y-107194774D01*
X150400996Y-107162609D01*
X150467692Y-107162609D01*
X150467717Y-107164408D01*
X150482955Y-107199323D01*
X150516752Y-107209086D01*
X150555050Y-107189389D01*
X150577726Y-107157423D01*
X150581691Y-107117511D01*
X150555366Y-107091124D01*
X150517273Y-107092658D01*
X150482525Y-107120196D01*
X150467692Y-107162609D01*
X150400996Y-107162609D01*
X150401828Y-107160159D01*
X150424165Y-107111470D01*
X150450600Y-107061212D01*
X150474654Y-107021887D01*
X150489852Y-107006000D01*
X150507865Y-107008671D01*
G37*
G36*
X146563595Y-110704826D02*
G01*
X146567007Y-110711236D01*
X146565428Y-110743320D01*
X146534424Y-110757684D01*
X146498589Y-110764129D01*
X146473009Y-110791226D01*
X146481217Y-110834364D01*
X146490571Y-110882638D01*
X146470528Y-110930558D01*
X146427918Y-110968066D01*
X146371146Y-110987927D01*
X146308617Y-110982907D01*
X146295660Y-110975749D01*
X146266815Y-110941119D01*
X146247448Y-110900364D01*
X146311266Y-110900364D01*
X146336457Y-110924973D01*
X146380382Y-110924658D01*
X146416665Y-110903509D01*
X146431324Y-110869102D01*
X146412549Y-110834781D01*
X146385302Y-110821890D01*
X146342837Y-110829651D01*
X146312732Y-110865716D01*
X146311266Y-110900364D01*
X146247448Y-110900364D01*
X146243979Y-110893064D01*
X146233167Y-110846326D01*
X146240391Y-110815647D01*
X146243621Y-110813164D01*
X146276276Y-110795944D01*
X146332965Y-110770506D01*
X146385302Y-110748966D01*
X146403692Y-110741397D01*
X146483345Y-110712461D01*
X146539097Y-110699218D01*
X146563595Y-110704826D01*
G37*
G36*
X147245212Y-107201604D02*
G01*
X147276933Y-107242150D01*
X147318889Y-107295947D01*
X147365322Y-107362440D01*
X147394549Y-107429968D01*
X147392828Y-107485277D01*
X147361077Y-107533538D01*
X147349505Y-107544356D01*
X147302937Y-107570463D01*
X147253815Y-107566306D01*
X147197146Y-107530331D01*
X147127939Y-107460985D01*
X147080499Y-107404725D01*
X147044527Y-107350790D01*
X147038575Y-107319165D01*
X147062207Y-107308846D01*
X147078077Y-107317449D01*
X147112953Y-107349371D01*
X147155592Y-107396769D01*
X147159982Y-107402033D01*
X147215498Y-107464380D01*
X147255639Y-107498024D01*
X147286270Y-107506567D01*
X147313254Y-107493612D01*
X147318727Y-107488854D01*
X147337047Y-107462936D01*
X147334979Y-107431076D01*
X147310286Y-107385870D01*
X147260727Y-107319917D01*
X147256822Y-107314993D01*
X147213988Y-107256067D01*
X147196513Y-107218408D01*
X147201786Y-107196552D01*
X147213280Y-107187011D01*
X147230640Y-107183149D01*
X147245212Y-107201604D01*
G37*
G36*
X151142907Y-111853610D02*
G01*
X151188590Y-111901064D01*
X151207346Y-111923123D01*
X151237381Y-111962415D01*
X151249231Y-111984302D01*
X151248280Y-111990247D01*
X151227242Y-112023356D01*
X151188517Y-112061310D01*
X151145299Y-112092556D01*
X151110783Y-112105538D01*
X151077709Y-112096538D01*
X151030093Y-112062594D01*
X150991557Y-112016027D01*
X150978616Y-111978831D01*
X151042173Y-111978831D01*
X151069043Y-112012188D01*
X151085976Y-112028020D01*
X151113954Y-112041651D01*
X151140705Y-112028269D01*
X151161042Y-112008207D01*
X151167763Y-111977876D01*
X151140374Y-111940857D01*
X151116710Y-111920353D01*
X151085173Y-111913398D01*
X151052962Y-111940527D01*
X151043809Y-111953359D01*
X151042173Y-111978831D01*
X150978616Y-111978831D01*
X150975692Y-111970427D01*
X150980200Y-111946036D01*
X151005678Y-111906039D01*
X151023525Y-111890853D01*
X151062898Y-111856423D01*
X151081493Y-111841942D01*
X151085172Y-111841055D01*
X151110279Y-111834993D01*
X151142907Y-111853610D01*
G37*
G36*
X146526172Y-111027506D02*
G01*
X146569902Y-111054057D01*
X146603085Y-111089964D01*
X146614794Y-111134224D01*
X146609052Y-111156537D01*
X146589567Y-111180892D01*
X146569333Y-111175794D01*
X146560000Y-111140013D01*
X146559998Y-111139223D01*
X146551203Y-111100565D01*
X146520923Y-111089538D01*
X146520464Y-111089539D01*
X146488715Y-111095986D01*
X146486203Y-111118772D01*
X146512285Y-111163379D01*
X146531992Y-111206680D01*
X146519134Y-111235771D01*
X146472318Y-111245846D01*
X146431744Y-111239825D01*
X146388055Y-111210738D01*
X146368618Y-111166074D01*
X146369408Y-111158566D01*
X146425666Y-111158566D01*
X146438247Y-111190984D01*
X146461694Y-111206769D01*
X146467968Y-111206250D01*
X146480566Y-111189085D01*
X146463071Y-111148719D01*
X146451232Y-111135377D01*
X146431648Y-111133223D01*
X146425666Y-111158566D01*
X146369408Y-111158566D01*
X146373948Y-111115402D01*
X146404559Y-111068294D01*
X146431648Y-111051977D01*
X146460965Y-111034319D01*
X146484304Y-111027265D01*
X146526172Y-111027506D01*
G37*
G36*
X149758905Y-106618850D02*
G01*
X149768980Y-106623131D01*
X149800700Y-106654161D01*
X149831132Y-106703415D01*
X149868710Y-106781307D01*
X149887720Y-106717808D01*
X149889537Y-106712094D01*
X149910292Y-106671098D01*
X149933211Y-106654308D01*
X149935907Y-106654347D01*
X149950604Y-106658340D01*
X149957274Y-106673621D01*
X149955710Y-106706885D01*
X149945706Y-106764824D01*
X149927057Y-106854130D01*
X149905632Y-106939954D01*
X149885564Y-106989916D01*
X149865945Y-107006000D01*
X149851409Y-107001234D01*
X149844967Y-106976588D01*
X149850732Y-106923045D01*
X149863997Y-106840091D01*
X149798568Y-106903507D01*
X149782244Y-106918180D01*
X149729946Y-106953223D01*
X149686040Y-106966923D01*
X149683218Y-106966914D01*
X149661399Y-106964353D01*
X149659278Y-106952981D01*
X149679601Y-106926626D01*
X149725114Y-106879119D01*
X149811286Y-106791315D01*
X149767771Y-106701746D01*
X149751640Y-106667885D01*
X149737513Y-106631998D01*
X149740216Y-106618281D01*
X149758905Y-106618850D01*
G37*
G36*
X151633109Y-111161464D02*
G01*
X151656691Y-111192813D01*
X151683145Y-111246759D01*
X151725328Y-111348265D01*
X151829202Y-111337544D01*
X151870539Y-111334458D01*
X151915575Y-111334974D01*
X151933077Y-111341042D01*
X151917512Y-111371711D01*
X151870041Y-111394209D01*
X151797285Y-111402776D01*
X151780384Y-111402973D01*
X151739424Y-111406020D01*
X151730105Y-111415944D01*
X151753147Y-111436989D01*
X151809269Y-111473399D01*
X151829943Y-111491995D01*
X151825441Y-111516559D01*
X151822039Y-111519053D01*
X151792501Y-111517483D01*
X151737569Y-111494229D01*
X151654479Y-111448186D01*
X151621949Y-111428631D01*
X151561085Y-111389630D01*
X151518967Y-111359204D01*
X151503230Y-111342680D01*
X151512448Y-111320356D01*
X151544546Y-111315207D01*
X151591212Y-111335604D01*
X151614414Y-111349460D01*
X151646038Y-111358079D01*
X151651841Y-111337435D01*
X151631671Y-111287709D01*
X151613731Y-111248320D01*
X151602223Y-111190831D01*
X151620942Y-111157626D01*
X151633109Y-111161464D01*
G37*
G36*
X152230250Y-109546448D02*
G01*
X152287032Y-109550318D01*
X152315839Y-109559427D01*
X152323846Y-109575308D01*
X152323040Y-109581554D01*
X152308197Y-109595502D01*
X152269031Y-109602621D01*
X152198242Y-109604615D01*
X152131599Y-109607940D01*
X152061471Y-109624139D01*
X152024896Y-109652875D01*
X152023920Y-109693104D01*
X152030875Y-109706503D01*
X152047494Y-109718521D01*
X152079526Y-109724446D01*
X152134831Y-109725458D01*
X152221268Y-109722733D01*
X152250141Y-109721793D01*
X152307050Y-109722949D01*
X152335578Y-109730862D01*
X152343385Y-109747058D01*
X152337934Y-109767960D01*
X152310850Y-109786868D01*
X152256074Y-109796994D01*
X152168105Y-109800000D01*
X152135880Y-109799167D01*
X152050776Y-109783945D01*
X151994599Y-109747697D01*
X151962869Y-109687979D01*
X151962147Y-109685355D01*
X151964793Y-109641846D01*
X151999360Y-109595171D01*
X152027253Y-109570953D01*
X152061436Y-109554961D01*
X152110372Y-109547709D01*
X152186189Y-109546000D01*
X152230250Y-109546448D01*
G37*
G36*
X146614673Y-108105709D02*
G01*
X146673546Y-108139992D01*
X146702681Y-108177466D01*
X146716308Y-108218146D01*
X146712011Y-108239073D01*
X146687487Y-108282105D01*
X146652141Y-108318976D01*
X146618615Y-108334615D01*
X146613842Y-108334137D01*
X146599669Y-108317494D01*
X146605388Y-108289904D01*
X146628385Y-108268934D01*
X146648565Y-108252559D01*
X146656934Y-108217998D01*
X146639462Y-108188885D01*
X146636716Y-108187908D01*
X146613960Y-108200478D01*
X146586403Y-108236578D01*
X146572076Y-108259733D01*
X146544738Y-108289882D01*
X146520192Y-108285234D01*
X146489819Y-108246692D01*
X146472489Y-108217309D01*
X146469420Y-108189705D01*
X146520923Y-108189705D01*
X146524195Y-108204403D01*
X146544125Y-108212907D01*
X146569844Y-108193593D01*
X146573255Y-108170158D01*
X146551859Y-108158769D01*
X146536654Y-108162790D01*
X146520923Y-108189705D01*
X146469420Y-108189705D01*
X146469146Y-108187240D01*
X146489819Y-108149000D01*
X146502499Y-108133005D01*
X146551859Y-108104757D01*
X146553948Y-108103562D01*
X146614673Y-108105709D01*
G37*
G36*
X147707949Y-106832735D02*
G01*
X147734213Y-106859909D01*
X147761095Y-106907154D01*
X147773375Y-106933823D01*
X147792665Y-106965788D01*
X147811786Y-106970702D01*
X147840906Y-106954612D01*
X147872597Y-106943600D01*
X147886775Y-106938673D01*
X147940269Y-106953055D01*
X147984877Y-107001355D01*
X147995721Y-107025622D01*
X148004260Y-107085385D01*
X147990893Y-107135688D01*
X147987392Y-107139923D01*
X147954772Y-107163101D01*
X147905291Y-107187577D01*
X147834044Y-107217239D01*
X147767546Y-107069412D01*
X147833514Y-107069412D01*
X147848214Y-107102588D01*
X147888348Y-107113461D01*
X147895346Y-107113196D01*
X147933713Y-107096736D01*
X147943074Y-107063637D01*
X147919010Y-107026440D01*
X147913250Y-107022053D01*
X147872597Y-107010259D01*
X147841792Y-107028170D01*
X147833514Y-107069412D01*
X147767546Y-107069412D01*
X147753574Y-107038351D01*
X147727316Y-106979709D01*
X147697162Y-106909994D01*
X147680887Y-106866135D01*
X147676961Y-106842176D01*
X147683853Y-106832167D01*
X147700032Y-106830154D01*
X147707949Y-106832735D01*
G37*
G36*
X151908050Y-108550183D02*
G01*
X151923308Y-108555920D01*
X151949143Y-108565633D01*
X151980815Y-108592963D01*
X151993163Y-108610965D01*
X152008191Y-108642639D01*
X152001183Y-108671078D01*
X151970736Y-108712980D01*
X151958398Y-108726968D01*
X151904822Y-108761020D01*
X151848713Y-108766216D01*
X151799642Y-108745823D01*
X151767177Y-108703108D01*
X151760888Y-108641338D01*
X151763609Y-108628228D01*
X151779696Y-108605068D01*
X151797605Y-108613932D01*
X151806077Y-108652130D01*
X151811977Y-108679198D01*
X151842873Y-108702531D01*
X151855173Y-108704279D01*
X151871697Y-108695845D01*
X151867379Y-108660748D01*
X151857277Y-108624003D01*
X151856188Y-108620663D01*
X151895308Y-108620663D01*
X151905816Y-108655290D01*
X151914623Y-108669816D01*
X151935123Y-108675273D01*
X151951356Y-108652203D01*
X151947337Y-108622519D01*
X151923308Y-108608154D01*
X151905517Y-108609157D01*
X151895308Y-108620663D01*
X151856188Y-108620663D01*
X151843147Y-108580661D01*
X151844446Y-108559102D01*
X151869247Y-108547657D01*
X151908050Y-108550183D01*
G37*
G36*
X149513854Y-112603823D02*
G01*
X149560330Y-112611729D01*
X149583927Y-112629242D01*
X149583976Y-112629389D01*
X149577185Y-112647239D01*
X149537403Y-112648780D01*
X149533409Y-112648381D01*
X149491914Y-112652756D01*
X149474889Y-112679573D01*
X149474197Y-112702022D01*
X149491818Y-112709359D01*
X149537694Y-112703111D01*
X149540623Y-112702567D01*
X149542212Y-112702270D01*
X149586259Y-112696865D01*
X149604439Y-112706707D01*
X149608000Y-112737261D01*
X149607793Y-112744189D01*
X149589911Y-112794261D01*
X149550823Y-112822341D01*
X149501374Y-112827086D01*
X149452407Y-112807150D01*
X149420079Y-112767673D01*
X149473010Y-112767673D01*
X149496967Y-112780111D01*
X149519832Y-112784759D01*
X149552400Y-112774645D01*
X149553759Y-112773245D01*
X149561440Y-112751608D01*
X149540623Y-112742655D01*
X149500538Y-112750655D01*
X149484308Y-112757173D01*
X149473010Y-112767673D01*
X149420079Y-112767673D01*
X149414773Y-112761193D01*
X149400936Y-112717219D01*
X149408182Y-112659160D01*
X149445840Y-112618859D01*
X149509429Y-112603769D01*
X149513854Y-112603823D01*
G37*
G36*
X150373609Y-112340497D02*
G01*
X150394294Y-112361385D01*
X150417662Y-112403500D01*
X150435783Y-112455268D01*
X150442969Y-112520776D01*
X150428846Y-112568554D01*
X150394423Y-112590474D01*
X150366486Y-112595147D01*
X150353880Y-112605390D01*
X150359955Y-112630754D01*
X150383481Y-112681456D01*
X150394952Y-112707264D01*
X150404904Y-112748127D01*
X150393576Y-112773624D01*
X150380961Y-112784036D01*
X150363144Y-112788082D01*
X150357193Y-112779226D01*
X150337371Y-112740152D01*
X150310787Y-112681039D01*
X150281225Y-112611173D01*
X150252474Y-112539840D01*
X150228320Y-112476323D01*
X150212546Y-112429909D01*
X150208939Y-112409881D01*
X150210551Y-112408323D01*
X150233852Y-112399959D01*
X150259418Y-112421539D01*
X150291846Y-112476769D01*
X150303955Y-112498912D01*
X150331455Y-112539026D01*
X150351472Y-112554923D01*
X150355646Y-112554672D01*
X150378336Y-112535940D01*
X150380324Y-112494185D01*
X150360846Y-112438882D01*
X150342918Y-112393043D01*
X150344231Y-112354137D01*
X150371097Y-112340000D01*
X150373609Y-112340497D01*
G37*
G36*
X151476192Y-111486341D02*
G01*
X151444323Y-111519666D01*
X151430947Y-111530307D01*
X151409693Y-111557146D01*
X151418889Y-111579549D01*
X151430354Y-111587412D01*
X151455289Y-111581678D01*
X151492202Y-111546412D01*
X151505142Y-111531999D01*
X151532935Y-111505666D01*
X151535457Y-111505610D01*
X151551102Y-111505263D01*
X151571659Y-111528003D01*
X151589921Y-111556342D01*
X151600923Y-111587157D01*
X151600245Y-111595455D01*
X151578896Y-111640703D01*
X151538642Y-111679053D01*
X151494518Y-111695231D01*
X151455352Y-111689070D01*
X151405731Y-111659163D01*
X151377809Y-111619469D01*
X151483692Y-111619469D01*
X151486981Y-111627336D01*
X151513000Y-111636615D01*
X151530641Y-111628835D01*
X151542308Y-111595145D01*
X151542147Y-111585667D01*
X151535457Y-111565415D01*
X151513000Y-111578000D01*
X151497060Y-111594006D01*
X151483692Y-111619469D01*
X151377809Y-111619469D01*
X151373371Y-111613160D01*
X151361825Y-111560876D01*
X151374647Y-111512123D01*
X151415390Y-111476716D01*
X151441780Y-111466929D01*
X151473928Y-111466658D01*
X151476192Y-111486341D01*
G37*
G36*
X148946812Y-106698852D02*
G01*
X148963233Y-106716883D01*
X148971896Y-106755858D01*
X148974996Y-106776520D01*
X148982903Y-106845021D01*
X148988990Y-106918077D01*
X148991330Y-106952197D01*
X148995577Y-107004346D01*
X148998786Y-107031857D01*
X148995028Y-107039630D01*
X148968115Y-107041403D01*
X148942559Y-107023290D01*
X148924154Y-106976470D01*
X148918670Y-106951465D01*
X148899152Y-106924390D01*
X148856518Y-106918077D01*
X148820493Y-106911812D01*
X148774821Y-106877896D01*
X148752358Y-106823458D01*
X148813557Y-106823458D01*
X148833736Y-106855937D01*
X148872102Y-106865485D01*
X148887350Y-106861144D01*
X148915379Y-106832229D01*
X148918887Y-106790728D01*
X148894808Y-106751968D01*
X148890713Y-106748653D01*
X148862298Y-106736662D01*
X148833242Y-106756384D01*
X148816490Y-106781871D01*
X148813557Y-106823458D01*
X148752358Y-106823458D01*
X148752312Y-106823346D01*
X148759093Y-106758214D01*
X148762315Y-106749426D01*
X148780437Y-106718964D01*
X148811961Y-106703926D01*
X148862297Y-106698101D01*
X148869716Y-106697243D01*
X148910983Y-106695080D01*
X148946812Y-106698852D01*
G37*
G36*
X151364069Y-107675322D02*
G01*
X151392202Y-107680263D01*
X151433738Y-107713732D01*
X151436458Y-107717663D01*
X151460630Y-107767038D01*
X151454017Y-107809530D01*
X151414934Y-107858073D01*
X151390218Y-107878829D01*
X151330725Y-107901498D01*
X151274850Y-107888975D01*
X151230595Y-107841960D01*
X151224125Y-107829888D01*
X151211895Y-107791554D01*
X151224368Y-107765510D01*
X151231120Y-107759638D01*
X151249607Y-107759942D01*
X151267559Y-107794126D01*
X151289243Y-107829762D01*
X151317132Y-107846154D01*
X151317716Y-107846152D01*
X151342519Y-107838955D01*
X151339711Y-107814592D01*
X151308787Y-107768344D01*
X151307742Y-107766976D01*
X151290655Y-107735774D01*
X151334338Y-107735774D01*
X151346923Y-107758231D01*
X151362929Y-107774171D01*
X151388392Y-107787538D01*
X151396261Y-107784250D01*
X151405538Y-107758231D01*
X151397758Y-107740590D01*
X151364069Y-107728923D01*
X151354590Y-107729084D01*
X151334338Y-107735774D01*
X151290655Y-107735774D01*
X151284655Y-107724818D01*
X151292076Y-107695075D01*
X151297744Y-107689132D01*
X151341475Y-107671352D01*
X151364069Y-107675322D01*
G37*
G36*
X149647077Y-110129875D02*
G01*
X149637426Y-110143571D01*
X149603115Y-110152126D01*
X149599850Y-110152160D01*
X149573322Y-110154069D01*
X149575705Y-110164179D01*
X149608000Y-110190338D01*
X149634870Y-110213409D01*
X149645275Y-110238255D01*
X149630399Y-110271033D01*
X149621167Y-110286926D01*
X149614979Y-110313453D01*
X149635284Y-110331485D01*
X149640902Y-110334820D01*
X149665301Y-110360172D01*
X149658185Y-110377164D01*
X149622654Y-110375092D01*
X149582313Y-110361881D01*
X149517703Y-110335254D01*
X149491006Y-110313000D01*
X149501674Y-110294403D01*
X149549160Y-110278741D01*
X149557741Y-110276742D01*
X149604350Y-110259934D01*
X149621829Y-110243434D01*
X149608376Y-110233237D01*
X149562191Y-110235337D01*
X149549901Y-110237066D01*
X149507690Y-110237746D01*
X149490769Y-110228618D01*
X149494871Y-110219607D01*
X149522241Y-110210308D01*
X149531905Y-110209497D01*
X149535329Y-110198790D01*
X149507588Y-110171881D01*
X149461461Y-110133454D01*
X149510308Y-110132537D01*
X149546783Y-110129813D01*
X149603115Y-110119839D01*
X149631375Y-110116686D01*
X149647077Y-110129875D01*
G37*
G36*
X151968890Y-110612992D02*
G01*
X152018365Y-110641572D01*
X152022105Y-110644555D01*
X152055945Y-110676141D01*
X152069846Y-110697801D01*
X152067859Y-110713963D01*
X152052999Y-110757732D01*
X152029585Y-110803583D01*
X152004801Y-110838538D01*
X151985829Y-110849618D01*
X151983646Y-110848814D01*
X151950095Y-110837398D01*
X151892077Y-110818307D01*
X151820731Y-110795211D01*
X151749072Y-110769221D01*
X151697406Y-110743093D01*
X151679991Y-110723105D01*
X151877976Y-110723105D01*
X151892311Y-110755731D01*
X151935465Y-110773096D01*
X151952435Y-110773835D01*
X151990309Y-110759897D01*
X151998044Y-110728255D01*
X151971564Y-110688466D01*
X151956583Y-110677015D01*
X151915255Y-110665212D01*
X151885416Y-110681921D01*
X151877976Y-110723105D01*
X151679991Y-110723105D01*
X151679077Y-110722056D01*
X151680624Y-110712765D01*
X151699823Y-110702276D01*
X151747462Y-110707249D01*
X151774139Y-110711462D01*
X151806884Y-110709495D01*
X151815846Y-110691281D01*
X151830529Y-110650886D01*
X151870722Y-110615577D01*
X151915254Y-110603001D01*
X151922067Y-110601077D01*
X151922137Y-110601077D01*
X151968890Y-110612992D01*
G37*
G36*
X147136524Y-111814936D02*
G01*
X147141157Y-111836884D01*
X147121463Y-111891882D01*
X147111875Y-111930664D01*
X147117768Y-111944748D01*
X147139014Y-111940199D01*
X147161253Y-111931622D01*
X147209654Y-111915427D01*
X147215618Y-111913818D01*
X147235949Y-111913088D01*
X147241384Y-111928981D01*
X147231780Y-111967940D01*
X147206997Y-112036406D01*
X147186106Y-112083743D01*
X147160767Y-112125178D01*
X147139964Y-112145041D01*
X147128482Y-112139120D01*
X147131107Y-112103204D01*
X147139714Y-112069579D01*
X147156259Y-112020525D01*
X147158307Y-112015576D01*
X147163485Y-111996196D01*
X147149746Y-111996708D01*
X147109352Y-112016439D01*
X147071476Y-112033335D01*
X147034555Y-112036974D01*
X147024340Y-112012250D01*
X147040130Y-111958574D01*
X147051839Y-111929180D01*
X147058808Y-111897816D01*
X147042616Y-111896354D01*
X146999787Y-111921607D01*
X146961589Y-111938782D01*
X146925983Y-111936785D01*
X146911692Y-111911407D01*
X146914404Y-111906666D01*
X146941845Y-111887658D01*
X146989059Y-111863144D01*
X147043855Y-111838713D01*
X147094046Y-111819956D01*
X147127443Y-111812461D01*
X147136524Y-111814936D01*
G37*
G36*
X149557774Y-109819653D02*
G01*
X149578692Y-109821405D01*
X149603427Y-109823477D01*
X149623234Y-109836656D01*
X149627538Y-109864477D01*
X149622918Y-109895599D01*
X149603115Y-109935303D01*
X149588490Y-109957100D01*
X149603115Y-109970147D01*
X149612148Y-109974819D01*
X149627538Y-109998166D01*
X149625723Y-110004837D01*
X149606889Y-110004467D01*
X149586399Y-109998715D01*
X149545152Y-110002520D01*
X149507335Y-110016934D01*
X149490769Y-110036971D01*
X149490890Y-110038428D01*
X149510913Y-110050512D01*
X149559154Y-110050292D01*
X149571473Y-110049000D01*
X149616007Y-110049838D01*
X149624484Y-110064410D01*
X149597652Y-110093557D01*
X149596019Y-110094888D01*
X149562772Y-110108451D01*
X149518165Y-110095760D01*
X149497168Y-110082544D01*
X149474932Y-110043562D01*
X149484361Y-110000349D01*
X149524846Y-109964822D01*
X149529403Y-109962453D01*
X149555141Y-109940140D01*
X149549831Y-109926195D01*
X149516195Y-109931193D01*
X149489890Y-109930760D01*
X149463080Y-109903012D01*
X149457487Y-109878154D01*
X149490769Y-109878154D01*
X149491337Y-109882823D01*
X149510308Y-109897692D01*
X149514978Y-109897124D01*
X149529846Y-109878154D01*
X149549385Y-109878154D01*
X149552691Y-109887142D01*
X149578692Y-109897692D01*
X149592175Y-109895488D01*
X149608000Y-109878154D01*
X149604693Y-109869165D01*
X149578691Y-109858615D01*
X149565210Y-109860820D01*
X149549385Y-109878154D01*
X149529846Y-109878154D01*
X149529278Y-109873483D01*
X149510309Y-109858615D01*
X149505637Y-109859183D01*
X149490769Y-109878154D01*
X149457487Y-109878154D01*
X149451991Y-109853731D01*
X149457698Y-109833875D01*
X149483828Y-109822529D01*
X149510308Y-109821109D01*
X149539615Y-109819538D01*
X149557774Y-109819653D01*
G37*
G36*
X147341538Y-108215727D02*
G01*
X148430808Y-108222348D01*
X148582757Y-108223288D01*
X148802159Y-108224768D01*
X148987907Y-108226282D01*
X149143366Y-108227955D01*
X149271904Y-108229910D01*
X149376887Y-108232275D01*
X149461681Y-108235173D01*
X149529652Y-108238730D01*
X149584167Y-108243070D01*
X149628594Y-108248319D01*
X149666297Y-108254600D01*
X149700643Y-108262041D01*
X149735000Y-108270765D01*
X149735766Y-108270969D01*
X150008011Y-108363141D01*
X150263996Y-108490091D01*
X150502045Y-108650343D01*
X150720477Y-108842419D01*
X150917613Y-109064846D01*
X151091776Y-109316147D01*
X151241285Y-109594846D01*
X151247263Y-109607700D01*
X151276935Y-109674208D01*
X151298124Y-109726187D01*
X151306572Y-109753307D01*
X151298913Y-109777665D01*
X151276613Y-109829303D01*
X151243138Y-109900425D01*
X151201964Y-109983385D01*
X151123885Y-110127607D01*
X150951823Y-110391255D01*
X150758245Y-110622877D01*
X150543611Y-110822072D01*
X150308382Y-110988441D01*
X150053017Y-111121584D01*
X149777978Y-111221100D01*
X149598231Y-111273227D01*
X148440577Y-111280076D01*
X147282923Y-111286923D01*
X147282924Y-109762616D01*
X147341538Y-109762616D01*
X147341538Y-111249233D01*
X148421037Y-111240474D01*
X148539475Y-111239505D01*
X148768653Y-111237469D01*
X148964211Y-111235233D01*
X149129876Y-111232460D01*
X149269381Y-111228813D01*
X149386452Y-111223954D01*
X149484821Y-111217546D01*
X149568216Y-111209252D01*
X149640367Y-111198733D01*
X149705004Y-111185654D01*
X149765856Y-111169675D01*
X149826653Y-111150461D01*
X149891123Y-111127673D01*
X149962998Y-111100974D01*
X150101175Y-111041610D01*
X150318213Y-110917730D01*
X150526538Y-110762116D01*
X150721536Y-110579270D01*
X150898593Y-110373699D01*
X151053096Y-110149905D01*
X151180431Y-109912393D01*
X151191562Y-109888083D01*
X151220947Y-109821495D01*
X151241369Y-109771535D01*
X151248944Y-109747550D01*
X151248114Y-109742433D01*
X151233829Y-109705204D01*
X151205013Y-109644295D01*
X151165818Y-109567508D01*
X151120393Y-109482644D01*
X151072891Y-109397503D01*
X151027461Y-109319887D01*
X150988255Y-109257597D01*
X150823193Y-109035562D01*
X150623347Y-108822228D01*
X150405740Y-108642528D01*
X150171446Y-108497225D01*
X149921542Y-108387080D01*
X149657100Y-108312860D01*
X149640680Y-108309554D01*
X149598809Y-108302075D01*
X149553716Y-108295802D01*
X149501815Y-108290631D01*
X149439522Y-108286455D01*
X149363247Y-108283169D01*
X149269410Y-108280669D01*
X149154423Y-108278848D01*
X149014700Y-108277602D01*
X148846657Y-108276825D01*
X148646708Y-108276412D01*
X148411269Y-108276256D01*
X147341538Y-108276000D01*
X147341538Y-109762616D01*
X147282924Y-109762616D01*
X147282924Y-109751146D01*
X147282923Y-108215370D01*
X147341538Y-108215727D01*
G37*
G36*
X147878846Y-109124777D02*
G01*
X147885263Y-109128723D01*
X147904833Y-109162415D01*
X147905413Y-109164917D01*
X147918610Y-109191083D01*
X147924566Y-109202892D01*
X147933675Y-109214626D01*
X147958563Y-109246687D01*
X147983181Y-109281776D01*
X148002766Y-109337032D01*
X148003794Y-109387757D01*
X147984243Y-109420276D01*
X147982451Y-109421578D01*
X147982794Y-109444445D01*
X148015717Y-109482844D01*
X148016289Y-109483377D01*
X148035154Y-109505765D01*
X148050523Y-109524005D01*
X148061372Y-109536878D01*
X148074231Y-109559180D01*
X148095640Y-109596310D01*
X148116621Y-109640610D01*
X148139741Y-109664657D01*
X148143490Y-109668558D01*
X148177298Y-109662569D01*
X148227063Y-109624584D01*
X148247450Y-109607158D01*
X148285733Y-109577334D01*
X148287621Y-109576256D01*
X148306387Y-109565538D01*
X148309895Y-109574001D01*
X148314314Y-109613841D01*
X148317339Y-109678905D01*
X148318461Y-109760923D01*
X148318323Y-109801584D01*
X148316441Y-109878917D01*
X148311595Y-109926197D01*
X148302821Y-109949851D01*
X148289154Y-109956308D01*
X148275626Y-109953777D01*
X148259846Y-109934038D01*
X148259692Y-109931247D01*
X148240312Y-109898840D01*
X148199257Y-109871276D01*
X148151942Y-109859237D01*
X148133097Y-109862457D01*
X148109881Y-109886684D01*
X148090839Y-109941654D01*
X148080418Y-109981247D01*
X148040598Y-110120830D01*
X148003945Y-110226499D01*
X147968368Y-110302058D01*
X147931782Y-110351316D01*
X147892103Y-110378079D01*
X147847239Y-110386154D01*
X147805092Y-110377082D01*
X147761184Y-110340099D01*
X147736970Y-110284079D01*
X147736749Y-110264873D01*
X147756701Y-110264873D01*
X147774069Y-110306744D01*
X147802407Y-110342314D01*
X147837299Y-110363361D01*
X147869485Y-110359223D01*
X147915897Y-110327887D01*
X147957873Y-110275614D01*
X147986228Y-110211758D01*
X147991527Y-110192216D01*
X148003328Y-110140122D01*
X148002160Y-110124802D01*
X147988886Y-110146505D01*
X147964365Y-110205477D01*
X147928760Y-110280163D01*
X147888304Y-110327297D01*
X147847699Y-110337861D01*
X147808696Y-110310672D01*
X147794901Y-110288239D01*
X147785119Y-110243317D01*
X147794853Y-110206213D01*
X147822509Y-110190769D01*
X147835726Y-110186793D01*
X147849538Y-110159833D01*
X147846055Y-110142271D01*
X147827964Y-110136843D01*
X147801182Y-110157756D01*
X147773397Y-110200863D01*
X147762134Y-110226316D01*
X147756701Y-110264873D01*
X147736749Y-110264873D01*
X147736225Y-110219299D01*
X147762723Y-110156040D01*
X147789955Y-110127302D01*
X147821339Y-110112615D01*
X147831267Y-110110108D01*
X147845284Y-110084368D01*
X147849538Y-110026110D01*
X147847606Y-109983666D01*
X147833635Y-109936608D01*
X147800692Y-109901183D01*
X147799733Y-109900424D01*
X147786953Y-109887923D01*
X147829999Y-109887923D01*
X147839769Y-109897692D01*
X147849538Y-109887923D01*
X147839769Y-109878154D01*
X147829999Y-109887923D01*
X147786953Y-109887923D01*
X147765879Y-109867309D01*
X147751846Y-109841149D01*
X147746519Y-109832564D01*
X147816974Y-109832564D01*
X147819838Y-109834902D01*
X147839769Y-109832892D01*
X147843026Y-109832564D01*
X147846083Y-109826687D01*
X147830000Y-109819538D01*
X147819657Y-109820948D01*
X147816974Y-109832564D01*
X147746519Y-109832564D01*
X147743876Y-109828305D01*
X147711410Y-109819538D01*
X147710937Y-109819537D01*
X147680918Y-109809994D01*
X147677751Y-109780461D01*
X147693231Y-109780461D01*
X147693798Y-109785132D01*
X147712770Y-109800000D01*
X147717439Y-109799432D01*
X147732308Y-109780461D01*
X147731740Y-109775791D01*
X147725235Y-109770693D01*
X147830000Y-109770693D01*
X147839769Y-109780461D01*
X147849538Y-109770692D01*
X147839770Y-109760923D01*
X147908154Y-109760923D01*
X147908554Y-109830691D01*
X147910597Y-109927129D01*
X147914074Y-110004108D01*
X147918655Y-110055092D01*
X147924009Y-110073538D01*
X147944827Y-110063376D01*
X148010020Y-110063376D01*
X148012359Y-110086564D01*
X148018236Y-110089621D01*
X148025385Y-110073538D01*
X148023974Y-110063195D01*
X148012359Y-110060513D01*
X148010020Y-110063376D01*
X147944827Y-110063376D01*
X147947210Y-110062213D01*
X147982623Y-110033700D01*
X147991621Y-110024692D01*
X148025385Y-110024692D01*
X148035154Y-110034461D01*
X148044923Y-110024692D01*
X148035154Y-110014923D01*
X148025385Y-110024692D01*
X147991621Y-110024692D01*
X147993591Y-110022720D01*
X148002160Y-110010178D01*
X148008106Y-110001476D01*
X148012359Y-109987700D01*
X148017390Y-109971408D01*
X148022599Y-109924954D01*
X148023166Y-109907461D01*
X148044922Y-109907461D01*
X148054692Y-109917231D01*
X148064461Y-109907461D01*
X148054692Y-109897692D01*
X148044922Y-109907461D01*
X148023166Y-109907461D01*
X148024356Y-109870691D01*
X148044923Y-109870691D01*
X148046195Y-109873363D01*
X148054692Y-109871047D01*
X148064461Y-109868384D01*
X148070245Y-109864370D01*
X148084000Y-109846540D01*
X148082728Y-109843867D01*
X148064461Y-109848846D01*
X148058678Y-109852860D01*
X148044923Y-109870691D01*
X148024356Y-109870691D01*
X148024879Y-109854552D01*
X148025085Y-109813025D01*
X148051436Y-109813025D01*
X148054299Y-109815364D01*
X148077487Y-109813025D01*
X148080544Y-109807149D01*
X148064461Y-109800000D01*
X148054118Y-109801410D01*
X148051436Y-109813025D01*
X148025085Y-109813025D01*
X148025279Y-109773949D01*
X148051436Y-109773949D01*
X148054299Y-109776287D01*
X148064461Y-109775262D01*
X148077487Y-109773949D01*
X148079181Y-109770692D01*
X148123077Y-109770692D01*
X148123244Y-109780992D01*
X148129379Y-109820985D01*
X148142615Y-109829307D01*
X148154778Y-109811606D01*
X148158615Y-109790325D01*
X148281596Y-109790325D01*
X148284646Y-109864089D01*
X148286777Y-109880318D01*
X148289494Y-109874884D01*
X148291336Y-109837012D01*
X148291988Y-109770692D01*
X148291628Y-109723088D01*
X148290089Y-109678161D01*
X148287621Y-109665393D01*
X148284537Y-109688242D01*
X148283215Y-109708686D01*
X148281596Y-109790325D01*
X148158615Y-109790325D01*
X148162154Y-109770692D01*
X148157878Y-109739077D01*
X148142616Y-109712077D01*
X148139740Y-109710904D01*
X148127638Y-109725621D01*
X148123077Y-109770692D01*
X148079181Y-109770692D01*
X148080544Y-109768072D01*
X148064461Y-109760923D01*
X148054118Y-109762333D01*
X148051436Y-109773949D01*
X148025279Y-109773949D01*
X148025385Y-109752640D01*
X148025257Y-109705457D01*
X148050523Y-109705457D01*
X148052826Y-109718827D01*
X148058858Y-109727507D01*
X148064461Y-109732212D01*
X148075384Y-109741384D01*
X148078115Y-109741194D01*
X148082417Y-109729884D01*
X148061443Y-109710211D01*
X148050523Y-109705457D01*
X148025257Y-109705457D01*
X148025177Y-109676256D01*
X148051436Y-109676256D01*
X148054299Y-109678595D01*
X148077487Y-109676256D01*
X148080544Y-109670379D01*
X148064461Y-109663231D01*
X148054118Y-109664641D01*
X148051436Y-109676256D01*
X148025177Y-109676256D01*
X148025131Y-109659329D01*
X148024547Y-109633923D01*
X148064461Y-109633923D01*
X148074231Y-109643692D01*
X148082728Y-109635195D01*
X148084000Y-109633923D01*
X148074231Y-109624154D01*
X148064461Y-109633923D01*
X148024547Y-109633923D01*
X148023485Y-109587746D01*
X148019159Y-109541299D01*
X148010865Y-109512699D01*
X147997317Y-109494651D01*
X147977226Y-109479862D01*
X147940782Y-109457922D01*
X147918610Y-109448308D01*
X147916277Y-109456205D01*
X147913051Y-109496473D01*
X147910476Y-109565040D01*
X147908771Y-109655370D01*
X147908154Y-109760923D01*
X147839770Y-109760923D01*
X147830000Y-109770693D01*
X147725235Y-109770693D01*
X147712769Y-109760923D01*
X147708098Y-109761491D01*
X147693231Y-109780461D01*
X147677751Y-109780461D01*
X147677227Y-109775577D01*
X147686986Y-109748468D01*
X147712769Y-109736585D01*
X147717664Y-109734329D01*
X147735883Y-109732939D01*
X147743740Y-109725949D01*
X147818082Y-109725949D01*
X147830514Y-109741384D01*
X147839546Y-109734353D01*
X147839769Y-109732867D01*
X147844229Y-109703146D01*
X147839112Y-109679200D01*
X147828090Y-109679144D01*
X147818138Y-109712642D01*
X147818082Y-109725949D01*
X147743740Y-109725949D01*
X147751846Y-109718738D01*
X147751889Y-109717911D01*
X147766329Y-109692295D01*
X147798849Y-109657409D01*
X147820315Y-109633789D01*
X147828090Y-109618035D01*
X147838142Y-109597668D01*
X147849787Y-109543593D01*
X147858456Y-109461002D01*
X147862876Y-109398771D01*
X147863665Y-109345200D01*
X147862430Y-109339504D01*
X147927692Y-109339504D01*
X147927823Y-109361470D01*
X147930685Y-109405168D01*
X147939462Y-109418832D01*
X147957000Y-109409232D01*
X147974269Y-109389698D01*
X147983274Y-109340446D01*
X147956378Y-109283381D01*
X147945559Y-109269898D01*
X147933675Y-109263616D01*
X147928698Y-109284902D01*
X147927692Y-109339504D01*
X147862430Y-109339504D01*
X147858128Y-109319664D01*
X147845729Y-109316065D01*
X147835543Y-109321679D01*
X147818405Y-109352215D01*
X147817241Y-109367691D01*
X147813437Y-109414116D01*
X147807434Y-109432142D01*
X147781154Y-109448308D01*
X147762322Y-109453206D01*
X147723190Y-109478835D01*
X147688594Y-109514360D01*
X147673692Y-109546000D01*
X147670386Y-109554988D01*
X147644385Y-109565538D01*
X147627198Y-109555967D01*
X147615732Y-109523545D01*
X147616154Y-109516692D01*
X147634615Y-109516692D01*
X147644385Y-109526461D01*
X147654153Y-109516692D01*
X147644385Y-109506923D01*
X147634615Y-109516692D01*
X147616154Y-109516692D01*
X147618117Y-109484805D01*
X147635759Y-109457370D01*
X147644385Y-109439261D01*
X147646714Y-109434371D01*
X147646569Y-109431311D01*
X147666237Y-109431311D01*
X147669740Y-109470719D01*
X147678577Y-109487396D01*
X147687131Y-109479920D01*
X147693232Y-109447935D01*
X147693745Y-109436520D01*
X147705775Y-109417136D01*
X147742077Y-109420745D01*
X147758472Y-109424308D01*
X147784709Y-109420437D01*
X147790923Y-109390657D01*
X147786560Y-109366315D01*
X147770529Y-109360914D01*
X147754543Y-109363865D01*
X147721210Y-109349513D01*
X147702823Y-109338146D01*
X147680069Y-109337724D01*
X147674594Y-109348115D01*
X147667908Y-109385123D01*
X147666237Y-109431311D01*
X147646569Y-109431311D01*
X147644660Y-109390945D01*
X147643460Y-109352009D01*
X147659285Y-109314101D01*
X147680070Y-109300753D01*
X147686687Y-109296504D01*
X147717504Y-109308459D01*
X147737706Y-109324916D01*
X147762562Y-109326051D01*
X147771385Y-109292000D01*
X147775073Y-109281838D01*
X147795097Y-109281838D01*
X147797436Y-109305025D01*
X147803313Y-109308082D01*
X147810461Y-109292000D01*
X147809051Y-109281656D01*
X147797436Y-109278974D01*
X147795097Y-109281838D01*
X147775073Y-109281838D01*
X147782369Y-109261737D01*
X147797436Y-109258310D01*
X147821116Y-109252924D01*
X147826563Y-109252897D01*
X147855610Y-109248490D01*
X147864007Y-109228627D01*
X147857548Y-109182028D01*
X147854886Y-109165000D01*
X147869077Y-109165000D01*
X147878846Y-109174769D01*
X147888615Y-109165000D01*
X147878846Y-109155231D01*
X147869077Y-109165000D01*
X147854886Y-109165000D01*
X147852467Y-109149523D01*
X147854675Y-109122191D01*
X147871316Y-109120147D01*
X147878846Y-109124777D01*
G37*
G36*
X147478308Y-108393236D02*
G01*
X148450212Y-108393488D01*
X148651911Y-108393626D01*
X148847165Y-108394053D01*
X149010441Y-108394881D01*
X149145514Y-108396228D01*
X149256154Y-108398212D01*
X149334461Y-108400596D01*
X149346135Y-108400951D01*
X149419229Y-108404564D01*
X149479209Y-108409171D01*
X149529848Y-108414887D01*
X149574918Y-108421833D01*
X149618193Y-108430125D01*
X149648186Y-108437842D01*
X149795086Y-108475637D01*
X150007564Y-108558587D01*
X150018308Y-108562781D01*
X150043990Y-108572807D01*
X150120460Y-108616096D01*
X150276895Y-108704653D01*
X150492328Y-108869988D01*
X150688813Y-109067632D01*
X150864874Y-109296395D01*
X151019037Y-109555095D01*
X151045982Y-109607354D01*
X151079778Y-109675177D01*
X151103037Y-109724789D01*
X151111845Y-109748050D01*
X151110013Y-109758645D01*
X151092552Y-109802455D01*
X151060063Y-109868302D01*
X151016745Y-109948732D01*
X150966799Y-110036296D01*
X150914425Y-110123538D01*
X150863824Y-110203008D01*
X150819196Y-110267254D01*
X150658523Y-110462737D01*
X150455126Y-110659440D01*
X150236013Y-110820668D01*
X150001559Y-110946191D01*
X149752136Y-111035778D01*
X149488122Y-111089198D01*
X149443625Y-111093341D01*
X149350816Y-111098053D01*
X149222559Y-111101689D01*
X149060930Y-111104219D01*
X148868010Y-111105613D01*
X148645878Y-111105843D01*
X148396615Y-111104877D01*
X147468538Y-111099308D01*
X147463537Y-109751154D01*
X147478308Y-109751154D01*
X147478309Y-111089538D01*
X148430808Y-111085606D01*
X148478325Y-111085401D01*
X148657065Y-111084457D01*
X148817761Y-111083334D01*
X148957406Y-111082073D01*
X149072997Y-111080713D01*
X149161530Y-111079292D01*
X149219998Y-111077852D01*
X149245399Y-111076430D01*
X149234728Y-111075066D01*
X149086148Y-111068458D01*
X149034211Y-110898268D01*
X149005937Y-110797697D01*
X148988427Y-110704235D01*
X148986919Y-110622237D01*
X149001340Y-110538793D01*
X149002898Y-110533759D01*
X149383308Y-110533759D01*
X149700808Y-110538110D01*
X150018308Y-110542461D01*
X150013929Y-110205423D01*
X150009549Y-109868384D01*
X150003689Y-110195160D01*
X149997829Y-110521935D01*
X149690568Y-110527847D01*
X149383308Y-110533759D01*
X149002898Y-110533759D01*
X149024398Y-110464308D01*
X149354000Y-110464308D01*
X149354080Y-110464877D01*
X149375396Y-110472814D01*
X149432035Y-110478782D01*
X149520503Y-110482540D01*
X149637308Y-110483846D01*
X149681278Y-110483753D01*
X149775684Y-110482861D01*
X149851622Y-110481176D01*
X149902223Y-110478882D01*
X149920615Y-110476167D01*
X149915539Y-110467595D01*
X149885689Y-110457136D01*
X149826324Y-110450054D01*
X149734282Y-110446038D01*
X149606402Y-110444769D01*
X149511377Y-110445864D01*
X149426653Y-110449681D01*
X149372840Y-110455933D01*
X149354000Y-110464308D01*
X149024398Y-110464308D01*
X149031615Y-110440996D01*
X149036230Y-110427759D01*
X149058684Y-110362442D01*
X149074488Y-110314962D01*
X149080461Y-110294824D01*
X149064572Y-110290392D01*
X149024568Y-110288462D01*
X149004250Y-110287798D01*
X148979313Y-110278917D01*
X148966215Y-110251460D01*
X148961424Y-110220077D01*
X148982769Y-110220077D01*
X148988506Y-110251938D01*
X149012077Y-110268924D01*
X149031194Y-110259363D01*
X149041385Y-110220077D01*
X149035648Y-110188215D01*
X149025635Y-110181000D01*
X149060923Y-110181000D01*
X149070693Y-110190769D01*
X149080461Y-110181000D01*
X149070692Y-110171231D01*
X149060923Y-110181000D01*
X149025635Y-110181000D01*
X149012077Y-110171231D01*
X148992960Y-110180791D01*
X148982769Y-110220077D01*
X148961424Y-110220077D01*
X148957631Y-110195227D01*
X148954250Y-110150226D01*
X148953458Y-110075036D01*
X148970331Y-110075036D01*
X148980642Y-110091763D01*
X148996747Y-110106211D01*
X148980095Y-110118477D01*
X148978012Y-110119397D01*
X148979473Y-110126659D01*
X149012077Y-110130312D01*
X149023711Y-110130401D01*
X149051695Y-110126328D01*
X149043433Y-110114295D01*
X149041370Y-110112968D01*
X149029142Y-110098356D01*
X149053202Y-110088310D01*
X149065185Y-110085354D01*
X149070692Y-110082181D01*
X149079108Y-110077332D01*
X149056038Y-110064702D01*
X149019864Y-110057312D01*
X148987326Y-110062145D01*
X148970331Y-110075036D01*
X148953458Y-110075036D01*
X148953349Y-110064655D01*
X148957624Y-109980304D01*
X148961720Y-109922463D01*
X148962476Y-109876309D01*
X148959166Y-109858615D01*
X148959142Y-109858615D01*
X148939181Y-109870126D01*
X148904615Y-109897692D01*
X148865946Y-109924805D01*
X148833241Y-109936769D01*
X148829217Y-109937263D01*
X148812233Y-109960534D01*
X148806302Y-110019808D01*
X148805484Y-110039735D01*
X148792660Y-110105379D01*
X148768026Y-110152896D01*
X148736384Y-110171842D01*
X148721181Y-110176138D01*
X148678197Y-110193855D01*
X148621308Y-110220509D01*
X148589504Y-110235895D01*
X148531283Y-110260041D01*
X148494110Y-110264310D01*
X148468749Y-110248218D01*
X148445963Y-110211277D01*
X148433265Y-110185040D01*
X148417748Y-110131154D01*
X148420817Y-110123355D01*
X148435692Y-110123355D01*
X148436362Y-110127765D01*
X148448477Y-110158064D01*
X148469450Y-110198615D01*
X148490933Y-110234147D01*
X148504579Y-110249384D01*
X148512318Y-110239166D01*
X148508011Y-110204380D01*
X148502882Y-110190769D01*
X148533385Y-110190769D01*
X148533952Y-110195439D01*
X148552924Y-110210308D01*
X148557593Y-110209740D01*
X148572461Y-110190769D01*
X148571894Y-110186099D01*
X148552923Y-110171231D01*
X148548253Y-110171798D01*
X148533385Y-110190769D01*
X148502882Y-110190769D01*
X148489999Y-110156577D01*
X148489003Y-110154556D01*
X148466659Y-110123513D01*
X148445252Y-110110888D01*
X148435692Y-110123355D01*
X148420817Y-110123355D01*
X148430728Y-110098165D01*
X148433014Y-110097226D01*
X148506375Y-110097226D01*
X148506780Y-110122384D01*
X148513107Y-110136415D01*
X148525706Y-110151692D01*
X148529204Y-110148453D01*
X148533385Y-110122384D01*
X148531251Y-110108911D01*
X148514459Y-110093077D01*
X148506375Y-110097226D01*
X148433014Y-110097226D01*
X148445252Y-110092200D01*
X148473342Y-110080662D01*
X148499330Y-110074262D01*
X148514459Y-110062682D01*
X148520244Y-110058254D01*
X148517183Y-110040055D01*
X148554408Y-110040055D01*
X148560771Y-110084031D01*
X148576460Y-110133569D01*
X148595884Y-110174029D01*
X148613450Y-110190769D01*
X148622337Y-110189496D01*
X148629164Y-110176440D01*
X148619860Y-110143423D01*
X148618678Y-110140770D01*
X148650615Y-110140770D01*
X148653007Y-110155327D01*
X148670154Y-110171231D01*
X148674789Y-110170704D01*
X148689692Y-110152846D01*
X148688947Y-110147364D01*
X148670154Y-110122384D01*
X148660087Y-110120546D01*
X148650615Y-110140770D01*
X148618678Y-110140770D01*
X148593069Y-110083308D01*
X148580800Y-110059321D01*
X148562427Y-110032968D01*
X148554505Y-110036430D01*
X148554408Y-110040055D01*
X148517183Y-110040055D01*
X148515057Y-110027420D01*
X148511010Y-110017832D01*
X148486451Y-109994031D01*
X148439470Y-109991853D01*
X148439262Y-109991874D01*
X148398603Y-109992122D01*
X148378328Y-109974500D01*
X148366300Y-109928500D01*
X148363374Y-109911353D01*
X148362436Y-109876510D01*
X148386383Y-109876510D01*
X148393394Y-109920403D01*
X148405224Y-109959162D01*
X148418371Y-109975845D01*
X148429100Y-109966203D01*
X148435393Y-109931884D01*
X148434862Y-109925847D01*
X148455231Y-109925847D01*
X148457622Y-109940404D01*
X148474768Y-109956308D01*
X148479405Y-109955781D01*
X148494308Y-109937923D01*
X148493562Y-109932440D01*
X148474769Y-109907460D01*
X148464703Y-109905623D01*
X148455231Y-109925847D01*
X148434862Y-109925847D01*
X148433637Y-109911905D01*
X148422191Y-109871524D01*
X148405566Y-109843035D01*
X148390224Y-109839643D01*
X148387692Y-109844426D01*
X148386383Y-109876510D01*
X148362436Y-109876510D01*
X148361636Y-109846809D01*
X148366634Y-109838074D01*
X148447509Y-109838074D01*
X148447916Y-109863836D01*
X148464703Y-109877016D01*
X148466153Y-109878154D01*
X148470238Y-109874488D01*
X148474769Y-109847693D01*
X148471903Y-109833749D01*
X148454911Y-109829504D01*
X148447509Y-109838074D01*
X148366634Y-109838074D01*
X148382105Y-109811032D01*
X148390224Y-109809022D01*
X148426669Y-109800000D01*
X148441101Y-109799557D01*
X148454912Y-109794149D01*
X148468704Y-109788748D01*
X148471243Y-109756038D01*
X148455450Y-109722084D01*
X148441683Y-109717039D01*
X148508320Y-109717039D01*
X148508796Y-109806560D01*
X148513041Y-109886921D01*
X148521050Y-109943275D01*
X148532427Y-109979772D01*
X148545025Y-109997076D01*
X148552923Y-109983330D01*
X148553116Y-109982994D01*
X148554861Y-109941896D01*
X148548424Y-109878154D01*
X148540454Y-109761618D01*
X148540577Y-109759811D01*
X148571713Y-109759811D01*
X148576355Y-109835720D01*
X148585669Y-109915090D01*
X148598781Y-109988759D01*
X148614814Y-110047560D01*
X148632893Y-110082331D01*
X148641875Y-110087070D01*
X148648327Y-110069921D01*
X148644676Y-110029803D01*
X148640280Y-110012361D01*
X148674391Y-110012361D01*
X148679915Y-110049701D01*
X148694733Y-110095865D01*
X148713354Y-110135111D01*
X148730284Y-110151692D01*
X148735760Y-110151313D01*
X148746110Y-110141370D01*
X148740500Y-110112147D01*
X148717935Y-110055928D01*
X148712416Y-110043861D01*
X148691754Y-110009133D01*
X148677676Y-110000888D01*
X148674391Y-110012361D01*
X148640280Y-110012361D01*
X148631076Y-109975846D01*
X148631021Y-109975675D01*
X148622899Y-109931582D01*
X148616601Y-109863231D01*
X148613720Y-109791209D01*
X148631292Y-109791209D01*
X148631356Y-109796354D01*
X148636149Y-109856274D01*
X148646495Y-109914433D01*
X148659609Y-109958425D01*
X148660087Y-109959062D01*
X148672710Y-109975846D01*
X148677676Y-109974371D01*
X148678941Y-109973995D01*
X148686565Y-109951423D01*
X148686318Y-109949473D01*
X148684393Y-109933696D01*
X148716577Y-109933696D01*
X148723861Y-109971556D01*
X148738929Y-110017848D01*
X148756458Y-110057025D01*
X148771124Y-110073538D01*
X148782005Y-110065198D01*
X148788430Y-110031948D01*
X148785507Y-109987229D01*
X148774640Y-109946188D01*
X148757234Y-109923973D01*
X148741523Y-109919401D01*
X148718792Y-109920695D01*
X148716577Y-109933696D01*
X148684393Y-109933696D01*
X148681726Y-109911832D01*
X148675404Y-109858615D01*
X148675393Y-109858541D01*
X148709231Y-109858541D01*
X148712036Y-109868735D01*
X148736888Y-109889993D01*
X148741523Y-109890697D01*
X148769469Y-109894940D01*
X148819926Y-109892307D01*
X148844028Y-109888369D01*
X148855222Y-109883998D01*
X148830062Y-109881081D01*
X148798462Y-109876010D01*
X148747023Y-109857928D01*
X148720622Y-109847606D01*
X148709231Y-109858541D01*
X148675393Y-109858541D01*
X148672898Y-109841533D01*
X148661433Y-109797598D01*
X148647601Y-109769865D01*
X148639966Y-109766912D01*
X148732986Y-109766912D01*
X148739234Y-109809048D01*
X148758077Y-109832685D01*
X148762381Y-109832229D01*
X148773266Y-109809261D01*
X148777614Y-109762584D01*
X148776435Y-109729147D01*
X148803451Y-109729147D01*
X148804418Y-109755570D01*
X148837948Y-109777688D01*
X148875202Y-109792508D01*
X148905534Y-109800000D01*
X148908434Y-109799415D01*
X148920110Y-109778141D01*
X148922719Y-109749795D01*
X148982769Y-109749795D01*
X148982769Y-110034461D01*
X149019864Y-110034461D01*
X149028752Y-110034461D01*
X149032732Y-110034418D01*
X149056133Y-110029592D01*
X149071875Y-110010921D01*
X149079748Y-109984730D01*
X149277723Y-109984730D01*
X149286691Y-110079544D01*
X149305154Y-110171231D01*
X149315192Y-110213166D01*
X149328796Y-110290020D01*
X149334230Y-110351961D01*
X149334461Y-110425231D01*
X149606402Y-110425231D01*
X149617769Y-110425231D01*
X149901077Y-110425231D01*
X149899758Y-110342192D01*
X149898415Y-110316431D01*
X149888113Y-110238278D01*
X149871313Y-110161461D01*
X149858650Y-110107251D01*
X149845473Y-110002636D01*
X149846288Y-109905660D01*
X149861517Y-109830579D01*
X149876857Y-109790231D01*
X150018308Y-109790231D01*
X150028078Y-109800000D01*
X150037846Y-109790231D01*
X150028077Y-109780461D01*
X150018308Y-109790231D01*
X149876857Y-109790231D01*
X149880571Y-109780461D01*
X149598434Y-109780461D01*
X149487769Y-109780849D01*
X149409277Y-109782544D01*
X149357203Y-109786339D01*
X149325206Y-109793027D01*
X149306943Y-109803401D01*
X149296072Y-109818254D01*
X149289518Y-109834188D01*
X149278562Y-109898907D01*
X149277723Y-109984730D01*
X149079748Y-109984730D01*
X149084147Y-109970097D01*
X149097137Y-109898813D01*
X149107267Y-109835335D01*
X149114878Y-109770986D01*
X149114942Y-109756879D01*
X149168248Y-109756879D01*
X149184907Y-109789409D01*
X149206044Y-109809202D01*
X149243713Y-109813557D01*
X149254092Y-109807772D01*
X149273425Y-109774987D01*
X149271730Y-109752307D01*
X149998769Y-109752307D01*
X149999277Y-109754257D01*
X150009549Y-109757855D01*
X150018308Y-109760923D01*
X150023663Y-109760128D01*
X150028077Y-109753936D01*
X150037846Y-109740231D01*
X150036312Y-109733164D01*
X150018308Y-109731615D01*
X150012460Y-109735625D01*
X149998769Y-109752307D01*
X149271730Y-109752307D01*
X149270482Y-109735598D01*
X149245023Y-109708792D01*
X149222946Y-109706998D01*
X149186217Y-109724948D01*
X149180642Y-109730754D01*
X149168248Y-109756879D01*
X149114942Y-109756879D01*
X149115117Y-109718178D01*
X149107757Y-109661384D01*
X149092573Y-109585077D01*
X149088887Y-109568072D01*
X149075968Y-109522731D01*
X149277456Y-109522731D01*
X149279843Y-109618534D01*
X149294901Y-109691266D01*
X149313956Y-109741384D01*
X149598434Y-109741384D01*
X149599837Y-109741384D01*
X149616246Y-109741381D01*
X149722559Y-109740961D01*
X149796012Y-109739353D01*
X149842109Y-109735866D01*
X149866355Y-109729806D01*
X149874254Y-109720479D01*
X149871309Y-109707192D01*
X149856364Y-109653780D01*
X149847789Y-109561053D01*
X149852267Y-109457376D01*
X149869858Y-109357564D01*
X149889157Y-109268574D01*
X149890788Y-109255614D01*
X150001307Y-109255614D01*
X150001402Y-109372122D01*
X150003787Y-109473690D01*
X150003874Y-109475801D01*
X150005918Y-109507643D01*
X150007690Y-109503343D01*
X150009085Y-109465718D01*
X150009996Y-109397587D01*
X150010313Y-109301769D01*
X150010311Y-109295460D01*
X150009934Y-109202118D01*
X150008983Y-109137455D01*
X150007564Y-109104071D01*
X150005782Y-109104565D01*
X150003746Y-109141537D01*
X150003501Y-109148236D01*
X150001307Y-109255614D01*
X149890788Y-109255614D01*
X149899460Y-109186714D01*
X149899294Y-109124240D01*
X149888051Y-109090102D01*
X149884853Y-109088631D01*
X149851356Y-109084093D01*
X149788511Y-109080424D01*
X149703811Y-109077971D01*
X149604743Y-109077077D01*
X149334461Y-109077077D01*
X149334230Y-109150346D01*
X149332342Y-109182541D01*
X149321808Y-109255726D01*
X149305154Y-109331077D01*
X149287347Y-109417614D01*
X149277456Y-109522731D01*
X149075968Y-109522731D01*
X149072722Y-109511337D01*
X149053687Y-109482196D01*
X149026381Y-109471371D01*
X149015857Y-109470089D01*
X149001974Y-109471997D01*
X148992646Y-109484083D01*
X148986967Y-109512125D01*
X148984031Y-109561905D01*
X148982934Y-109639201D01*
X148982769Y-109749795D01*
X148922719Y-109749795D01*
X148923736Y-109738750D01*
X148919197Y-109698360D01*
X148906378Y-109674090D01*
X148880823Y-109669315D01*
X148839795Y-109685721D01*
X148807177Y-109721371D01*
X148803451Y-109729147D01*
X148776435Y-109729147D01*
X148776236Y-109723503D01*
X148768722Y-109701161D01*
X148752204Y-109707181D01*
X148740211Y-109725058D01*
X148732986Y-109766912D01*
X148639966Y-109766912D01*
X148636016Y-109765384D01*
X148631292Y-109791209D01*
X148613720Y-109791209D01*
X148613486Y-109785346D01*
X148610564Y-109723704D01*
X148634869Y-109723704D01*
X148636016Y-109725575D01*
X148645708Y-109741384D01*
X148655339Y-109731276D01*
X148663684Y-109706443D01*
X148689692Y-109706443D01*
X148699047Y-109712416D01*
X148720622Y-109698633D01*
X148725423Y-109695566D01*
X148755457Y-109676027D01*
X148768722Y-109672412D01*
X148802424Y-109663231D01*
X148828438Y-109659633D01*
X148855769Y-109643692D01*
X148852678Y-109630884D01*
X148822193Y-109624154D01*
X148795967Y-109627616D01*
X148746616Y-109647297D01*
X148706346Y-109676582D01*
X148689692Y-109706443D01*
X148663684Y-109706443D01*
X148668624Y-109691741D01*
X148679252Y-109632527D01*
X148684322Y-109599462D01*
X148715710Y-109599462D01*
X148722407Y-109614596D01*
X148752956Y-109606753D01*
X148761497Y-109603336D01*
X148791323Y-109580559D01*
X148799391Y-109541922D01*
X148788396Y-109477615D01*
X148774087Y-109419000D01*
X148754289Y-109467846D01*
X148739363Y-109509242D01*
X148721625Y-109569881D01*
X148715710Y-109599462D01*
X148684322Y-109599462D01*
X148685541Y-109591514D01*
X148701996Y-109515977D01*
X148720580Y-109457308D01*
X148731505Y-109430755D01*
X148745437Y-109391041D01*
X148744467Y-109373864D01*
X148729526Y-109370154D01*
X148728157Y-109370361D01*
X148711696Y-109391419D01*
X148691341Y-109440310D01*
X148670146Y-109507471D01*
X148651167Y-109583337D01*
X148637460Y-109658346D01*
X148635395Y-109675107D01*
X148634869Y-109723704D01*
X148610564Y-109723704D01*
X148610050Y-109712849D01*
X148602176Y-109662089D01*
X148590968Y-109643693D01*
X148579955Y-109655037D01*
X148572621Y-109696529D01*
X148571713Y-109759811D01*
X148540577Y-109759811D01*
X148548533Y-109642969D01*
X148551019Y-109618431D01*
X148580699Y-109618431D01*
X148588412Y-109624154D01*
X148590968Y-109621482D01*
X148598535Y-109613570D01*
X148616344Y-109574251D01*
X148635251Y-109515857D01*
X148646153Y-109472603D01*
X148652437Y-109427055D01*
X148644416Y-109414554D01*
X148628003Y-109430210D01*
X148610890Y-109469119D01*
X148608810Y-109477018D01*
X148589891Y-109551810D01*
X148580857Y-109596633D01*
X148580699Y-109618431D01*
X148551019Y-109618431D01*
X148554995Y-109579195D01*
X148553842Y-109533483D01*
X148546657Y-109511580D01*
X148535123Y-109518572D01*
X148520922Y-109559543D01*
X148518694Y-109569903D01*
X148511617Y-109633204D01*
X148508320Y-109717039D01*
X148441683Y-109717039D01*
X148411270Y-109705894D01*
X148395828Y-109703574D01*
X148365206Y-109687092D01*
X148359156Y-109654545D01*
X148382427Y-109654545D01*
X148386710Y-109679377D01*
X148403578Y-109681141D01*
X148406682Y-109676401D01*
X148414010Y-109653069D01*
X148459405Y-109653069D01*
X148461743Y-109676256D01*
X148467620Y-109679313D01*
X148474769Y-109663231D01*
X148473358Y-109652887D01*
X148461743Y-109650205D01*
X148459405Y-109653069D01*
X148414010Y-109653069D01*
X148416924Y-109643790D01*
X148423411Y-109600324D01*
X148423773Y-109586230D01*
X148455231Y-109586230D01*
X148455790Y-109590592D01*
X148461743Y-109594990D01*
X148474769Y-109604615D01*
X148484107Y-109600887D01*
X148494308Y-109574154D01*
X148491496Y-109560198D01*
X148474769Y-109555770D01*
X148469433Y-109559768D01*
X148455231Y-109586230D01*
X148423773Y-109586230D01*
X148424389Y-109562296D01*
X148418108Y-109545999D01*
X148414505Y-109547319D01*
X148400347Y-109571423D01*
X148388314Y-109612863D01*
X148382427Y-109654545D01*
X148359156Y-109654545D01*
X148357805Y-109647279D01*
X148360463Y-109605935D01*
X148369967Y-109550448D01*
X148378294Y-109528022D01*
X148400092Y-109513707D01*
X148418108Y-109515392D01*
X148445126Y-109517918D01*
X148464349Y-109520993D01*
X148474769Y-109520304D01*
X148502693Y-109518459D01*
X148521549Y-109495494D01*
X148524293Y-109469792D01*
X148515704Y-109458996D01*
X148552923Y-109458996D01*
X148553464Y-109468295D01*
X148562427Y-109483083D01*
X148564727Y-109486877D01*
X148583313Y-109476277D01*
X148599568Y-109440353D01*
X148609016Y-109405999D01*
X148620718Y-109370154D01*
X148650615Y-109370154D01*
X148651183Y-109374824D01*
X148670154Y-109389691D01*
X148674824Y-109389124D01*
X148689691Y-109370154D01*
X148689124Y-109365483D01*
X148670154Y-109350615D01*
X148665484Y-109351183D01*
X148650615Y-109370154D01*
X148620718Y-109370154D01*
X148623315Y-109362200D01*
X148626816Y-109345547D01*
X148616765Y-109331077D01*
X148603241Y-109339019D01*
X148580441Y-109372298D01*
X148561091Y-109417455D01*
X148552923Y-109458996D01*
X148515704Y-109458996D01*
X148501028Y-109440549D01*
X148450346Y-109429068D01*
X148441996Y-109428504D01*
X148420636Y-109414574D01*
X148420058Y-109394280D01*
X148437887Y-109394280D01*
X148439768Y-109407248D01*
X148453319Y-109409231D01*
X148454792Y-109409036D01*
X148463766Y-109399461D01*
X148513846Y-109399461D01*
X148514695Y-109412814D01*
X148521524Y-109428769D01*
X148526582Y-109425169D01*
X148540450Y-109399461D01*
X148543522Y-109384475D01*
X148532772Y-109370154D01*
X148524071Y-109373455D01*
X148513846Y-109399461D01*
X148463766Y-109399461D01*
X148473107Y-109389494D01*
X148492396Y-109347701D01*
X148497351Y-109333383D01*
X148533385Y-109333383D01*
X148534890Y-109339953D01*
X148546657Y-109340535D01*
X148552923Y-109340846D01*
X148558203Y-109336853D01*
X148572461Y-109309232D01*
X148570955Y-109302662D01*
X148552924Y-109301769D01*
X148547644Y-109305762D01*
X148533385Y-109333383D01*
X148497351Y-109333383D01*
X148501328Y-109321893D01*
X148511651Y-109287412D01*
X148509770Y-109274444D01*
X148496219Y-109272461D01*
X148494746Y-109272656D01*
X148476431Y-109292198D01*
X148457142Y-109333992D01*
X148448210Y-109359799D01*
X148437887Y-109394280D01*
X148420058Y-109394280D01*
X148419589Y-109377783D01*
X148438275Y-109312528D01*
X148453369Y-109276427D01*
X148475990Y-109257375D01*
X148496218Y-109258731D01*
X148514991Y-109259990D01*
X148532771Y-109264859D01*
X148549515Y-109269445D01*
X148552923Y-109270719D01*
X148614502Y-109293743D01*
X148616765Y-109294752D01*
X148644416Y-109307078D01*
X148670154Y-109318552D01*
X148684096Y-109324767D01*
X148729526Y-109348429D01*
X148744399Y-109356175D01*
X148774087Y-109376532D01*
X148781511Y-109381622D01*
X148790440Y-109395730D01*
X148806248Y-109442624D01*
X148818220Y-109504538D01*
X148822193Y-109527498D01*
X148824716Y-109542078D01*
X148838171Y-109587065D01*
X148852142Y-109604615D01*
X148853281Y-109604674D01*
X148880822Y-109617739D01*
X148881998Y-109618296D01*
X148920738Y-109648577D01*
X148968687Y-109692538D01*
X148958402Y-109536231D01*
X148958094Y-109531415D01*
X148954880Y-109440586D01*
X148954919Y-109436574D01*
X148981572Y-109436574D01*
X148987654Y-109442237D01*
X149006484Y-109445276D01*
X149015857Y-109444701D01*
X149056038Y-109442237D01*
X149061582Y-109440411D01*
X149057393Y-109435339D01*
X149021846Y-109433302D01*
X149008589Y-109433491D01*
X148981572Y-109436574D01*
X148954919Y-109436574D01*
X148955379Y-109389692D01*
X148963231Y-109389692D01*
X148975358Y-109402542D01*
X149012077Y-109409232D01*
X149021846Y-109407756D01*
X149044201Y-109404380D01*
X149060923Y-109389692D01*
X149048796Y-109376842D01*
X149012077Y-109370154D01*
X148979951Y-109375005D01*
X148963231Y-109389692D01*
X148955379Y-109389692D01*
X148955755Y-109351299D01*
X148959880Y-109292000D01*
X148982769Y-109292000D01*
X148988810Y-109333139D01*
X149012077Y-109350615D01*
X149032647Y-109338535D01*
X149035882Y-109321308D01*
X149060923Y-109321308D01*
X149070692Y-109331076D01*
X149080461Y-109321308D01*
X149070692Y-109311538D01*
X149060923Y-109321308D01*
X149035882Y-109321308D01*
X149041385Y-109292000D01*
X149035344Y-109250860D01*
X149012077Y-109233384D01*
X148991506Y-109245465D01*
X148982769Y-109292000D01*
X148959880Y-109292000D01*
X148960559Y-109282231D01*
X148962141Y-109270251D01*
X148972957Y-109215704D01*
X148978003Y-109207333D01*
X149008820Y-109207333D01*
X149011684Y-109209672D01*
X149012077Y-109209632D01*
X149034872Y-109207334D01*
X149037928Y-109201456D01*
X149021846Y-109194308D01*
X149011502Y-109195719D01*
X149008820Y-109207333D01*
X148978003Y-109207333D01*
X148989393Y-109188437D01*
X149016961Y-109178295D01*
X149021846Y-109177437D01*
X149044401Y-109173473D01*
X149060922Y-109167848D01*
X149056642Y-109153762D01*
X149042481Y-109111813D01*
X149021846Y-109052465D01*
X149017390Y-109038000D01*
X149373538Y-109038000D01*
X149386868Y-109045187D01*
X149435296Y-109051768D01*
X149515252Y-109055891D01*
X149622654Y-109057239D01*
X149632118Y-109057214D01*
X149728152Y-109055414D01*
X149810669Y-109051221D01*
X149871150Y-109045219D01*
X149901077Y-109038001D01*
X149901388Y-109037794D01*
X149896364Y-109029540D01*
X149853343Y-109023634D01*
X149771989Y-109020048D01*
X149651961Y-109018761D01*
X149648187Y-109018758D01*
X149533321Y-109020040D01*
X149446906Y-109023836D01*
X149392468Y-109029904D01*
X149373538Y-109038000D01*
X149017390Y-109038000D01*
X149007269Y-109005147D01*
X150104531Y-109005147D01*
X150107360Y-109024123D01*
X150129627Y-109064365D01*
X150172022Y-109131778D01*
X150174315Y-109135387D01*
X150210147Y-109189471D01*
X150233588Y-109215473D01*
X150251875Y-109218619D01*
X150272245Y-109204133D01*
X150291884Y-109189770D01*
X150311056Y-109191310D01*
X150336059Y-109215300D01*
X150374980Y-109266662D01*
X150401348Y-109303955D01*
X150469218Y-109414489D01*
X150511647Y-109509903D01*
X150526308Y-109585296D01*
X150523677Y-109617121D01*
X150504857Y-109648843D01*
X150458551Y-109673997D01*
X150411057Y-109687236D01*
X150336041Y-109698127D01*
X150255487Y-109702308D01*
X150219245Y-109702635D01*
X150157608Y-109706609D01*
X150123250Y-109716506D01*
X150107984Y-109734092D01*
X150106219Y-109739022D01*
X150105262Y-109776349D01*
X150133568Y-109801277D01*
X150194117Y-109815206D01*
X150289891Y-109819537D01*
X150311223Y-109819703D01*
X150411003Y-109827263D01*
X150477585Y-109847410D01*
X150514758Y-109881955D01*
X150526309Y-109932712D01*
X150524919Y-109949668D01*
X150505748Y-110016085D01*
X150468438Y-110097148D01*
X150418610Y-110181717D01*
X150361883Y-110258655D01*
X150336779Y-110287834D01*
X150306464Y-110316550D01*
X150284659Y-110321544D01*
X150261764Y-110307502D01*
X150233173Y-110290350D01*
X150218870Y-110302472D01*
X150216913Y-110307368D01*
X150197492Y-110343158D01*
X150167474Y-110390395D01*
X150130078Y-110445897D01*
X150108218Y-110483640D01*
X150109574Y-110500148D01*
X150135285Y-110501638D01*
X150186487Y-110494322D01*
X150251942Y-110482449D01*
X150311864Y-110462914D01*
X150339884Y-110437575D01*
X150340153Y-110403993D01*
X150339693Y-110402376D01*
X150342567Y-110374731D01*
X150364028Y-110332375D01*
X150406853Y-110270770D01*
X150473818Y-110185375D01*
X150524416Y-110121684D01*
X150588048Y-110038571D01*
X150642739Y-109963925D01*
X150680450Y-109908521D01*
X150704616Y-109865866D01*
X150730984Y-109805405D01*
X150741231Y-109760833D01*
X150741129Y-109757149D01*
X150726042Y-109700831D01*
X150688260Y-109623405D01*
X150631951Y-109531241D01*
X150561288Y-109430708D01*
X150480440Y-109328172D01*
X150393579Y-109230005D01*
X150357538Y-109187965D01*
X150336987Y-109147603D01*
X150338189Y-109109402D01*
X150340924Y-109091368D01*
X150332856Y-109066244D01*
X150303511Y-109046164D01*
X150247052Y-109027850D01*
X150157646Y-109008028D01*
X150154456Y-109007386D01*
X150120460Y-109001536D01*
X150104531Y-109005147D01*
X149007269Y-109005147D01*
X148999527Y-108980019D01*
X148986638Y-108903744D01*
X148987891Y-108824838D01*
X149003598Y-108732163D01*
X149034069Y-108614579D01*
X149070692Y-108485528D01*
X149085369Y-108433809D01*
X149222946Y-108428138D01*
X149244108Y-108427266D01*
X149251869Y-108426869D01*
X149253145Y-108425503D01*
X149219184Y-108424089D01*
X149152935Y-108422665D01*
X149057346Y-108421269D01*
X148935367Y-108419941D01*
X148789947Y-108418719D01*
X148624034Y-108417641D01*
X148440577Y-108416746D01*
X147478308Y-108412769D01*
X147478308Y-109751154D01*
X147463537Y-109751154D01*
X147463519Y-109746269D01*
X147458503Y-108393231D01*
X147478308Y-108393236D01*
G37*
D13*
%TO.C,J2*%
X157720000Y-104200000D02*
X157720000Y-111880000D01*
X157720000Y-114480000D02*
X157720000Y-113150000D01*
X159050000Y-114480000D02*
X157720000Y-114480000D01*
X160380000Y-104200000D02*
X157720000Y-104200000D01*
X160380000Y-104200000D02*
X160380000Y-111880000D01*
X160380000Y-111880000D02*
X157720000Y-111880000D01*
%TO.C,TP2*%
X160554717Y-102605191D02*
G75*
G02*
X158154717Y-102605191I-1200000J0D01*
G01*
X158154717Y-102605191D02*
G75*
G02*
X160554717Y-102605191I1200000J0D01*
G01*
%TO.C,J1*%
X137396872Y-104192752D02*
X137396872Y-114412752D01*
X137396872Y-117012752D02*
X137396872Y-115682752D01*
X138726872Y-117012752D02*
X137396872Y-117012752D01*
X140056872Y-104192752D02*
X137396872Y-104192752D01*
X140056872Y-104192752D02*
X140056872Y-114412752D01*
X140056872Y-114412752D02*
X137396872Y-114412752D01*
%TO.C,TP1*%
X158854717Y-101505191D02*
G75*
G02*
X156454717Y-101505191I-1200000J0D01*
G01*
X156454717Y-101505191D02*
G75*
G02*
X158854717Y-101505191I1200000J0D01*
G01*
%TD*%
%LPC*%
D14*
%TO.C,J3*%
X160320000Y-116690000D03*
D15*
X157780000Y-116690000D03*
%TD*%
%TO.C,J2*%
X159050000Y-113150000D03*
D14*
X159050000Y-110610000D03*
X159050000Y-108070000D03*
X159050000Y-105530000D03*
%TD*%
D16*
%TO.C,TP2*%
X159354717Y-102605191D03*
%TD*%
D15*
%TO.C,J1*%
X138726872Y-115682752D03*
D14*
X138726872Y-113142752D03*
X138726872Y-110602752D03*
X138726872Y-108062752D03*
X138726872Y-105522752D03*
%TD*%
D16*
%TO.C,TP1*%
X157654717Y-101505191D03*
%TD*%
%LPD*%
M02*
