%TF.GenerationSoftware,KiCad,Pcbnew,8.0.7*%
%TF.CreationDate,2025-01-03T12:22:39+02:00*%
%TF.ProjectId,debugger,64656275-6767-4657-922e-6b696361645f,rev?*%
%TF.SameCoordinates,Original*%
%TF.FileFunction,Copper,L2,Bot*%
%TF.FilePolarity,Positive*%
%FSLAX46Y46*%
G04 Gerber Fmt 4.6, Leading zero omitted, Abs format (unit mm)*
G04 Created by KiCad (PCBNEW 8.0.7) date 2025-01-03 12:22:39*
%MOMM*%
%LPD*%
G01*
G04 APERTURE LIST*
%TA.AperFunction,ComponentPad*%
%ADD10O,1.700000X1.700000*%
%TD*%
%TA.AperFunction,ComponentPad*%
%ADD11R,1.700000X1.700000*%
%TD*%
%TA.AperFunction,ComponentPad*%
%ADD12C,1.200000*%
%TD*%
%TA.AperFunction,ViaPad*%
%ADD13C,0.600000*%
%TD*%
%TA.AperFunction,Conductor*%
%ADD14C,0.200000*%
%TD*%
G04 APERTURE END LIST*
D10*
%TO.P,J3,2,Pin_2*%
%TO.N,/STLink_Tx*%
X160320000Y-116690000D03*
D11*
%TO.P,J3,1,Pin_1*%
%TO.N,/STLink_Rx*%
X157780000Y-116690000D03*
%TD*%
%TO.P,J2,1,Pin_1*%
%TO.N,/T_RST*%
X159050000Y-113150000D03*
D10*
%TO.P,J2,2,Pin_2*%
%TO.N,/T_SWCLK*%
X159050000Y-110610000D03*
%TO.P,J2,3,Pin_3*%
%TO.N,/T_SWDIO*%
X159050000Y-108070000D03*
%TO.P,J2,4,Pin_4*%
%TO.N,/T_SWO*%
X159050000Y-105530000D03*
%TD*%
D12*
%TO.P,TP2,1,1*%
%TO.N,/D_SWCLK*%
X159354717Y-102605191D03*
%TD*%
D11*
%TO.P,J1,1,Pin_1*%
%TO.N,+5V*%
X138726872Y-115682752D03*
D10*
%TO.P,J1,2,Pin_2*%
%TO.N,/T_Voltage*%
X138726872Y-113142752D03*
%TO.P,J1,3,Pin_3*%
%TO.N,/USB_DM*%
X138726872Y-110602752D03*
%TO.P,J1,4,Pin_4*%
%TO.N,/USB_DP*%
X138726872Y-108062752D03*
%TO.P,J1,5,Pin_5*%
%TO.N,GND*%
X138726872Y-105522752D03*
%TD*%
D12*
%TO.P,TP1,1,1*%
%TO.N,/D_SWDIO*%
X157654717Y-101505191D03*
%TD*%
D13*
%TO.N,GND*%
X147500000Y-111150000D03*
X156600000Y-103650000D03*
X149300000Y-104550000D03*
X150500000Y-116350000D03*
X144150000Y-111900000D03*
X145200000Y-100850000D03*
X152600000Y-108400000D03*
X143450000Y-111900000D03*
X146700000Y-106850000D03*
X142900000Y-104850000D03*
%TO.N,+5V*%
X148334314Y-100550000D03*
%TO.N,+3V3*%
X147550000Y-113100000D03*
X153050000Y-107550000D03*
X146025000Y-105925000D03*
X153000000Y-111500000D03*
%TO.N,/USB_DP*%
X145316333Y-105553793D03*
X148200000Y-108500000D03*
X141700000Y-108550000D03*
%TO.N,/USB_DM*%
X141700000Y-109350003D03*
X148200000Y-109350000D03*
%TO.N,/T_RST*%
X150000000Y-113350000D03*
%TO.N,/T_SWCLK*%
X148500000Y-113400000D03*
%TO.N,/LED_STLINK*%
X155662122Y-110750000D03*
X154000000Y-105637500D03*
%TO.N,/D_SWCLK*%
X155500000Y-106237500D03*
%TO.N,/STLink_Rx*%
X147500000Y-116150000D03*
%TO.N,/STLink_Tx*%
X145300735Y-114400000D03*
%TD*%
D14*
%TO.N,/STLink_Tx*%
X158623000Y-114935000D02*
X160320000Y-116632000D01*
X145835735Y-114935000D02*
X158623000Y-114935000D01*
X160320000Y-116632000D02*
X160320000Y-116690000D01*
X145300735Y-114400000D02*
X145835735Y-114935000D01*
%TO.N,/STLink_Rx*%
X156130000Y-116690000D02*
X157780000Y-116690000D01*
X154940000Y-115500000D02*
X156130000Y-116690000D01*
X148150000Y-115500000D02*
X154940000Y-115500000D01*
%TO.N,+5V*%
X141000000Y-107884314D02*
X141000000Y-113409624D01*
X141000000Y-113409624D02*
X138726872Y-115682752D01*
X148334314Y-100550000D02*
X141000000Y-107884314D01*
X138726872Y-115682752D02*
X138450000Y-115405880D01*
%TO.N,+3V3*%
X153300000Y-111200000D02*
X153300000Y-107800000D01*
X153300000Y-107800000D02*
X153050000Y-107550000D01*
X153050000Y-107550000D02*
X149200000Y-107550000D01*
X147550000Y-113100000D02*
X147550000Y-113050000D01*
X149200000Y-107550000D02*
X149200000Y-108500000D01*
X153000000Y-111500000D02*
X153300000Y-111200000D01*
X149200000Y-111400000D02*
X149200000Y-108500000D01*
X149200000Y-105925000D02*
X149200000Y-108500000D01*
X147550000Y-113050000D02*
X149200000Y-111400000D01*
X146025000Y-105925000D02*
X149200000Y-105925000D01*
%TO.N,/USB_DP*%
X141700000Y-107750000D02*
X141700000Y-108550000D01*
X145316333Y-105553793D02*
X143896207Y-105553793D01*
X139164120Y-108500000D02*
X138726872Y-108062752D01*
X141750000Y-108500000D02*
X141700000Y-108550000D01*
X148200000Y-108500000D02*
X141750000Y-108500000D01*
X143896207Y-105553793D02*
X141700000Y-107750000D01*
%TO.N,/USB_DM*%
X148200000Y-109350000D02*
X141700003Y-109350000D01*
X141700003Y-109350000D02*
X141700000Y-109350003D01*
%TO.N,/T_RST*%
X150200000Y-113150000D02*
X159050000Y-113150000D01*
X150000000Y-113350000D02*
X150200000Y-113150000D01*
%TO.N,/T_SWCLK*%
X158590000Y-110150000D02*
X159050000Y-110610000D01*
X157010000Y-112650000D02*
X159050000Y-110610000D01*
X149250000Y-112650000D02*
X157010000Y-112650000D01*
X148500000Y-113400000D02*
X149250000Y-112650000D01*
%TO.N,/LED_STLINK*%
X155662122Y-110750000D02*
X155662122Y-107299622D01*
X155662122Y-107299622D02*
X154000000Y-105637500D01*
%TO.N,/D_SWCLK*%
X159354717Y-102895283D02*
X159354717Y-102605191D01*
X156012500Y-106237500D02*
X159354717Y-102895283D01*
X155500000Y-106237500D02*
X156012500Y-106237500D01*
%TO.N,/STLink_Rx*%
X147500000Y-116150000D02*
X148150000Y-115500000D01*
%TD*%
%TA.AperFunction,Conductor*%
%TO.N,GND*%
G36*
X147760459Y-109770185D02*
G01*
X147768907Y-109776124D01*
X147771716Y-109778279D01*
X147771718Y-109778282D01*
X147897159Y-109874536D01*
X148043238Y-109935044D01*
X148117760Y-109944855D01*
X148199999Y-109955682D01*
X148200000Y-109955682D01*
X148200001Y-109955682D01*
X148252254Y-109948802D01*
X148356762Y-109935044D01*
X148502841Y-109874536D01*
X148600014Y-109799972D01*
X148665182Y-109774778D01*
X148733627Y-109788816D01*
X148783617Y-109837630D01*
X148799500Y-109898348D01*
X148799500Y-111182744D01*
X148779815Y-111249783D01*
X148763181Y-111270425D01*
X147567428Y-112466177D01*
X147506105Y-112499662D01*
X147495933Y-112501435D01*
X147393238Y-112514955D01*
X147247160Y-112575463D01*
X147121718Y-112671718D01*
X147025463Y-112797160D01*
X146964956Y-112943237D01*
X146964955Y-112943239D01*
X146944318Y-113099998D01*
X146944318Y-113100001D01*
X146964955Y-113256760D01*
X146964956Y-113256762D01*
X147005109Y-113353701D01*
X147025464Y-113402841D01*
X147121718Y-113528282D01*
X147247159Y-113624536D01*
X147393238Y-113685044D01*
X147464904Y-113694479D01*
X147549999Y-113705682D01*
X147550000Y-113705682D01*
X147550001Y-113705682D01*
X147602254Y-113698802D01*
X147706762Y-113685044D01*
X147815262Y-113640101D01*
X147884728Y-113632633D01*
X147947207Y-113663908D01*
X147969935Y-113696639D01*
X147971396Y-113695796D01*
X147975462Y-113702837D01*
X147975464Y-113702841D01*
X148012423Y-113751007D01*
X148061492Y-113814956D01*
X148071718Y-113828282D01*
X148197159Y-113924536D01*
X148343238Y-113985044D01*
X148389398Y-113991121D01*
X148499999Y-114005682D01*
X148500000Y-114005682D01*
X148500001Y-114005682D01*
X148552254Y-113998802D01*
X148656762Y-113985044D01*
X148802841Y-113924536D01*
X148928282Y-113828282D01*
X149024536Y-113702841D01*
X149085044Y-113556762D01*
X149105682Y-113400000D01*
X149105681Y-113399997D01*
X149106144Y-113396485D01*
X149134410Y-113332589D01*
X149141389Y-113325003D01*
X149184187Y-113282204D01*
X149245508Y-113248721D01*
X149315200Y-113253705D01*
X149371133Y-113295577D01*
X149394805Y-113353701D01*
X149414956Y-113506761D01*
X149414956Y-113506762D01*
X149467093Y-113632633D01*
X149475464Y-113652841D01*
X149571718Y-113778282D01*
X149697159Y-113874536D01*
X149843238Y-113935044D01*
X149921619Y-113945363D01*
X149999999Y-113955682D01*
X150000000Y-113955682D01*
X150000001Y-113955682D01*
X150052254Y-113948802D01*
X150156762Y-113935044D01*
X150302841Y-113874536D01*
X150428282Y-113778282D01*
X150524536Y-113652841D01*
X150530430Y-113638610D01*
X150535220Y-113627048D01*
X150579061Y-113572644D01*
X150645355Y-113550579D01*
X150649781Y-113550500D01*
X157775501Y-113550500D01*
X157842540Y-113570185D01*
X157888295Y-113622989D01*
X157899501Y-113674500D01*
X157899501Y-114044856D01*
X157899502Y-114044882D01*
X157902413Y-114069987D01*
X157902415Y-114069991D01*
X157947793Y-114172764D01*
X157947794Y-114172765D01*
X158027235Y-114252206D01*
X158097159Y-114283080D01*
X158128833Y-114297066D01*
X158182209Y-114342152D01*
X158202736Y-114408938D01*
X158183898Y-114476220D01*
X158131674Y-114522637D01*
X158078746Y-114534500D01*
X146052990Y-114534500D01*
X145985951Y-114514815D01*
X145965309Y-114498181D01*
X145942137Y-114475009D01*
X145908652Y-114413686D01*
X145906879Y-114403513D01*
X145906416Y-114399998D01*
X145885779Y-114243238D01*
X145825271Y-114097159D01*
X145729017Y-113971718D01*
X145603576Y-113875464D01*
X145457497Y-113814956D01*
X145457495Y-113814955D01*
X145300736Y-113794318D01*
X145300734Y-113794318D01*
X145143974Y-113814955D01*
X145143972Y-113814956D01*
X144997895Y-113875463D01*
X144872453Y-113971718D01*
X144776198Y-114097160D01*
X144715691Y-114243237D01*
X144715690Y-114243239D01*
X144695053Y-114399998D01*
X144695053Y-114400001D01*
X144715690Y-114556760D01*
X144715691Y-114556762D01*
X144776199Y-114702841D01*
X144872453Y-114828282D01*
X144997894Y-114924536D01*
X145143973Y-114985044D01*
X145300735Y-115005682D01*
X145300736Y-115005681D01*
X145304248Y-115006144D01*
X145368145Y-115034410D01*
X145375744Y-115041402D01*
X145589822Y-115255480D01*
X145681147Y-115308207D01*
X145783008Y-115335500D01*
X145888462Y-115335500D01*
X147273804Y-115335500D01*
X147340843Y-115355185D01*
X147386598Y-115407989D01*
X147396542Y-115477147D01*
X147367517Y-115540703D01*
X147321257Y-115574060D01*
X147295015Y-115584930D01*
X147197160Y-115625463D01*
X147071718Y-115721718D01*
X146975463Y-115847160D01*
X146914956Y-115993237D01*
X146914955Y-115993239D01*
X146894318Y-116149998D01*
X146894318Y-116150001D01*
X146914955Y-116306760D01*
X146914956Y-116306762D01*
X146975464Y-116452841D01*
X147071718Y-116578282D01*
X147197159Y-116674536D01*
X147343238Y-116735044D01*
X147421619Y-116745363D01*
X147499999Y-116755682D01*
X147500000Y-116755682D01*
X147500001Y-116755682D01*
X147552254Y-116748802D01*
X147656762Y-116735044D01*
X147802841Y-116674536D01*
X147928282Y-116578282D01*
X148024536Y-116452841D01*
X148085044Y-116306762D01*
X148105682Y-116150000D01*
X148105681Y-116149997D01*
X148106144Y-116146485D01*
X148134410Y-116082589D01*
X148141376Y-116075015D01*
X148279575Y-115936817D01*
X148340898Y-115903334D01*
X148367255Y-115900500D01*
X154722745Y-115900500D01*
X154789784Y-115920185D01*
X154810425Y-115936818D01*
X155884087Y-117010480D01*
X155975412Y-117063207D01*
X156077273Y-117090500D01*
X156182727Y-117090500D01*
X156505501Y-117090500D01*
X156572540Y-117110185D01*
X156618295Y-117162989D01*
X156629501Y-117214500D01*
X156629501Y-117525500D01*
X156609816Y-117592539D01*
X156557012Y-117638294D01*
X156505501Y-117649500D01*
X138006962Y-117649500D01*
X137993078Y-117648720D01*
X137980553Y-117647308D01*
X137902735Y-117638540D01*
X137875666Y-117632362D01*
X137796462Y-117604648D01*
X137771444Y-117592600D01*
X137700395Y-117547957D01*
X137678686Y-117530644D01*
X137619355Y-117471313D01*
X137602042Y-117449604D01*
X137557399Y-117378555D01*
X137545351Y-117353537D01*
X137526007Y-117298255D01*
X137517636Y-117274331D01*
X137511459Y-117247263D01*
X137507767Y-117214500D01*
X137501280Y-117156922D01*
X137500500Y-117143038D01*
X137500500Y-116880713D01*
X137520185Y-116813674D01*
X137572989Y-116767919D01*
X137642147Y-116757975D01*
X137692812Y-116781113D01*
X137694627Y-116778464D01*
X137704106Y-116784957D01*
X137704107Y-116784958D01*
X137806881Y-116830337D01*
X137832007Y-116833252D01*
X139621736Y-116833251D01*
X139621751Y-116833249D01*
X139621754Y-116833249D01*
X139646859Y-116830338D01*
X139646860Y-116830337D01*
X139646863Y-116830337D01*
X139749637Y-116784958D01*
X139829078Y-116705517D01*
X139874457Y-116602743D01*
X139877372Y-116577617D01*
X139877371Y-115150005D01*
X139897056Y-115082967D01*
X139913685Y-115062330D01*
X141320480Y-113655537D01*
X141368697Y-113572023D01*
X141373206Y-113564212D01*
X141373207Y-113564211D01*
X141400500Y-113462351D01*
X141400500Y-110057649D01*
X141420185Y-109990610D01*
X141472989Y-109944855D01*
X141540686Y-109934710D01*
X141543234Y-109935045D01*
X141543238Y-109935047D01*
X141700000Y-109955685D01*
X141700001Y-109955685D01*
X141782262Y-109944855D01*
X141856762Y-109935047D01*
X142002841Y-109874539D01*
X142128282Y-109778285D01*
X142128283Y-109778282D01*
X142131097Y-109776124D01*
X142196267Y-109750930D01*
X142206584Y-109750500D01*
X147693420Y-109750500D01*
X147760459Y-109770185D01*
G37*
%TD.AperFunction*%
%TA.AperFunction,Conductor*%
G36*
X161106922Y-100051280D02*
G01*
X161197266Y-100061459D01*
X161224331Y-100067636D01*
X161303540Y-100095352D01*
X161328553Y-100107398D01*
X161399606Y-100152043D01*
X161421313Y-100169355D01*
X161480644Y-100228686D01*
X161497957Y-100250395D01*
X161542600Y-100321444D01*
X161554648Y-100346462D01*
X161582362Y-100425666D01*
X161588540Y-100452735D01*
X161598720Y-100543076D01*
X161599500Y-100556961D01*
X161599500Y-116151256D01*
X161579815Y-116218295D01*
X161527011Y-116264050D01*
X161457853Y-116273994D01*
X161394297Y-116244969D01*
X161364500Y-116206527D01*
X161302367Y-116081746D01*
X161173872Y-115911593D01*
X161161704Y-115900500D01*
X161016302Y-115767948D01*
X160835019Y-115655702D01*
X160835017Y-115655701D01*
X160699045Y-115603026D01*
X160636198Y-115578679D01*
X160426610Y-115539500D01*
X160213390Y-115539500D01*
X160003802Y-115578679D01*
X160003797Y-115578680D01*
X159956085Y-115597164D01*
X159886462Y-115603026D01*
X159824722Y-115570316D01*
X159823611Y-115569218D01*
X158868915Y-114614522D01*
X158868913Y-114614520D01*
X158777588Y-114561793D01*
X158712203Y-114544273D01*
X158652544Y-114507909D01*
X158622015Y-114445062D01*
X158630310Y-114375686D01*
X158674795Y-114321808D01*
X158741347Y-114300534D01*
X158744241Y-114300499D01*
X159944864Y-114300499D01*
X159944879Y-114300497D01*
X159944882Y-114300497D01*
X159969987Y-114297586D01*
X159969988Y-114297585D01*
X159969991Y-114297585D01*
X160072765Y-114252206D01*
X160152206Y-114172765D01*
X160197585Y-114069991D01*
X160200500Y-114044865D01*
X160200499Y-112255136D01*
X160200497Y-112255117D01*
X160197586Y-112230012D01*
X160197585Y-112230010D01*
X160197585Y-112230009D01*
X160152206Y-112127235D01*
X160072765Y-112047794D01*
X160050174Y-112037819D01*
X159969992Y-112002415D01*
X159944868Y-111999500D01*
X159944865Y-111999500D01*
X159216245Y-111999500D01*
X159149206Y-111979815D01*
X159103451Y-111927011D01*
X159093507Y-111857853D01*
X159122532Y-111794297D01*
X159181310Y-111756523D01*
X159193450Y-111753613D01*
X159366198Y-111721321D01*
X159565019Y-111644298D01*
X159746302Y-111532052D01*
X159903872Y-111388407D01*
X160032366Y-111218255D01*
X160042870Y-111197160D01*
X160127403Y-111027394D01*
X160127403Y-111027393D01*
X160127405Y-111027389D01*
X160185756Y-110822310D01*
X160205429Y-110610000D01*
X160185756Y-110397690D01*
X160127405Y-110192611D01*
X160127403Y-110192606D01*
X160127403Y-110192605D01*
X160032367Y-110001746D01*
X159903872Y-109831593D01*
X159845393Y-109778282D01*
X159746302Y-109687948D01*
X159565019Y-109575702D01*
X159565017Y-109575701D01*
X159465608Y-109537190D01*
X159366198Y-109498679D01*
X159169385Y-109461888D01*
X159107106Y-109430221D01*
X159071833Y-109369908D01*
X159074767Y-109300100D01*
X159114976Y-109242960D01*
X159169384Y-109218111D01*
X159366198Y-109181321D01*
X159565019Y-109104298D01*
X159746302Y-108992052D01*
X159903872Y-108848407D01*
X160032366Y-108678255D01*
X160044981Y-108652921D01*
X160127403Y-108487394D01*
X160127403Y-108487393D01*
X160127405Y-108487389D01*
X160185756Y-108282310D01*
X160205429Y-108070000D01*
X160185756Y-107857690D01*
X160127405Y-107652611D01*
X160127403Y-107652606D01*
X160127403Y-107652605D01*
X160032367Y-107461746D01*
X159903872Y-107291593D01*
X159895921Y-107284345D01*
X159746302Y-107147948D01*
X159565019Y-107035702D01*
X159565017Y-107035701D01*
X159465608Y-106997190D01*
X159366198Y-106958679D01*
X159169385Y-106921888D01*
X159107106Y-106890221D01*
X159071833Y-106829908D01*
X159074767Y-106760100D01*
X159114976Y-106702960D01*
X159169384Y-106678111D01*
X159366198Y-106641321D01*
X159565019Y-106564298D01*
X159746302Y-106452052D01*
X159903872Y-106308407D01*
X160032366Y-106138255D01*
X160068453Y-106065782D01*
X160127403Y-105947394D01*
X160127403Y-105947393D01*
X160127405Y-105947389D01*
X160185756Y-105742310D01*
X160205429Y-105530000D01*
X160185756Y-105317690D01*
X160127405Y-105112611D01*
X160127403Y-105112606D01*
X160127403Y-105112605D01*
X160032367Y-104921746D01*
X159903872Y-104751593D01*
X159746302Y-104607948D01*
X159565019Y-104495702D01*
X159565017Y-104495701D01*
X159381820Y-104424731D01*
X159366198Y-104418679D01*
X159156610Y-104379500D01*
X158943390Y-104379500D01*
X158828560Y-104400965D01*
X158733795Y-104418680D01*
X158733289Y-104418877D01*
X158733026Y-104418899D01*
X158728281Y-104420249D01*
X158728016Y-104419320D01*
X158663665Y-104424731D01*
X158601929Y-104392014D01*
X158567680Y-104331114D01*
X158571794Y-104261366D01*
X158600824Y-104215567D01*
X159274382Y-103542009D01*
X159335705Y-103508525D01*
X159362063Y-103505691D01*
X159449361Y-103505691D01*
X159449363Y-103505691D01*
X159634520Y-103466335D01*
X159807447Y-103389342D01*
X159960588Y-103278079D01*
X160087250Y-103137407D01*
X160181896Y-102973475D01*
X160240391Y-102793447D01*
X160260177Y-102605191D01*
X160240391Y-102416935D01*
X160181896Y-102236907D01*
X160087250Y-102072975D01*
X159960588Y-101932303D01*
X159954926Y-101928189D01*
X159807451Y-101821042D01*
X159807446Y-101821039D01*
X159634524Y-101744048D01*
X159634519Y-101744046D01*
X159488718Y-101713056D01*
X159449363Y-101704691D01*
X159260071Y-101704691D01*
X159227614Y-101711589D01*
X159074914Y-101744046D01*
X159074909Y-101744048D01*
X158901987Y-101821039D01*
X158901982Y-101821042D01*
X158748849Y-101932300D01*
X158748846Y-101932302D01*
X158748846Y-101932303D01*
X158691621Y-101995856D01*
X158632136Y-102032504D01*
X158562279Y-102031173D01*
X158504231Y-101992286D01*
X158476421Y-101928189D01*
X158481542Y-101874565D01*
X158489684Y-101849505D01*
X158540391Y-101693447D01*
X158560177Y-101505191D01*
X158540391Y-101316935D01*
X158481896Y-101136907D01*
X158387250Y-100972975D01*
X158260588Y-100832303D01*
X158260587Y-100832302D01*
X158107451Y-100721042D01*
X158107446Y-100721039D01*
X157934524Y-100644048D01*
X157934519Y-100644046D01*
X157788718Y-100613056D01*
X157749363Y-100604691D01*
X157560071Y-100604691D01*
X157527614Y-100611589D01*
X157374914Y-100644046D01*
X157374909Y-100644048D01*
X157201987Y-100721039D01*
X157201982Y-100721042D01*
X157048846Y-100832302D01*
X156922183Y-100972976D01*
X156827538Y-101136906D01*
X156827535Y-101136913D01*
X156809831Y-101191402D01*
X156769043Y-101316935D01*
X156749257Y-101505191D01*
X156769043Y-101693447D01*
X156769044Y-101693450D01*
X156827535Y-101873468D01*
X156827538Y-101873475D01*
X156922184Y-102037407D01*
X157048846Y-102178079D01*
X157201982Y-102289339D01*
X157201987Y-102289342D01*
X157374909Y-102366333D01*
X157374914Y-102366335D01*
X157560071Y-102405691D01*
X157560072Y-102405691D01*
X157749361Y-102405691D01*
X157749363Y-102405691D01*
X157934520Y-102366335D01*
X158107447Y-102289342D01*
X158260588Y-102178079D01*
X158317812Y-102114524D01*
X158377295Y-102077878D01*
X158447152Y-102079207D01*
X158505201Y-102118093D01*
X158533011Y-102182190D01*
X158527891Y-102235815D01*
X158469044Y-102416930D01*
X158469044Y-102416931D01*
X158469043Y-102416935D01*
X158449257Y-102605191D01*
X158469043Y-102793447D01*
X158469044Y-102793450D01*
X158527535Y-102973468D01*
X158527536Y-102973470D01*
X158527538Y-102973475D01*
X158546798Y-103006836D01*
X158563271Y-103074732D01*
X158540419Y-103140759D01*
X158527092Y-103156514D01*
X155974681Y-105708924D01*
X155913358Y-105742409D01*
X155843666Y-105737425D01*
X155811514Y-105719619D01*
X155802841Y-105712964D01*
X155802836Y-105712961D01*
X155656765Y-105652457D01*
X155656760Y-105652455D01*
X155500001Y-105631818D01*
X155499999Y-105631818D01*
X155343239Y-105652455D01*
X155343237Y-105652456D01*
X155197160Y-105712963D01*
X155071715Y-105809220D01*
X155012949Y-105885806D01*
X154956521Y-105927009D01*
X154886775Y-105931163D01*
X154826893Y-105898000D01*
X154641402Y-105712509D01*
X154607917Y-105651186D01*
X154606144Y-105641013D01*
X154605681Y-105637498D01*
X154585044Y-105480738D01*
X154524536Y-105334659D01*
X154428282Y-105209218D01*
X154302841Y-105112964D01*
X154301979Y-105112607D01*
X154156762Y-105052456D01*
X154156760Y-105052455D01*
X154000001Y-105031818D01*
X153999999Y-105031818D01*
X153843239Y-105052455D01*
X153843237Y-105052456D01*
X153697160Y-105112963D01*
X153571718Y-105209218D01*
X153475463Y-105334660D01*
X153414956Y-105480737D01*
X153414955Y-105480739D01*
X153394318Y-105637498D01*
X153394318Y-105637501D01*
X153414955Y-105794260D01*
X153414956Y-105794262D01*
X153475464Y-105940341D01*
X153571718Y-106065782D01*
X153697159Y-106162036D01*
X153843238Y-106222544D01*
X154000000Y-106243182D01*
X154000001Y-106243181D01*
X154003513Y-106243644D01*
X154067410Y-106271910D01*
X154075009Y-106278902D01*
X155225303Y-107429196D01*
X155258788Y-107490519D01*
X155261622Y-107516877D01*
X155261622Y-110243419D01*
X155241937Y-110310458D01*
X155235998Y-110318905D01*
X155137586Y-110447157D01*
X155077078Y-110593237D01*
X155077077Y-110593239D01*
X155056440Y-110749998D01*
X155056440Y-110750001D01*
X155077077Y-110906760D01*
X155077078Y-110906762D01*
X155137586Y-111052841D01*
X155233840Y-111178282D01*
X155359281Y-111274536D01*
X155505360Y-111335044D01*
X155567600Y-111343238D01*
X155662121Y-111355682D01*
X155662122Y-111355682D01*
X155662123Y-111355682D01*
X155756636Y-111343239D01*
X155818884Y-111335044D01*
X155964963Y-111274536D01*
X156090404Y-111178282D01*
X156186658Y-111052841D01*
X156247166Y-110906762D01*
X156267804Y-110750000D01*
X156247166Y-110593238D01*
X156186658Y-110447159D01*
X156186657Y-110447158D01*
X156186657Y-110447157D01*
X156088246Y-110318905D01*
X156063052Y-110253736D01*
X156062622Y-110243419D01*
X156062622Y-107246897D01*
X156062622Y-107246895D01*
X156035329Y-107145035D01*
X155982602Y-107053709D01*
X155908035Y-106979142D01*
X155839499Y-106910606D01*
X155806014Y-106849283D01*
X155810998Y-106779591D01*
X155851692Y-106724551D01*
X155928282Y-106665782D01*
X155928282Y-106665781D01*
X155931094Y-106663624D01*
X155996264Y-106638430D01*
X156006580Y-106638000D01*
X156065225Y-106638000D01*
X156065227Y-106638000D01*
X156167088Y-106610707D01*
X156258413Y-106557980D01*
X157741889Y-105074503D01*
X157803209Y-105041020D01*
X157872900Y-105046004D01*
X157928834Y-105087876D01*
X157953251Y-105153340D01*
X157948833Y-105196120D01*
X157914244Y-105317687D01*
X157894571Y-105529999D01*
X157894571Y-105530000D01*
X157914244Y-105742310D01*
X157972596Y-105947392D01*
X157972596Y-105947394D01*
X158067632Y-106138253D01*
X158196127Y-106308406D01*
X158196128Y-106308407D01*
X158353698Y-106452052D01*
X158534981Y-106564298D01*
X158733802Y-106641321D01*
X158930613Y-106678111D01*
X158992893Y-106709779D01*
X159028166Y-106770092D01*
X159025232Y-106839900D01*
X158985023Y-106897040D01*
X158930613Y-106921888D01*
X158733802Y-106958679D01*
X158733799Y-106958679D01*
X158733799Y-106958680D01*
X158534982Y-107035701D01*
X158534980Y-107035702D01*
X158353699Y-107147947D01*
X158196127Y-107291593D01*
X158067632Y-107461746D01*
X157972596Y-107652605D01*
X157972596Y-107652607D01*
X157914244Y-107857689D01*
X157894571Y-108069999D01*
X157894571Y-108070000D01*
X157914244Y-108282310D01*
X157972596Y-108487392D01*
X157972596Y-108487394D01*
X158067632Y-108678253D01*
X158196127Y-108848406D01*
X158196128Y-108848407D01*
X158353698Y-108992052D01*
X158534981Y-109104298D01*
X158733802Y-109181321D01*
X158930613Y-109218111D01*
X158992893Y-109249779D01*
X159028166Y-109310092D01*
X159025232Y-109379900D01*
X158985023Y-109437040D01*
X158930613Y-109461888D01*
X158733802Y-109498679D01*
X158733799Y-109498679D01*
X158733799Y-109498680D01*
X158534982Y-109575701D01*
X158534980Y-109575702D01*
X158353699Y-109687947D01*
X158196127Y-109831593D01*
X158067632Y-110001746D01*
X157972596Y-110192605D01*
X157972596Y-110192607D01*
X157914244Y-110397689D01*
X157894571Y-110609999D01*
X157894571Y-110610000D01*
X157914244Y-110822310D01*
X157973390Y-111030184D01*
X157972804Y-111100052D01*
X157941805Y-111151800D01*
X156880426Y-112213181D01*
X156819103Y-112246666D01*
X156792745Y-112249500D01*
X153374955Y-112249500D01*
X153307916Y-112229815D01*
X153262161Y-112177011D01*
X153252217Y-112107853D01*
X153281242Y-112044297D01*
X153299468Y-112027124D01*
X153302841Y-112024536D01*
X153428282Y-111928282D01*
X153524536Y-111802841D01*
X153585044Y-111656762D01*
X153605682Y-111500000D01*
X153605682Y-111499998D01*
X153606743Y-111491942D01*
X153609038Y-111492244D01*
X153622295Y-111442769D01*
X153657866Y-111381159D01*
X153673207Y-111354588D01*
X153700500Y-111252727D01*
X153700500Y-111147273D01*
X153700500Y-107747273D01*
X153673207Y-107645413D01*
X153673206Y-107645412D01*
X153673206Y-107645410D01*
X153669754Y-107639432D01*
X153653280Y-107571532D01*
X153654202Y-107561239D01*
X153655682Y-107550001D01*
X153655682Y-107549998D01*
X153635044Y-107393239D01*
X153635044Y-107393238D01*
X153574536Y-107247159D01*
X153478282Y-107121718D01*
X153352841Y-107025464D01*
X153332955Y-107017227D01*
X153206762Y-106964956D01*
X153206760Y-106964955D01*
X153050001Y-106944318D01*
X153049999Y-106944318D01*
X152893239Y-106964955D01*
X152893237Y-106964956D01*
X152747160Y-107025463D01*
X152723890Y-107043318D01*
X152621718Y-107121718D01*
X152621716Y-107121720D01*
X152618907Y-107123876D01*
X152553737Y-107149070D01*
X152543420Y-107149500D01*
X149724500Y-107149500D01*
X149657461Y-107129815D01*
X149611706Y-107077011D01*
X149600500Y-107025500D01*
X149600500Y-105872275D01*
X149600500Y-105872273D01*
X149573207Y-105770413D01*
X149520480Y-105679087D01*
X149445913Y-105604520D01*
X149354587Y-105551793D01*
X149252727Y-105524500D01*
X149252726Y-105524500D01*
X146531580Y-105524500D01*
X146464541Y-105504815D01*
X146456093Y-105498876D01*
X146453283Y-105496720D01*
X146453282Y-105496718D01*
X146327841Y-105400464D01*
X146181762Y-105339956D01*
X146181760Y-105339955D01*
X146025001Y-105319318D01*
X146024996Y-105319318D01*
X145971576Y-105326350D01*
X145902541Y-105315584D01*
X145850286Y-105269203D01*
X145840944Y-105251082D01*
X145840872Y-105250956D01*
X145840869Y-105250952D01*
X145744615Y-105125511D01*
X145619174Y-105029257D01*
X145576657Y-105011646D01*
X145473095Y-104968749D01*
X145473093Y-104968748D01*
X145316334Y-104948111D01*
X145316332Y-104948111D01*
X145159572Y-104968748D01*
X145159570Y-104968749D01*
X145013493Y-105029256D01*
X145013492Y-105029257D01*
X144888051Y-105125511D01*
X144888049Y-105125513D01*
X144885240Y-105127669D01*
X144820070Y-105152863D01*
X144809753Y-105153293D01*
X144596776Y-105153293D01*
X144529737Y-105133608D01*
X144483982Y-105080804D01*
X144474038Y-105011646D01*
X144503063Y-104948090D01*
X144509095Y-104941612D01*
X145258591Y-104192116D01*
X148259305Y-101191400D01*
X148320626Y-101157917D01*
X148330799Y-101156144D01*
X148334311Y-101155681D01*
X148334314Y-101155682D01*
X148491076Y-101135044D01*
X148637155Y-101074536D01*
X148762596Y-100978282D01*
X148858850Y-100852841D01*
X148919358Y-100706762D01*
X148939996Y-100550000D01*
X148939084Y-100543076D01*
X148919358Y-100393239D01*
X148919358Y-100393238D01*
X148858850Y-100247159D01*
X148858848Y-100247156D01*
X148854786Y-100240119D01*
X148856762Y-100238977D01*
X148835825Y-100184807D01*
X148849869Y-100116363D01*
X148898687Y-100066377D01*
X148959396Y-100050500D01*
X161034108Y-100050500D01*
X161093038Y-100050500D01*
X161106922Y-100051280D01*
G37*
%TD.AperFunction*%
%TA.AperFunction,Conductor*%
G36*
X147776271Y-100070185D02*
G01*
X147822026Y-100122989D01*
X147831970Y-100192147D01*
X147812172Y-100239154D01*
X147813842Y-100240119D01*
X147809779Y-100247156D01*
X147749270Y-100393237D01*
X147749270Y-100393238D01*
X147728169Y-100553513D01*
X147699902Y-100617409D01*
X147692911Y-100625008D01*
X140679522Y-107638398D01*
X140679520Y-107638401D01*
X140626793Y-107729726D01*
X140607233Y-107802727D01*
X140607232Y-107802726D01*
X140599500Y-107831583D01*
X140599500Y-113192368D01*
X140579815Y-113259407D01*
X140563181Y-113280049D01*
X139791177Y-114052052D01*
X139729854Y-114085537D01*
X139676653Y-114081732D01*
X139684024Y-114104678D01*
X139666035Y-114172192D01*
X139647744Y-114195485D01*
X139347296Y-114495933D01*
X139285973Y-114529418D01*
X139259615Y-114532252D01*
X138893115Y-114532252D01*
X138826076Y-114512567D01*
X138780321Y-114459763D01*
X138770377Y-114390605D01*
X138799402Y-114327049D01*
X138858180Y-114289275D01*
X138870313Y-114286366D01*
X139043070Y-114254073D01*
X139241891Y-114177050D01*
X139423174Y-114064804D01*
X139476526Y-114016166D01*
X139539327Y-113985550D01*
X139586490Y-113991121D01*
X139579812Y-113973217D01*
X139594664Y-113904944D01*
X139604537Y-113889652D01*
X139709238Y-113751007D01*
X139770962Y-113627048D01*
X139804275Y-113560146D01*
X139804275Y-113560145D01*
X139804277Y-113560141D01*
X139862628Y-113355062D01*
X139882301Y-113142752D01*
X139862628Y-112930442D01*
X139804277Y-112725363D01*
X139804275Y-112725358D01*
X139804275Y-112725357D01*
X139709239Y-112534498D01*
X139580744Y-112364345D01*
X139539660Y-112326892D01*
X139423174Y-112220700D01*
X139241891Y-112108454D01*
X139241889Y-112108453D01*
X139059559Y-112037819D01*
X139043070Y-112031431D01*
X138846257Y-111994640D01*
X138783978Y-111962973D01*
X138748705Y-111902660D01*
X138751639Y-111832852D01*
X138791848Y-111775712D01*
X138846256Y-111750863D01*
X139043070Y-111714073D01*
X139241891Y-111637050D01*
X139423174Y-111524804D01*
X139580744Y-111381159D01*
X139709238Y-111211007D01*
X139725533Y-111178282D01*
X139804275Y-111020146D01*
X139804275Y-111020145D01*
X139804277Y-111020141D01*
X139862628Y-110815062D01*
X139882301Y-110602752D01*
X139862628Y-110390442D01*
X139804277Y-110185363D01*
X139804275Y-110185358D01*
X139804275Y-110185357D01*
X139709239Y-109994498D01*
X139580744Y-109824345D01*
X139530219Y-109778285D01*
X139423174Y-109680700D01*
X139241891Y-109568454D01*
X139241889Y-109568453D01*
X139061779Y-109498679D01*
X139043070Y-109491431D01*
X138846257Y-109454640D01*
X138783978Y-109422973D01*
X138748705Y-109362660D01*
X138751639Y-109292852D01*
X138791848Y-109235712D01*
X138846256Y-109210863D01*
X139043070Y-109174073D01*
X139241891Y-109097050D01*
X139423174Y-108984804D01*
X139580744Y-108841159D01*
X139709238Y-108671007D01*
X139737385Y-108614479D01*
X139804275Y-108480146D01*
X139804275Y-108480145D01*
X139804277Y-108480141D01*
X139862628Y-108275062D01*
X139882301Y-108062752D01*
X139862628Y-107850442D01*
X139804277Y-107645363D01*
X139804275Y-107645358D01*
X139804275Y-107645357D01*
X139709239Y-107454498D01*
X139580744Y-107284345D01*
X139539666Y-107246897D01*
X139423174Y-107140700D01*
X139241891Y-107028454D01*
X139241886Y-107028452D01*
X139234170Y-107025463D01*
X139212909Y-107017226D01*
X139157508Y-106974655D01*
X139133917Y-106908888D01*
X139149628Y-106840808D01*
X139199651Y-106792028D01*
X139205298Y-106789218D01*
X139404450Y-106696351D01*
X139597954Y-106560857D01*
X139764977Y-106393834D01*
X139900472Y-106200330D01*
X140000301Y-105986244D01*
X140000304Y-105986238D01*
X140057508Y-105772752D01*
X139159884Y-105772752D01*
X139192797Y-105715745D01*
X139226872Y-105588578D01*
X139226872Y-105456926D01*
X139192797Y-105329759D01*
X139159884Y-105272752D01*
X140057508Y-105272752D01*
X140057507Y-105272751D01*
X140000304Y-105059265D01*
X140000301Y-105059259D01*
X139900472Y-104845174D01*
X139900471Y-104845172D01*
X139764985Y-104651678D01*
X139764980Y-104651672D01*
X139597954Y-104484646D01*
X139404450Y-104349151D01*
X139190364Y-104249322D01*
X139190358Y-104249319D01*
X138976872Y-104192116D01*
X138976872Y-105089740D01*
X138919865Y-105056827D01*
X138792698Y-105022752D01*
X138661046Y-105022752D01*
X138533879Y-105056827D01*
X138476872Y-105089740D01*
X138476872Y-104192116D01*
X138476871Y-104192116D01*
X138263385Y-104249319D01*
X138263379Y-104249322D01*
X138049294Y-104349151D01*
X138049292Y-104349152D01*
X137855798Y-104484638D01*
X137855792Y-104484643D01*
X137712181Y-104628255D01*
X137650858Y-104661740D01*
X137581166Y-104656756D01*
X137525233Y-104614884D01*
X137500816Y-104549420D01*
X137500500Y-104540574D01*
X137500500Y-100556961D01*
X137501280Y-100543077D01*
X137501280Y-100543076D01*
X137511459Y-100452731D01*
X137517635Y-100425670D01*
X137545353Y-100346456D01*
X137557396Y-100321450D01*
X137602046Y-100250389D01*
X137619351Y-100228690D01*
X137678690Y-100169351D01*
X137700389Y-100152046D01*
X137771450Y-100107396D01*
X137796456Y-100095353D01*
X137875670Y-100067635D01*
X137902733Y-100061459D01*
X137965419Y-100054396D01*
X137993079Y-100051280D01*
X138006962Y-100050500D01*
X138065892Y-100050500D01*
X147709232Y-100050500D01*
X147776271Y-100070185D01*
G37*
%TD.AperFunction*%
%TA.AperFunction,Conductor*%
G36*
X152610459Y-107970185D02*
G01*
X152618907Y-107976124D01*
X152621716Y-107978279D01*
X152621718Y-107978282D01*
X152747159Y-108074536D01*
X152747160Y-108074536D01*
X152747161Y-108074537D01*
X152765464Y-108082118D01*
X152822953Y-108105931D01*
X152877356Y-108149770D01*
X152899421Y-108216064D01*
X152899500Y-108220491D01*
X152899500Y-110808797D01*
X152879815Y-110875836D01*
X152827011Y-110921591D01*
X152822953Y-110923358D01*
X152697160Y-110975463D01*
X152571718Y-111071718D01*
X152475463Y-111197160D01*
X152414956Y-111343237D01*
X152414955Y-111343239D01*
X152394318Y-111499998D01*
X152394318Y-111500001D01*
X152414955Y-111656760D01*
X152414956Y-111656762D01*
X152468189Y-111785279D01*
X152475464Y-111802841D01*
X152571718Y-111928282D01*
X152697159Y-112024536D01*
X152700532Y-112027124D01*
X152741734Y-112083552D01*
X152745889Y-112153298D01*
X152711676Y-112214219D01*
X152649959Y-112246971D01*
X152625045Y-112249500D01*
X149216255Y-112249500D01*
X149149216Y-112229815D01*
X149103461Y-112177011D01*
X149093517Y-112107853D01*
X149122542Y-112044297D01*
X149128574Y-112037819D01*
X149323549Y-111842844D01*
X149520480Y-111645913D01*
X149525595Y-111637053D01*
X149525598Y-111637050D01*
X149525597Y-111637050D01*
X149573207Y-111554587D01*
X149600500Y-111452727D01*
X149600500Y-108447273D01*
X149600500Y-108074500D01*
X149620185Y-108007461D01*
X149672989Y-107961706D01*
X149724500Y-107950500D01*
X152543420Y-107950500D01*
X152610459Y-107970185D01*
G37*
%TD.AperFunction*%
%TA.AperFunction,Conductor*%
G36*
X144876792Y-105973978D02*
G01*
X144885240Y-105979917D01*
X144888049Y-105982072D01*
X144888051Y-105982075D01*
X145013492Y-106078329D01*
X145159571Y-106138837D01*
X145316333Y-106159475D01*
X145369754Y-106152441D01*
X145438786Y-106163205D01*
X145491042Y-106209584D01*
X145500377Y-106227690D01*
X145500462Y-106227837D01*
X145500464Y-106227841D01*
X145596718Y-106353282D01*
X145722159Y-106449536D01*
X145868238Y-106510044D01*
X145946619Y-106520363D01*
X146024999Y-106530682D01*
X146025000Y-106530682D01*
X146025001Y-106530682D01*
X146077254Y-106523802D01*
X146181762Y-106510044D01*
X146327841Y-106449536D01*
X146453282Y-106353282D01*
X146453283Y-106353279D01*
X146456093Y-106351124D01*
X146521263Y-106325930D01*
X146531580Y-106325500D01*
X148675500Y-106325500D01*
X148742539Y-106345185D01*
X148788294Y-106397989D01*
X148799500Y-106449500D01*
X148799500Y-107951651D01*
X148779815Y-108018690D01*
X148727011Y-108064445D01*
X148657853Y-108074389D01*
X148600014Y-108050027D01*
X148502842Y-107975464D01*
X148356762Y-107914956D01*
X148356760Y-107914955D01*
X148200001Y-107894318D01*
X148199999Y-107894318D01*
X148043239Y-107914955D01*
X148043237Y-107914956D01*
X147897160Y-107975463D01*
X147873890Y-107993318D01*
X147771718Y-108071718D01*
X147771716Y-108071720D01*
X147768907Y-108073876D01*
X147703737Y-108099070D01*
X147693420Y-108099500D01*
X142224500Y-108099500D01*
X142157461Y-108079815D01*
X142111706Y-108027011D01*
X142100500Y-107975500D01*
X142100500Y-107967254D01*
X142120185Y-107900215D01*
X142136819Y-107879573D01*
X144025780Y-105990612D01*
X144087103Y-105957127D01*
X144113461Y-105954293D01*
X144809753Y-105954293D01*
X144876792Y-105973978D01*
G37*
%TD.AperFunction*%
%TD*%
M02*
