%TF.GenerationSoftware,KiCad,Pcbnew,8.0.7*%
%TF.CreationDate,2025-01-03T12:22:39+02:00*%
%TF.ProjectId,debugger,64656275-6767-4657-922e-6b696361645f,rev?*%
%TF.SameCoordinates,Original*%
%TF.FileFunction,Legend,Top*%
%TF.FilePolarity,Positive*%
%FSLAX46Y46*%
G04 Gerber Fmt 4.6, Leading zero omitted, Abs format (unit mm)*
G04 Created by KiCad (PCBNEW 8.0.7) date 2025-01-03 12:22:39*
%MOMM*%
%LPD*%
G01*
G04 APERTURE LIST*
G04 Aperture macros list*
%AMRoundRect*
0 Rectangle with rounded corners*
0 $1 Rounding radius*
0 $2 $3 $4 $5 $6 $7 $8 $9 X,Y pos of 4 corners*
0 Add a 4 corners polygon primitive as box body*
4,1,4,$2,$3,$4,$5,$6,$7,$8,$9,$2,$3,0*
0 Add four circle primitives for the rounded corners*
1,1,$1+$1,$2,$3*
1,1,$1+$1,$4,$5*
1,1,$1+$1,$6,$7*
1,1,$1+$1,$8,$9*
0 Add four rect primitives between the rounded corners*
20,1,$1+$1,$2,$3,$4,$5,0*
20,1,$1+$1,$4,$5,$6,$7,0*
20,1,$1+$1,$6,$7,$8,$9,0*
20,1,$1+$1,$8,$9,$2,$3,0*%
G04 Aperture macros list end*
%ADD10C,0.100000*%
%ADD11C,0.120000*%
%ADD12C,0.200000*%
%ADD13RoundRect,0.155000X-0.155000X0.212500X-0.155000X-0.212500X0.155000X-0.212500X0.155000X0.212500X0*%
%ADD14RoundRect,0.155000X0.155000X-0.212500X0.155000X0.212500X-0.155000X0.212500X-0.155000X-0.212500X0*%
%ADD15RoundRect,0.150000X0.512500X0.150000X-0.512500X0.150000X-0.512500X-0.150000X0.512500X-0.150000X0*%
%ADD16RoundRect,0.200000X-0.275000X0.200000X-0.275000X-0.200000X0.275000X-0.200000X0.275000X0.200000X0*%
%ADD17RoundRect,0.075000X-0.662500X-0.075000X0.662500X-0.075000X0.662500X0.075000X-0.662500X0.075000X0*%
%ADD18RoundRect,0.075000X-0.075000X-0.662500X0.075000X-0.662500X0.075000X0.662500X-0.075000X0.662500X0*%
%ADD19RoundRect,0.200000X0.275000X-0.200000X0.275000X0.200000X-0.275000X0.200000X-0.275000X-0.200000X0*%
%ADD20RoundRect,0.150000X-0.587500X-0.150000X0.587500X-0.150000X0.587500X0.150000X-0.587500X0.150000X0*%
%ADD21RoundRect,0.160000X-0.197500X-0.160000X0.197500X-0.160000X0.197500X0.160000X-0.197500X0.160000X0*%
%ADD22RoundRect,0.160000X0.197500X0.160000X-0.197500X0.160000X-0.197500X-0.160000X0.197500X-0.160000X0*%
%ADD23R,0.450000X0.650000*%
%ADD24RoundRect,0.250000X-0.262500X-0.450000X0.262500X-0.450000X0.262500X0.450000X-0.262500X0.450000X0*%
%ADD25RoundRect,0.135000X-0.135000X-0.185000X0.135000X-0.185000X0.135000X0.185000X-0.135000X0.185000X0*%
%ADD26RoundRect,0.155000X0.212500X0.155000X-0.212500X0.155000X-0.212500X-0.155000X0.212500X-0.155000X0*%
%ADD27RoundRect,0.250000X0.262500X0.450000X-0.262500X0.450000X-0.262500X-0.450000X0.262500X-0.450000X0*%
%ADD28R,2.250000X3.400000*%
%ADD29O,1.700000X1.700000*%
%ADD30R,1.700000X1.700000*%
%ADD31C,1.200000*%
G04 APERTURE END LIST*
D10*
X153797000Y-114782000D02*
X161697000Y-114782000D01*
X161697000Y-117882000D01*
X153797000Y-117882000D01*
X153797000Y-114782000D01*
X156741895Y-115618591D02*
X156360942Y-115885258D01*
X156741895Y-116075734D02*
X155941895Y-116075734D01*
X155941895Y-116075734D02*
X155941895Y-115770972D01*
X155941895Y-115770972D02*
X155979990Y-115694782D01*
X155979990Y-115694782D02*
X156018085Y-115656687D01*
X156018085Y-115656687D02*
X156094276Y-115618591D01*
X156094276Y-115618591D02*
X156208561Y-115618591D01*
X156208561Y-115618591D02*
X156284752Y-115656687D01*
X156284752Y-115656687D02*
X156322847Y-115694782D01*
X156322847Y-115694782D02*
X156360942Y-115770972D01*
X156360942Y-115770972D02*
X156360942Y-116075734D01*
X156741895Y-115351925D02*
X156208561Y-114932877D01*
X156208561Y-115351925D02*
X156741895Y-114932877D01*
X154260895Y-117434020D02*
X155060895Y-117167353D01*
X155060895Y-117167353D02*
X154260895Y-116900687D01*
X154984704Y-116176877D02*
X155022800Y-116214973D01*
X155022800Y-116214973D02*
X155060895Y-116329258D01*
X155060895Y-116329258D02*
X155060895Y-116405449D01*
X155060895Y-116405449D02*
X155022800Y-116519735D01*
X155022800Y-116519735D02*
X154946609Y-116595925D01*
X154946609Y-116595925D02*
X154870419Y-116634020D01*
X154870419Y-116634020D02*
X154718038Y-116672116D01*
X154718038Y-116672116D02*
X154603752Y-116672116D01*
X154603752Y-116672116D02*
X154451371Y-116634020D01*
X154451371Y-116634020D02*
X154375180Y-116595925D01*
X154375180Y-116595925D02*
X154298990Y-116519735D01*
X154298990Y-116519735D02*
X154260895Y-116405449D01*
X154260895Y-116405449D02*
X154260895Y-116329258D01*
X154260895Y-116329258D02*
X154298990Y-116214973D01*
X154298990Y-116214973D02*
X154337085Y-116176877D01*
X155060895Y-115834020D02*
X154260895Y-115834020D01*
X154260895Y-115834020D02*
X154260895Y-115529258D01*
X154260895Y-115529258D02*
X154298990Y-115453068D01*
X154298990Y-115453068D02*
X154337085Y-115414973D01*
X154337085Y-115414973D02*
X154413276Y-115376877D01*
X154413276Y-115376877D02*
X154527561Y-115376877D01*
X154527561Y-115376877D02*
X154603752Y-115414973D01*
X154603752Y-115414973D02*
X154641847Y-115453068D01*
X154641847Y-115453068D02*
X154679942Y-115529258D01*
X154679942Y-115529258D02*
X154679942Y-115834020D01*
X158735895Y-116190020D02*
X158735895Y-115732877D01*
X159535895Y-115961449D02*
X158735895Y-115961449D01*
X159535895Y-115542401D02*
X159002561Y-115123353D01*
X159002561Y-115542401D02*
X159535895Y-115123353D01*
X138337704Y-101098332D02*
X138375800Y-101136428D01*
X138375800Y-101136428D02*
X138413895Y-101250713D01*
X138413895Y-101250713D02*
X138413895Y-101326904D01*
X138413895Y-101326904D02*
X138375800Y-101441190D01*
X138375800Y-101441190D02*
X138299609Y-101517380D01*
X138299609Y-101517380D02*
X138223419Y-101555475D01*
X138223419Y-101555475D02*
X138071038Y-101593571D01*
X138071038Y-101593571D02*
X137956752Y-101593571D01*
X137956752Y-101593571D02*
X137804371Y-101555475D01*
X137804371Y-101555475D02*
X137728180Y-101517380D01*
X137728180Y-101517380D02*
X137651990Y-101441190D01*
X137651990Y-101441190D02*
X137613895Y-101326904D01*
X137613895Y-101326904D02*
X137613895Y-101250713D01*
X137613895Y-101250713D02*
X137651990Y-101136428D01*
X137651990Y-101136428D02*
X137690085Y-101098332D01*
X137690085Y-100793571D02*
X137651990Y-100755475D01*
X137651990Y-100755475D02*
X137613895Y-100679285D01*
X137613895Y-100679285D02*
X137613895Y-100488809D01*
X137613895Y-100488809D02*
X137651990Y-100412618D01*
X137651990Y-100412618D02*
X137690085Y-100374523D01*
X137690085Y-100374523D02*
X137766276Y-100336428D01*
X137766276Y-100336428D02*
X137842466Y-100336428D01*
X137842466Y-100336428D02*
X137956752Y-100374523D01*
X137956752Y-100374523D02*
X138413895Y-100831666D01*
X138413895Y-100831666D02*
X138413895Y-100336428D01*
X142782704Y-113290332D02*
X142820800Y-113328428D01*
X142820800Y-113328428D02*
X142858895Y-113442713D01*
X142858895Y-113442713D02*
X142858895Y-113518904D01*
X142858895Y-113518904D02*
X142820800Y-113633190D01*
X142820800Y-113633190D02*
X142744609Y-113709380D01*
X142744609Y-113709380D02*
X142668419Y-113747475D01*
X142668419Y-113747475D02*
X142516038Y-113785571D01*
X142516038Y-113785571D02*
X142401752Y-113785571D01*
X142401752Y-113785571D02*
X142249371Y-113747475D01*
X142249371Y-113747475D02*
X142173180Y-113709380D01*
X142173180Y-113709380D02*
X142096990Y-113633190D01*
X142096990Y-113633190D02*
X142058895Y-113518904D01*
X142058895Y-113518904D02*
X142058895Y-113442713D01*
X142058895Y-113442713D02*
X142096990Y-113328428D01*
X142096990Y-113328428D02*
X142135085Y-113290332D01*
X142058895Y-113023666D02*
X142058895Y-112528428D01*
X142058895Y-112528428D02*
X142363657Y-112795094D01*
X142363657Y-112795094D02*
X142363657Y-112680809D01*
X142363657Y-112680809D02*
X142401752Y-112604618D01*
X142401752Y-112604618D02*
X142439847Y-112566523D01*
X142439847Y-112566523D02*
X142516038Y-112528428D01*
X142516038Y-112528428D02*
X142706514Y-112528428D01*
X142706514Y-112528428D02*
X142782704Y-112566523D01*
X142782704Y-112566523D02*
X142820800Y-112604618D01*
X142820800Y-112604618D02*
X142858895Y-112680809D01*
X142858895Y-112680809D02*
X142858895Y-112909380D01*
X142858895Y-112909380D02*
X142820800Y-112985571D01*
X142820800Y-112985571D02*
X142782704Y-113023666D01*
X141804895Y-115544523D02*
X142452514Y-115544523D01*
X142452514Y-115544523D02*
X142528704Y-115506428D01*
X142528704Y-115506428D02*
X142566800Y-115468333D01*
X142566800Y-115468333D02*
X142604895Y-115392142D01*
X142604895Y-115392142D02*
X142604895Y-115239761D01*
X142604895Y-115239761D02*
X142566800Y-115163571D01*
X142566800Y-115163571D02*
X142528704Y-115125476D01*
X142528704Y-115125476D02*
X142452514Y-115087380D01*
X142452514Y-115087380D02*
X141804895Y-115087380D01*
X141804895Y-114782619D02*
X141804895Y-114287381D01*
X141804895Y-114287381D02*
X142109657Y-114554047D01*
X142109657Y-114554047D02*
X142109657Y-114439762D01*
X142109657Y-114439762D02*
X142147752Y-114363571D01*
X142147752Y-114363571D02*
X142185847Y-114325476D01*
X142185847Y-114325476D02*
X142262038Y-114287381D01*
X142262038Y-114287381D02*
X142452514Y-114287381D01*
X142452514Y-114287381D02*
X142528704Y-114325476D01*
X142528704Y-114325476D02*
X142566800Y-114363571D01*
X142566800Y-114363571D02*
X142604895Y-114439762D01*
X142604895Y-114439762D02*
X142604895Y-114668333D01*
X142604895Y-114668333D02*
X142566800Y-114744524D01*
X142566800Y-114744524D02*
X142528704Y-114782619D01*
X155050895Y-105797332D02*
X154669942Y-106063999D01*
X155050895Y-106254475D02*
X154250895Y-106254475D01*
X154250895Y-106254475D02*
X154250895Y-105949713D01*
X154250895Y-105949713D02*
X154288990Y-105873523D01*
X154288990Y-105873523D02*
X154327085Y-105835428D01*
X154327085Y-105835428D02*
X154403276Y-105797332D01*
X154403276Y-105797332D02*
X154517561Y-105797332D01*
X154517561Y-105797332D02*
X154593752Y-105835428D01*
X154593752Y-105835428D02*
X154631847Y-105873523D01*
X154631847Y-105873523D02*
X154669942Y-105949713D01*
X154669942Y-105949713D02*
X154669942Y-106254475D01*
X154517561Y-105111618D02*
X155050895Y-105111618D01*
X154212800Y-105302094D02*
X154784228Y-105492571D01*
X154784228Y-105492571D02*
X154784228Y-104997332D01*
X146249895Y-106527523D02*
X146897514Y-106527523D01*
X146897514Y-106527523D02*
X146973704Y-106489428D01*
X146973704Y-106489428D02*
X147011800Y-106451333D01*
X147011800Y-106451333D02*
X147049895Y-106375142D01*
X147049895Y-106375142D02*
X147049895Y-106222761D01*
X147049895Y-106222761D02*
X147011800Y-106146571D01*
X147011800Y-106146571D02*
X146973704Y-106108476D01*
X146973704Y-106108476D02*
X146897514Y-106070380D01*
X146897514Y-106070380D02*
X146249895Y-106070380D01*
X146516561Y-105346571D02*
X147049895Y-105346571D01*
X146211800Y-105537047D02*
X146783228Y-105727524D01*
X146783228Y-105727524D02*
X146783228Y-105232285D01*
X143798704Y-107448332D02*
X143836800Y-107486428D01*
X143836800Y-107486428D02*
X143874895Y-107600713D01*
X143874895Y-107600713D02*
X143874895Y-107676904D01*
X143874895Y-107676904D02*
X143836800Y-107791190D01*
X143836800Y-107791190D02*
X143760609Y-107867380D01*
X143760609Y-107867380D02*
X143684419Y-107905475D01*
X143684419Y-107905475D02*
X143532038Y-107943571D01*
X143532038Y-107943571D02*
X143417752Y-107943571D01*
X143417752Y-107943571D02*
X143265371Y-107905475D01*
X143265371Y-107905475D02*
X143189180Y-107867380D01*
X143189180Y-107867380D02*
X143112990Y-107791190D01*
X143112990Y-107791190D02*
X143074895Y-107676904D01*
X143074895Y-107676904D02*
X143074895Y-107600713D01*
X143074895Y-107600713D02*
X143112990Y-107486428D01*
X143112990Y-107486428D02*
X143151085Y-107448332D01*
X143074895Y-107181666D02*
X143074895Y-106648332D01*
X143074895Y-106648332D02*
X143874895Y-106991190D01*
X157498704Y-107765832D02*
X157536800Y-107803928D01*
X157536800Y-107803928D02*
X157574895Y-107918213D01*
X157574895Y-107918213D02*
X157574895Y-107994404D01*
X157574895Y-107994404D02*
X157536800Y-108108690D01*
X157536800Y-108108690D02*
X157460609Y-108184880D01*
X157460609Y-108184880D02*
X157384419Y-108222975D01*
X157384419Y-108222975D02*
X157232038Y-108261071D01*
X157232038Y-108261071D02*
X157117752Y-108261071D01*
X157117752Y-108261071D02*
X156965371Y-108222975D01*
X156965371Y-108222975D02*
X156889180Y-108184880D01*
X156889180Y-108184880D02*
X156812990Y-108108690D01*
X156812990Y-108108690D02*
X156774895Y-107994404D01*
X156774895Y-107994404D02*
X156774895Y-107918213D01*
X156774895Y-107918213D02*
X156812990Y-107803928D01*
X156812990Y-107803928D02*
X156851085Y-107765832D01*
X156774895Y-107080118D02*
X156774895Y-107232499D01*
X156774895Y-107232499D02*
X156812990Y-107308690D01*
X156812990Y-107308690D02*
X156851085Y-107346785D01*
X156851085Y-107346785D02*
X156965371Y-107422975D01*
X156965371Y-107422975D02*
X157117752Y-107461071D01*
X157117752Y-107461071D02*
X157422514Y-107461071D01*
X157422514Y-107461071D02*
X157498704Y-107422975D01*
X157498704Y-107422975D02*
X157536800Y-107384880D01*
X157536800Y-107384880D02*
X157574895Y-107308690D01*
X157574895Y-107308690D02*
X157574895Y-107156309D01*
X157574895Y-107156309D02*
X157536800Y-107080118D01*
X157536800Y-107080118D02*
X157498704Y-107042023D01*
X157498704Y-107042023D02*
X157422514Y-107003928D01*
X157422514Y-107003928D02*
X157232038Y-107003928D01*
X157232038Y-107003928D02*
X157155847Y-107042023D01*
X157155847Y-107042023D02*
X157117752Y-107080118D01*
X157117752Y-107080118D02*
X157079657Y-107156309D01*
X157079657Y-107156309D02*
X157079657Y-107308690D01*
X157079657Y-107308690D02*
X157117752Y-107384880D01*
X157117752Y-107384880D02*
X157155847Y-107422975D01*
X157155847Y-107422975D02*
X157232038Y-107461071D01*
X156701895Y-105797332D02*
X156320942Y-106063999D01*
X156701895Y-106254475D02*
X155901895Y-106254475D01*
X155901895Y-106254475D02*
X155901895Y-105949713D01*
X155901895Y-105949713D02*
X155939990Y-105873523D01*
X155939990Y-105873523D02*
X155978085Y-105835428D01*
X155978085Y-105835428D02*
X156054276Y-105797332D01*
X156054276Y-105797332D02*
X156168561Y-105797332D01*
X156168561Y-105797332D02*
X156244752Y-105835428D01*
X156244752Y-105835428D02*
X156282847Y-105873523D01*
X156282847Y-105873523D02*
X156320942Y-105949713D01*
X156320942Y-105949713D02*
X156320942Y-106254475D01*
X155901895Y-105073523D02*
X155901895Y-105454475D01*
X155901895Y-105454475D02*
X156282847Y-105492571D01*
X156282847Y-105492571D02*
X156244752Y-105454475D01*
X156244752Y-105454475D02*
X156206657Y-105378285D01*
X156206657Y-105378285D02*
X156206657Y-105187809D01*
X156206657Y-105187809D02*
X156244752Y-105111618D01*
X156244752Y-105111618D02*
X156282847Y-105073523D01*
X156282847Y-105073523D02*
X156359038Y-105035428D01*
X156359038Y-105035428D02*
X156549514Y-105035428D01*
X156549514Y-105035428D02*
X156625704Y-105073523D01*
X156625704Y-105073523D02*
X156663800Y-105111618D01*
X156663800Y-105111618D02*
X156701895Y-105187809D01*
X156701895Y-105187809D02*
X156701895Y-105378285D01*
X156701895Y-105378285D02*
X156663800Y-105454475D01*
X156663800Y-105454475D02*
X156625704Y-105492571D01*
X149666085Y-103327190D02*
X149627990Y-103403380D01*
X149627990Y-103403380D02*
X149551800Y-103479571D01*
X149551800Y-103479571D02*
X149437514Y-103593857D01*
X149437514Y-103593857D02*
X149399419Y-103670047D01*
X149399419Y-103670047D02*
X149399419Y-103746238D01*
X149589895Y-103708142D02*
X149551800Y-103784333D01*
X149551800Y-103784333D02*
X149475609Y-103860523D01*
X149475609Y-103860523D02*
X149323228Y-103898619D01*
X149323228Y-103898619D02*
X149056561Y-103898619D01*
X149056561Y-103898619D02*
X148904180Y-103860523D01*
X148904180Y-103860523D02*
X148827990Y-103784333D01*
X148827990Y-103784333D02*
X148789895Y-103708142D01*
X148789895Y-103708142D02*
X148789895Y-103555761D01*
X148789895Y-103555761D02*
X148827990Y-103479571D01*
X148827990Y-103479571D02*
X148904180Y-103403380D01*
X148904180Y-103403380D02*
X149056561Y-103365285D01*
X149056561Y-103365285D02*
X149323228Y-103365285D01*
X149323228Y-103365285D02*
X149475609Y-103403380D01*
X149475609Y-103403380D02*
X149551800Y-103479571D01*
X149551800Y-103479571D02*
X149589895Y-103555761D01*
X149589895Y-103555761D02*
X149589895Y-103708142D01*
X149589895Y-102603381D02*
X149589895Y-103060524D01*
X149589895Y-102831952D02*
X148789895Y-102831952D01*
X148789895Y-102831952D02*
X148904180Y-102908143D01*
X148904180Y-102908143D02*
X148980371Y-102984333D01*
X148980371Y-102984333D02*
X149018466Y-103060524D01*
X142858895Y-108972332D02*
X142477942Y-109238999D01*
X142858895Y-109429475D02*
X142058895Y-109429475D01*
X142058895Y-109429475D02*
X142058895Y-109124713D01*
X142058895Y-109124713D02*
X142096990Y-109048523D01*
X142096990Y-109048523D02*
X142135085Y-109010428D01*
X142135085Y-109010428D02*
X142211276Y-108972332D01*
X142211276Y-108972332D02*
X142325561Y-108972332D01*
X142325561Y-108972332D02*
X142401752Y-109010428D01*
X142401752Y-109010428D02*
X142439847Y-109048523D01*
X142439847Y-109048523D02*
X142477942Y-109124713D01*
X142477942Y-109124713D02*
X142477942Y-109429475D01*
X142858895Y-108210428D02*
X142858895Y-108667571D01*
X142858895Y-108438999D02*
X142058895Y-108438999D01*
X142058895Y-108438999D02*
X142173180Y-108515190D01*
X142173180Y-108515190D02*
X142249371Y-108591380D01*
X142249371Y-108591380D02*
X142287466Y-108667571D01*
X148192895Y-104883332D02*
X147811942Y-105149999D01*
X148192895Y-105340475D02*
X147392895Y-105340475D01*
X147392895Y-105340475D02*
X147392895Y-105035713D01*
X147392895Y-105035713D02*
X147430990Y-104959523D01*
X147430990Y-104959523D02*
X147469085Y-104921428D01*
X147469085Y-104921428D02*
X147545276Y-104883332D01*
X147545276Y-104883332D02*
X147659561Y-104883332D01*
X147659561Y-104883332D02*
X147735752Y-104921428D01*
X147735752Y-104921428D02*
X147773847Y-104959523D01*
X147773847Y-104959523D02*
X147811942Y-105035713D01*
X147811942Y-105035713D02*
X147811942Y-105340475D01*
X148192895Y-104502380D02*
X148192895Y-104349999D01*
X148192895Y-104349999D02*
X148154800Y-104273809D01*
X148154800Y-104273809D02*
X148116704Y-104235713D01*
X148116704Y-104235713D02*
X148002419Y-104159523D01*
X148002419Y-104159523D02*
X147850038Y-104121428D01*
X147850038Y-104121428D02*
X147545276Y-104121428D01*
X147545276Y-104121428D02*
X147469085Y-104159523D01*
X147469085Y-104159523D02*
X147430990Y-104197618D01*
X147430990Y-104197618D02*
X147392895Y-104273809D01*
X147392895Y-104273809D02*
X147392895Y-104426190D01*
X147392895Y-104426190D02*
X147430990Y-104502380D01*
X147430990Y-104502380D02*
X147469085Y-104540475D01*
X147469085Y-104540475D02*
X147545276Y-104578571D01*
X147545276Y-104578571D02*
X147735752Y-104578571D01*
X147735752Y-104578571D02*
X147811942Y-104540475D01*
X147811942Y-104540475D02*
X147850038Y-104502380D01*
X147850038Y-104502380D02*
X147888133Y-104426190D01*
X147888133Y-104426190D02*
X147888133Y-104273809D01*
X147888133Y-104273809D02*
X147850038Y-104197618D01*
X147850038Y-104197618D02*
X147811942Y-104159523D01*
X147811942Y-104159523D02*
X147735752Y-104121428D01*
X145576704Y-100971332D02*
X145614800Y-101009428D01*
X145614800Y-101009428D02*
X145652895Y-101123713D01*
X145652895Y-101123713D02*
X145652895Y-101199904D01*
X145652895Y-101199904D02*
X145614800Y-101314190D01*
X145614800Y-101314190D02*
X145538609Y-101390380D01*
X145538609Y-101390380D02*
X145462419Y-101428475D01*
X145462419Y-101428475D02*
X145310038Y-101466571D01*
X145310038Y-101466571D02*
X145195752Y-101466571D01*
X145195752Y-101466571D02*
X145043371Y-101428475D01*
X145043371Y-101428475D02*
X144967180Y-101390380D01*
X144967180Y-101390380D02*
X144890990Y-101314190D01*
X144890990Y-101314190D02*
X144852895Y-101199904D01*
X144852895Y-101199904D02*
X144852895Y-101123713D01*
X144852895Y-101123713D02*
X144890990Y-101009428D01*
X144890990Y-101009428D02*
X144929085Y-100971332D01*
X145652895Y-100209428D02*
X145652895Y-100666571D01*
X145652895Y-100437999D02*
X144852895Y-100437999D01*
X144852895Y-100437999D02*
X144967180Y-100514190D01*
X144967180Y-100514190D02*
X145043371Y-100590380D01*
X145043371Y-100590380D02*
X145081466Y-100666571D01*
X145068704Y-111639332D02*
X145106800Y-111677428D01*
X145106800Y-111677428D02*
X145144895Y-111791713D01*
X145144895Y-111791713D02*
X145144895Y-111867904D01*
X145144895Y-111867904D02*
X145106800Y-111982190D01*
X145106800Y-111982190D02*
X145030609Y-112058380D01*
X145030609Y-112058380D02*
X144954419Y-112096475D01*
X144954419Y-112096475D02*
X144802038Y-112134571D01*
X144802038Y-112134571D02*
X144687752Y-112134571D01*
X144687752Y-112134571D02*
X144535371Y-112096475D01*
X144535371Y-112096475D02*
X144459180Y-112058380D01*
X144459180Y-112058380D02*
X144382990Y-111982190D01*
X144382990Y-111982190D02*
X144344895Y-111867904D01*
X144344895Y-111867904D02*
X144344895Y-111791713D01*
X144344895Y-111791713D02*
X144382990Y-111677428D01*
X144382990Y-111677428D02*
X144421085Y-111639332D01*
X144611561Y-110953618D02*
X145144895Y-110953618D01*
X144306800Y-111144094D02*
X144878228Y-111334571D01*
X144878228Y-111334571D02*
X144878228Y-110839332D01*
X156664895Y-101940475D02*
X155864895Y-101940475D01*
X155864895Y-101940475D02*
X155864895Y-101749999D01*
X155864895Y-101749999D02*
X155902990Y-101635713D01*
X155902990Y-101635713D02*
X155979180Y-101559523D01*
X155979180Y-101559523D02*
X156055371Y-101521428D01*
X156055371Y-101521428D02*
X156207752Y-101483332D01*
X156207752Y-101483332D02*
X156322038Y-101483332D01*
X156322038Y-101483332D02*
X156474419Y-101521428D01*
X156474419Y-101521428D02*
X156550609Y-101559523D01*
X156550609Y-101559523D02*
X156626800Y-101635713D01*
X156626800Y-101635713D02*
X156664895Y-101749999D01*
X156664895Y-101749999D02*
X156664895Y-101940475D01*
X156664895Y-100721428D02*
X156664895Y-101178571D01*
X156664895Y-100949999D02*
X155864895Y-100949999D01*
X155864895Y-100949999D02*
X155979180Y-101026190D01*
X155979180Y-101026190D02*
X156055371Y-101102380D01*
X156055371Y-101102380D02*
X156093466Y-101178571D01*
X149716895Y-101225332D02*
X149335942Y-101491999D01*
X149716895Y-101682475D02*
X148916895Y-101682475D01*
X148916895Y-101682475D02*
X148916895Y-101377713D01*
X148916895Y-101377713D02*
X148954990Y-101301523D01*
X148954990Y-101301523D02*
X148993085Y-101263428D01*
X148993085Y-101263428D02*
X149069276Y-101225332D01*
X149069276Y-101225332D02*
X149183561Y-101225332D01*
X149183561Y-101225332D02*
X149259752Y-101263428D01*
X149259752Y-101263428D02*
X149297847Y-101301523D01*
X149297847Y-101301523D02*
X149335942Y-101377713D01*
X149335942Y-101377713D02*
X149335942Y-101682475D01*
X148916895Y-100958666D02*
X148916895Y-100425332D01*
X148916895Y-100425332D02*
X149716895Y-100768190D01*
X149716895Y-104908332D02*
X149335942Y-105174999D01*
X149716895Y-105365475D02*
X148916895Y-105365475D01*
X148916895Y-105365475D02*
X148916895Y-105060713D01*
X148916895Y-105060713D02*
X148954990Y-104984523D01*
X148954990Y-104984523D02*
X148993085Y-104946428D01*
X148993085Y-104946428D02*
X149069276Y-104908332D01*
X149069276Y-104908332D02*
X149183561Y-104908332D01*
X149183561Y-104908332D02*
X149259752Y-104946428D01*
X149259752Y-104946428D02*
X149297847Y-104984523D01*
X149297847Y-104984523D02*
X149335942Y-105060713D01*
X149335942Y-105060713D02*
X149335942Y-105365475D01*
X148916895Y-104641666D02*
X148916895Y-104146428D01*
X148916895Y-104146428D02*
X149221657Y-104413094D01*
X149221657Y-104413094D02*
X149221657Y-104298809D01*
X149221657Y-104298809D02*
X149259752Y-104222618D01*
X149259752Y-104222618D02*
X149297847Y-104184523D01*
X149297847Y-104184523D02*
X149374038Y-104146428D01*
X149374038Y-104146428D02*
X149564514Y-104146428D01*
X149564514Y-104146428D02*
X149640704Y-104184523D01*
X149640704Y-104184523D02*
X149678800Y-104222618D01*
X149678800Y-104222618D02*
X149716895Y-104298809D01*
X149716895Y-104298809D02*
X149716895Y-104527380D01*
X149716895Y-104527380D02*
X149678800Y-104603571D01*
X149678800Y-104603571D02*
X149640704Y-104641666D01*
X157844895Y-112858332D02*
X157463942Y-113124999D01*
X157844895Y-113315475D02*
X157044895Y-113315475D01*
X157044895Y-113315475D02*
X157044895Y-113010713D01*
X157044895Y-113010713D02*
X157082990Y-112934523D01*
X157082990Y-112934523D02*
X157121085Y-112896428D01*
X157121085Y-112896428D02*
X157197276Y-112858332D01*
X157197276Y-112858332D02*
X157311561Y-112858332D01*
X157311561Y-112858332D02*
X157387752Y-112896428D01*
X157387752Y-112896428D02*
X157425847Y-112934523D01*
X157425847Y-112934523D02*
X157463942Y-113010713D01*
X157463942Y-113010713D02*
X157463942Y-113315475D01*
X157044895Y-112172618D02*
X157044895Y-112324999D01*
X157044895Y-112324999D02*
X157082990Y-112401190D01*
X157082990Y-112401190D02*
X157121085Y-112439285D01*
X157121085Y-112439285D02*
X157235371Y-112515475D01*
X157235371Y-112515475D02*
X157387752Y-112553571D01*
X157387752Y-112553571D02*
X157692514Y-112553571D01*
X157692514Y-112553571D02*
X157768704Y-112515475D01*
X157768704Y-112515475D02*
X157806800Y-112477380D01*
X157806800Y-112477380D02*
X157844895Y-112401190D01*
X157844895Y-112401190D02*
X157844895Y-112248809D01*
X157844895Y-112248809D02*
X157806800Y-112172618D01*
X157806800Y-112172618D02*
X157768704Y-112134523D01*
X157768704Y-112134523D02*
X157692514Y-112096428D01*
X157692514Y-112096428D02*
X157502038Y-112096428D01*
X157502038Y-112096428D02*
X157425847Y-112134523D01*
X157425847Y-112134523D02*
X157387752Y-112172618D01*
X157387752Y-112172618D02*
X157349657Y-112248809D01*
X157349657Y-112248809D02*
X157349657Y-112401190D01*
X157349657Y-112401190D02*
X157387752Y-112477380D01*
X157387752Y-112477380D02*
X157425847Y-112515475D01*
X157425847Y-112515475D02*
X157502038Y-112553571D01*
X141715895Y-111639332D02*
X141334942Y-111905999D01*
X141715895Y-112096475D02*
X140915895Y-112096475D01*
X140915895Y-112096475D02*
X140915895Y-111791713D01*
X140915895Y-111791713D02*
X140953990Y-111715523D01*
X140953990Y-111715523D02*
X140992085Y-111677428D01*
X140992085Y-111677428D02*
X141068276Y-111639332D01*
X141068276Y-111639332D02*
X141182561Y-111639332D01*
X141182561Y-111639332D02*
X141258752Y-111677428D01*
X141258752Y-111677428D02*
X141296847Y-111715523D01*
X141296847Y-111715523D02*
X141334942Y-111791713D01*
X141334942Y-111791713D02*
X141334942Y-112096475D01*
X140992085Y-111334571D02*
X140953990Y-111296475D01*
X140953990Y-111296475D02*
X140915895Y-111220285D01*
X140915895Y-111220285D02*
X140915895Y-111029809D01*
X140915895Y-111029809D02*
X140953990Y-110953618D01*
X140953990Y-110953618D02*
X140992085Y-110915523D01*
X140992085Y-110915523D02*
X141068276Y-110877428D01*
X141068276Y-110877428D02*
X141144466Y-110877428D01*
X141144466Y-110877428D02*
X141258752Y-110915523D01*
X141258752Y-110915523D02*
X141715895Y-111372666D01*
X141715895Y-111372666D02*
X141715895Y-110877428D01*
X151291704Y-116483332D02*
X151329800Y-116521428D01*
X151329800Y-116521428D02*
X151367895Y-116635713D01*
X151367895Y-116635713D02*
X151367895Y-116711904D01*
X151367895Y-116711904D02*
X151329800Y-116826190D01*
X151329800Y-116826190D02*
X151253609Y-116902380D01*
X151253609Y-116902380D02*
X151177419Y-116940475D01*
X151177419Y-116940475D02*
X151025038Y-116978571D01*
X151025038Y-116978571D02*
X150910752Y-116978571D01*
X150910752Y-116978571D02*
X150758371Y-116940475D01*
X150758371Y-116940475D02*
X150682180Y-116902380D01*
X150682180Y-116902380D02*
X150605990Y-116826190D01*
X150605990Y-116826190D02*
X150567895Y-116711904D01*
X150567895Y-116711904D02*
X150567895Y-116635713D01*
X150567895Y-116635713D02*
X150605990Y-116521428D01*
X150605990Y-116521428D02*
X150644085Y-116483332D01*
X150567895Y-115759523D02*
X150567895Y-116140475D01*
X150567895Y-116140475D02*
X150948847Y-116178571D01*
X150948847Y-116178571D02*
X150910752Y-116140475D01*
X150910752Y-116140475D02*
X150872657Y-116064285D01*
X150872657Y-116064285D02*
X150872657Y-115873809D01*
X150872657Y-115873809D02*
X150910752Y-115797618D01*
X150910752Y-115797618D02*
X150948847Y-115759523D01*
X150948847Y-115759523D02*
X151025038Y-115721428D01*
X151025038Y-115721428D02*
X151215514Y-115721428D01*
X151215514Y-115721428D02*
X151291704Y-115759523D01*
X151291704Y-115759523D02*
X151329800Y-115797618D01*
X151329800Y-115797618D02*
X151367895Y-115873809D01*
X151367895Y-115873809D02*
X151367895Y-116064285D01*
X151367895Y-116064285D02*
X151329800Y-116140475D01*
X151329800Y-116140475D02*
X151291704Y-116178571D01*
X152764895Y-104908332D02*
X152383942Y-105174999D01*
X152764895Y-105365475D02*
X151964895Y-105365475D01*
X151964895Y-105365475D02*
X151964895Y-105060713D01*
X151964895Y-105060713D02*
X152002990Y-104984523D01*
X152002990Y-104984523D02*
X152041085Y-104946428D01*
X152041085Y-104946428D02*
X152117276Y-104908332D01*
X152117276Y-104908332D02*
X152231561Y-104908332D01*
X152231561Y-104908332D02*
X152307752Y-104946428D01*
X152307752Y-104946428D02*
X152345847Y-104984523D01*
X152345847Y-104984523D02*
X152383942Y-105060713D01*
X152383942Y-105060713D02*
X152383942Y-105365475D01*
X152307752Y-104451190D02*
X152269657Y-104527380D01*
X152269657Y-104527380D02*
X152231561Y-104565475D01*
X152231561Y-104565475D02*
X152155371Y-104603571D01*
X152155371Y-104603571D02*
X152117276Y-104603571D01*
X152117276Y-104603571D02*
X152041085Y-104565475D01*
X152041085Y-104565475D02*
X152002990Y-104527380D01*
X152002990Y-104527380D02*
X151964895Y-104451190D01*
X151964895Y-104451190D02*
X151964895Y-104298809D01*
X151964895Y-104298809D02*
X152002990Y-104222618D01*
X152002990Y-104222618D02*
X152041085Y-104184523D01*
X152041085Y-104184523D02*
X152117276Y-104146428D01*
X152117276Y-104146428D02*
X152155371Y-104146428D01*
X152155371Y-104146428D02*
X152231561Y-104184523D01*
X152231561Y-104184523D02*
X152269657Y-104222618D01*
X152269657Y-104222618D02*
X152307752Y-104298809D01*
X152307752Y-104298809D02*
X152307752Y-104451190D01*
X152307752Y-104451190D02*
X152345847Y-104527380D01*
X152345847Y-104527380D02*
X152383942Y-104565475D01*
X152383942Y-104565475D02*
X152460133Y-104603571D01*
X152460133Y-104603571D02*
X152612514Y-104603571D01*
X152612514Y-104603571D02*
X152688704Y-104565475D01*
X152688704Y-104565475D02*
X152726800Y-104527380D01*
X152726800Y-104527380D02*
X152764895Y-104451190D01*
X152764895Y-104451190D02*
X152764895Y-104298809D01*
X152764895Y-104298809D02*
X152726800Y-104222618D01*
X152726800Y-104222618D02*
X152688704Y-104184523D01*
X152688704Y-104184523D02*
X152612514Y-104146428D01*
X152612514Y-104146428D02*
X152460133Y-104146428D01*
X152460133Y-104146428D02*
X152383942Y-104184523D01*
X152383942Y-104184523D02*
X152345847Y-104222618D01*
X152345847Y-104222618D02*
X152307752Y-104298809D01*
X144001942Y-105028951D02*
X144382895Y-105028951D01*
X143582895Y-105295618D02*
X144001942Y-105028951D01*
X144001942Y-105028951D02*
X143582895Y-104762285D01*
X143659085Y-104533714D02*
X143620990Y-104495618D01*
X143620990Y-104495618D02*
X143582895Y-104419428D01*
X143582895Y-104419428D02*
X143582895Y-104228952D01*
X143582895Y-104228952D02*
X143620990Y-104152761D01*
X143620990Y-104152761D02*
X143659085Y-104114666D01*
X143659085Y-104114666D02*
X143735276Y-104076571D01*
X143735276Y-104076571D02*
X143811466Y-104076571D01*
X143811466Y-104076571D02*
X143925752Y-104114666D01*
X143925752Y-104114666D02*
X144382895Y-104571809D01*
X144382895Y-104571809D02*
X144382895Y-104076571D01*
D11*
%TO.C,C2*%
X137549740Y-102625178D02*
X137549740Y-102856848D01*
X138269740Y-102625178D02*
X138269740Y-102856848D01*
%TO.C,C3*%
X143090000Y-113365835D02*
X143090000Y-113134165D01*
X143810000Y-113365835D02*
X143810000Y-113134165D01*
%TO.C,U3*%
X143937500Y-114590000D02*
X143137500Y-114590000D01*
X143937500Y-114590000D02*
X144737500Y-114590000D01*
X143937500Y-117710000D02*
X143137500Y-117710000D01*
X143937500Y-117710000D02*
X144737500Y-117710000D01*
X145477500Y-117990000D02*
X144997500Y-117990000D01*
X145237500Y-117660000D01*
X145477500Y-117990000D01*
G36*
X145477500Y-117990000D02*
G01*
X144997500Y-117990000D01*
X145237500Y-117660000D01*
X145477500Y-117990000D01*
G37*
%TO.C,R4*%
X153477500Y-103412742D02*
X153477500Y-103887258D01*
X154522500Y-103412742D02*
X154522500Y-103887258D01*
%TO.C,U4*%
X146640000Y-106790000D02*
X146640000Y-107240000D01*
X146640000Y-114010000D02*
X146640000Y-113560000D01*
X147090000Y-106790000D02*
X146640000Y-106790000D01*
X147090000Y-114010000D02*
X146640000Y-114010000D01*
X153410000Y-106790000D02*
X153860000Y-106790000D01*
X153410000Y-114010000D02*
X153860000Y-114010000D01*
X153860000Y-106790000D02*
X153860000Y-107240000D01*
X153860000Y-114010000D02*
X153860000Y-113560000D01*
X146050000Y-107240000D02*
X145710000Y-106770000D01*
X146390000Y-106770000D01*
X146050000Y-107240000D01*
G36*
X146050000Y-107240000D02*
G01*
X145710000Y-106770000D01*
X146390000Y-106770000D01*
X146050000Y-107240000D01*
G37*
%TO.C,C7*%
X144090000Y-107316665D02*
X144090000Y-107548335D01*
X144810000Y-107316665D02*
X144810000Y-107548335D01*
%TO.C,C6*%
X155690000Y-107516665D02*
X155690000Y-107748335D01*
X156410000Y-107516665D02*
X156410000Y-107748335D01*
%TO.C,R5*%
X154977500Y-103887258D02*
X154977500Y-103412742D01*
X156022500Y-103887258D02*
X156022500Y-103412742D01*
%TO.C,Q1*%
X147700000Y-100790000D02*
X147050000Y-100790000D01*
X147700000Y-100790000D02*
X148350000Y-100790000D01*
X147700000Y-103910000D02*
X147050000Y-103910000D01*
X147700000Y-103910000D02*
X148350000Y-103910000D01*
X146537500Y-100840000D02*
X146297500Y-100510000D01*
X146777500Y-100510000D01*
X146537500Y-100840000D01*
G36*
X146537500Y-100840000D02*
G01*
X146297500Y-100510000D01*
X146777500Y-100510000D01*
X146537500Y-100840000D01*
G37*
%TO.C,R1*%
X142734879Y-109670000D02*
X143070121Y-109670000D01*
X142734879Y-110430000D02*
X143070121Y-110430000D01*
%TO.C,R9*%
X146367621Y-104270000D02*
X146032379Y-104270000D01*
X146367621Y-105030000D02*
X146032379Y-105030000D01*
%TO.C,C1*%
X144949740Y-102595321D02*
X144949740Y-102826991D01*
X145669740Y-102595321D02*
X145669740Y-102826991D01*
%TO.C,C4*%
X144090000Y-113365835D02*
X144090000Y-113134165D01*
X144810000Y-113365835D02*
X144810000Y-113134165D01*
%TO.C,D1*%
X154300000Y-101250000D02*
X154100000Y-101250000D01*
%TO.C,R7*%
X151072936Y-100615000D02*
X151527064Y-100615000D01*
X151072936Y-102085000D02*
X151527064Y-102085000D01*
%TO.C,R3*%
X150746359Y-104270000D02*
X151053641Y-104270000D01*
X150746359Y-105030000D02*
X151053641Y-105030000D01*
%TO.C,R6*%
X155727500Y-112487742D02*
X155727500Y-112962258D01*
X156772500Y-112487742D02*
X156772500Y-112962258D01*
%TO.C,R2*%
X143070121Y-110720000D02*
X142734879Y-110720000D01*
X143070121Y-111480000D02*
X142734879Y-111480000D01*
%TO.C,C5*%
X152583335Y-115990000D02*
X152351665Y-115990000D01*
X152583335Y-116710000D02*
X152351665Y-116710000D01*
%TO.C,R8*%
X151527064Y-102515000D02*
X151072936Y-102515000D01*
X151527064Y-103985000D02*
X151072936Y-103985000D01*
D12*
%TO.C,Y2*%
X141609740Y-103661830D02*
X141609740Y-100661830D01*
%TD*%
%LPC*%
D13*
%TO.C,C2*%
X137909740Y-102173513D03*
X137909740Y-103308513D03*
%TD*%
D14*
%TO.C,C3*%
X143450000Y-113817500D03*
X143450000Y-112682500D03*
%TD*%
D15*
%TO.C,U3*%
X145075000Y-117100000D03*
X145075000Y-115200000D03*
X142800000Y-116150000D03*
%TD*%
D16*
%TO.C,R4*%
X154000000Y-102825000D03*
X154000000Y-104475000D03*
%TD*%
D17*
%TO.C,U4*%
X146087500Y-107650000D03*
X146087500Y-108150000D03*
X146087500Y-108650000D03*
X146087500Y-109150000D03*
X146087500Y-109650000D03*
X146087500Y-110150000D03*
X146087500Y-110650000D03*
X146087500Y-111150000D03*
X146087500Y-111650000D03*
X146087500Y-112150000D03*
X146087500Y-112650000D03*
X146087500Y-113150000D03*
D18*
X147500000Y-114562500D03*
X148000000Y-114562500D03*
X148500000Y-114562500D03*
X149000000Y-114562500D03*
X149500000Y-114562500D03*
X150000000Y-114562500D03*
X150500000Y-114562500D03*
X151000000Y-114562500D03*
X151500000Y-114562500D03*
X152000000Y-114562500D03*
X152500000Y-114562500D03*
X153000000Y-114562500D03*
D17*
X154412500Y-113150000D03*
X154412500Y-112650000D03*
X154412500Y-112150000D03*
X154412500Y-111650000D03*
X154412500Y-111150000D03*
X154412500Y-110650000D03*
X154412500Y-110150000D03*
X154412500Y-109650000D03*
X154412500Y-109150000D03*
X154412500Y-108650000D03*
X154412500Y-108150000D03*
X154412500Y-107650000D03*
D18*
X153000000Y-106237500D03*
X152500000Y-106237500D03*
X152000000Y-106237500D03*
X151500000Y-106237500D03*
X151000000Y-106237500D03*
X150500000Y-106237500D03*
X150000000Y-106237500D03*
X149500000Y-106237500D03*
X149000000Y-106237500D03*
X148500000Y-106237500D03*
X148000000Y-106237500D03*
X147500000Y-106237500D03*
%TD*%
D13*
%TO.C,C7*%
X144450000Y-106865000D03*
X144450000Y-108000000D03*
%TD*%
%TO.C,C6*%
X156050000Y-107065000D03*
X156050000Y-108200000D03*
%TD*%
D19*
%TO.C,R5*%
X155500000Y-104475000D03*
X155500000Y-102825000D03*
%TD*%
D20*
%TO.C,Q1*%
X146762500Y-101400000D03*
X146762500Y-103300000D03*
X148637500Y-102350000D03*
%TD*%
D21*
%TO.C,R1*%
X142305000Y-110050000D03*
X143500000Y-110050000D03*
%TD*%
D22*
%TO.C,R9*%
X146797500Y-104650000D03*
X145602500Y-104650000D03*
%TD*%
D13*
%TO.C,C1*%
X145309740Y-102143656D03*
X145309740Y-103278656D03*
%TD*%
D14*
%TO.C,C4*%
X144450000Y-113817500D03*
X144450000Y-112682500D03*
%TD*%
D23*
%TO.C,D1*%
X155425000Y-101675000D03*
X154175000Y-101675000D03*
X155425000Y-100825000D03*
X154175000Y-100825000D03*
%TD*%
D24*
%TO.C,R7*%
X150387500Y-101350000D03*
X152212500Y-101350000D03*
%TD*%
D25*
%TO.C,R3*%
X150390000Y-104650000D03*
X151410000Y-104650000D03*
%TD*%
D16*
%TO.C,R6*%
X156250000Y-111900000D03*
X156250000Y-113550000D03*
%TD*%
D22*
%TO.C,R2*%
X143500000Y-111100000D03*
X142305000Y-111100000D03*
%TD*%
D26*
%TO.C,C5*%
X153035000Y-116350000D03*
X151900000Y-116350000D03*
%TD*%
D27*
%TO.C,R8*%
X152212500Y-103250000D03*
X150387500Y-103250000D03*
%TD*%
D28*
%TO.C,Y2*%
X143459740Y-102161830D03*
X139759740Y-102161830D03*
%TD*%
D29*
%TO.C,J3*%
X160320000Y-116690000D03*
D30*
X157780000Y-116690000D03*
%TD*%
%TO.C,J2*%
X159050000Y-113150000D03*
D29*
X159050000Y-110610000D03*
X159050000Y-108070000D03*
X159050000Y-105530000D03*
%TD*%
D31*
%TO.C,TP2*%
X159354717Y-102605191D03*
%TD*%
D30*
%TO.C,J1*%
X138726872Y-115682752D03*
D29*
X138726872Y-113142752D03*
X138726872Y-110602752D03*
X138726872Y-108062752D03*
X138726872Y-105522752D03*
%TD*%
D31*
%TO.C,TP1*%
X157654717Y-101505191D03*
%TD*%
%LPD*%
M02*
