%TF.GenerationSoftware,KiCad,Pcbnew,8.0.7*%
%TF.CreationDate,2025-01-03T12:22:39+02:00*%
%TF.ProjectId,debugger,64656275-6767-4657-922e-6b696361645f,rev?*%
%TF.SameCoordinates,Original*%
%TF.FileFunction,Copper,L1,Top*%
%TF.FilePolarity,Positive*%
%FSLAX46Y46*%
G04 Gerber Fmt 4.6, Leading zero omitted, Abs format (unit mm)*
G04 Created by KiCad (PCBNEW 8.0.7) date 2025-01-03 12:22:39*
%MOMM*%
%LPD*%
G01*
G04 APERTURE LIST*
G04 Aperture macros list*
%AMRoundRect*
0 Rectangle with rounded corners*
0 $1 Rounding radius*
0 $2 $3 $4 $5 $6 $7 $8 $9 X,Y pos of 4 corners*
0 Add a 4 corners polygon primitive as box body*
4,1,4,$2,$3,$4,$5,$6,$7,$8,$9,$2,$3,0*
0 Add four circle primitives for the rounded corners*
1,1,$1+$1,$2,$3*
1,1,$1+$1,$4,$5*
1,1,$1+$1,$6,$7*
1,1,$1+$1,$8,$9*
0 Add four rect primitives between the rounded corners*
20,1,$1+$1,$2,$3,$4,$5,0*
20,1,$1+$1,$4,$5,$6,$7,0*
20,1,$1+$1,$6,$7,$8,$9,0*
20,1,$1+$1,$8,$9,$2,$3,0*%
G04 Aperture macros list end*
%TA.AperFunction,SMDPad,CuDef*%
%ADD10RoundRect,0.155000X-0.155000X0.212500X-0.155000X-0.212500X0.155000X-0.212500X0.155000X0.212500X0*%
%TD*%
%TA.AperFunction,SMDPad,CuDef*%
%ADD11RoundRect,0.155000X0.155000X-0.212500X0.155000X0.212500X-0.155000X0.212500X-0.155000X-0.212500X0*%
%TD*%
%TA.AperFunction,SMDPad,CuDef*%
%ADD12RoundRect,0.150000X0.512500X0.150000X-0.512500X0.150000X-0.512500X-0.150000X0.512500X-0.150000X0*%
%TD*%
%TA.AperFunction,SMDPad,CuDef*%
%ADD13RoundRect,0.200000X-0.275000X0.200000X-0.275000X-0.200000X0.275000X-0.200000X0.275000X0.200000X0*%
%TD*%
%TA.AperFunction,SMDPad,CuDef*%
%ADD14RoundRect,0.075000X-0.662500X-0.075000X0.662500X-0.075000X0.662500X0.075000X-0.662500X0.075000X0*%
%TD*%
%TA.AperFunction,SMDPad,CuDef*%
%ADD15RoundRect,0.075000X-0.075000X-0.662500X0.075000X-0.662500X0.075000X0.662500X-0.075000X0.662500X0*%
%TD*%
%TA.AperFunction,SMDPad,CuDef*%
%ADD16RoundRect,0.200000X0.275000X-0.200000X0.275000X0.200000X-0.275000X0.200000X-0.275000X-0.200000X0*%
%TD*%
%TA.AperFunction,SMDPad,CuDef*%
%ADD17RoundRect,0.150000X-0.587500X-0.150000X0.587500X-0.150000X0.587500X0.150000X-0.587500X0.150000X0*%
%TD*%
%TA.AperFunction,SMDPad,CuDef*%
%ADD18RoundRect,0.160000X-0.197500X-0.160000X0.197500X-0.160000X0.197500X0.160000X-0.197500X0.160000X0*%
%TD*%
%TA.AperFunction,SMDPad,CuDef*%
%ADD19RoundRect,0.160000X0.197500X0.160000X-0.197500X0.160000X-0.197500X-0.160000X0.197500X-0.160000X0*%
%TD*%
%TA.AperFunction,SMDPad,CuDef*%
%ADD20R,0.450000X0.650000*%
%TD*%
%TA.AperFunction,SMDPad,CuDef*%
%ADD21RoundRect,0.250000X-0.262500X-0.450000X0.262500X-0.450000X0.262500X0.450000X-0.262500X0.450000X0*%
%TD*%
%TA.AperFunction,SMDPad,CuDef*%
%ADD22RoundRect,0.135000X-0.135000X-0.185000X0.135000X-0.185000X0.135000X0.185000X-0.135000X0.185000X0*%
%TD*%
%TA.AperFunction,SMDPad,CuDef*%
%ADD23RoundRect,0.155000X0.212500X0.155000X-0.212500X0.155000X-0.212500X-0.155000X0.212500X-0.155000X0*%
%TD*%
%TA.AperFunction,SMDPad,CuDef*%
%ADD24RoundRect,0.250000X0.262500X0.450000X-0.262500X0.450000X-0.262500X-0.450000X0.262500X-0.450000X0*%
%TD*%
%TA.AperFunction,SMDPad,CuDef*%
%ADD25R,2.250000X3.400000*%
%TD*%
%TA.AperFunction,ComponentPad*%
%ADD26O,1.700000X1.700000*%
%TD*%
%TA.AperFunction,ComponentPad*%
%ADD27R,1.700000X1.700000*%
%TD*%
%TA.AperFunction,ComponentPad*%
%ADD28C,1.200000*%
%TD*%
%TA.AperFunction,ViaPad*%
%ADD29C,0.600000*%
%TD*%
%TA.AperFunction,Conductor*%
%ADD30C,0.200000*%
%TD*%
G04 APERTURE END LIST*
D10*
%TO.P,C2,1*%
%TO.N,Net-(U4-PD1)*%
X137909740Y-102173513D03*
%TO.P,C2,2*%
%TO.N,GND*%
X137909740Y-103308513D03*
%TD*%
D11*
%TO.P,C3,1*%
%TO.N,+5V*%
X143450000Y-113817500D03*
%TO.P,C3,2*%
%TO.N,GND*%
X143450000Y-112682500D03*
%TD*%
D12*
%TO.P,U3,1,GND*%
%TO.N,GND*%
X145075000Y-117100000D03*
%TO.P,U3,2,VO*%
%TO.N,+3V3*%
X145075000Y-115200000D03*
%TO.P,U3,3,VI*%
%TO.N,+5V*%
X142800000Y-116150000D03*
%TD*%
D13*
%TO.P,R4,1*%
%TO.N,Net-(D1-K1)*%
X154000000Y-102825000D03*
%TO.P,R4,2*%
%TO.N,/LED_STLINK*%
X154000000Y-104475000D03*
%TD*%
D14*
%TO.P,U4,1,VBAT*%
%TO.N,+3V3*%
X146087500Y-107650000D03*
%TO.P,U4,2,PC13*%
%TO.N,GND*%
X146087500Y-108150000D03*
%TO.P,U4,3,PC14*%
%TO.N,unconnected-(U4-PC14-Pad3)*%
X146087500Y-108650000D03*
%TO.P,U4,4,PC15*%
%TO.N,unconnected-(U4-PC15-Pad4)*%
X146087500Y-109150000D03*
%TO.P,U4,5,PD0*%
%TO.N,Net-(U4-PD0)*%
X146087500Y-109650000D03*
%TO.P,U4,6,PD1*%
%TO.N,Net-(U4-PD1)*%
X146087500Y-110150000D03*
%TO.P,U4,7,NRST*%
%TO.N,unconnected-(U4-NRST-Pad7)*%
X146087500Y-110650000D03*
%TO.P,U4,8,VSSA*%
%TO.N,GND*%
X146087500Y-111150000D03*
%TO.P,U4,9,VDDA*%
%TO.N,+3V3*%
X146087500Y-111650000D03*
%TO.P,U4,10,PA0*%
%TO.N,Net-(U4-PA0)*%
X146087500Y-112150000D03*
%TO.P,U4,11,PA1*%
%TO.N,unconnected-(U4-PA1-Pad11)*%
X146087500Y-112650000D03*
%TO.P,U4,12,PA2*%
%TO.N,/STLink_Tx*%
X146087500Y-113150000D03*
D15*
%TO.P,U4,13,PA3*%
%TO.N,/STLink_Rx*%
X147500000Y-114562500D03*
%TO.P,U4,14,PA4*%
%TO.N,unconnected-(U4-PA4-Pad14)*%
X148000000Y-114562500D03*
%TO.P,U4,15,PA5*%
%TO.N,/T_SWCLK*%
X148500000Y-114562500D03*
%TO.P,U4,16,PA6*%
%TO.N,unconnected-(U4-PA6-Pad16)*%
X149000000Y-114562500D03*
%TO.P,U4,17,PA7*%
%TO.N,unconnected-(U4-PA7-Pad17)*%
X149500000Y-114562500D03*
%TO.P,U4,18,PB0*%
%TO.N,/T_RST*%
X150000000Y-114562500D03*
%TO.P,U4,19,PB1*%
%TO.N,unconnected-(U4-PB1-Pad19)*%
X150500000Y-114562500D03*
%TO.P,U4,20,PB2*%
%TO.N,GND*%
X151000000Y-114562500D03*
%TO.P,U4,21,PB10*%
%TO.N,unconnected-(U4-PB10-Pad21)*%
X151500000Y-114562500D03*
%TO.P,U4,22,PB11*%
%TO.N,unconnected-(U4-PB11-Pad22)*%
X152000000Y-114562500D03*
%TO.P,U4,23,VSS*%
%TO.N,GND*%
X152500000Y-114562500D03*
%TO.P,U4,24,VDD*%
%TO.N,+3V3*%
X153000000Y-114562500D03*
D14*
%TO.P,U4,25,PB12*%
%TO.N,Net-(U4-PB12)*%
X154412500Y-113150000D03*
%TO.P,U4,26,PB13*%
%TO.N,/T_SWCLK*%
X154412500Y-112650000D03*
%TO.P,U4,27,PB14*%
%TO.N,/T_SWDIO*%
X154412500Y-112150000D03*
%TO.P,U4,28,PB15*%
%TO.N,unconnected-(U4-PB15-Pad28)*%
X154412500Y-111650000D03*
%TO.P,U4,29,PA8*%
%TO.N,unconnected-(U4-PA8-Pad29)*%
X154412500Y-111150000D03*
%TO.P,U4,30,PA9*%
%TO.N,/LED_STLINK*%
X154412500Y-110650000D03*
%TO.P,U4,31,PA10*%
%TO.N,/T_SWO*%
X154412500Y-110150000D03*
%TO.P,U4,32,PA11*%
%TO.N,/USB_DM*%
X154412500Y-109650000D03*
%TO.P,U4,33,PA12*%
%TO.N,/USB_DP*%
X154412500Y-109150000D03*
%TO.P,U4,34,PA13*%
%TO.N,/D_SWDIO*%
X154412500Y-108650000D03*
%TO.P,U4,35,VSS*%
%TO.N,GND*%
X154412500Y-108150000D03*
%TO.P,U4,36,VDD*%
%TO.N,+3V3*%
X154412500Y-107650000D03*
D15*
%TO.P,U4,37,PA14*%
%TO.N,/D_SWCLK*%
X153000000Y-106237500D03*
%TO.P,U4,38,PA15*%
%TO.N,/USB_re_enum*%
X152500000Y-106237500D03*
%TO.P,U4,39,PB3*%
%TO.N,unconnected-(U4-PB3-Pad39)*%
X152000000Y-106237500D03*
%TO.P,U4,40,PB4*%
%TO.N,unconnected-(U4-PB4-Pad40)*%
X151500000Y-106237500D03*
%TO.P,U4,41,PB5*%
%TO.N,unconnected-(U4-PB5-Pad41)*%
X151000000Y-106237500D03*
%TO.P,U4,42,PB6*%
%TO.N,unconnected-(U4-PB6-Pad42)*%
X150500000Y-106237500D03*
%TO.P,U4,43,PB7*%
%TO.N,unconnected-(U4-PB7-Pad43)*%
X150000000Y-106237500D03*
%TO.P,U4,44,BOOT0*%
%TO.N,GND*%
X149500000Y-106237500D03*
%TO.P,U4,45,PB8*%
%TO.N,unconnected-(U4-PB8-Pad45)*%
X149000000Y-106237500D03*
%TO.P,U4,46,PB9*%
%TO.N,unconnected-(U4-PB9-Pad46)*%
X148500000Y-106237500D03*
%TO.P,U4,47,VSS*%
%TO.N,GND*%
X148000000Y-106237500D03*
%TO.P,U4,48,VDD*%
%TO.N,+3V3*%
X147500000Y-106237500D03*
%TD*%
D10*
%TO.P,C7,1*%
%TO.N,+3V3*%
X144450000Y-106865000D03*
%TO.P,C7,2*%
%TO.N,GND*%
X144450000Y-108000000D03*
%TD*%
%TO.P,C6,1*%
%TO.N,+3V3*%
X156050000Y-107065000D03*
%TO.P,C6,2*%
%TO.N,GND*%
X156050000Y-108200000D03*
%TD*%
D16*
%TO.P,R5,1*%
%TO.N,/LED_STLINK*%
X155500000Y-104475000D03*
%TO.P,R5,2*%
%TO.N,Net-(D1-A2)*%
X155500000Y-102825000D03*
%TD*%
D17*
%TO.P,Q1,1,B*%
%TO.N,Net-(Q1-B)*%
X146762500Y-101400000D03*
%TO.P,Q1,2,E*%
%TO.N,Net-(Q1-E)*%
X146762500Y-103300000D03*
%TO.P,Q1,3,C*%
%TO.N,+3V3*%
X148637500Y-102350000D03*
%TD*%
D18*
%TO.P,R1,1*%
%TO.N,/T_Voltage*%
X142305000Y-110050000D03*
%TO.P,R1,2*%
%TO.N,Net-(U4-PA0)*%
X143500000Y-110050000D03*
%TD*%
D19*
%TO.P,R9,1*%
%TO.N,Net-(Q1-E)*%
X146797500Y-104650000D03*
%TO.P,R9,2*%
%TO.N,/USB_DP*%
X145602500Y-104650000D03*
%TD*%
D10*
%TO.P,C1,1*%
%TO.N,Net-(U4-PD0)*%
X145309740Y-102143656D03*
%TO.P,C1,2*%
%TO.N,GND*%
X145309740Y-103278656D03*
%TD*%
D11*
%TO.P,C4,1*%
%TO.N,+3V3*%
X144450000Y-113817500D03*
%TO.P,C4,2*%
%TO.N,GND*%
X144450000Y-112682500D03*
%TD*%
D20*
%TO.P,D1,1,A1*%
%TO.N,+3V3*%
X155425000Y-101675000D03*
%TO.P,D1,2,K1*%
%TO.N,Net-(D1-K1)*%
X154175000Y-101675000D03*
%TO.P,D1,3,A2*%
%TO.N,Net-(D1-A2)*%
X155425000Y-100825000D03*
%TO.P,D1,4,K2*%
%TO.N,GND*%
X154175000Y-100825000D03*
%TD*%
D21*
%TO.P,R7,1*%
%TO.N,Net-(Q1-B)*%
X150387500Y-101350000D03*
%TO.P,R7,2*%
%TO.N,+5V*%
X152212500Y-101350000D03*
%TD*%
D22*
%TO.P,R3,1*%
%TO.N,Net-(Q1-B)*%
X150390000Y-104650000D03*
%TO.P,R3,2*%
%TO.N,/USB_re_enum*%
X151410000Y-104650000D03*
%TD*%
D13*
%TO.P,R6,1*%
%TO.N,/T_SWDIO*%
X156250000Y-111900000D03*
%TO.P,R6,2*%
%TO.N,Net-(U4-PB12)*%
X156250000Y-113550000D03*
%TD*%
D19*
%TO.P,R2,1*%
%TO.N,GND*%
X143500000Y-111100000D03*
%TO.P,R2,2*%
%TO.N,Net-(U4-PA0)*%
X142305000Y-111100000D03*
%TD*%
D23*
%TO.P,C5,1*%
%TO.N,+3V3*%
X153035000Y-116350000D03*
%TO.P,C5,2*%
%TO.N,GND*%
X151900000Y-116350000D03*
%TD*%
D24*
%TO.P,R8,1*%
%TO.N,GND*%
X152212500Y-103250000D03*
%TO.P,R8,2*%
%TO.N,Net-(Q1-B)*%
X150387500Y-103250000D03*
%TD*%
D25*
%TO.P,Y2,1*%
%TO.N,Net-(U4-PD0)*%
X143459740Y-102161830D03*
%TO.P,Y2,2*%
%TO.N,Net-(U4-PD1)*%
X139759740Y-102161830D03*
%TD*%
D26*
%TO.P,J3,2,Pin_2*%
%TO.N,/STLink_Tx*%
X160320000Y-116690000D03*
D27*
%TO.P,J3,1,Pin_1*%
%TO.N,/STLink_Rx*%
X157780000Y-116690000D03*
%TD*%
%TO.P,J2,1,Pin_1*%
%TO.N,/T_RST*%
X159050000Y-113150000D03*
D26*
%TO.P,J2,2,Pin_2*%
%TO.N,/T_SWCLK*%
X159050000Y-110610000D03*
%TO.P,J2,3,Pin_3*%
%TO.N,/T_SWDIO*%
X159050000Y-108070000D03*
%TO.P,J2,4,Pin_4*%
%TO.N,/T_SWO*%
X159050000Y-105530000D03*
%TD*%
D28*
%TO.P,TP2,1,1*%
%TO.N,/D_SWCLK*%
X159354717Y-102605191D03*
%TD*%
D27*
%TO.P,J1,1,Pin_1*%
%TO.N,+5V*%
X138726872Y-115682752D03*
D26*
%TO.P,J1,2,Pin_2*%
%TO.N,/T_Voltage*%
X138726872Y-113142752D03*
%TO.P,J1,3,Pin_3*%
%TO.N,/USB_DM*%
X138726872Y-110602752D03*
%TO.P,J1,4,Pin_4*%
%TO.N,/USB_DP*%
X138726872Y-108062752D03*
%TO.P,J1,5,Pin_5*%
%TO.N,GND*%
X138726872Y-105522752D03*
%TD*%
D28*
%TO.P,TP1,1,1*%
%TO.N,/D_SWDIO*%
X157654717Y-101505191D03*
%TD*%
D29*
%TO.N,GND*%
X147500000Y-111150000D03*
X156600000Y-103650000D03*
X149300000Y-104550000D03*
X150500000Y-116350000D03*
X144150000Y-111900000D03*
X145200000Y-100850000D03*
X152600000Y-108400000D03*
X143450000Y-111900000D03*
X146700000Y-106850000D03*
X142900000Y-104850000D03*
%TO.N,+5V*%
X148334314Y-100550000D03*
%TO.N,+3V3*%
X147550000Y-113100000D03*
X153050000Y-107550000D03*
X146025000Y-105925000D03*
X153000000Y-111500000D03*
%TO.N,/USB_DP*%
X145316333Y-105553793D03*
X148200000Y-108500000D03*
X141700000Y-108550000D03*
%TO.N,/USB_DM*%
X141700000Y-109350003D03*
X148200000Y-109350000D03*
%TO.N,/T_RST*%
X150000000Y-113350000D03*
%TO.N,/T_SWCLK*%
X148500000Y-113400000D03*
%TO.N,/LED_STLINK*%
X155662122Y-110750000D03*
X154000000Y-105637500D03*
%TO.N,/D_SWCLK*%
X155500000Y-106237500D03*
%TO.N,/STLink_Rx*%
X147500000Y-116150000D03*
%TO.N,/STLink_Tx*%
X145300735Y-114400000D03*
%TD*%
D30*
%TO.N,GND*%
X153157750Y-103250000D02*
X153157750Y-100825000D01*
X143700000Y-105350000D02*
X143700000Y-107699576D01*
X152500000Y-114562500D02*
X152500000Y-113550000D01*
X148000000Y-105215686D02*
X148000000Y-106237500D01*
X152700000Y-103650000D02*
X156600000Y-103650000D01*
X147713771Y-107763771D02*
X147650000Y-107700000D01*
X149600000Y-111150000D02*
X147500000Y-111150000D01*
X151000000Y-112550000D02*
X149600000Y-111150000D01*
X149500000Y-105050000D02*
X148165686Y-105050000D01*
X137909740Y-103308513D02*
X137909740Y-104705620D01*
X147200000Y-108150000D02*
X146087500Y-108150000D01*
X152200000Y-108000000D02*
X150150000Y-108000000D01*
X149500000Y-107350000D02*
X149000000Y-107850000D01*
X159700000Y-114400000D02*
X160900000Y-114400000D01*
X156000000Y-108150000D02*
X156050000Y-108200000D01*
X149500000Y-106237500D02*
X149500000Y-105050000D01*
X149000000Y-107850000D02*
X148500000Y-107850000D01*
X144000424Y-108000000D02*
X144450000Y-108000000D01*
X152350000Y-113400000D02*
X151000000Y-113400000D01*
X145309740Y-103740260D02*
X143700000Y-105350000D01*
X153450000Y-108150000D02*
X154412500Y-108150000D01*
X148165686Y-105050000D02*
X148000000Y-105215686D01*
X147713771Y-107784759D02*
X147713771Y-107763771D01*
X143450000Y-112682500D02*
X143450000Y-111150000D01*
X149500000Y-106237500D02*
X149500000Y-107350000D01*
X159000000Y-115800000D02*
X159000000Y-115100000D01*
X152212500Y-103250000D02*
X152300000Y-103250000D01*
X151000000Y-114562500D02*
X151000000Y-115850000D01*
X152500000Y-115750000D02*
X151900000Y-116350000D01*
X150150000Y-108000000D02*
X149500000Y-107350000D01*
X153200000Y-108400000D02*
X153450000Y-108150000D01*
X143700000Y-107699576D02*
X144000424Y-108000000D01*
X147650000Y-107700000D02*
X147200000Y-108150000D01*
X146087500Y-108150000D02*
X144600000Y-108150000D01*
X137909740Y-104705620D02*
X138726872Y-105522752D01*
X147500000Y-111150000D02*
X147500000Y-108450000D01*
X160900000Y-114400000D02*
X160900000Y-113600000D01*
X151000000Y-115850000D02*
X150500000Y-116350000D01*
X152500000Y-113550000D02*
X152350000Y-113400000D01*
X152212500Y-103250000D02*
X153157750Y-103250000D01*
X151000000Y-114562500D02*
X151000000Y-113400000D01*
X153157750Y-100825000D02*
X154175000Y-100825000D01*
X148000000Y-106237500D02*
X148000000Y-107350000D01*
X151900000Y-116350000D02*
X150500000Y-116350000D01*
X151000000Y-113400000D02*
X151000000Y-112550000D01*
X148500000Y-107850000D02*
X148000000Y-107350000D01*
X152300000Y-103250000D02*
X152700000Y-103650000D01*
X145309740Y-103376566D02*
X145309740Y-103740260D01*
X144450000Y-112200000D02*
X144150000Y-111900000D01*
X146087500Y-111150000D02*
X147450000Y-111150000D01*
X148000000Y-107350000D02*
X147650000Y-107700000D01*
X152600000Y-108400000D02*
X153200000Y-108400000D01*
X159000000Y-115100000D02*
X159700000Y-114400000D01*
X147500000Y-108450000D02*
X147200000Y-108150000D01*
X144450000Y-112682500D02*
X144450000Y-112200000D01*
X152600000Y-108400000D02*
X152200000Y-108000000D01*
X152500000Y-114562500D02*
X152500000Y-115750000D01*
X143450000Y-111150000D02*
X143500000Y-111100000D01*
X144600000Y-108150000D02*
X144450000Y-108000000D01*
X145200000Y-103266826D02*
X145309740Y-103376566D01*
X154412500Y-108150000D02*
X156000000Y-108150000D01*
%TO.N,+5V*%
X148534314Y-100350000D02*
X152212500Y-100350000D01*
X139194120Y-116150000D02*
X142800000Y-116150000D01*
X142800000Y-113817500D02*
X142800000Y-116150000D01*
X143450000Y-113817500D02*
X142800000Y-113817500D01*
X152212500Y-100350000D02*
X152212500Y-101350000D01*
X138726872Y-115682752D02*
X139194120Y-116150000D01*
X148334314Y-100550000D02*
X148534314Y-100350000D01*
%TO.N,+3V3*%
X144700000Y-115200000D02*
X145075000Y-115200000D01*
X156125000Y-101675000D02*
X155425000Y-101675000D01*
X147550000Y-112342590D02*
X146857410Y-111650000D01*
X145300000Y-107650000D02*
X144515000Y-106865000D01*
X156984314Y-106150000D02*
X157200000Y-105934314D01*
X155000000Y-107650000D02*
X155585000Y-107065000D01*
X146050000Y-105950000D02*
X147500000Y-105950000D01*
X153000000Y-114562500D02*
X153000000Y-116315000D01*
X144450000Y-113817500D02*
X144450000Y-114950000D01*
X145450000Y-115200000D02*
X145075000Y-115200000D01*
X147500000Y-107150000D02*
X147500000Y-106237500D01*
X156400000Y-106150000D02*
X156984314Y-106150000D01*
X144450000Y-114950000D02*
X144700000Y-115200000D01*
X148637500Y-104012500D02*
X148637500Y-102350000D01*
X152950000Y-114512500D02*
X153000000Y-114562500D01*
X146087500Y-107650000D02*
X147000000Y-107650000D01*
X147500000Y-106237500D02*
X147500000Y-105150000D01*
X153000000Y-116315000D02*
X153035000Y-116350000D01*
X147500000Y-105150000D02*
X148637500Y-104012500D01*
X147550000Y-113100000D02*
X145450000Y-115200000D01*
X155585000Y-107065000D02*
X156050000Y-107065000D01*
X146857410Y-111650000D02*
X146087500Y-111650000D01*
X153000000Y-112950000D02*
X152950000Y-113000000D01*
X156050000Y-107065000D02*
X156050000Y-106500000D01*
X147000000Y-107650000D02*
X147500000Y-107150000D01*
X146025000Y-105925000D02*
X146050000Y-105950000D01*
X154412500Y-107650000D02*
X153150000Y-107650000D01*
X153000000Y-111500000D02*
X153000000Y-112950000D01*
X153150000Y-107650000D02*
X153050000Y-107550000D01*
X144515000Y-106865000D02*
X144450000Y-106865000D01*
X152950000Y-113000000D02*
X152950000Y-114512500D01*
X154412500Y-107650000D02*
X155000000Y-107650000D01*
X147500000Y-105950000D02*
X147500000Y-106237500D01*
X157200000Y-102750000D02*
X156125000Y-101675000D01*
X156050000Y-106500000D02*
X156400000Y-106150000D01*
X146087500Y-107650000D02*
X145300000Y-107650000D01*
X147550000Y-113100000D02*
X147550000Y-112342590D01*
X157200000Y-105934314D02*
X157200000Y-102750000D01*
%TO.N,/USB_DP*%
X145316333Y-105553793D02*
X145316333Y-104936167D01*
X148600000Y-108500000D02*
X149250000Y-109150000D01*
X141700000Y-108550000D02*
X139214120Y-108550000D01*
X149250000Y-109150000D02*
X154412500Y-109150000D01*
X148200000Y-108500000D02*
X148600000Y-108500000D01*
X139214120Y-108550000D02*
X138726872Y-108062752D01*
X145316333Y-104936167D02*
X145602500Y-104650000D01*
%TO.N,/USB_DM*%
X148500000Y-109650000D02*
X154412500Y-109650000D01*
X138726872Y-110123128D02*
X138726872Y-110602752D01*
X141700000Y-109350003D02*
X139499997Y-109350003D01*
X139499997Y-109350003D02*
X138726872Y-110123128D01*
X148200000Y-109350000D02*
X148500000Y-109650000D01*
%TO.N,/T_Voltage*%
X141500000Y-110050000D02*
X138726872Y-112823128D01*
X138726872Y-112823128D02*
X138726872Y-113142752D01*
X142305000Y-110050000D02*
X141500000Y-110050000D01*
%TO.N,/T_SWO*%
X154412500Y-110150000D02*
X156150000Y-110150000D01*
X157500000Y-108800000D02*
X157500000Y-107080000D01*
X156150000Y-110150000D02*
X157500000Y-108800000D01*
X157500000Y-107080000D02*
X159050000Y-105530000D01*
%TO.N,/T_SWDIO*%
X154412500Y-112150000D02*
X156000000Y-112150000D01*
X156250000Y-110870000D02*
X159050000Y-108070000D01*
X156250000Y-111900000D02*
X156250000Y-110870000D01*
X156000000Y-112150000D02*
X156250000Y-111900000D01*
%TO.N,/T_RST*%
X150000000Y-114562500D02*
X150000000Y-113350000D01*
%TO.N,/T_SWCLK*%
X154412500Y-112650000D02*
X157000000Y-112650000D01*
X159040000Y-110610000D02*
X159050000Y-110610000D01*
X157000000Y-112650000D02*
X159040000Y-110610000D01*
X148500000Y-113400000D02*
X148500000Y-114562500D01*
%TO.N,Net-(D1-K1)*%
X154175000Y-102650000D02*
X154000000Y-102825000D01*
X154175000Y-101675000D02*
X154175000Y-102650000D01*
%TO.N,/LED_STLINK*%
X155500000Y-104475000D02*
X154000000Y-104475000D01*
X155562122Y-110650000D02*
X155662122Y-110750000D01*
X154000000Y-105637500D02*
X154000000Y-104475000D01*
X154412500Y-110650000D02*
X155562122Y-110650000D01*
%TO.N,Net-(D1-A2)*%
X155000000Y-100825000D02*
X154800000Y-101025000D01*
X154800000Y-101025000D02*
X154800000Y-102125000D01*
X154800000Y-102125000D02*
X155500000Y-102825000D01*
X155425000Y-100825000D02*
X155000000Y-100825000D01*
%TO.N,/D_SWDIO*%
X157100000Y-106600000D02*
X157654717Y-106045283D01*
X157100000Y-108634314D02*
X157100000Y-106600000D01*
X157654717Y-106045283D02*
X157654717Y-101505191D01*
X155484738Y-108650000D02*
X155784738Y-108950000D01*
X155784738Y-108950000D02*
X156784314Y-108950000D01*
X154412500Y-108650000D02*
X155484738Y-108650000D01*
X156784314Y-108950000D02*
X157100000Y-108634314D01*
%TO.N,/D_SWCLK*%
X155500000Y-106237500D02*
X153000000Y-106237500D01*
%TO.N,Net-(U4-PD0)*%
X143368174Y-102131826D02*
X145200000Y-102131826D01*
X146087500Y-109650000D02*
X145084738Y-109650000D01*
X143350000Y-102150000D02*
X143368174Y-102131826D01*
X141800000Y-102150000D02*
X143350000Y-102150000D01*
X141800000Y-106365262D02*
X141800000Y-102150000D01*
X145084738Y-109650000D02*
X141800000Y-106365262D01*
%TO.N,Net-(U4-PD1)*%
X141400000Y-106592157D02*
X144957843Y-110150000D01*
X137909740Y-102173513D02*
X139748057Y-102173513D01*
X139650000Y-102150000D02*
X141400000Y-102150000D01*
X139638317Y-102161683D02*
X139650000Y-102150000D01*
X144957843Y-110150000D02*
X146087500Y-110150000D01*
X141400000Y-102150000D02*
X141400000Y-106592157D01*
X139748057Y-102173513D02*
X139759740Y-102161830D01*
%TO.N,/STLink_Rx*%
X147500000Y-116150000D02*
X147500000Y-114562500D01*
%TO.N,/STLink_Tx*%
X145300735Y-114400000D02*
X146100000Y-113600735D01*
X146100000Y-113162500D02*
X146087500Y-113150000D01*
X146100000Y-113600735D02*
X146100000Y-113162500D01*
%TO.N,Net-(U4-PA0)*%
X142305000Y-111100000D02*
X142450000Y-111100000D01*
X144250000Y-110050000D02*
X143500000Y-110050000D01*
X144800000Y-111850000D02*
X144800000Y-110600000D01*
X144800000Y-110600000D02*
X144250000Y-110050000D01*
X146087500Y-112150000D02*
X145100000Y-112150000D01*
X142450000Y-111100000D02*
X143500000Y-110050000D01*
X145100000Y-112150000D02*
X144800000Y-111850000D01*
%TO.N,Net-(U4-PB12)*%
X154412500Y-113150000D02*
X155850000Y-113150000D01*
X155850000Y-113150000D02*
X156250000Y-113550000D01*
%TO.N,Net-(Q1-E)*%
X146762500Y-104615000D02*
X146797500Y-104650000D01*
X146762500Y-103300000D02*
X146762500Y-104615000D01*
%TO.N,Net-(Q1-B)*%
X150387500Y-103250000D02*
X150390000Y-103252500D01*
X150387500Y-101350000D02*
X150387500Y-103250000D01*
X146762500Y-101400000D02*
X150337500Y-101400000D01*
X150337500Y-101400000D02*
X150387500Y-101350000D01*
X150390000Y-103252500D02*
X150390000Y-104650000D01*
%TO.N,/USB_re_enum*%
X152200000Y-104650000D02*
X152500000Y-104950000D01*
X152500000Y-104950000D02*
X152500000Y-106237500D01*
X151410000Y-104650000D02*
X152200000Y-104650000D01*
%TD*%
%TA.AperFunction,Conductor*%
%TO.N,GND*%
G36*
X161106922Y-100051280D02*
G01*
X161197266Y-100061459D01*
X161224331Y-100067636D01*
X161303540Y-100095352D01*
X161328553Y-100107398D01*
X161399606Y-100152043D01*
X161421313Y-100169355D01*
X161480644Y-100228686D01*
X161497957Y-100250395D01*
X161542600Y-100321444D01*
X161554648Y-100346462D01*
X161582362Y-100425666D01*
X161588540Y-100452735D01*
X161598720Y-100543076D01*
X161599500Y-100556961D01*
X161599500Y-116151256D01*
X161579815Y-116218295D01*
X161527011Y-116264050D01*
X161457853Y-116273994D01*
X161394297Y-116244969D01*
X161364500Y-116206527D01*
X161302367Y-116081746D01*
X161173872Y-115911593D01*
X161146828Y-115886939D01*
X161016302Y-115767948D01*
X160835019Y-115655702D01*
X160835017Y-115655701D01*
X160692525Y-115600500D01*
X160636198Y-115578679D01*
X160426610Y-115539500D01*
X160213390Y-115539500D01*
X160003802Y-115578679D01*
X160003799Y-115578679D01*
X160003799Y-115578680D01*
X159804982Y-115655701D01*
X159804980Y-115655702D01*
X159623699Y-115767947D01*
X159466127Y-115911593D01*
X159337632Y-116081746D01*
X159242596Y-116272605D01*
X159242596Y-116272607D01*
X159184244Y-116477689D01*
X159177970Y-116545394D01*
X159152183Y-116610331D01*
X159095383Y-116651018D01*
X159025602Y-116654538D01*
X158964995Y-116619772D01*
X158932806Y-116557759D01*
X158930499Y-116533952D01*
X158930499Y-115795143D01*
X158930499Y-115795137D01*
X158930499Y-115795136D01*
X158930497Y-115795117D01*
X158927586Y-115770012D01*
X158927585Y-115770010D01*
X158927585Y-115770009D01*
X158882206Y-115667235D01*
X158802765Y-115587794D01*
X158782124Y-115578680D01*
X158699992Y-115542415D01*
X158674865Y-115539500D01*
X156885143Y-115539500D01*
X156885117Y-115539502D01*
X156860012Y-115542413D01*
X156860008Y-115542415D01*
X156757235Y-115587793D01*
X156677794Y-115667234D01*
X156632415Y-115770006D01*
X156632415Y-115770008D01*
X156629506Y-115795087D01*
X156629500Y-115795135D01*
X156629500Y-116689801D01*
X156629501Y-117525500D01*
X156609816Y-117592539D01*
X156557013Y-117638294D01*
X156505501Y-117649500D01*
X146313463Y-117649500D01*
X146246424Y-117629815D01*
X146200669Y-117577011D01*
X146190725Y-117507853D01*
X146194387Y-117490905D01*
X146234599Y-117352494D01*
X146234600Y-117352488D01*
X146234795Y-117350001D01*
X146234795Y-117350000D01*
X143915205Y-117350000D01*
X143915204Y-117350001D01*
X143915399Y-117352488D01*
X143915400Y-117352494D01*
X143955613Y-117490905D01*
X143955414Y-117560774D01*
X143917472Y-117619444D01*
X143853834Y-117648288D01*
X143836537Y-117649500D01*
X138006962Y-117649500D01*
X137993078Y-117648720D01*
X137980553Y-117647308D01*
X137902735Y-117638540D01*
X137875666Y-117632362D01*
X137796462Y-117604648D01*
X137771444Y-117592600D01*
X137700395Y-117547957D01*
X137678686Y-117530644D01*
X137619355Y-117471313D01*
X137602042Y-117449604D01*
X137557399Y-117378555D01*
X137545351Y-117353537D01*
X137544113Y-117350000D01*
X137517636Y-117274331D01*
X137511459Y-117247263D01*
X137501280Y-117156922D01*
X137500500Y-117143038D01*
X137500500Y-116880713D01*
X137509519Y-116849998D01*
X143915204Y-116849998D01*
X143915205Y-116850000D01*
X144825000Y-116850000D01*
X145325000Y-116850000D01*
X146234795Y-116850000D01*
X146234795Y-116849998D01*
X146234600Y-116847513D01*
X146188781Y-116689801D01*
X146105185Y-116548447D01*
X146105178Y-116548438D01*
X145989061Y-116432321D01*
X145989052Y-116432314D01*
X145847696Y-116348717D01*
X145847693Y-116348716D01*
X145689995Y-116302900D01*
X145689989Y-116302899D01*
X145653149Y-116300000D01*
X145325000Y-116300000D01*
X145325000Y-116850000D01*
X144825000Y-116850000D01*
X144825000Y-116300000D01*
X144496850Y-116300000D01*
X144460010Y-116302899D01*
X144460004Y-116302900D01*
X144302306Y-116348716D01*
X144302303Y-116348717D01*
X144160947Y-116432314D01*
X144160938Y-116432321D01*
X144044821Y-116548438D01*
X144044814Y-116548447D01*
X143961218Y-116689801D01*
X143915399Y-116847513D01*
X143915204Y-116849998D01*
X137509519Y-116849998D01*
X137520185Y-116813674D01*
X137572989Y-116767919D01*
X137642147Y-116757975D01*
X137692812Y-116781113D01*
X137694627Y-116778464D01*
X137704106Y-116784957D01*
X137704107Y-116784958D01*
X137806881Y-116830337D01*
X137832007Y-116833252D01*
X139621736Y-116833251D01*
X139621751Y-116833249D01*
X139621754Y-116833249D01*
X139646859Y-116830338D01*
X139646860Y-116830337D01*
X139646863Y-116830337D01*
X139749637Y-116784958D01*
X139829078Y-116705517D01*
X139864889Y-116624413D01*
X139909975Y-116571037D01*
X139976761Y-116550510D01*
X139978323Y-116550500D01*
X141849872Y-116550500D01*
X141916911Y-116570185D01*
X141949641Y-116600865D01*
X141965350Y-116622150D01*
X142074618Y-116702793D01*
X142117345Y-116717744D01*
X142202799Y-116747646D01*
X142233230Y-116750500D01*
X142233234Y-116750500D01*
X143366770Y-116750500D01*
X143397199Y-116747646D01*
X143397201Y-116747646D01*
X143461290Y-116725219D01*
X143525382Y-116702793D01*
X143634650Y-116622150D01*
X143715293Y-116512882D01*
X143737719Y-116448790D01*
X143760146Y-116384701D01*
X143760146Y-116384699D01*
X143763000Y-116354269D01*
X143763000Y-115945730D01*
X143760146Y-115915300D01*
X143760146Y-115915298D01*
X143726506Y-115819163D01*
X143715293Y-115787118D01*
X143634650Y-115677850D01*
X143525382Y-115597207D01*
X143525380Y-115597206D01*
X143397200Y-115552353D01*
X143366770Y-115549500D01*
X143366766Y-115549500D01*
X143324500Y-115549500D01*
X143257461Y-115529815D01*
X143211706Y-115477011D01*
X143200500Y-115425500D01*
X143200500Y-114609500D01*
X143220185Y-114542461D01*
X143272989Y-114496706D01*
X143324500Y-114485500D01*
X143659868Y-114485500D01*
X143690639Y-114482614D01*
X143690641Y-114482614D01*
X143762671Y-114457409D01*
X143820245Y-114437263D01*
X143851867Y-114413924D01*
X143917494Y-114389954D01*
X143985665Y-114405269D01*
X144034733Y-114455009D01*
X144049500Y-114513695D01*
X144049500Y-115002726D01*
X144076793Y-115104589D01*
X144095387Y-115136793D01*
X144112000Y-115198794D01*
X144112000Y-115404269D01*
X144114853Y-115434699D01*
X144114853Y-115434701D01*
X144159706Y-115562880D01*
X144159707Y-115562882D01*
X144240350Y-115672150D01*
X144349618Y-115752793D01*
X144387236Y-115765956D01*
X144477799Y-115797646D01*
X144508230Y-115800500D01*
X144508234Y-115800500D01*
X145641770Y-115800500D01*
X145672199Y-115797646D01*
X145672201Y-115797646D01*
X145736290Y-115775219D01*
X145800382Y-115752793D01*
X145909650Y-115672150D01*
X145990293Y-115562882D01*
X146014907Y-115492539D01*
X146035146Y-115434701D01*
X146035146Y-115434699D01*
X146038000Y-115404269D01*
X146038000Y-115229755D01*
X146057685Y-115162716D01*
X146074319Y-115142074D01*
X146837819Y-114378574D01*
X146899142Y-114345089D01*
X146968834Y-114350073D01*
X147024767Y-114391945D01*
X147049184Y-114457409D01*
X147049500Y-114466255D01*
X147049500Y-115260636D01*
X147057475Y-115315377D01*
X147060134Y-115333627D01*
X147086900Y-115388375D01*
X147099500Y-115442836D01*
X147099500Y-115643419D01*
X147079815Y-115710458D01*
X147073876Y-115718905D01*
X146975464Y-115847157D01*
X146914956Y-115993237D01*
X146914955Y-115993239D01*
X146894318Y-116149998D01*
X146894318Y-116150001D01*
X146914955Y-116306760D01*
X146914956Y-116306762D01*
X146975464Y-116452841D01*
X147071718Y-116578282D01*
X147197159Y-116674536D01*
X147343238Y-116735044D01*
X147421619Y-116745363D01*
X147499999Y-116755682D01*
X147500000Y-116755682D01*
X147500001Y-116755682D01*
X147561040Y-116747646D01*
X147656762Y-116735044D01*
X147802841Y-116674536D01*
X147899978Y-116600000D01*
X151034770Y-116600000D01*
X151035421Y-116608281D01*
X151081590Y-116767194D01*
X151081592Y-116767197D01*
X151165833Y-116909642D01*
X151165839Y-116909650D01*
X151282849Y-117026660D01*
X151282857Y-117026666D01*
X151425302Y-117110907D01*
X151425305Y-117110908D01*
X151584216Y-117157077D01*
X151584222Y-117157078D01*
X151621342Y-117159999D01*
X151621358Y-117160000D01*
X151650000Y-117160000D01*
X151650000Y-116600000D01*
X151034770Y-116600000D01*
X147899978Y-116600000D01*
X147928282Y-116578282D01*
X148024536Y-116452841D01*
X148085044Y-116306762D01*
X148105682Y-116150000D01*
X148104383Y-116140136D01*
X148085044Y-115993239D01*
X148085044Y-115993238D01*
X148024536Y-115847159D01*
X147988338Y-115799985D01*
X147963145Y-115734817D01*
X147977183Y-115666373D01*
X148025997Y-115616383D01*
X148086715Y-115600500D01*
X148110630Y-115600500D01*
X148110636Y-115600500D01*
X148183625Y-115589866D01*
X148195539Y-115584041D01*
X148264408Y-115572281D01*
X148304458Y-115584040D01*
X148316375Y-115589866D01*
X148389364Y-115600500D01*
X148389370Y-115600500D01*
X148610630Y-115600500D01*
X148610636Y-115600500D01*
X148683625Y-115589866D01*
X148695539Y-115584041D01*
X148764408Y-115572281D01*
X148804458Y-115584040D01*
X148816375Y-115589866D01*
X148889364Y-115600500D01*
X148889370Y-115600500D01*
X149110630Y-115600500D01*
X149110636Y-115600500D01*
X149183625Y-115589866D01*
X149195539Y-115584041D01*
X149264408Y-115572281D01*
X149304458Y-115584040D01*
X149316375Y-115589866D01*
X149389364Y-115600500D01*
X149389370Y-115600500D01*
X149610630Y-115600500D01*
X149610636Y-115600500D01*
X149683625Y-115589866D01*
X149695539Y-115584041D01*
X149764408Y-115572281D01*
X149804458Y-115584040D01*
X149816375Y-115589866D01*
X149889364Y-115600500D01*
X149889370Y-115600500D01*
X150110630Y-115600500D01*
X150110636Y-115600500D01*
X150183625Y-115589866D01*
X150195539Y-115584041D01*
X150264408Y-115572281D01*
X150304458Y-115584040D01*
X150316375Y-115589866D01*
X150389364Y-115600500D01*
X150389370Y-115600500D01*
X150428948Y-115600500D01*
X150495987Y-115620185D01*
X150508416Y-115630201D01*
X150508458Y-115630147D01*
X150635021Y-115727263D01*
X150774896Y-115785200D01*
X150774901Y-115785201D01*
X150849998Y-115795087D01*
X150850000Y-115795086D01*
X150850000Y-115532399D01*
X150869685Y-115465360D01*
X150882574Y-115449364D01*
X150884824Y-115446213D01*
X150884826Y-115446211D01*
X150888599Y-115438492D01*
X150935726Y-115386910D01*
X151003259Y-115368995D01*
X151069758Y-115390435D01*
X151111401Y-115438493D01*
X151115175Y-115446213D01*
X151121145Y-115454575D01*
X151119646Y-115455645D01*
X151147164Y-115506030D01*
X151150000Y-115532399D01*
X151150000Y-115819900D01*
X151130315Y-115886939D01*
X151087446Y-115927605D01*
X151083249Y-115929999D01*
X151081593Y-115932799D01*
X151081591Y-115932805D01*
X151035421Y-116091718D01*
X151034770Y-116100000D01*
X151776000Y-116100000D01*
X151843039Y-116119685D01*
X151888794Y-116172489D01*
X151900000Y-116224000D01*
X151900000Y-116350000D01*
X152026000Y-116350000D01*
X152093039Y-116369685D01*
X152138794Y-116422489D01*
X152150000Y-116474000D01*
X152150000Y-117160000D01*
X152178642Y-117160000D01*
X152178657Y-117159999D01*
X152215777Y-117157078D01*
X152215783Y-117157077D01*
X152374694Y-117110908D01*
X152374697Y-117110907D01*
X152517140Y-117026668D01*
X152517147Y-117026662D01*
X152570155Y-116973654D01*
X152631478Y-116940168D01*
X152698788Y-116944291D01*
X152736861Y-116957614D01*
X152736869Y-116957614D01*
X152736870Y-116957615D01*
X152767632Y-116960500D01*
X152767636Y-116960500D01*
X153302368Y-116960500D01*
X153333139Y-116957614D01*
X153333141Y-116957614D01*
X153397942Y-116934938D01*
X153462745Y-116912263D01*
X153573225Y-116830725D01*
X153654763Y-116720245D01*
X153689088Y-116622150D01*
X153700114Y-116590641D01*
X153700114Y-116590639D01*
X153703000Y-116559867D01*
X153703000Y-116140132D01*
X153700114Y-116109360D01*
X153700114Y-116109358D01*
X153659481Y-115993238D01*
X153654763Y-115979755D01*
X153573225Y-115869275D01*
X153462745Y-115787737D01*
X153462744Y-115787736D01*
X153455268Y-115782219D01*
X153456750Y-115780209D01*
X153416481Y-115741014D01*
X153400500Y-115680122D01*
X153400500Y-115442836D01*
X153413100Y-115388375D01*
X153422575Y-115368995D01*
X153439866Y-115333625D01*
X153450500Y-115260636D01*
X153450500Y-113864364D01*
X153439866Y-113791375D01*
X153405769Y-113721630D01*
X153394010Y-113652758D01*
X153421353Y-113588461D01*
X153479117Y-113549153D01*
X153548963Y-113547315D01*
X153571631Y-113555770D01*
X153641372Y-113589865D01*
X153641373Y-113589865D01*
X153641375Y-113589866D01*
X153714364Y-113600500D01*
X153714370Y-113600500D01*
X155110630Y-113600500D01*
X155110636Y-113600500D01*
X155183625Y-113589866D01*
X155221015Y-113571587D01*
X155238376Y-113563100D01*
X155292837Y-113550500D01*
X155350501Y-113550500D01*
X155417540Y-113570185D01*
X155463295Y-113622989D01*
X155474501Y-113674500D01*
X155474501Y-113797876D01*
X155480908Y-113857483D01*
X155531202Y-113992328D01*
X155531206Y-113992335D01*
X155617452Y-114107544D01*
X155617455Y-114107547D01*
X155732664Y-114193793D01*
X155732671Y-114193797D01*
X155777618Y-114210561D01*
X155867517Y-114244091D01*
X155927127Y-114250500D01*
X156572872Y-114250499D01*
X156632483Y-114244091D01*
X156767331Y-114193796D01*
X156882546Y-114107546D01*
X156968796Y-113992331D01*
X157019091Y-113857483D01*
X157025500Y-113797873D01*
X157025499Y-113302128D01*
X157019091Y-113242517D01*
X157004704Y-113203943D01*
X156999720Y-113134251D01*
X157033205Y-113072928D01*
X157088792Y-113040836D01*
X157154588Y-113023207D01*
X157245913Y-112970480D01*
X157687819Y-112528572D01*
X157749142Y-112495088D01*
X157818833Y-112500072D01*
X157874767Y-112541943D01*
X157899184Y-112607408D01*
X157899500Y-112616254D01*
X157899500Y-114044856D01*
X157899502Y-114044882D01*
X157902413Y-114069987D01*
X157902415Y-114069991D01*
X157947793Y-114172764D01*
X157947794Y-114172765D01*
X158027235Y-114252206D01*
X158130009Y-114297585D01*
X158155135Y-114300500D01*
X159944864Y-114300499D01*
X159944879Y-114300497D01*
X159944882Y-114300497D01*
X159969987Y-114297586D01*
X159969988Y-114297585D01*
X159969991Y-114297585D01*
X160072765Y-114252206D01*
X160152206Y-114172765D01*
X160197585Y-114069991D01*
X160200500Y-114044865D01*
X160200499Y-112255136D01*
X160199846Y-112249501D01*
X160197586Y-112230012D01*
X160197585Y-112230010D01*
X160197585Y-112230009D01*
X160152206Y-112127235D01*
X160072765Y-112047794D01*
X160046777Y-112036319D01*
X159969992Y-112002415D01*
X159944868Y-111999500D01*
X159944865Y-111999500D01*
X159216245Y-111999500D01*
X159149206Y-111979815D01*
X159103451Y-111927011D01*
X159093507Y-111857853D01*
X159122532Y-111794297D01*
X159181310Y-111756523D01*
X159193450Y-111753613D01*
X159366198Y-111721321D01*
X159565019Y-111644298D01*
X159746302Y-111532052D01*
X159903872Y-111388407D01*
X160032366Y-111218255D01*
X160032367Y-111218253D01*
X160127403Y-111027394D01*
X160127403Y-111027393D01*
X160127405Y-111027389D01*
X160185756Y-110822310D01*
X160205429Y-110610000D01*
X160185756Y-110397690D01*
X160127405Y-110192611D01*
X160127403Y-110192606D01*
X160127403Y-110192605D01*
X160032367Y-110001746D01*
X159903872Y-109831593D01*
X159886256Y-109815534D01*
X159746302Y-109687948D01*
X159565019Y-109575702D01*
X159565017Y-109575701D01*
X159465608Y-109537190D01*
X159366198Y-109498679D01*
X159169385Y-109461888D01*
X159107106Y-109430221D01*
X159071833Y-109369908D01*
X159074767Y-109300100D01*
X159114976Y-109242960D01*
X159169384Y-109218111D01*
X159366198Y-109181321D01*
X159565019Y-109104298D01*
X159746302Y-108992052D01*
X159903872Y-108848407D01*
X160032366Y-108678255D01*
X160050646Y-108641544D01*
X160127403Y-108487394D01*
X160127403Y-108487393D01*
X160127405Y-108487389D01*
X160185756Y-108282310D01*
X160205429Y-108070000D01*
X160185756Y-107857690D01*
X160127405Y-107652611D01*
X160127403Y-107652606D01*
X160127403Y-107652605D01*
X160032367Y-107461746D01*
X159903872Y-107291593D01*
X159886219Y-107275500D01*
X159746302Y-107147948D01*
X159565019Y-107035702D01*
X159565017Y-107035701D01*
X159394040Y-106969465D01*
X159366198Y-106958679D01*
X159169385Y-106921888D01*
X159107106Y-106890221D01*
X159071833Y-106829908D01*
X159074767Y-106760100D01*
X159114976Y-106702960D01*
X159169384Y-106678111D01*
X159366198Y-106641321D01*
X159565019Y-106564298D01*
X159746302Y-106452052D01*
X159903872Y-106308407D01*
X160032366Y-106138255D01*
X160089879Y-106022752D01*
X160127403Y-105947394D01*
X160127403Y-105947393D01*
X160127405Y-105947389D01*
X160185756Y-105742310D01*
X160205429Y-105530000D01*
X160185756Y-105317690D01*
X160127405Y-105112611D01*
X160127403Y-105112606D01*
X160127403Y-105112605D01*
X160032367Y-104921746D01*
X159903872Y-104751593D01*
X159872367Y-104722872D01*
X159746302Y-104607948D01*
X159565019Y-104495702D01*
X159565017Y-104495701D01*
X159407109Y-104434528D01*
X159366198Y-104418679D01*
X159156610Y-104379500D01*
X158943390Y-104379500D01*
X158733802Y-104418679D01*
X158733799Y-104418679D01*
X158733799Y-104418680D01*
X158534982Y-104495701D01*
X158534980Y-104495702D01*
X158353696Y-104607949D01*
X158262755Y-104690853D01*
X158199951Y-104721470D01*
X158130564Y-104713272D01*
X158076624Y-104668863D01*
X158055256Y-104602340D01*
X158055217Y-104599216D01*
X158055217Y-102390470D01*
X158074902Y-102323431D01*
X158106332Y-102290152D01*
X158137576Y-102267452D01*
X158260588Y-102178079D01*
X158317812Y-102114524D01*
X158377295Y-102077878D01*
X158447152Y-102079207D01*
X158505201Y-102118093D01*
X158533011Y-102182190D01*
X158527891Y-102235815D01*
X158469044Y-102416930D01*
X158469044Y-102416931D01*
X158469043Y-102416935D01*
X158449257Y-102605191D01*
X158469043Y-102793447D01*
X158469044Y-102793450D01*
X158527535Y-102973468D01*
X158527538Y-102973475D01*
X158622184Y-103137407D01*
X158663838Y-103183668D01*
X158748846Y-103278079D01*
X158901982Y-103389339D01*
X158901987Y-103389342D01*
X159074909Y-103466333D01*
X159074914Y-103466335D01*
X159260071Y-103505691D01*
X159260072Y-103505691D01*
X159449361Y-103505691D01*
X159449363Y-103505691D01*
X159634520Y-103466335D01*
X159807447Y-103389342D01*
X159960588Y-103278079D01*
X160087250Y-103137407D01*
X160181896Y-102973475D01*
X160240391Y-102793447D01*
X160260177Y-102605191D01*
X160240391Y-102416935D01*
X160181896Y-102236907D01*
X160087250Y-102072975D01*
X159960588Y-101932303D01*
X159946249Y-101921885D01*
X159807451Y-101821042D01*
X159807446Y-101821039D01*
X159634524Y-101744048D01*
X159634519Y-101744046D01*
X159488718Y-101713056D01*
X159449363Y-101704691D01*
X159260071Y-101704691D01*
X159227614Y-101711589D01*
X159074914Y-101744046D01*
X159074909Y-101744048D01*
X158901987Y-101821039D01*
X158901982Y-101821042D01*
X158748849Y-101932300D01*
X158748846Y-101932302D01*
X158748846Y-101932303D01*
X158691621Y-101995856D01*
X158632136Y-102032504D01*
X158562279Y-102031173D01*
X158504231Y-101992286D01*
X158476421Y-101928189D01*
X158481542Y-101874565D01*
X158491767Y-101843096D01*
X158540391Y-101693447D01*
X158560177Y-101505191D01*
X158540391Y-101316935D01*
X158481896Y-101136907D01*
X158387250Y-100972975D01*
X158260588Y-100832303D01*
X158253383Y-100827068D01*
X158107451Y-100721042D01*
X158107446Y-100721039D01*
X157934524Y-100644048D01*
X157934519Y-100644046D01*
X157788718Y-100613056D01*
X157749363Y-100604691D01*
X157560071Y-100604691D01*
X157527614Y-100611589D01*
X157374914Y-100644046D01*
X157374909Y-100644048D01*
X157201987Y-100721039D01*
X157201982Y-100721042D01*
X157048846Y-100832302D01*
X156922183Y-100972976D01*
X156827538Y-101136906D01*
X156827535Y-101136913D01*
X156782831Y-101274500D01*
X156769043Y-101316935D01*
X156754778Y-101452664D01*
X156728193Y-101517278D01*
X156670896Y-101557263D01*
X156601077Y-101559923D01*
X156543776Y-101527383D01*
X156370915Y-101354522D01*
X156370913Y-101354520D01*
X156325250Y-101328156D01*
X156279589Y-101301793D01*
X156198287Y-101280009D01*
X156177727Y-101274500D01*
X156177726Y-101274500D01*
X156074500Y-101274500D01*
X156007461Y-101254815D01*
X155961706Y-101202011D01*
X155950500Y-101150500D01*
X155950499Y-100455143D01*
X155950499Y-100455136D01*
X155950221Y-100452735D01*
X155947586Y-100430012D01*
X155947585Y-100430010D01*
X155947585Y-100430009D01*
X155902206Y-100327235D01*
X155837152Y-100262181D01*
X155803667Y-100200858D01*
X155808651Y-100131166D01*
X155850523Y-100075233D01*
X155915987Y-100050816D01*
X155924833Y-100050500D01*
X161034108Y-100050500D01*
X161093038Y-100050500D01*
X161106922Y-100051280D01*
G37*
%TD.AperFunction*%
%TA.AperFunction,Conductor*%
G36*
X141605053Y-110613853D02*
G01*
X141660986Y-110655725D01*
X141685403Y-110721189D01*
X141678761Y-110770990D01*
X141649916Y-110853423D01*
X141647000Y-110884522D01*
X141647000Y-111315466D01*
X141647001Y-111315472D01*
X141649917Y-111346579D01*
X141649917Y-111346581D01*
X141649918Y-111346582D01*
X141649918Y-111346584D01*
X141691835Y-111466375D01*
X141695766Y-111477608D01*
X141778199Y-111589301D01*
X141889892Y-111671734D01*
X141918436Y-111681722D01*
X142020919Y-111717583D01*
X142029035Y-111718343D01*
X142052027Y-111720500D01*
X142557972Y-111720499D01*
X142589079Y-111717583D01*
X142691564Y-111681722D01*
X142761343Y-111678160D01*
X142820200Y-111711082D01*
X142886222Y-111777104D01*
X142919707Y-111838427D01*
X142914723Y-111908119D01*
X142886223Y-111952466D01*
X142773336Y-112065353D01*
X142773333Y-112065357D01*
X142689092Y-112207802D01*
X142689091Y-112207805D01*
X142642922Y-112366716D01*
X142642921Y-112366722D01*
X142640000Y-112403842D01*
X142640000Y-112432500D01*
X143200000Y-112432500D01*
X143200000Y-111786362D01*
X143219685Y-111719323D01*
X143236319Y-111698681D01*
X143250000Y-111685000D01*
X143250000Y-111224000D01*
X143269685Y-111156961D01*
X143322489Y-111111206D01*
X143374000Y-111100000D01*
X143626000Y-111100000D01*
X143693039Y-111119685D01*
X143738794Y-111172489D01*
X143750000Y-111224000D01*
X143750000Y-111948638D01*
X143730315Y-112015677D01*
X143713681Y-112036319D01*
X143700000Y-112050000D01*
X143700000Y-112432500D01*
X144326000Y-112432500D01*
X144393039Y-112452185D01*
X144438794Y-112504989D01*
X144450000Y-112556500D01*
X144450000Y-112808500D01*
X144430315Y-112875539D01*
X144377511Y-112921294D01*
X144326000Y-112932500D01*
X142640000Y-112932500D01*
X142640000Y-112961157D01*
X142642921Y-112998277D01*
X142642922Y-112998283D01*
X142689091Y-113157194D01*
X142689092Y-113157197D01*
X142746521Y-113254305D01*
X142763704Y-113322029D01*
X142741544Y-113388292D01*
X142687078Y-113432055D01*
X142671890Y-113437198D01*
X142645413Y-113444293D01*
X142645411Y-113444294D01*
X142645410Y-113444294D01*
X142554085Y-113497021D01*
X142479521Y-113571585D01*
X142426794Y-113662910D01*
X142426793Y-113662913D01*
X142399500Y-113764773D01*
X142399500Y-115425500D01*
X142379815Y-115492539D01*
X142327011Y-115538294D01*
X142275500Y-115549500D01*
X142233230Y-115549500D01*
X142202800Y-115552353D01*
X142202798Y-115552353D01*
X142074619Y-115597206D01*
X142074617Y-115597207D01*
X141965350Y-115677850D01*
X141949642Y-115699134D01*
X141893994Y-115741385D01*
X141849872Y-115749500D01*
X140001372Y-115749500D01*
X139934333Y-115729815D01*
X139888578Y-115677011D01*
X139877372Y-115625500D01*
X139877371Y-114787895D01*
X139877371Y-114787888D01*
X139877369Y-114787869D01*
X139874458Y-114762764D01*
X139874457Y-114762762D01*
X139874457Y-114762761D01*
X139829078Y-114659987D01*
X139749637Y-114580546D01*
X139701069Y-114559101D01*
X139646864Y-114535167D01*
X139621740Y-114532252D01*
X138893115Y-114532252D01*
X138826076Y-114512567D01*
X138780321Y-114459763D01*
X138770377Y-114390605D01*
X138799402Y-114327049D01*
X138858180Y-114289275D01*
X138870313Y-114286366D01*
X139043070Y-114254073D01*
X139241891Y-114177050D01*
X139423174Y-114064804D01*
X139580744Y-113921159D01*
X139709238Y-113751007D01*
X139737385Y-113694479D01*
X139804275Y-113560146D01*
X139804275Y-113560145D01*
X139804277Y-113560141D01*
X139862628Y-113355062D01*
X139882301Y-113142752D01*
X139862628Y-112930442D01*
X139804277Y-112725363D01*
X139804275Y-112725358D01*
X139804275Y-112725357D01*
X139706683Y-112529365D01*
X139708847Y-112528287D01*
X139693733Y-112470263D01*
X139715471Y-112403861D01*
X139729987Y-112386404D01*
X141474039Y-110642352D01*
X141535361Y-110608869D01*
X141605053Y-110613853D01*
G37*
%TD.AperFunction*%
%TA.AperFunction,Conductor*%
G36*
X149569758Y-107065435D02*
G01*
X149611400Y-107113492D01*
X149613711Y-107118218D01*
X149615175Y-107121213D01*
X149621145Y-107129575D01*
X149619646Y-107130645D01*
X149647164Y-107181030D01*
X149650000Y-107207399D01*
X149650000Y-107470086D01*
X149650001Y-107470087D01*
X149725098Y-107460201D01*
X149725103Y-107460200D01*
X149864978Y-107402263D01*
X149991542Y-107305147D01*
X149992737Y-107306704D01*
X150044694Y-107278334D01*
X150071052Y-107275500D01*
X150110630Y-107275500D01*
X150110636Y-107275500D01*
X150183625Y-107264866D01*
X150195539Y-107259041D01*
X150264408Y-107247281D01*
X150304458Y-107259040D01*
X150316375Y-107264866D01*
X150389364Y-107275500D01*
X150389370Y-107275500D01*
X150610630Y-107275500D01*
X150610636Y-107275500D01*
X150683625Y-107264866D01*
X150695539Y-107259041D01*
X150764408Y-107247281D01*
X150804458Y-107259040D01*
X150816375Y-107264866D01*
X150889364Y-107275500D01*
X150889370Y-107275500D01*
X151110630Y-107275500D01*
X151110636Y-107275500D01*
X151183625Y-107264866D01*
X151195539Y-107259041D01*
X151264408Y-107247281D01*
X151304458Y-107259040D01*
X151316375Y-107264866D01*
X151389364Y-107275500D01*
X151389370Y-107275500D01*
X151610630Y-107275500D01*
X151610636Y-107275500D01*
X151683625Y-107264866D01*
X151695539Y-107259041D01*
X151764408Y-107247281D01*
X151804458Y-107259040D01*
X151816375Y-107264866D01*
X151889364Y-107275500D01*
X151889370Y-107275500D01*
X152110630Y-107275500D01*
X152110636Y-107275500D01*
X152183625Y-107264866D01*
X152195539Y-107259041D01*
X152264408Y-107247281D01*
X152304458Y-107259040D01*
X152316375Y-107264866D01*
X152357718Y-107270889D01*
X152421216Y-107300032D01*
X152458881Y-107358880D01*
X152462778Y-107409778D01*
X152444318Y-107549998D01*
X152444318Y-107550001D01*
X152464955Y-107706760D01*
X152464956Y-107706762D01*
X152525464Y-107852841D01*
X152621718Y-107978282D01*
X152747159Y-108074536D01*
X152893238Y-108135044D01*
X152971619Y-108145363D01*
X153049999Y-108155682D01*
X153052167Y-108155682D01*
X153053929Y-108156199D01*
X153058058Y-108156743D01*
X153057973Y-108157386D01*
X153119206Y-108175367D01*
X153164961Y-108228171D01*
X153175106Y-108263496D01*
X153189800Y-108375104D01*
X153189801Y-108375108D01*
X153247736Y-108514979D01*
X153247738Y-108514982D01*
X153274619Y-108550013D01*
X153299814Y-108615182D01*
X153285776Y-108683627D01*
X153236962Y-108733617D01*
X153176244Y-108749500D01*
X149467255Y-108749500D01*
X149400216Y-108729815D01*
X149379574Y-108713181D01*
X148845915Y-108179522D01*
X148845913Y-108179520D01*
X148754588Y-108126793D01*
X148689379Y-108109320D01*
X148633796Y-108077231D01*
X148628288Y-108071724D01*
X148628284Y-108071721D01*
X148628282Y-108071718D01*
X148502841Y-107975464D01*
X148488889Y-107969685D01*
X148356762Y-107914956D01*
X148356760Y-107914955D01*
X148200001Y-107894318D01*
X148199999Y-107894318D01*
X148043239Y-107914955D01*
X148043237Y-107914956D01*
X147897160Y-107975463D01*
X147771718Y-108071718D01*
X147675463Y-108197160D01*
X147614956Y-108343237D01*
X147614955Y-108343239D01*
X147594318Y-108499998D01*
X147594318Y-108500001D01*
X147614955Y-108656760D01*
X147614956Y-108656762D01*
X147675464Y-108802841D01*
X147711277Y-108849515D01*
X147736470Y-108914684D01*
X147722431Y-108983129D01*
X147711277Y-109000485D01*
X147675464Y-109047158D01*
X147614956Y-109193237D01*
X147614955Y-109193239D01*
X147594318Y-109349998D01*
X147594318Y-109350001D01*
X147614955Y-109506760D01*
X147614956Y-109506762D01*
X147643511Y-109575701D01*
X147675464Y-109652841D01*
X147771718Y-109778282D01*
X147897159Y-109874536D01*
X148043238Y-109935044D01*
X148120343Y-109945195D01*
X148208058Y-109956743D01*
X148207755Y-109959038D01*
X148257229Y-109972294D01*
X148345412Y-110023207D01*
X148447273Y-110050500D01*
X148552727Y-110050500D01*
X153250500Y-110050500D01*
X153317539Y-110070185D01*
X153363294Y-110122989D01*
X153374500Y-110174500D01*
X153374500Y-110260636D01*
X153385134Y-110333625D01*
X153390960Y-110345542D01*
X153402717Y-110414416D01*
X153390960Y-110454456D01*
X153385134Y-110466375D01*
X153374500Y-110539364D01*
X153374500Y-110760636D01*
X153376009Y-110770990D01*
X153380949Y-110804898D01*
X153371134Y-110874075D01*
X153325478Y-110926964D01*
X153258476Y-110946774D01*
X153210793Y-110937336D01*
X153180747Y-110924891D01*
X153156762Y-110914956D01*
X153156760Y-110914955D01*
X153000001Y-110894318D01*
X152999999Y-110894318D01*
X152843239Y-110914955D01*
X152843237Y-110914956D01*
X152697160Y-110975463D01*
X152571718Y-111071718D01*
X152475463Y-111197160D01*
X152414956Y-111343237D01*
X152414955Y-111343239D01*
X152394318Y-111499998D01*
X152394318Y-111500001D01*
X152414955Y-111656760D01*
X152414956Y-111656762D01*
X152473157Y-111797273D01*
X152475464Y-111802841D01*
X152571718Y-111928282D01*
X152571720Y-111928283D01*
X152573876Y-111931093D01*
X152599070Y-111996263D01*
X152599500Y-112006580D01*
X152599500Y-112772856D01*
X152582888Y-112834854D01*
X152576795Y-112845407D01*
X152576793Y-112845410D01*
X152565933Y-112885940D01*
X152560504Y-112906204D01*
X152560504Y-112906205D01*
X152560503Y-112906204D01*
X152549500Y-112947269D01*
X152549500Y-113231194D01*
X152529815Y-113298233D01*
X152477011Y-113343988D01*
X152407853Y-113353932D01*
X152354079Y-113329374D01*
X152274896Y-113339800D01*
X152274891Y-113339801D01*
X152135021Y-113397736D01*
X152008458Y-113494853D01*
X152007262Y-113493295D01*
X151955306Y-113521666D01*
X151928948Y-113524500D01*
X151889364Y-113524500D01*
X151826802Y-113533614D01*
X151816374Y-113535134D01*
X151808699Y-113538886D01*
X151804457Y-113540960D01*
X151735584Y-113552717D01*
X151695543Y-113540960D01*
X151683625Y-113535134D01*
X151610636Y-113524500D01*
X151571052Y-113524500D01*
X151504013Y-113504815D01*
X151491583Y-113494798D01*
X151491542Y-113494853D01*
X151364978Y-113397736D01*
X151225108Y-113339801D01*
X151225103Y-113339800D01*
X151150000Y-113329911D01*
X151150000Y-113592600D01*
X151130315Y-113659639D01*
X151117428Y-113675631D01*
X151115174Y-113678788D01*
X151111400Y-113686508D01*
X151064272Y-113738090D01*
X150996738Y-113756004D01*
X150930239Y-113734563D01*
X150888600Y-113686508D01*
X150886926Y-113683086D01*
X150884826Y-113678789D01*
X150884825Y-113678788D01*
X150878855Y-113670425D01*
X150880353Y-113669355D01*
X150852834Y-113618958D01*
X150850000Y-113592600D01*
X150850000Y-113329911D01*
X150849999Y-113329911D01*
X150774896Y-113339800D01*
X150774892Y-113339801D01*
X150762450Y-113344954D01*
X150692981Y-113352419D01*
X150630503Y-113321140D01*
X150594854Y-113261049D01*
X150592067Y-113246586D01*
X150585044Y-113193238D01*
X150524536Y-113047159D01*
X150428282Y-112921718D01*
X150302841Y-112825464D01*
X150277472Y-112814956D01*
X150156762Y-112764956D01*
X150156760Y-112764955D01*
X150000001Y-112744318D01*
X149999999Y-112744318D01*
X149843239Y-112764955D01*
X149843237Y-112764956D01*
X149697160Y-112825463D01*
X149571718Y-112921718D01*
X149475463Y-113047160D01*
X149414956Y-113193237D01*
X149414955Y-113193239D01*
X149394318Y-113349998D01*
X149394318Y-113350001D01*
X149401031Y-113400993D01*
X149390265Y-113470028D01*
X149343885Y-113522284D01*
X149324460Y-113531182D01*
X149316376Y-113535133D01*
X149316375Y-113535134D01*
X149304457Y-113540960D01*
X149235584Y-113552717D01*
X149195543Y-113540960D01*
X149183625Y-113535134D01*
X149183623Y-113535133D01*
X149174975Y-113530906D01*
X149176574Y-113527633D01*
X149133373Y-113498993D01*
X149105256Y-113435030D01*
X149105294Y-113402946D01*
X149105682Y-113399999D01*
X149105682Y-113399998D01*
X149085044Y-113243239D01*
X149085044Y-113243238D01*
X149024536Y-113097159D01*
X148928282Y-112971718D01*
X148802841Y-112875464D01*
X148730284Y-112845410D01*
X148656762Y-112814956D01*
X148656760Y-112814955D01*
X148500001Y-112794318D01*
X148499999Y-112794318D01*
X148343239Y-112814955D01*
X148343234Y-112814957D01*
X148234739Y-112859897D01*
X148165270Y-112867366D01*
X148102791Y-112836091D01*
X148080059Y-112803353D01*
X148078599Y-112804196D01*
X148074536Y-112797159D01*
X147976124Y-112668905D01*
X147950930Y-112603736D01*
X147950500Y-112593419D01*
X147950500Y-112289865D01*
X147950499Y-112289861D01*
X147939685Y-112249500D01*
X147923207Y-112188002D01*
X147870480Y-112096677D01*
X147321545Y-111547742D01*
X147288060Y-111486419D01*
X147293044Y-111416727D01*
X147294666Y-111412606D01*
X147310199Y-111375106D01*
X147310199Y-111375104D01*
X147320088Y-111300000D01*
X147085420Y-111300000D01*
X147023420Y-111283387D01*
X147012001Y-111276794D01*
X147012002Y-111276794D01*
X147008013Y-111275725D01*
X146985920Y-111269805D01*
X146963920Y-111261609D01*
X146963854Y-111261577D01*
X146912119Y-111214617D01*
X146893985Y-111147142D01*
X146915210Y-111080574D01*
X146963493Y-111038599D01*
X146971211Y-111034826D01*
X146971213Y-111034824D01*
X146979575Y-111028855D01*
X146980644Y-111030353D01*
X147031042Y-111002834D01*
X147057400Y-111000000D01*
X147320088Y-111000000D01*
X147320088Y-110999999D01*
X147310199Y-110924896D01*
X147310198Y-110924891D01*
X147252263Y-110785021D01*
X147155147Y-110658458D01*
X147156702Y-110657264D01*
X147128331Y-110605290D01*
X147125500Y-110578947D01*
X147125500Y-110539369D01*
X147125500Y-110539364D01*
X147114866Y-110466375D01*
X147109041Y-110454460D01*
X147097281Y-110385592D01*
X147109040Y-110345541D01*
X147114866Y-110333625D01*
X147125500Y-110260636D01*
X147125500Y-110039364D01*
X147114866Y-109966375D01*
X147109041Y-109954460D01*
X147097281Y-109885592D01*
X147109040Y-109845541D01*
X147114866Y-109833625D01*
X147125500Y-109760636D01*
X147125500Y-109539364D01*
X147114866Y-109466375D01*
X147109041Y-109454460D01*
X147097281Y-109385592D01*
X147109040Y-109345541D01*
X147114866Y-109333625D01*
X147125500Y-109260636D01*
X147125500Y-109039364D01*
X147114866Y-108966375D01*
X147109041Y-108954460D01*
X147097281Y-108885592D01*
X147109040Y-108845541D01*
X147114866Y-108833625D01*
X147125500Y-108760636D01*
X147125500Y-108721052D01*
X147145185Y-108654013D01*
X147155200Y-108641585D01*
X147155147Y-108641544D01*
X147252261Y-108514981D01*
X147252263Y-108514979D01*
X147310198Y-108375108D01*
X147310199Y-108375103D01*
X147320088Y-108300000D01*
X147057400Y-108300000D01*
X146990361Y-108280315D01*
X146969719Y-108263681D01*
X146968219Y-108262181D01*
X146934734Y-108200858D01*
X146939718Y-108131166D01*
X146981590Y-108075233D01*
X147044685Y-108051699D01*
X147044667Y-108051561D01*
X147045269Y-108051481D01*
X147047054Y-108050816D01*
X147051542Y-108050655D01*
X147052718Y-108050500D01*
X147052727Y-108050500D01*
X147154588Y-108023207D01*
X147158305Y-108021060D01*
X147166010Y-108016613D01*
X147228010Y-108000000D01*
X147320087Y-108000000D01*
X147316005Y-107968995D01*
X147326770Y-107899960D01*
X147351256Y-107865135D01*
X147715129Y-107501261D01*
X147776450Y-107467778D01*
X147818992Y-107466005D01*
X147849999Y-107470086D01*
X147850000Y-107470086D01*
X147850000Y-107378008D01*
X147866614Y-107316006D01*
X147873207Y-107304588D01*
X147900500Y-107202727D01*
X147900500Y-107202718D01*
X147901561Y-107194667D01*
X147903714Y-107194950D01*
X147920185Y-107138860D01*
X147972989Y-107093105D01*
X148042147Y-107083161D01*
X148105703Y-107112186D01*
X148112181Y-107118218D01*
X148113681Y-107119718D01*
X148147166Y-107181041D01*
X148150000Y-107207399D01*
X148150000Y-107470086D01*
X148150001Y-107470087D01*
X148225098Y-107460201D01*
X148225103Y-107460200D01*
X148364978Y-107402263D01*
X148491542Y-107305147D01*
X148492737Y-107306704D01*
X148544694Y-107278334D01*
X148571052Y-107275500D01*
X148610630Y-107275500D01*
X148610636Y-107275500D01*
X148683625Y-107264866D01*
X148695539Y-107259041D01*
X148764408Y-107247281D01*
X148804458Y-107259040D01*
X148816375Y-107264866D01*
X148889364Y-107275500D01*
X148889370Y-107275500D01*
X148928948Y-107275500D01*
X148995987Y-107295185D01*
X149008416Y-107305201D01*
X149008458Y-107305147D01*
X149135021Y-107402263D01*
X149274896Y-107460200D01*
X149274901Y-107460201D01*
X149349998Y-107470087D01*
X149350000Y-107470086D01*
X149350000Y-107207399D01*
X149369685Y-107140360D01*
X149382574Y-107124364D01*
X149384824Y-107121213D01*
X149384826Y-107121211D01*
X149388599Y-107113492D01*
X149435726Y-107061910D01*
X149503259Y-107043995D01*
X149569758Y-107065435D01*
G37*
%TD.AperFunction*%
%TA.AperFunction,Conductor*%
G36*
X155993039Y-107969685D02*
G01*
X156038794Y-108022489D01*
X156050000Y-108074000D01*
X156050000Y-108326000D01*
X156030315Y-108393039D01*
X155977511Y-108438794D01*
X155926000Y-108450000D01*
X155902493Y-108450000D01*
X155835454Y-108430315D01*
X155814812Y-108413681D01*
X155730653Y-108329522D01*
X155730651Y-108329520D01*
X155648882Y-108282310D01*
X155639327Y-108276793D01*
X155584792Y-108262181D01*
X155537465Y-108249500D01*
X155537464Y-108249500D01*
X155380900Y-108249500D01*
X155313861Y-108229815D01*
X155268106Y-108177011D01*
X155258162Y-108107853D01*
X155287187Y-108044297D01*
X155293218Y-108037820D01*
X155344717Y-107986320D01*
X155406040Y-107952834D01*
X155432399Y-107950000D01*
X155926000Y-107950000D01*
X155993039Y-107969685D01*
G37*
%TD.AperFunction*%
%TA.AperFunction,Conductor*%
G36*
X140942539Y-104182014D02*
G01*
X140988294Y-104234818D01*
X140999500Y-104286329D01*
X140999500Y-106539430D01*
X140999500Y-106644884D01*
X141008403Y-106678111D01*
X141026793Y-106746746D01*
X141049690Y-106786404D01*
X141079520Y-106838070D01*
X141079522Y-106838072D01*
X142012839Y-107771389D01*
X142046324Y-107832712D01*
X142041340Y-107902404D01*
X141999468Y-107958337D01*
X141934004Y-107982754D01*
X141877706Y-107973631D01*
X141856765Y-107964957D01*
X141856760Y-107964955D01*
X141700001Y-107944318D01*
X141699999Y-107944318D01*
X141543239Y-107964955D01*
X141543237Y-107964956D01*
X141397160Y-108025463D01*
X141397159Y-108025464D01*
X141271718Y-108121718D01*
X141271716Y-108121720D01*
X141268907Y-108123876D01*
X141203737Y-108149070D01*
X141193420Y-108149500D01*
X140003380Y-108149500D01*
X139936341Y-108129815D01*
X139890586Y-108077011D01*
X139879909Y-108036941D01*
X139879713Y-108034826D01*
X139862628Y-107850442D01*
X139804277Y-107645363D01*
X139804275Y-107645358D01*
X139804275Y-107645357D01*
X139709239Y-107454498D01*
X139580744Y-107284345D01*
X139559377Y-107264866D01*
X139423174Y-107140700D01*
X139241891Y-107028454D01*
X139241886Y-107028452D01*
X139235001Y-107025784D01*
X139212909Y-107017226D01*
X139157508Y-106974655D01*
X139133917Y-106908888D01*
X139149628Y-106840808D01*
X139199651Y-106792028D01*
X139205298Y-106789218D01*
X139404450Y-106696351D01*
X139597954Y-106560857D01*
X139764977Y-106393834D01*
X139900472Y-106200330D01*
X140000301Y-105986244D01*
X140000304Y-105986238D01*
X140057508Y-105772752D01*
X139159884Y-105772752D01*
X139192797Y-105715745D01*
X139226872Y-105588578D01*
X139226872Y-105456926D01*
X139192797Y-105329759D01*
X139159884Y-105272752D01*
X140057508Y-105272752D01*
X140057507Y-105272751D01*
X140000304Y-105059265D01*
X140000301Y-105059259D01*
X139900472Y-104845174D01*
X139900471Y-104845172D01*
X139764985Y-104651678D01*
X139764980Y-104651672D01*
X139597950Y-104484642D01*
X139459794Y-104387903D01*
X139416169Y-104333326D01*
X139408977Y-104263828D01*
X139440500Y-104201473D01*
X139500730Y-104166060D01*
X139530913Y-104162329D01*
X140875500Y-104162329D01*
X140942539Y-104182014D01*
G37*
%TD.AperFunction*%
%TA.AperFunction,Conductor*%
G36*
X144881514Y-104092473D02*
G01*
X144887478Y-104094872D01*
X144892542Y-104097063D01*
X144914034Y-104103307D01*
X144972921Y-104140912D01*
X145002129Y-104204383D01*
X144993905Y-104262770D01*
X144996335Y-104263621D01*
X144947416Y-104403418D01*
X144947416Y-104403420D01*
X144944500Y-104434523D01*
X144944500Y-104760125D01*
X144940275Y-104792217D01*
X144921869Y-104860912D01*
X144915833Y-104883438D01*
X144915833Y-105047212D01*
X144896148Y-105114251D01*
X144890209Y-105122698D01*
X144791797Y-105250950D01*
X144731289Y-105397030D01*
X144731288Y-105397032D01*
X144710651Y-105553791D01*
X144710651Y-105553794D01*
X144731288Y-105710553D01*
X144731289Y-105710555D01*
X144780565Y-105829519D01*
X144791797Y-105856634D01*
X144888051Y-105982075D01*
X145013492Y-106078329D01*
X145159571Y-106138837D01*
X145316333Y-106159475D01*
X145369754Y-106152441D01*
X145438786Y-106163205D01*
X145491042Y-106209584D01*
X145500377Y-106227690D01*
X145500462Y-106227837D01*
X145500464Y-106227841D01*
X145562284Y-106308406D01*
X145576378Y-106326775D01*
X145596718Y-106353282D01*
X145722159Y-106449536D01*
X145868238Y-106510044D01*
X145946619Y-106520363D01*
X146024999Y-106530682D01*
X146025000Y-106530682D01*
X146025001Y-106530682D01*
X146077254Y-106523802D01*
X146181762Y-106510044D01*
X146327841Y-106449536D01*
X146362438Y-106422989D01*
X146423515Y-106376124D01*
X146488685Y-106350930D01*
X146499001Y-106350500D01*
X146925500Y-106350500D01*
X146992539Y-106370185D01*
X147038294Y-106422989D01*
X147049500Y-106474500D01*
X147049500Y-106935636D01*
X147053053Y-106960020D01*
X147043238Y-107029197D01*
X147018029Y-107065577D01*
X146915577Y-107168029D01*
X146854254Y-107201514D01*
X146810022Y-107203052D01*
X146785636Y-107199500D01*
X146785631Y-107199500D01*
X145467254Y-107199500D01*
X145400215Y-107179815D01*
X145379573Y-107163181D01*
X145096819Y-106880426D01*
X145063334Y-106819103D01*
X145060500Y-106792745D01*
X145060500Y-106597632D01*
X145057614Y-106566860D01*
X145057614Y-106566858D01*
X145023600Y-106469656D01*
X145012263Y-106437255D01*
X144930725Y-106326775D01*
X144820245Y-106245237D01*
X144820243Y-106245236D01*
X144690640Y-106199885D01*
X144659868Y-106197000D01*
X144659864Y-106197000D01*
X144240136Y-106197000D01*
X144240132Y-106197000D01*
X144209360Y-106199885D01*
X144209358Y-106199885D01*
X144079756Y-106245236D01*
X143969275Y-106326775D01*
X143887736Y-106437256D01*
X143842385Y-106566858D01*
X143842385Y-106566860D01*
X143839500Y-106597632D01*
X143839500Y-107132367D01*
X143842385Y-107163139D01*
X143842385Y-107163140D01*
X143855706Y-107201209D01*
X143859267Y-107270988D01*
X143826347Y-107329842D01*
X143773335Y-107382854D01*
X143773333Y-107382857D01*
X143710019Y-107489916D01*
X143658949Y-107537599D01*
X143590208Y-107550102D01*
X143525618Y-107523456D01*
X143515606Y-107514475D01*
X142236819Y-106235688D01*
X142203334Y-106174365D01*
X142200500Y-106148007D01*
X142200500Y-104286329D01*
X142220185Y-104219290D01*
X142272989Y-104173535D01*
X142324495Y-104162329D01*
X144629604Y-104162329D01*
X144629619Y-104162327D01*
X144629622Y-104162327D01*
X144654726Y-104159416D01*
X144654727Y-104159415D01*
X144654731Y-104159415D01*
X144757505Y-104114036D01*
X144757507Y-104114033D01*
X144757509Y-104114033D01*
X144766986Y-104107542D01*
X144769219Y-104110802D01*
X144811820Y-104087518D01*
X144881514Y-104092473D01*
G37*
%TD.AperFunction*%
%TA.AperFunction,Conductor*%
G36*
X156480701Y-102597540D02*
G01*
X156487180Y-102603572D01*
X156763181Y-102879573D01*
X156796666Y-102940896D01*
X156799500Y-102967254D01*
X156799500Y-105625500D01*
X156779815Y-105692539D01*
X156727011Y-105738294D01*
X156675500Y-105749500D01*
X156460339Y-105749500D01*
X156460323Y-105749499D01*
X156452727Y-105749499D01*
X156347273Y-105749499D01*
X156270877Y-105769969D01*
X156245411Y-105776793D01*
X156219981Y-105791475D01*
X156213164Y-105795412D01*
X156189251Y-105809218D01*
X156154088Y-105829519D01*
X156154084Y-105829522D01*
X156135114Y-105848492D01*
X156073791Y-105881976D01*
X156004099Y-105876990D01*
X155949060Y-105836296D01*
X155934495Y-105817315D01*
X155928282Y-105809218D01*
X155802841Y-105712964D01*
X155797025Y-105710555D01*
X155656762Y-105652456D01*
X155656760Y-105652455D01*
X155500001Y-105631818D01*
X155499999Y-105631818D01*
X155343239Y-105652455D01*
X155343237Y-105652456D01*
X155197160Y-105712963D01*
X155173890Y-105730818D01*
X155071718Y-105809218D01*
X155071716Y-105809220D01*
X155068907Y-105811376D01*
X155003737Y-105836570D01*
X154993420Y-105837000D01*
X154720812Y-105837000D01*
X154653773Y-105817315D01*
X154608018Y-105764511D01*
X154597873Y-105696814D01*
X154605682Y-105637499D01*
X154605682Y-105637498D01*
X154585044Y-105480739D01*
X154585044Y-105480738D01*
X154524536Y-105334659D01*
X154493090Y-105293677D01*
X154467897Y-105228511D01*
X154481935Y-105160066D01*
X154517156Y-105118926D01*
X154517328Y-105118796D01*
X154517331Y-105118796D01*
X154632546Y-105032546D01*
X154650733Y-105008250D01*
X154706666Y-104966379D01*
X154776358Y-104961395D01*
X154837681Y-104994880D01*
X154849265Y-105008248D01*
X154854170Y-105014801D01*
X154867454Y-105032546D01*
X154867455Y-105032547D01*
X154982664Y-105118793D01*
X154982671Y-105118797D01*
X155027618Y-105135561D01*
X155117517Y-105169091D01*
X155177127Y-105175500D01*
X155822872Y-105175499D01*
X155882483Y-105169091D01*
X156017331Y-105118796D01*
X156132546Y-105032546D01*
X156218796Y-104917331D01*
X156269091Y-104782483D01*
X156275500Y-104722873D01*
X156275499Y-104227128D01*
X156269091Y-104167517D01*
X156268931Y-104167089D01*
X156218797Y-104032671D01*
X156218793Y-104032664D01*
X156132547Y-103917455D01*
X156132544Y-103917452D01*
X156017335Y-103831206D01*
X156017328Y-103831202D01*
X155882486Y-103780910D01*
X155882485Y-103780909D01*
X155882483Y-103780909D01*
X155822873Y-103774500D01*
X155822863Y-103774500D01*
X155177129Y-103774500D01*
X155177123Y-103774501D01*
X155117516Y-103780908D01*
X154982671Y-103831202D01*
X154982664Y-103831206D01*
X154867455Y-103917452D01*
X154849266Y-103941750D01*
X154793332Y-103983620D01*
X154723640Y-103988604D01*
X154662317Y-103955118D01*
X154650734Y-103941750D01*
X154643301Y-103931821D01*
X154632546Y-103917454D01*
X154632544Y-103917453D01*
X154632544Y-103917452D01*
X154517335Y-103831206D01*
X154517328Y-103831202D01*
X154382486Y-103780910D01*
X154382485Y-103780909D01*
X154382483Y-103780909D01*
X154322873Y-103774500D01*
X154322863Y-103774500D01*
X153677129Y-103774500D01*
X153677123Y-103774501D01*
X153617516Y-103780908D01*
X153482671Y-103831202D01*
X153482669Y-103831204D01*
X153421090Y-103877302D01*
X153355626Y-103901719D01*
X153287353Y-103886867D01*
X153237947Y-103837462D01*
X153223095Y-103769190D01*
X153223421Y-103765430D01*
X153224999Y-103749981D01*
X153224999Y-103523627D01*
X153244683Y-103456587D01*
X153297487Y-103410832D01*
X153366646Y-103400888D01*
X153423309Y-103424359D01*
X153466360Y-103456587D01*
X153482668Y-103468795D01*
X153482671Y-103468797D01*
X153527618Y-103485561D01*
X153617517Y-103519091D01*
X153677127Y-103525500D01*
X154322872Y-103525499D01*
X154382483Y-103519091D01*
X154517331Y-103468796D01*
X154632546Y-103382546D01*
X154650733Y-103358250D01*
X154706666Y-103316379D01*
X154776358Y-103311395D01*
X154837681Y-103344880D01*
X154849267Y-103358251D01*
X154867454Y-103382546D01*
X154867455Y-103382547D01*
X154982664Y-103468793D01*
X154982671Y-103468797D01*
X155027618Y-103485561D01*
X155117517Y-103519091D01*
X155177127Y-103525500D01*
X155822872Y-103525499D01*
X155882483Y-103519091D01*
X156017331Y-103468796D01*
X156132546Y-103382546D01*
X156218796Y-103267331D01*
X156269091Y-103132483D01*
X156275500Y-103072873D01*
X156275499Y-102691252D01*
X156295183Y-102624214D01*
X156347987Y-102578459D01*
X156417146Y-102568515D01*
X156480701Y-102597540D01*
G37*
%TD.AperFunction*%
%TA.AperFunction,Conductor*%
G36*
X149539951Y-102943874D02*
G01*
X149572178Y-103005867D01*
X149574500Y-103029749D01*
X149574500Y-103743102D01*
X149578271Y-103774501D01*
X149585122Y-103831561D01*
X149640639Y-103972343D01*
X149732077Y-104092922D01*
X149811665Y-104153275D01*
X149853188Y-104209467D01*
X149857740Y-104279189D01*
X149853781Y-104293034D01*
X149822259Y-104383118D01*
X149822258Y-104383120D01*
X149819500Y-104412538D01*
X149819500Y-104885832D01*
X149799815Y-104952871D01*
X149747011Y-104998626D01*
X149679314Y-105008771D01*
X149650000Y-105004911D01*
X149650000Y-105267600D01*
X149630315Y-105334639D01*
X149617428Y-105350631D01*
X149615174Y-105353788D01*
X149611400Y-105361508D01*
X149564272Y-105413090D01*
X149496738Y-105431004D01*
X149430239Y-105409563D01*
X149388600Y-105361508D01*
X149386926Y-105358086D01*
X149384826Y-105353789D01*
X149384825Y-105353788D01*
X149378855Y-105345425D01*
X149380353Y-105344355D01*
X149352834Y-105293958D01*
X149350000Y-105267600D01*
X149350000Y-105004911D01*
X149349999Y-105004911D01*
X149274896Y-105014800D01*
X149274891Y-105014801D01*
X149135021Y-105072736D01*
X149008458Y-105169853D01*
X149007262Y-105168295D01*
X148955306Y-105196666D01*
X148928948Y-105199500D01*
X148889364Y-105199500D01*
X148826802Y-105208614D01*
X148816374Y-105210134D01*
X148808699Y-105213886D01*
X148804457Y-105215960D01*
X148735584Y-105227717D01*
X148695543Y-105215960D01*
X148683625Y-105210134D01*
X148610636Y-105199500D01*
X148571052Y-105199500D01*
X148504013Y-105179815D01*
X148491583Y-105169798D01*
X148491542Y-105169853D01*
X148364977Y-105072735D01*
X148364612Y-105072525D01*
X148364365Y-105072266D01*
X148358533Y-105067791D01*
X148359231Y-105066881D01*
X148316398Y-105021957D01*
X148303176Y-104953350D01*
X148329145Y-104888486D01*
X148338917Y-104877475D01*
X148957980Y-104258413D01*
X149010707Y-104167088D01*
X149038000Y-104065227D01*
X149038000Y-103959773D01*
X149038000Y-103074500D01*
X149057685Y-103007461D01*
X149110489Y-102961706D01*
X149162000Y-102950500D01*
X149279270Y-102950500D01*
X149303612Y-102948216D01*
X149309699Y-102947646D01*
X149409546Y-102912707D01*
X149479323Y-102909145D01*
X149539951Y-102943874D01*
G37*
%TD.AperFunction*%
%TA.AperFunction,Conductor*%
G36*
X138102779Y-103328198D02*
G01*
X138148534Y-103381002D01*
X138159740Y-103432513D01*
X138159740Y-104218653D01*
X138140055Y-104285692D01*
X138088145Y-104331035D01*
X138049294Y-104349151D01*
X138049292Y-104349152D01*
X137855798Y-104484638D01*
X137855792Y-104484643D01*
X137712181Y-104628255D01*
X137650858Y-104661740D01*
X137581166Y-104656756D01*
X137525233Y-104614884D01*
X137500816Y-104549420D01*
X137500500Y-104540574D01*
X137500500Y-104294218D01*
X137520185Y-104227179D01*
X137572989Y-104181424D01*
X137642147Y-104171480D01*
X137646781Y-104172236D01*
X137651470Y-104173092D01*
X137659738Y-104173742D01*
X137659740Y-104173741D01*
X137659740Y-103432513D01*
X137679425Y-103365474D01*
X137732229Y-103319719D01*
X137783740Y-103308513D01*
X138035740Y-103308513D01*
X138102779Y-103328198D01*
G37*
%TD.AperFunction*%
%TA.AperFunction,Conductor*%
G36*
X153481231Y-100070185D02*
G01*
X153526986Y-100122989D01*
X153536930Y-100192147D01*
X153513460Y-100248810D01*
X153506646Y-100257911D01*
X153506645Y-100257913D01*
X153456403Y-100392620D01*
X153456401Y-100392627D01*
X153450000Y-100452155D01*
X153450000Y-100600000D01*
X154051000Y-100600000D01*
X154118039Y-100619685D01*
X154163794Y-100672489D01*
X154175000Y-100724000D01*
X154175000Y-100925500D01*
X154155315Y-100992539D01*
X154102511Y-101038294D01*
X154051001Y-101049500D01*
X153905144Y-101049500D01*
X153901561Y-101049708D01*
X153901551Y-101049544D01*
X153893666Y-101050000D01*
X153450000Y-101050000D01*
X153450000Y-101197844D01*
X153456401Y-101257372D01*
X153456403Y-101257379D01*
X153506645Y-101392086D01*
X153506647Y-101392088D01*
X153592809Y-101507186D01*
X153592811Y-101507188D01*
X153599809Y-101512427D01*
X153641681Y-101568359D01*
X153649500Y-101611695D01*
X153649500Y-102032884D01*
X153629815Y-102099923D01*
X153577011Y-102145678D01*
X153568834Y-102149066D01*
X153482669Y-102181203D01*
X153482664Y-102181206D01*
X153367455Y-102267452D01*
X153290359Y-102370439D01*
X153234425Y-102412309D01*
X153164734Y-102417293D01*
X153103411Y-102383807D01*
X153085554Y-102361223D01*
X153067317Y-102331656D01*
X152970538Y-102234877D01*
X152937053Y-102173554D01*
X152942037Y-102103862D01*
X152955285Y-102079779D01*
X152955205Y-102079734D01*
X152959359Y-102072345D01*
X152959360Y-102072343D01*
X152959361Y-102072342D01*
X153014877Y-101931564D01*
X153025500Y-101843102D01*
X153025500Y-100856898D01*
X153014877Y-100768436D01*
X152959361Y-100627658D01*
X152959360Y-100627657D01*
X152959360Y-100627656D01*
X152867922Y-100507077D01*
X152747341Y-100415638D01*
X152747339Y-100415637D01*
X152689999Y-100393025D01*
X152634855Y-100350120D01*
X152616833Y-100304660D01*
X152615103Y-100305124D01*
X152613000Y-100297275D01*
X152613000Y-100297273D01*
X152588702Y-100206590D01*
X152590365Y-100136744D01*
X152629527Y-100078881D01*
X152693756Y-100051377D01*
X152708477Y-100050500D01*
X153414192Y-100050500D01*
X153481231Y-100070185D01*
G37*
%TD.AperFunction*%
%TA.AperFunction,Conductor*%
G36*
X147776271Y-100070185D02*
G01*
X147822026Y-100122989D01*
X147831970Y-100192147D01*
X147812172Y-100239154D01*
X147813842Y-100240119D01*
X147809779Y-100247156D01*
X147749270Y-100393237D01*
X147749269Y-100393239D01*
X147728632Y-100549998D01*
X147728632Y-100550001D01*
X147749270Y-100706765D01*
X147750406Y-100711003D01*
X147750317Y-100714717D01*
X147750331Y-100714820D01*
X147750315Y-100714822D01*
X147748742Y-100780852D01*
X147709579Y-100838714D01*
X147645350Y-100866217D01*
X147576448Y-100854630D01*
X147571163Y-100851433D01*
X147571101Y-100851551D01*
X147562880Y-100847206D01*
X147434700Y-100802353D01*
X147404270Y-100799500D01*
X147404266Y-100799500D01*
X146120734Y-100799500D01*
X146120730Y-100799500D01*
X146090300Y-100802353D01*
X146090298Y-100802353D01*
X145962119Y-100847206D01*
X145962117Y-100847207D01*
X145852850Y-100927850D01*
X145772207Y-101037117D01*
X145772206Y-101037119D01*
X145727353Y-101165298D01*
X145727353Y-101165300D01*
X145724500Y-101195730D01*
X145724500Y-101364707D01*
X145704815Y-101431746D01*
X145652011Y-101477501D01*
X145582853Y-101487445D01*
X145559548Y-101481749D01*
X145550383Y-101478542D01*
X145550379Y-101478541D01*
X145519608Y-101475656D01*
X145519604Y-101475656D01*
X145099876Y-101475656D01*
X145099872Y-101475656D01*
X145069100Y-101478541D01*
X145050190Y-101485158D01*
X144980411Y-101488717D01*
X144919785Y-101453987D01*
X144887560Y-101391992D01*
X144885239Y-101368115D01*
X144885239Y-100416973D01*
X144885239Y-100416966D01*
X144885085Y-100415637D01*
X144882326Y-100391842D01*
X144882325Y-100391840D01*
X144882325Y-100391839D01*
X144836946Y-100289065D01*
X144810062Y-100262181D01*
X144776577Y-100200858D01*
X144781561Y-100131166D01*
X144823433Y-100075233D01*
X144888897Y-100050816D01*
X144897743Y-100050500D01*
X147709232Y-100050500D01*
X147776271Y-100070185D01*
G37*
%TD.AperFunction*%
%TD*%
M02*
