M48
; DRILL file {KiCad 8.0.7} date 2025-01-03T12:22:39+0200
; FORMAT={-:-/ absolute / inch / decimal}
; #@! TF.CreationDate,2025-01-03T12:22:39+02:00
; #@! TF.GenerationSoftware,Kicad,Pcbnew,8.0.7
; #@! TF.FileFunction,Plated,1,2,PTH
FMAT,2
INCH
; #@! TA.AperFunction,Plated,PTH,ViaDrill
T1C0.0118
; #@! TA.AperFunction,Plated,PTH,ComponentDrill
T2C0.0300
; #@! TA.AperFunction,Plated,PTH,ComponentDrill
T3C0.0394
%
G90
G05
T1
X5.5787Y-4.2736
X5.5787Y-4.3051
X5.626Y-4.128
X5.6476Y-4.4055
X5.6752Y-4.4055
X5.7165Y-3.9705
X5.7205Y-4.5039
X5.7211Y-4.1557
X5.749Y-4.1703
X5.7756Y-4.2067
X5.8071Y-4.376
X5.8071Y-4.5728
X5.8091Y-4.4528
X5.8346Y-4.2717
X5.8346Y-4.3051
X5.8399Y-3.9587
X5.8465Y-4.4646
X5.878Y-4.1161
X5.9055Y-4.4626
X5.9252Y-4.5807
X6.0079Y-4.2677
X6.0236Y-4.3898
X6.0256Y-4.2343
X6.063Y-4.159
X6.122Y-4.1826
X6.1284Y-4.3602
X6.1654Y-4.0807
T2
X6.2069Y-3.9963
X6.2738Y-4.0396
T3
X5.4617Y-4.1544
X5.4617Y-4.2544
X5.4617Y-4.3544
X5.4617Y-4.4544
X5.4617Y-4.5544
X6.2118Y-4.5941
X6.2618Y-4.1547
X6.2618Y-4.2547
X6.2618Y-4.3547
X6.2618Y-4.4547
X6.3118Y-4.5941
M30
