%TF.GenerationSoftware,KiCad,Pcbnew,8.0.3*%
%TF.CreationDate,2024-11-13T23:51:52+02:00*%
%TF.ProjectId,ProvisioningJig_v3,50726f76-6973-4696-9f6e-696e674a6967,rev?*%
%TF.SameCoordinates,Original*%
%TF.FileFunction,Soldermask,Top*%
%TF.FilePolarity,Negative*%
%FSLAX46Y46*%
G04 Gerber Fmt 4.6, Leading zero omitted, Abs format (unit mm)*
G04 Created by KiCad (PCBNEW 8.0.3) date 2024-11-13 23:51:52*
%MOMM*%
%LPD*%
G01*
G04 APERTURE LIST*
G04 Aperture macros list*
%AMRoundRect*
0 Rectangle with rounded corners*
0 $1 Rounding radius*
0 $2 $3 $4 $5 $6 $7 $8 $9 X,Y pos of 4 corners*
0 Add a 4 corners polygon primitive as box body*
4,1,4,$2,$3,$4,$5,$6,$7,$8,$9,$2,$3,0*
0 Add four circle primitives for the rounded corners*
1,1,$1+$1,$2,$3*
1,1,$1+$1,$4,$5*
1,1,$1+$1,$6,$7*
1,1,$1+$1,$8,$9*
0 Add four rect primitives between the rounded corners*
20,1,$1+$1,$2,$3,$4,$5,0*
20,1,$1+$1,$4,$5,$6,$7,0*
20,1,$1+$1,$6,$7,$8,$9,0*
20,1,$1+$1,$8,$9,$2,$3,0*%
%AMFreePoly0*
4,1,19,0.550000,-0.750000,0.000000,-0.750000,0.000000,-0.744911,-0.071157,-0.744911,-0.207708,-0.704816,-0.327430,-0.627875,-0.420627,-0.520320,-0.479746,-0.390866,-0.500000,-0.250000,-0.500000,0.250000,-0.479746,0.390866,-0.420627,0.520320,-0.327430,0.627875,-0.207708,0.704816,-0.071157,0.744911,0.000000,0.744911,0.000000,0.750000,0.550000,0.750000,0.550000,-0.750000,0.550000,-0.750000,
$1*%
%AMFreePoly1*
4,1,19,0.000000,0.744911,0.071157,0.744911,0.207708,0.704816,0.327430,0.627875,0.420627,0.520320,0.479746,0.390866,0.500000,0.250000,0.500000,-0.250000,0.479746,-0.390866,0.420627,-0.520320,0.327430,-0.627875,0.207708,-0.704816,0.071157,-0.744911,0.000000,-0.744911,0.000000,-0.750000,-0.550000,-0.750000,-0.550000,0.750000,0.000000,0.750000,0.000000,0.744911,0.000000,0.744911,
$1*%
G04 Aperture macros list end*
%ADD10FreePoly0,270.000000*%
%ADD11R,1.500000X1.000000*%
%ADD12FreePoly1,270.000000*%
%ADD13RoundRect,0.200000X-0.275000X0.200000X-0.275000X-0.200000X0.275000X-0.200000X0.275000X0.200000X0*%
%ADD14RoundRect,0.250000X0.262500X0.450000X-0.262500X0.450000X-0.262500X-0.450000X0.262500X-0.450000X0*%
%ADD15RoundRect,0.250000X-0.312500X-0.625000X0.312500X-0.625000X0.312500X0.625000X-0.312500X0.625000X0*%
%ADD16RoundRect,0.135000X0.185000X-0.135000X0.185000X0.135000X-0.185000X0.135000X-0.185000X-0.135000X0*%
%ADD17R,1.350000X0.400000*%
%ADD18O,1.900000X1.070000*%
%ADD19O,1.300000X1.300000*%
%ADD20R,1.400000X0.600000*%
%ADD21RoundRect,0.150000X-0.825000X-0.150000X0.825000X-0.150000X0.825000X0.150000X-0.825000X0.150000X0*%
%ADD22RoundRect,0.250000X0.325000X0.650000X-0.325000X0.650000X-0.325000X-0.650000X0.325000X-0.650000X0*%
%ADD23R,1.700000X1.000000*%
%ADD24RoundRect,0.250000X0.625000X-0.312500X0.625000X0.312500X-0.625000X0.312500X-0.625000X-0.312500X0*%
%ADD25RoundRect,0.150000X0.150000X-0.587500X0.150000X0.587500X-0.150000X0.587500X-0.150000X-0.587500X0*%
%ADD26RoundRect,0.200000X-0.200000X-0.275000X0.200000X-0.275000X0.200000X0.275000X-0.200000X0.275000X0*%
%ADD27RoundRect,0.150000X-0.587500X-0.150000X0.587500X-0.150000X0.587500X0.150000X-0.587500X0.150000X0*%
%ADD28RoundRect,0.200000X0.200000X0.275000X-0.200000X0.275000X-0.200000X-0.275000X0.200000X-0.275000X0*%
%ADD29RoundRect,0.250000X0.312500X0.625000X-0.312500X0.625000X-0.312500X-0.625000X0.312500X-0.625000X0*%
%ADD30RoundRect,0.243750X-0.243750X-0.456250X0.243750X-0.456250X0.243750X0.456250X-0.243750X0.456250X0*%
%ADD31RoundRect,0.250000X-0.262500X-0.450000X0.262500X-0.450000X0.262500X0.450000X-0.262500X0.450000X0*%
%ADD32RoundRect,0.250000X-0.625000X0.312500X-0.625000X-0.312500X0.625000X-0.312500X0.625000X0.312500X0*%
%ADD33RoundRect,0.200000X0.275000X-0.200000X0.275000X0.200000X-0.275000X0.200000X-0.275000X-0.200000X0*%
%ADD34RoundRect,0.150000X0.587500X0.150000X-0.587500X0.150000X-0.587500X-0.150000X0.587500X-0.150000X0*%
%ADD35RoundRect,0.140000X-0.140000X-0.170000X0.140000X-0.170000X0.140000X0.170000X-0.140000X0.170000X0*%
%ADD36RoundRect,0.150000X-0.150000X0.587500X-0.150000X-0.587500X0.150000X-0.587500X0.150000X0.587500X0*%
%ADD37RoundRect,0.250000X-0.325000X-0.650000X0.325000X-0.650000X0.325000X0.650000X-0.325000X0.650000X0*%
%ADD38C,1.524000*%
%ADD39RoundRect,0.140000X0.170000X-0.140000X0.170000X0.140000X-0.170000X0.140000X-0.170000X-0.140000X0*%
%ADD40C,1.200000*%
%ADD41RoundRect,0.135000X-0.185000X0.135000X-0.185000X-0.135000X0.185000X-0.135000X0.185000X0.135000X0*%
%ADD42FreePoly0,90.000000*%
%ADD43FreePoly1,90.000000*%
%ADD44C,1.600000*%
%ADD45C,1.728000*%
%ADD46C,6.404000*%
G04 APERTURE END LIST*
D10*
%TO.C,JP4*%
X147300000Y-80300000D03*
D11*
X147300000Y-81600000D03*
D12*
X147300000Y-82900000D03*
%TD*%
D13*
%TO.C,R16*%
X179100000Y-74200000D03*
X179100000Y-75850000D03*
%TD*%
D14*
%TO.C,R17*%
X140212500Y-82900000D03*
X138387500Y-82900000D03*
%TD*%
D15*
%TO.C,R5*%
X133470500Y-107721400D03*
X136395500Y-107721400D03*
%TD*%
D16*
%TO.C,R15*%
X184600000Y-76810000D03*
X184600000Y-75790000D03*
%TD*%
D17*
%TO.C,J1*%
X109327000Y-86699000D03*
X109327000Y-87349000D03*
X109327000Y-87999000D03*
X109327000Y-88649000D03*
X109327000Y-89299000D03*
D18*
X106727000Y-84399000D03*
D19*
X109377000Y-85574000D03*
D20*
X106677000Y-87199000D03*
X106677000Y-88799000D03*
D19*
X109377000Y-90424000D03*
D18*
X106727000Y-91599000D03*
%TD*%
D21*
%TO.C,U5*%
X142325000Y-88795000D03*
X142325000Y-90065000D03*
X142325000Y-91335000D03*
X142325000Y-92605000D03*
X147275000Y-92605000D03*
X147275000Y-91335000D03*
X147275000Y-90065000D03*
X147275000Y-88795000D03*
%TD*%
D22*
%TO.C,C9*%
X148175000Y-85200000D03*
X145225000Y-85200000D03*
%TD*%
D23*
%TO.C,SW2*%
X116900000Y-105100000D03*
X110600000Y-105100000D03*
X116900000Y-101300000D03*
X110600000Y-101300000D03*
%TD*%
D10*
%TO.C,JP1*%
X142300000Y-80300000D03*
D11*
X142300000Y-81600000D03*
D12*
X142300000Y-82900000D03*
%TD*%
D24*
%TO.C,R7*%
X122060400Y-88411300D03*
X122060400Y-85486300D03*
%TD*%
D25*
%TO.C,Q6*%
X121434100Y-83667600D03*
X123334100Y-83667600D03*
X122384100Y-81792600D03*
%TD*%
D26*
%TO.C,R20*%
X174000000Y-75200000D03*
X175650000Y-75200000D03*
%TD*%
D27*
%TO.C,Q4*%
X178400000Y-78450000D03*
X178400000Y-80350000D03*
X180275000Y-79400000D03*
%TD*%
D16*
%TO.C,R4*%
X118600000Y-106100000D03*
X118600000Y-105080000D03*
%TD*%
D28*
%TO.C,R3*%
X136588000Y-105841800D03*
X134938000Y-105841800D03*
%TD*%
D29*
%TO.C,R1*%
X139676100Y-103733600D03*
X136751100Y-103733600D03*
%TD*%
D30*
%TO.C,D1*%
X184462500Y-85600000D03*
X186337500Y-85600000D03*
%TD*%
D16*
%TO.C,R19*%
X182100000Y-76810000D03*
X182100000Y-75790000D03*
%TD*%
D31*
%TO.C,R18*%
X149387500Y-82900000D03*
X151212500Y-82900000D03*
%TD*%
D32*
%TO.C,R6*%
X118055900Y-82223900D03*
X118055900Y-85148900D03*
%TD*%
D33*
%TO.C,R8*%
X119933200Y-85348600D03*
X119933200Y-83698600D03*
%TD*%
D30*
%TO.C,D3*%
X184462500Y-91200000D03*
X186337500Y-91200000D03*
%TD*%
D34*
%TO.C,Q8*%
X134937000Y-104250000D03*
X134937000Y-102350000D03*
X133062000Y-103300000D03*
%TD*%
D27*
%TO.C,Q2*%
X163434300Y-84429600D03*
X163434300Y-86329600D03*
X165309300Y-85379600D03*
%TD*%
D23*
%TO.C,SW1*%
X110533500Y-112963000D03*
X116833500Y-112963000D03*
X110533500Y-116763000D03*
X116833500Y-116763000D03*
%TD*%
D32*
%TO.C,R26*%
X139300000Y-86600000D03*
X139300000Y-89525000D03*
%TD*%
D35*
%TO.C,C8*%
X129900000Y-92600000D03*
X130860000Y-92600000D03*
%TD*%
D27*
%TO.C,Q3*%
X178425000Y-82000000D03*
X178425000Y-83900000D03*
X180300000Y-82950000D03*
%TD*%
D14*
%TO.C,R13*%
X150512500Y-74498200D03*
X148687500Y-74498200D03*
%TD*%
D15*
%TO.C,R10*%
X158695200Y-85039200D03*
X161620200Y-85039200D03*
%TD*%
D36*
%TO.C,Q1*%
X160371100Y-81056000D03*
X158471100Y-81056000D03*
X159421100Y-82931000D03*
%TD*%
D17*
%TO.C,J5*%
X109377000Y-76366400D03*
X109377000Y-77016400D03*
X109377000Y-77666400D03*
X109377000Y-78316400D03*
X109377000Y-78966400D03*
D18*
X106777000Y-74066400D03*
D19*
X109427000Y-75241400D03*
D20*
X106727000Y-76866400D03*
X106727000Y-78466400D03*
D19*
X109427000Y-80091400D03*
D18*
X106777000Y-81266400D03*
%TD*%
D13*
%TO.C,R14*%
X177300000Y-74175000D03*
X177300000Y-75825000D03*
%TD*%
D37*
%TO.C,C7*%
X129000000Y-94300000D03*
X131950000Y-94300000D03*
%TD*%
D38*
%TO.C,U3*%
X128923500Y-114355000D03*
X131463500Y-114355000D03*
X134003500Y-114355000D03*
X136543500Y-114355000D03*
X139083500Y-114355000D03*
X141623500Y-114355000D03*
X144163500Y-114355000D03*
X146703500Y-114355000D03*
X149243500Y-114355000D03*
X151783500Y-114355000D03*
X154323500Y-114355000D03*
X156863500Y-114355000D03*
X159403500Y-114355000D03*
X161943500Y-114355000D03*
X164483500Y-114355000D03*
X167023500Y-114355000D03*
X169563500Y-114355000D03*
X172103500Y-114355000D03*
X174643500Y-114355000D03*
X177183500Y-114355000D03*
X179723500Y-114355000D03*
X182263500Y-114355000D03*
X184803500Y-114355000D03*
X187343500Y-114355000D03*
X187343500Y-97845000D03*
X184803500Y-97845000D03*
X182263500Y-97845000D03*
X179723500Y-97845000D03*
X177183500Y-97845000D03*
X174643500Y-97845000D03*
X172103500Y-97845000D03*
X169563500Y-97845000D03*
X167023500Y-97845000D03*
X164483500Y-97845000D03*
X161943500Y-97845000D03*
X159403500Y-97845000D03*
X156863500Y-97845000D03*
X154323500Y-97845000D03*
X151783500Y-97845000D03*
X149243500Y-97845000D03*
X146703500Y-97845000D03*
X144163500Y-97845000D03*
X141623500Y-97845000D03*
X139083500Y-97845000D03*
X136543500Y-97845000D03*
X134003500Y-97845000D03*
X131463500Y-97845000D03*
X128923500Y-97845000D03*
%TD*%
D32*
%TO.C,R24*%
X150300000Y-86700000D03*
X150300000Y-89625000D03*
%TD*%
D27*
%TO.C,Q9*%
X178362500Y-85600000D03*
X178362500Y-87500000D03*
X180237500Y-86550000D03*
%TD*%
D32*
%TO.C,R22*%
X158700000Y-88265000D03*
X158700000Y-91190000D03*
%TD*%
D39*
%TO.C,C10*%
X152400000Y-85900000D03*
X152400000Y-84940000D03*
%TD*%
D38*
%TO.C,U1*%
X155500000Y-92020000D03*
X155500000Y-89480000D03*
X155500000Y-86940000D03*
X155500000Y-84400000D03*
X155500000Y-81860000D03*
X175820000Y-89480000D03*
X175820000Y-86940000D03*
X175820000Y-84400000D03*
X175820000Y-81860000D03*
D40*
X174425000Y-77835000D03*
X176125000Y-78935000D03*
D38*
X172170000Y-92015000D03*
X174695000Y-92005000D03*
%TD*%
D32*
%TO.C,R27*%
X139300000Y-91275000D03*
X139300000Y-94200000D03*
%TD*%
D31*
%TO.C,R12*%
X139075000Y-74500000D03*
X140900000Y-74500000D03*
%TD*%
D30*
%TO.C,D2*%
X184462500Y-80200000D03*
X186337500Y-80200000D03*
%TD*%
D24*
%TO.C,R21*%
X128927900Y-104053100D03*
X128927900Y-101128100D03*
%TD*%
D25*
%TO.C,Q7*%
X138011500Y-107719100D03*
X139911500Y-107719100D03*
X138961500Y-105844100D03*
%TD*%
D38*
%TO.C,U2*%
X109067600Y-72235000D03*
X111607600Y-72235000D03*
X114147600Y-72235000D03*
X116687600Y-72235000D03*
X119227600Y-72235000D03*
X111607600Y-92555000D03*
X114147600Y-92555000D03*
X116687600Y-92555000D03*
X119227600Y-92555000D03*
%TD*%
D41*
%TO.C,R2*%
X118600000Y-111980000D03*
X118600000Y-113000000D03*
%TD*%
D26*
%TO.C,R11*%
X161784300Y-82931000D03*
X163434300Y-82931000D03*
%TD*%
D32*
%TO.C,R25*%
X150300000Y-91375000D03*
X150300000Y-94300000D03*
%TD*%
D27*
%TO.C,Q5*%
X118058200Y-86764300D03*
X118058200Y-88664300D03*
X119933200Y-87714300D03*
%TD*%
D29*
%TO.C,R9*%
X164871400Y-81051400D03*
X161946400Y-81051400D03*
%TD*%
D16*
%TO.C,R23*%
X186900000Y-76810000D03*
X186900000Y-75790000D03*
%TD*%
D42*
%TO.C,JP3*%
X168800000Y-82100000D03*
D11*
X168800000Y-80800000D03*
D43*
X168800000Y-79500000D03*
%TD*%
D44*
%TO.C,J7*%
X120950000Y-78065000D03*
%TD*%
%TO.C,J6*%
X120950000Y-75565000D03*
%TD*%
%TO.C,J4*%
X113450000Y-78565000D03*
%TD*%
%TO.C,J3*%
X113450000Y-76065000D03*
%TD*%
D45*
%TO.C,J2*%
X181585000Y-69800000D03*
X179045000Y-72340000D03*
X179045000Y-69800000D03*
X176505000Y-72340000D03*
X176505000Y-69800000D03*
X173965000Y-72340000D03*
X173965000Y-69800000D03*
X171425000Y-72340000D03*
X171425000Y-69800000D03*
X168885000Y-72340000D03*
X168885000Y-69800000D03*
X166345000Y-72340000D03*
X166345000Y-69800000D03*
X163805000Y-72340000D03*
X163805000Y-69800000D03*
X161265000Y-72340000D03*
X161265000Y-69800000D03*
X158725000Y-72340000D03*
X158725000Y-69800000D03*
X156185000Y-72340000D03*
X156185000Y-69800000D03*
X153645000Y-72340000D03*
X153645000Y-69800000D03*
X151105000Y-72340000D03*
X151105000Y-69800000D03*
X148565000Y-72340000D03*
X148565000Y-69800000D03*
X146025000Y-72340000D03*
X146025000Y-69800000D03*
X143485000Y-72340000D03*
X143485000Y-69800000D03*
X140945000Y-72340000D03*
X140945000Y-69800000D03*
X138405000Y-72340000D03*
X138405000Y-69800000D03*
X135865000Y-72340000D03*
X135865000Y-69800000D03*
X133322046Y-72335910D03*
X133325000Y-69800000D03*
D46*
X186455000Y-71070000D03*
X128455000Y-71070000D03*
X128455000Y-120070000D03*
X186455000Y-120070000D03*
%TD*%
M02*
