%TF.GenerationSoftware,KiCad,Pcbnew,8.0.3*%
%TF.CreationDate,2024-11-13T23:51:52+02:00*%
%TF.ProjectId,ProvisioningJig_v3,50726f76-6973-4696-9f6e-696e674a6967,rev?*%
%TF.SameCoordinates,Original*%
%TF.FileFunction,Legend,Bot*%
%TF.FilePolarity,Positive*%
%FSLAX46Y46*%
G04 Gerber Fmt 4.6, Leading zero omitted, Abs format (unit mm)*
G04 Created by KiCad (PCBNEW 8.0.3) date 2024-11-13 23:51:52*
%MOMM*%
%LPD*%
G01*
G04 APERTURE LIST*
%ADD10C,0.254000*%
%ADD11C,0.150000*%
%ADD12C,0.100000*%
%ADD13C,0.127000*%
%ADD14C,0.400000*%
%ADD15O,1.900000X1.070000*%
%ADD16O,1.300000X1.300000*%
%ADD17C,1.524000*%
%ADD18C,1.200000*%
%ADD19C,1.600000*%
%ADD20C,1.728000*%
%ADD21C,6.404000*%
G04 APERTURE END LIST*
D10*
X121373332Y-77369318D02*
X121373332Y-78276461D01*
X121373332Y-78276461D02*
X121433809Y-78457889D01*
X121433809Y-78457889D02*
X121554761Y-78578842D01*
X121554761Y-78578842D02*
X121736190Y-78639318D01*
X121736190Y-78639318D02*
X121857142Y-78639318D01*
X120889523Y-77369318D02*
X120042856Y-77369318D01*
X120042856Y-77369318D02*
X120587142Y-78639318D01*
X121373332Y-74869318D02*
X121373332Y-75776461D01*
X121373332Y-75776461D02*
X121433809Y-75957889D01*
X121433809Y-75957889D02*
X121554761Y-76078842D01*
X121554761Y-76078842D02*
X121736190Y-76139318D01*
X121736190Y-76139318D02*
X121857142Y-76139318D01*
X120224285Y-74869318D02*
X120466190Y-74869318D01*
X120466190Y-74869318D02*
X120587142Y-74929794D01*
X120587142Y-74929794D02*
X120647618Y-74990270D01*
X120647618Y-74990270D02*
X120768571Y-75171699D01*
X120768571Y-75171699D02*
X120829047Y-75413603D01*
X120829047Y-75413603D02*
X120829047Y-75897413D01*
X120829047Y-75897413D02*
X120768571Y-76018365D01*
X120768571Y-76018365D02*
X120708094Y-76078842D01*
X120708094Y-76078842D02*
X120587142Y-76139318D01*
X120587142Y-76139318D02*
X120345237Y-76139318D01*
X120345237Y-76139318D02*
X120224285Y-76078842D01*
X120224285Y-76078842D02*
X120163809Y-76018365D01*
X120163809Y-76018365D02*
X120103332Y-75897413D01*
X120103332Y-75897413D02*
X120103332Y-75595032D01*
X120103332Y-75595032D02*
X120163809Y-75474080D01*
X120163809Y-75474080D02*
X120224285Y-75413603D01*
X120224285Y-75413603D02*
X120345237Y-75353127D01*
X120345237Y-75353127D02*
X120587142Y-75353127D01*
X120587142Y-75353127D02*
X120708094Y-75413603D01*
X120708094Y-75413603D02*
X120768571Y-75474080D01*
X120768571Y-75474080D02*
X120829047Y-75595032D01*
X113873332Y-77869318D02*
X113873332Y-78776461D01*
X113873332Y-78776461D02*
X113933809Y-78957889D01*
X113933809Y-78957889D02*
X114054761Y-79078842D01*
X114054761Y-79078842D02*
X114236190Y-79139318D01*
X114236190Y-79139318D02*
X114357142Y-79139318D01*
X112724285Y-78292651D02*
X112724285Y-79139318D01*
X113026666Y-77808842D02*
X113329047Y-78715984D01*
X113329047Y-78715984D02*
X112542856Y-78715984D01*
X113873332Y-75369318D02*
X113873332Y-76276461D01*
X113873332Y-76276461D02*
X113933809Y-76457889D01*
X113933809Y-76457889D02*
X114054761Y-76578842D01*
X114054761Y-76578842D02*
X114236190Y-76639318D01*
X114236190Y-76639318D02*
X114357142Y-76639318D01*
X113389523Y-75369318D02*
X112603332Y-75369318D01*
X112603332Y-75369318D02*
X113026666Y-75853127D01*
X113026666Y-75853127D02*
X112845237Y-75853127D01*
X112845237Y-75853127D02*
X112724285Y-75913603D01*
X112724285Y-75913603D02*
X112663809Y-75974080D01*
X112663809Y-75974080D02*
X112603332Y-76095032D01*
X112603332Y-76095032D02*
X112603332Y-76397413D01*
X112603332Y-76397413D02*
X112663809Y-76518365D01*
X112663809Y-76518365D02*
X112724285Y-76578842D01*
X112724285Y-76578842D02*
X112845237Y-76639318D01*
X112845237Y-76639318D02*
X113208094Y-76639318D01*
X113208094Y-76639318D02*
X113329047Y-76578842D01*
X113329047Y-76578842D02*
X113389523Y-76518365D01*
D11*
X187363333Y-65389819D02*
X187363333Y-66104104D01*
X187363333Y-66104104D02*
X187410952Y-66246961D01*
X187410952Y-66246961D02*
X187506190Y-66342200D01*
X187506190Y-66342200D02*
X187649047Y-66389819D01*
X187649047Y-66389819D02*
X187744285Y-66389819D01*
X186934761Y-65485057D02*
X186887142Y-65437438D01*
X186887142Y-65437438D02*
X186791904Y-65389819D01*
X186791904Y-65389819D02*
X186553809Y-65389819D01*
X186553809Y-65389819D02*
X186458571Y-65437438D01*
X186458571Y-65437438D02*
X186410952Y-65485057D01*
X186410952Y-65485057D02*
X186363333Y-65580295D01*
X186363333Y-65580295D02*
X186363333Y-65675533D01*
X186363333Y-65675533D02*
X186410952Y-65818390D01*
X186410952Y-65818390D02*
X186982380Y-66389819D01*
X186982380Y-66389819D02*
X186363333Y-66389819D01*
D12*
%TO.C,J7*%
X120950000Y-76965000D02*
X120950000Y-76965000D01*
X120950000Y-79165000D02*
X120950000Y-79165000D01*
X120950000Y-76965000D02*
G75*
G02*
X120950000Y-79165000I0J-1100000D01*
G01*
X120950000Y-79165000D02*
G75*
G02*
X120950000Y-76965000I0J1100000D01*
G01*
%TO.C,J6*%
X120950000Y-74465000D02*
X120950000Y-74465000D01*
X120950000Y-76665000D02*
X120950000Y-76665000D01*
X120950000Y-74465000D02*
G75*
G02*
X120950000Y-76665000I0J-1100000D01*
G01*
X120950000Y-76665000D02*
G75*
G02*
X120950000Y-74465000I0J1100000D01*
G01*
%TO.C,J4*%
X113450000Y-77465000D02*
X113450000Y-77465000D01*
X113450000Y-79665000D02*
X113450000Y-79665000D01*
X113450000Y-77465000D02*
G75*
G02*
X113450000Y-79665000I0J-1100000D01*
G01*
X113450000Y-79665000D02*
G75*
G02*
X113450000Y-77465000I0J1100000D01*
G01*
%TO.C,J3*%
X113450000Y-74965000D02*
X113450000Y-74965000D01*
X113450000Y-77165000D02*
X113450000Y-77165000D01*
X113450000Y-74965000D02*
G75*
G02*
X113450000Y-77165000I0J-1100000D01*
G01*
X113450000Y-77165000D02*
G75*
G02*
X113450000Y-74965000I0J1100000D01*
G01*
D13*
%TO.C,J2*%
X104955000Y-70570000D02*
X104955000Y-120570000D01*
X107955000Y-123570000D02*
X186955000Y-123570000D01*
X186955000Y-67570000D02*
X107955000Y-67570000D01*
X189955000Y-120570000D02*
X189955000Y-70570000D01*
X104955000Y-70570000D02*
G75*
G02*
X107955000Y-67570000I3000000J0D01*
G01*
X107955000Y-123570000D02*
G75*
G02*
X104955000Y-120570000I0J3000000D01*
G01*
X186955000Y-67570000D02*
G75*
G02*
X189955000Y-70570000I-1J-3000001D01*
G01*
X189955000Y-120570000D02*
G75*
G02*
X186955000Y-123570000I-3000001J1D01*
G01*
D14*
X191055000Y-72570000D02*
G75*
G02*
X190655000Y-72570000I-200000J0D01*
G01*
X190655000Y-72570000D02*
G75*
G02*
X191055000Y-72570000I200000J0D01*
G01*
%TD*%
%LPC*%
D15*
%TO.C,J1*%
X106727000Y-84399000D03*
D16*
X109377000Y-85574000D03*
X109377000Y-90424000D03*
D15*
X106727000Y-91599000D03*
%TD*%
%TO.C,J5*%
X106777000Y-74066400D03*
D16*
X109427000Y-75241400D03*
X109427000Y-80091400D03*
D15*
X106777000Y-81266400D03*
%TD*%
D17*
%TO.C,U3*%
X128923500Y-114355000D03*
X131463500Y-114355000D03*
X134003500Y-114355000D03*
X136543500Y-114355000D03*
X139083500Y-114355000D03*
X141623500Y-114355000D03*
X144163500Y-114355000D03*
X146703500Y-114355000D03*
X149243500Y-114355000D03*
X151783500Y-114355000D03*
X154323500Y-114355000D03*
X156863500Y-114355000D03*
X159403500Y-114355000D03*
X161943500Y-114355000D03*
X164483500Y-114355000D03*
X167023500Y-114355000D03*
X169563500Y-114355000D03*
X172103500Y-114355000D03*
X174643500Y-114355000D03*
X177183500Y-114355000D03*
X179723500Y-114355000D03*
X182263500Y-114355000D03*
X184803500Y-114355000D03*
X187343500Y-114355000D03*
X187343500Y-97845000D03*
X184803500Y-97845000D03*
X182263500Y-97845000D03*
X179723500Y-97845000D03*
X177183500Y-97845000D03*
X174643500Y-97845000D03*
X172103500Y-97845000D03*
X169563500Y-97845000D03*
X167023500Y-97845000D03*
X164483500Y-97845000D03*
X161943500Y-97845000D03*
X159403500Y-97845000D03*
X156863500Y-97845000D03*
X154323500Y-97845000D03*
X151783500Y-97845000D03*
X149243500Y-97845000D03*
X146703500Y-97845000D03*
X144163500Y-97845000D03*
X141623500Y-97845000D03*
X139083500Y-97845000D03*
X136543500Y-97845000D03*
X134003500Y-97845000D03*
X131463500Y-97845000D03*
X128923500Y-97845000D03*
%TD*%
%TO.C,U1*%
X155500000Y-92020000D03*
X155500000Y-89480000D03*
X155500000Y-86940000D03*
X155500000Y-84400000D03*
X155500000Y-81860000D03*
X175820000Y-89480000D03*
X175820000Y-86940000D03*
X175820000Y-84400000D03*
X175820000Y-81860000D03*
D18*
X174425000Y-77835000D03*
X176125000Y-78935000D03*
D17*
X172170000Y-92015000D03*
X174695000Y-92005000D03*
%TD*%
%TO.C,U2*%
X109067600Y-72235000D03*
X111607600Y-72235000D03*
X114147600Y-72235000D03*
X116687600Y-72235000D03*
X119227600Y-72235000D03*
X111607600Y-92555000D03*
X114147600Y-92555000D03*
X116687600Y-92555000D03*
X119227600Y-92555000D03*
%TD*%
D19*
%TO.C,J7*%
X120950000Y-78065000D03*
%TD*%
%TO.C,J6*%
X120950000Y-75565000D03*
%TD*%
%TO.C,J4*%
X113450000Y-78565000D03*
%TD*%
%TO.C,J3*%
X113450000Y-76065000D03*
%TD*%
D20*
%TO.C,J2*%
X181585000Y-69800000D03*
X179045000Y-72340000D03*
X179045000Y-69800000D03*
X176505000Y-72340000D03*
X176505000Y-69800000D03*
X173965000Y-72340000D03*
X173965000Y-69800000D03*
X171425000Y-72340000D03*
X171425000Y-69800000D03*
X168885000Y-72340000D03*
X168885000Y-69800000D03*
X166345000Y-72340000D03*
X166345000Y-69800000D03*
X163805000Y-72340000D03*
X163805000Y-69800000D03*
X161265000Y-72340000D03*
X161265000Y-69800000D03*
X158725000Y-72340000D03*
X158725000Y-69800000D03*
X156185000Y-72340000D03*
X156185000Y-69800000D03*
X153645000Y-72340000D03*
X153645000Y-69800000D03*
X151105000Y-72340000D03*
X151105000Y-69800000D03*
X148565000Y-72340000D03*
X148565000Y-69800000D03*
X146025000Y-72340000D03*
X146025000Y-69800000D03*
X143485000Y-72340000D03*
X143485000Y-69800000D03*
X140945000Y-72340000D03*
X140945000Y-69800000D03*
X138405000Y-72340000D03*
X138405000Y-69800000D03*
X135865000Y-72340000D03*
X135865000Y-69800000D03*
X133322046Y-72335910D03*
X133325000Y-69800000D03*
D21*
X186455000Y-71070000D03*
X128455000Y-71070000D03*
X128455000Y-120070000D03*
X186455000Y-120070000D03*
%TD*%
%LPD*%
M02*
