M48
; DRILL file {KiCad 8.0.3} date 2024-11-13T23:51:52+0200
; FORMAT={-:-/ absolute / inch / decimal}
; #@! TF.CreationDate,2024-11-13T23:51:52+02:00
; #@! TF.GenerationSoftware,Kicad,Pcbnew,8.0.3
; #@! TF.FileFunction,Plated,1,2,PTH
FMAT,2
INCH
; #@! TA.AperFunction,Plated,PTH,ViaDrill
T1C0.0118
; #@! TA.AperFunction,Plated,PTH,ComponentDrill
T2C0.0197
; #@! TA.AperFunction,Plated,PTH,ComponentDrill
T3C0.0276
; #@! TA.AperFunction,Plated,PTH,ComponentDrill
T4C0.0300
; #@! TA.AperFunction,Plated,PTH,ComponentDrill
T5C0.0400
; #@! TA.AperFunction,Plated,PTH,ComponentDrill
T6C0.1083
%
G90
G05
T1
X4.378Y-3.0282
X4.378Y-3.0617
X4.69Y-3.0073
X4.69Y-3.0407
X4.7047Y-4.374
X4.7244Y-4.3543
X4.7402Y-3.2202
X4.7441Y-4.3346
X4.8898Y-4.4528
X4.9134Y-3.3071
X4.9134Y-3.3386
X4.9134Y-3.3701
X4.9134Y-3.4016
X4.9134Y-3.4331
X4.9134Y-3.4646
X4.9134Y-4.4291
X4.9409Y-4.4016
X4.9606Y-3.3701
X4.9646Y-4.378
X4.9921Y-4.3504
X4.9961Y-3.3701
X5.0Y-4.0394
X5.0157Y-4.1772
X5.0157Y-4.2087
X5.0157Y-4.2402
X5.0354Y-3.3701
X5.0709Y-3.3701
X5.1063Y-3.3701
X5.1378Y-4.2402
X5.1417Y-3.3701
X5.1811Y-3.3701
X5.3268Y-3.7126
X5.3307Y-3.9803
X5.3442Y-3.2477
X5.3622Y-3.4094
X5.3661Y-3.7126
X5.3661Y-3.9803
X5.3898Y-3.4094
X5.4016Y-3.3071
X5.4016Y-3.7126
X5.4055Y-3.9803
X5.4173Y-3.4094
X5.4449Y-3.9803
X5.4488Y-3.3228
X5.4646Y-3.3425
X5.4803Y-3.3622
X5.4803Y-3.9803
X5.5472Y-3.7126
X5.5598Y-3.0669
X5.5827Y-3.7126
X5.6181Y-3.7126
X5.7087Y-3.7126
X5.748Y-3.7126
X5.7677Y-3.0669
X5.7874Y-3.7126
X5.7992Y-3.4134
X5.7992Y-3.4449
X5.8228Y-3.7126
X5.8346Y-3.4134
X5.9764Y-3.6732
X6.0157Y-2.9134
X6.0197Y-3.0433
X6.0197Y-3.0709
X6.0197Y-3.0984
X6.0197Y-3.126
X6.0197Y-3.1535
X6.0197Y-3.1811
X6.0197Y-3.2087
X6.0197Y-3.2362
X6.0197Y-3.2638
X6.0394Y-2.937
X6.063Y-2.9606
X6.315Y-3.4173
X6.315Y-3.4449
X6.315Y-3.4724
X6.3465Y-3.4173
X6.3465Y-3.4449
X6.3465Y-3.4724
X6.378Y-3.4173
X6.378Y-3.4449
X6.378Y-3.4724
X6.6457Y-3.063
X7.0276Y-3.3386
X7.0276Y-3.4961
X7.0276Y-3.5236
X7.0276Y-3.5512
X7.0866Y-3.685
X7.1102Y-3.2205
X7.1181Y-3.685
X7.1299Y-2.8071
X7.1299Y-2.8425
X7.1299Y-2.878
X7.1299Y-2.9134
X7.1299Y-2.9449
X7.1417Y-3.2205
X7.1496Y-3.685
X7.1732Y-2.8071
X7.1732Y-2.8425
X7.1732Y-2.878
X7.1732Y-2.9134
X7.1732Y-2.9449
X7.1732Y-3.2205
X7.1811Y-3.6299
X7.1811Y-3.6575
X7.1811Y-3.685
X7.2047Y-3.2205
X7.2126Y-3.685
X7.2441Y-3.685
X7.2756Y-3.685
T3
X4.3062Y-3.3691
X4.3062Y-3.56
X4.3081Y-2.9623
X4.3081Y-3.1532
T4
X4.294Y-2.8439
X4.394Y-2.8439
X4.394Y-3.6439
X4.4665Y-2.9947
X4.4665Y-3.0931
X4.494Y-2.8439
X4.494Y-3.6439
X4.594Y-2.8439
X4.594Y-3.6439
X4.694Y-2.8439
X4.694Y-3.6439
X4.7618Y-2.975
X4.7618Y-3.0734
X5.0757Y-3.8522
X5.0757Y-4.5022
X5.1757Y-3.8522
X5.1757Y-4.5022
X5.2757Y-3.8522
X5.2757Y-4.5022
X5.3757Y-3.8522
X5.3757Y-4.5022
X5.4757Y-3.8522
X5.4757Y-4.5022
X5.5757Y-3.8522
X5.5757Y-4.5022
X5.6757Y-3.8522
X5.6757Y-4.5022
X5.7757Y-3.8522
X5.7757Y-4.5022
X5.8757Y-3.8522
X5.8757Y-4.5022
X5.9757Y-3.8522
X5.9757Y-4.5022
X6.0757Y-3.8522
X6.0757Y-4.5022
X6.122Y-3.2228
X6.122Y-3.3228
X6.122Y-3.4228
X6.122Y-3.5228
X6.122Y-3.6228
X6.1757Y-3.8522
X6.1757Y-4.5022
X6.2757Y-3.8522
X6.2757Y-4.5022
X6.3757Y-3.8522
X6.3757Y-4.5022
X6.4757Y-3.8522
X6.4757Y-4.5022
X6.5757Y-3.8522
X6.5757Y-4.5022
X6.6757Y-3.8522
X6.6757Y-4.5022
X6.7757Y-3.8522
X6.7757Y-4.5022
X6.7783Y-3.6226
X6.8671Y-3.0644
X6.8757Y-3.8522
X6.8757Y-4.5022
X6.8778Y-3.6222
X6.922Y-3.2228
X6.922Y-3.3228
X6.922Y-3.4228
X6.922Y-3.5228
X6.9341Y-3.1077
X6.9757Y-3.8522
X6.9757Y-4.5022
X7.0757Y-3.8522
X7.0757Y-4.5022
X7.1757Y-3.8522
X7.1757Y-4.5022
X7.2757Y-3.8522
X7.2757Y-4.5022
X7.3757Y-3.8522
X7.3757Y-4.5022
T5
X5.2489Y-2.8479
X5.249Y-2.748
X5.349Y-2.748
X5.349Y-2.848
X5.449Y-2.748
X5.449Y-2.848
X5.549Y-2.748
X5.549Y-2.848
X5.649Y-2.748
X5.649Y-2.848
X5.749Y-2.748
X5.749Y-2.848
X5.849Y-2.748
X5.849Y-2.848
X5.949Y-2.748
X5.949Y-2.848
X6.049Y-2.748
X6.049Y-2.848
X6.149Y-2.748
X6.149Y-2.848
X6.249Y-2.748
X6.249Y-2.848
X6.349Y-2.748
X6.349Y-2.848
X6.449Y-2.748
X6.449Y-2.848
X6.549Y-2.748
X6.549Y-2.848
X6.649Y-2.748
X6.649Y-2.848
X6.749Y-2.748
X6.749Y-2.848
X6.849Y-2.748
X6.849Y-2.848
X6.949Y-2.748
X6.949Y-2.848
X7.049Y-2.748
X7.049Y-2.848
X7.149Y-2.748
T6
X5.0573Y-2.798
X5.0573Y-4.7272
X7.3407Y-2.798
X7.3407Y-4.7272
T2
G00X4.2176Y-3.3228
M15
G01X4.1861Y-3.3228
M16
G05
G00X4.2176Y-3.6063
M15
G01X4.1861Y-3.6063
M16
G05
G00X4.2196Y-2.916
M15
G01X4.1881Y-2.916
M16
G05
G00X4.2196Y-3.1995
M15
G01X4.1881Y-3.1995
M16
G05
M30
